<?xml version="1.0" encoding="UTF-8" standalone="no"?>
<!-- Created with Inkscape (http://www.inkscape.org/) -->

<svg
   xmlns:dc="http://purl.org/dc/elements/1.1/"
   xmlns:cc="http://creativecommons.org/ns#"
   xmlns:rdf="http://www.w3.org/1999/02/22-rdf-syntax-ns#"
   xmlns:svg="http://www.w3.org/2000/svg"
   xmlns="http://www.w3.org/2000/svg"
   xmlns:sodipodi="http://sodipodi.sourceforge.net/DTD/sodipodi-0.dtd"
   xmlns:inkscape="http://www.inkscape.org/namespaces/inkscape"
   width="744.09448"
   height="1052.3622"
   id="svg7781"
   version="1.1"
   inkscape:version="0.91pre2 r13516"
   viewBox="0 0 744.09448 1052.3622"
   sodipodi:docname="drawing.svg">
  <defs
     id="defs7783" />
  <sodipodi:namedview
     id="base"
     pagecolor="#ffffff"
     bordercolor="#666666"
     borderopacity="1.0"
     inkscape:pageopacity="1"
     inkscape:pageshadow="2"
     inkscape:zoom="3.959798"
     inkscape:cx="232.99085"
     inkscape:cy="688.4585"
     inkscape:document-units="px"
     inkscape:current-layer="layer1"
     showgrid="false"
     inkscape:window-width="1678"
     inkscape:window-height="986"
     inkscape:window-x="0"
     inkscape:window-y="27"
     inkscape:window-maximized="1" />
  <metadata
     id="metadata7786">
    <rdf:RDF>
      <cc:Work
         rdf:about="">
        <dc:format>image/svg+xml</dc:format>
        <dc:type
           rdf:resource="http://purl.org/dc/dcmitype/StillImage" />
        <dc:title />
      </cc:Work>
    </rdf:RDF>
  </metadata>
  <g
     inkscape:label="Layer 1"
     inkscape:groupmode="layer"
     id="layer1">
    <path
       inkscape:export-ydpi="199.81471"
       inkscape:export-xdpi="199.81471"
       inkscape:export-filename="/home/alexvsharp/Desktop/jjj"
       style="display:inline;fill:#ffffff;fill-opacity:1;fill-rule:evenodd;stroke:none"
       d="m 188.70439,100.01424 c 18.5742,24.06378 5.02947,40.39439 -8.96753,49.27114"
       id="path4867"
       inkscape:connector-curvature="0"
       sodipodi:nodetypes="cc" />
    <path
       inkscape:export-ydpi="199.81471"
       inkscape:export-xdpi="199.81471"
       inkscape:export-filename="/home/alexvsharp/Desktop/jjj"
       sodipodi:nodetypes="cc"
       inkscape:connector-curvature="0"
       id="path4869"
       d="m 150.25008,112.98654 c 13.52344,17.24526 21.64194,26.85331 28.9817,36.2357"
       style="display:inline;fill:#ebebeb;fill-opacity:1;fill-rule:evenodd;stroke:none" />
    <path
       sodipodi:nodetypes="ccccccccccccc"
       inkscape:connector-curvature="0"
       id="path8291"
       d="m 130.50299,775.21103 c -18.0773,2.95714 -37.124902,6.10879 -56.811602,9.48556 0,0 20.2424,-72.56802 11.2995,-257.13006 12.5195,-44.09892 39.347202,-66.14831 39.347202,-66.14831 l -22.3564,-40.01568 -19.673602,-14.69962 c 24.592102,-37.15741 30.404602,-88.19781 33.981802,-127.39682 33.9822,-40.83231 43.06878,-16.38788 80.14344,-38.41111 l 25.90546,-3.66745 c 38.78044,-5.57194 2.34005,28.57419 52.62345,24.58119 l 12.73065,25.47988 41.4308,109.61454 -46.5013,77.58142"
       style="display:inline;fill:#006ea1;fill-opacity:1;stroke:#00283c;stroke-width:2.61068463px;stroke-linecap:butt;stroke-linejoin:miter;stroke-opacity:1"
       inkscape:export-filename="/home/alexvsharp/Desktop/jjj"
       inkscape:export-xdpi="199.81471"
       inkscape:export-ydpi="199.81471" />
    <path
       sodipodi:nodetypes="cccsccc"
       inkscape:connector-curvature="0"
       id="path4471"
       d="m 197.79589,317.34578 c -3.9618,2.12923 -26.0549,23.28212 -33.8458,30.40816 0.984,14.6793 -3.195,44.58186 -15.5791,59.5069 4.9549,0.89579 25.2183,-2.78494 25.7209,12.63482 0.9737,29.86887 16.5839,48.96845 31.1261,56.97426 l 8.923,3.58505 c 15.1659,8.12719 -28.9965,-142.23324 -16.3451,-163.10919 z"
       style="display:inline;fill:#075c83;fill-opacity:1;fill-rule:evenodd;stroke:none"
       inkscape:export-filename="/home/alexvsharp/Desktop/jjj"
       inkscape:export-xdpi="199.81471"
       inkscape:export-ydpi="199.81471" />
    <path
       style="display:inline;fill:#075c83;fill-opacity:1;stroke:none"
       d="m 75.048688,783.47935 c -0.018,-0.006 96.861902,-240.08669 109.502702,-273.09716 -2.1734,105.65118 -60.9424,265.11464 -60.9424,265.11464 z"
       id="path4555"
       inkscape:connector-curvature="0"
       sodipodi:nodetypes="cccc"
       inkscape:export-filename="/home/alexvsharp/Desktop/jjj"
       inkscape:export-xdpi="199.81471"
       inkscape:export-ydpi="199.81471" />
    <path
       style="display:inline;fill:#075c83;fill-opacity:1;fill-rule:evenodd;stroke:none"
       d="m 114.95239,429.96324 c 0,0 -3.6074,-3.66795 -12.7155,-10.30517 3.3652,3.85631 14.3199,28.78691 23.7195,41.89842 0.6853,0.95589 4.2328,0.074 11.8345,2.71656 -8.0821,-4.3058 -25.7409,-29.91219 -22.8385,-34.30981 z"
       id="path4505"
       inkscape:connector-curvature="0"
       sodipodi:nodetypes="ccscc"
       inkscape:export-filename="/home/alexvsharp/Desktop/jjj"
       inkscape:export-xdpi="199.81471"
       inkscape:export-ydpi="199.81471" />
    <path
       sodipodi:nodetypes="cc"
       inkscape:connector-curvature="0"
       id="path4483"
       d="m 141.66261,11.44028 c -5.8693,2.22612 -27.597,-3.37532 -39.7718,7.62371"
       style="display:inline;fill:#ebebeb;fill-opacity:1;fill-rule:evenodd;stroke:none"
       inkscape:export-filename="/home/alexvsharp/Desktop/jjj"
       inkscape:export-xdpi="199.81471"
       inkscape:export-ydpi="199.81471" />
    <path
       style="display:inline;fill:#ebebeb;fill-opacity:1;fill-rule:evenodd;stroke:none"
       d="M 100.69391,5.65373 C 93.204411,7.99558 79.230611,16.97624 65.088411,33.64609"
       id="path4487"
       inkscape:connector-curvature="0"
       sodipodi:nodetypes="cc"
       inkscape:export-filename="/home/alexvsharp/Desktop/jjj"
       inkscape:export-xdpi="199.81471"
       inkscape:export-ydpi="199.81471" />
    <path
       sodipodi:nodetypes="cc"
       inkscape:connector-curvature="0"
       id="path4491"
       d="m 63.641776,43.984683 c -0.2881,6.43356 -2.414565,21.205735 -10.510343,33.746484"
       style="display:inline;fill:#ebebeb;fill-opacity:1;fill-rule:evenodd;stroke:none"
       inkscape:export-filename="/home/alexvsharp/Desktop/jjj"
       inkscape:export-xdpi="199.81471"
       inkscape:export-ydpi="199.81471" />
    <path
       sodipodi:nodetypes="ccccccc"
       inkscape:connector-curvature="0"
       id="path8293"
       d="m 171.29359,407.92814 -14.8578,25.37209 c 0,0 13.2935,-4.09229 17.9855,-9.00298 -10.1654,18.82445 -5.4737,31.91976 -5.4737,31.91976 0,0 9.3837,-13.09531 13.2934,-17.18757 0.782,10.63991 26.5875,38.46734 33.4298,36.62586 -11.3107,-32.05081 -13.8806,-87.88761 -44.3772,-67.72716 z"
       style="display:inline;fill:#011f31;fill-opacity:1;stroke:#000000;stroke-width:2.44399357;stroke-opacity:1"
       inkscape:export-filename="/home/alexvsharp/Desktop/jjj"
       inkscape:export-xdpi="199.81471"
       inkscape:export-ydpi="199.81471" />
    <path
       inkscape:export-ydpi="199.81471"
       inkscape:export-xdpi="199.81471"
       inkscape:export-filename="/home/alexvsharp/Desktop/jjj"
       style="display:inline;fill:#006ea1;fill-opacity:1;stroke:#00283c;stroke-width:2.61068463px;stroke-linecap:butt;stroke-linejoin:miter;stroke-opacity:1"
       d="M 265.9105,683.04148 C 160.94572,680.82257 167.45941,612.3916 221.5417,581.64403 l 139.47814,26.22551 c -39.6632,-85.40506 -31.4257,-40.2983 -50.13947,-98.9585 l 15.34273,-8.91575 37.13887,1.58096 7.33279,7.73345 c 30.80445,60.14713 59.47286,89.15004 72.11769,183.76134 0,0 -122.66423,-25.18588 -125.74385,-7.13308"
       id="path4859-9"
       inkscape:connector-curvature="0"
       sodipodi:nodetypes="ccccccccc"
       inkscape:transform-center-x="186.62423"
       inkscape:transform-center-y="-169.39557" />
    <path
       inkscape:export-ydpi="199.81471"
       inkscape:export-xdpi="199.81471"
       inkscape:export-filename="/home/alexvsharp/Desktop/jjj"
       style="display:inline;fill:#075c83;fill-opacity:1;fill-rule:evenodd;stroke:none"
       d="m 421.6528,610.7894 c -0.16176,67.56788 -91.08438,36.35428 -101.42411,29.23112 4.0265,0.0731 -12.87933,54.71884 -3.00969,42.82586 10.13629,-12.2143 120.88232,6.84979 124.46774,8.9838 -1.15035,-17.79238 -10.67018,-58.58066 -20.03394,-81.04078 z"
       id="path4863"
       inkscape:connector-curvature="0"
       sodipodi:nodetypes="ccscc" />
    <path
       sodipodi:nodetypes="cccccccccccccc"
       inkscape:connector-curvature="0"
       id="path8297"
       d="m 169.94569,354.43755 c 0,0 2.2354,34.29917 -15.2026,59.6152 l 23.2508,-6.53319 2.6828,26.13268 9.8367,-7.34983 c 0,0 3.1533,26.10667 23.7216,49.78938 -22.3565,73.49814 -110.3934,324.67781 -110.3934,324.67781 l 180.1932,0 63.3773,-187.97689 c 0,0 -50.9287,-116.25878 -65.2369,-135.85824 11.6254,-19.59949 42.3873,-76.28131 49.4428,-78.16284 l -46.645,-107.21178 -78.1998,13.29852 z"
       style="display:inline;fill:#ffffff;fill-opacity:1;stroke:#00283c;stroke-width:2.61068463px;stroke-linecap:butt;stroke-linejoin:miter;stroke-opacity:1"
       inkscape:export-filename="/home/alexvsharp/Desktop/jjj"
       inkscape:export-xdpi="199.81471"
       inkscape:export-ydpi="199.81471" />
    <path
       style="display:inline;fill:#011f31;fill-opacity:1;stroke:#000000;stroke-width:2.02148199;stroke-opacity:1"
       d="m 325.18179,410.54751 2.9517,26.93826 c 0,0 -7.5891,-5.17771 -9.346,-10.53037 1.63,19.92089 -4.9144,32.87992 -4.9144,32.87992 0,0 -2.6428,-14.03468 -4.1068,-18.49529 -3.3397,10.76074 -31.5592,34.69263 -31.5592,34.69263 15.9047,-31.73032 32.4292,-88.3185 46.9747,-65.48515 z"
       id="path8295"
       inkscape:connector-curvature="0"
       sodipodi:nodetypes="ccccccc"
       inkscape:export-filename="/home/alexvsharp/Desktop/jjj"
       inkscape:export-xdpi="199.81471"
       inkscape:export-ydpi="199.81471" />
    <path
       style="display:inline;fill:#dadada;fill-opacity:1;fill-rule:evenodd;stroke:none"
       d="m 263.88209,331.16404 c -11.9904,5.73173 -47.2965,50.66733 -25.6295,78.71878 -12.873,-11.86406 -24.4918,-31.53735 -30.6202,-38.33041 8.2362,-4.91958 53.3169,-38.86645 56.2497,-40.38837 z"
       id="path4461"
       inkscape:connector-curvature="0"
       sodipodi:nodetypes="cccc"
       inkscape:export-filename="/home/alexvsharp/Desktop/jjj"
       inkscape:export-xdpi="199.81471"
       inkscape:export-ydpi="199.81471" />
    <path
       sodipodi:nodetypes="cccc"
       inkscape:connector-curvature="0"
       id="path4519"
       d="m 256.70279,423.77012 c 2.1735,2.85603 14.9376,12.03433 22.774,3.13453 -2.4311,4.05513 -8.873,6.97488 -10.0798,9.56428 -1.7528,-1.90807 -12.1309,-12.0068 -12.6942,-12.69881 z"
       style="display:inline;fill:#dadada;fill-opacity:1;fill-rule:evenodd;stroke:none"
       inkscape:export-filename="/home/alexvsharp/Desktop/jjj"
       inkscape:export-xdpi="199.81471"
       inkscape:export-ydpi="199.81471" />
    <path
       sodipodi:nodetypes="cccsscc"
       inkscape:connector-curvature="0"
       id="path4495"
       d="m 286.55739,466.8249 c -12.3158,11.97524 -25.8526,22.26114 -41.9827,22.57275 10.066,3.01096 17.4078,-1.15012 21.2727,3.18182 2.9596,-5.78813 13.0083,-11.77078 13.0083,-11.77078 1.6129,-3.24566 66.6251,130.96796 66.8993,131.31511 1.9893,2.51755 -60.3441,-135.3295 -64.7846,-135.3295 0,0 3.9488,-6.96679 5.587,-9.9694 z"
       style="display:inline;fill:#dadada;fill-opacity:1;fill-rule:evenodd;stroke:none"
       inkscape:export-filename="/home/alexvsharp/Desktop/jjj"
       inkscape:export-xdpi="199.81471"
       inkscape:export-ydpi="199.81471" />
    <path
       style="display:inline;fill:#dadada;fill-opacity:1;fill-rule:evenodd;stroke:none"
       d="m 251.04659,738.54081 c 35.4708,7.88533 41.5627,24.66845 32.081,60.59579 -0.9248,3.50438 62.6857,-187.02735 62.9599,-186.6802 -37.5367,93.91974 -35.184,137.84335 -95.0409,126.08441 z"
       id="path4557"
       inkscape:connector-curvature="0"
       sodipodi:nodetypes="cscc"
       inkscape:export-filename="/home/alexvsharp/Desktop/jjj"
       inkscape:export-xdpi="199.81471"
       inkscape:export-ydpi="199.81471" />
    <path
       sodipodi:nodetypes="ccccc"
       inkscape:connector-curvature="0"
       id="path4561"
       d="m 105.65609,799.31803 c 2.8934,0.1052 101.0352,0 101.0352,0 0,0 -70.9588,-29.65164 -58.8908,-36.46131 -10.5057,-10.27679 -29.7454,-2.1951 -29.5893,-1.99719 -4.6346,17.96495 -12.5551,38.4585 -12.5551,38.4585 z"
       style="display:inline;fill:#dadada;fill-opacity:1;fill-rule:evenodd;stroke:none"
       inkscape:export-filename="/home/alexvsharp/Desktop/jjj"
       inkscape:export-xdpi="199.81471"
       inkscape:export-ydpi="199.81471" />
    <path
       sodipodi:nodetypes="cc"
       inkscape:connector-curvature="0"
       id="path4563"
       d="m 124.45171,197.49475 c 0.5528,-2.33448 4.24706,-54.06281 5.11646,-65.67267"
       style="display:inline;fill:#ebebeb;fill-opacity:1;fill-rule:evenodd;stroke:none"
       inkscape:export-filename="/home/alexvsharp/Desktop/jjj"
       inkscape:export-xdpi="199.81471"
       inkscape:export-ydpi="199.81471" />
    <path
       style="display:inline;fill:#d7eef4;fill-opacity:1;fill-rule:evenodd;stroke:none"
       d="m 130.4212,53.128658 c 2.60984,-4.462838 -2.27787,-14.256423 -4.60697,-14.675552"
       id="path4409"
       inkscape:connector-curvature="0"
       sodipodi:nodetypes="cc"
       inkscape:export-filename="/home/alexvsharp/Desktop/jjj"
       inkscape:export-xdpi="199.81471"
       inkscape:export-ydpi="199.81471" />
    <path
       sodipodi:nodetypes="ccccc"
       inkscape:connector-curvature="0"
       id="path4395"
       d="m 200.30089,303.98618 c -9.5372,2.49355 -31.983,20.6092 -15.7153,38.75648 l -76.2505,-25.27891 c 0,0 -2.3305,-15.45442 4.897,-16.80914 z"
       style="display:inline;fill:#000000;fill-opacity:1;stroke:none"
       inkscape:export-filename="/home/alexvsharp/Desktop/jjj"
       inkscape:export-xdpi="199.81471"
       inkscape:export-ydpi="199.81471" />
    <path
       sodipodi:nodetypes="cccc"
       inkscape:connector-curvature="0"
       id="path6574"
       d="m 172.09123,230.22895 c 21.31908,-21.17652 103.17938,-8.92495 86.67456,7.43506 l -52.55582,38.81238 z"
       style="opacity:1;fill:#720e0e;fill-opacity:1;stroke:#000000;stroke-width:1.72965717;stroke-linecap:butt;stroke-miterlimit:4;stroke-dasharray:none;stroke-opacity:1" />
    <path
       style="opacity:1;fill:#720e0e;fill-opacity:1;stroke:#000000;stroke-width:2;stroke-linecap:butt;stroke-miterlimit:4;stroke-dasharray:none;stroke-opacity:1"
       d="m 261.60424,233.32162 c 26.71848,2.54003 44.29125,41.2062 29.37148,56.53283 -32.33055,-4.8353 -64.50799,-9.84922 -102.40062,-8.19542 21.93417,-18.2537 42.8411,-37.42049 73.02914,-48.33741 z"
       id="path6572"
       inkscape:connector-curvature="0"
       sodipodi:nodetypes="cccc" />
    <path
       inkscape:export-ydpi="199.81471"
       inkscape:export-xdpi="199.81471"
       inkscape:export-filename="/home/alexvsharp/Desktop/jjj"
       sodipodi:nodetypes="ccccccc"
       inkscape:connector-curvature="0"
       id="path4403"
       d="m 259.21883,283.31593 14.15967,-20.26416 c 0,0 1.00559,8.68143 -1.18666,13.50567 10.76467,-14.6086 21.80408,-18.92778 21.80408,-18.92778 0,0 -6.79057,11.31098 -8.61725,15.33117 8.05482,-5.01446 37.00584,-1.99288 37.00584,-1.99288 -26.96713,10.65692 -77.85846,37.75778 -63.16568,12.34798 z"
       style="display:inline;fill:#011f31;fill-opacity:1;stroke:#000000;stroke-width:1.75952685;stroke-opacity:1" />
    <g
       style="display:inline"
       id="g4365"
       transform="matrix(3.0489826,-0.62937301,0.62937301,3.0489826,-118.25551,237.42581)">
      <ellipse
         transform="matrix(1.0844307,0,0,1.8629962,-10.050693,-41.711981)"
         id="path4353"
         style="fill:#101010;fill-opacity:1;fill-rule:nonzero;stroke:none"
         cx="103.39285"
         cy="49.732143"
         rx="3.75"
         ry="3.4821429"
         d="m 107.14285,49.732143 a 3.75,3.4821429 0 0 1 -3.75,3.482143 3.75,3.4821429 0 0 1 -3.749997,-3.482143 3.75,3.4821429 0 0 1 3.749997,-3.482143 3.75,3.4821429 0 0 1 3.75,3.482143 z" />
      <path
         sodipodi:nodetypes="cscc"
         inkscape:connector-curvature="0"
         id="path4355"
         d="m 98.627627,53.275673 c 0,0 0.76596,2.56177 1.494483,2.895584 1.20936,0.554133 3.39962,-3.267181 2.95433,-3.627221 -0.0209,0.174714 -2.90327,1.75509 -4.448813,0.731637 z"
         style="fill:#ffffff;fill-opacity:1;stroke:none" />
    </g>
    <path
       style="display:inline;fill:#ebebeb;fill-opacity:1;fill-rule:evenodd;stroke:none"
       d="m 258.17386,288.55011 c 2.18622,-3.31176 11.27077,-13.9644 13.90877,-21.9574"
       id="path4533"
       inkscape:connector-curvature="0"
       sodipodi:nodetypes="cc"
       inkscape:export-filename="/home/alexvsharp/Desktop/jjj"
       inkscape:export-xdpi="199.81471"
       inkscape:export-ydpi="199.81471" />
    <path
       sodipodi:nodetypes="cccc"
       inkscape:connector-curvature="0"
       id="path6570"
       d="m 115.15766,281.10174 c -2.36256,-31.08195 41.8822,-57.07774 57.68612,-53.24691 21.03115,8.25809 36.34013,22.64706 44.04407,45.1843 z"
       style="opacity:1;fill:#720e0e;fill-opacity:1;stroke:#000000;stroke-width:2;stroke-linecap:butt;stroke-miterlimit:4;stroke-dasharray:none;stroke-opacity:1" />
    <g
       style="display:inline"
       id="g4361"
       transform="matrix(3.0944706,0,0,3.0944706,-96.750312,173.4525)">
      <ellipse
         style="fill:#101010;fill-opacity:1;fill-rule:nonzero;stroke:none"
         id="path4357"
         transform="matrix(0.93089753,0,0,1.5992342,24.632448,-33.584235)"
         cx="103.39285"
         cy="49.732143"
         rx="3.75"
         ry="3.4821429"
         d="m 107.14285,49.732143 a 3.75,3.4821429 0 0 1 -3.75,3.482143 3.75,3.4821429 0 0 1 -3.749997,-3.482143 3.75,3.4821429 0 0 1 3.749997,-3.482143 3.75,3.4821429 0 0 1 3.75,3.482143 z" />
      <path
         style="fill:#ffffff;fill-opacity:1;stroke:none"
         d="m 117.92416,47.955116 c 0,0 0.6575,2.199077 1.28289,2.48563 1.03813,0.475679 2.9183,-2.804615 2.53605,-3.113682 -0.0181,0.149979 -2.49222,1.506606 -3.81894,0.628052 z"
         id="path4359"
         inkscape:connector-curvature="0"
         sodipodi:nodetypes="cscc" />
    </g>
    <path
       style="opacity:1;fill:#720e0e;fill-opacity:1;stroke:#000000;stroke-width:2;stroke-linecap:butt;stroke-miterlimit:4;stroke-dasharray:none;stroke-opacity:1"
       d="m 97.900769,374.36274 c -29.993563,-25.29476 2.775911,-92.76205 14.370291,-96.27592 30.83622,-14.73763 69.37121,-2.52954 104.05973,-3.7841 -49.58092,30.69433 -86.88917,64.61831 -118.430021,100.06002 z"
       id="path6027"
       inkscape:connector-curvature="0"
       sodipodi:nodetypes="cccc" />
    <g
       id="g6586"
       transform="matrix(0.9969296,-0.07830313,0.07830313,0.9969296,-32.475893,7.9687297)">
      <path
         inkscape:export-ydpi="199.81471"
         inkscape:export-xdpi="199.81471"
         inkscape:export-filename="/home/alexvsharp/Desktop/jjj"
         sodipodi:nodetypes="ccccccc"
         inkscape:connector-curvature="0"
         id="path4397"
         d="m 229.95286,295.37875 -17.40521,-22.00557 c 0,0 -1.88272,9.4475 0.70412,14.68967 -13.28253,-15.86244 -27.58589,-20.53006 -27.58589,-20.53006 0,0 8.24507,12.28611 10.40082,16.65463 -10.31719,-5.43254 -48.74449,-2.0633 -48.74449,-2.0633 34.93286,11.51744 100.41034,40.85676 82.63065,13.25463 z"
         style="display:inline;fill:#011f31;fill-opacity:1;stroke:#000000;stroke-width:2.10892129;stroke-opacity:1" />
      <path
         inkscape:export-ydpi="199.81471"
         inkscape:export-xdpi="199.81471"
         inkscape:export-filename="/home/alexvsharp/Desktop/jjj"
         style="display:inline;fill:#ebebeb;fill-opacity:1;fill-rule:evenodd;stroke:none"
         d="m 228.19975,297.06484 c -2.18621,-3.31177 -8.91901,-13.25885 -14.37923,-19.37033"
         id="path4521"
         inkscape:connector-curvature="0"
         sodipodi:nodetypes="cc" />
      <path
         inkscape:export-ydpi="199.81471"
         inkscape:export-xdpi="199.81471"
         inkscape:export-filename="/home/alexvsharp/Desktop/jjj"
         sodipodi:nodetypes="cc"
         inkscape:connector-curvature="0"
         id="path4525"
         d="M 211.73691,289.06848 C 200.84867,277.28997 194.82142,275.80963 189.3612,269.69814"
         style="display:inline;fill:#ebebeb;fill-opacity:1;fill-rule:evenodd;stroke:none" />
      <path
         inkscape:export-ydpi="199.81471"
         inkscape:export-xdpi="199.81471"
         inkscape:export-filename="/home/alexvsharp/Desktop/jjj"
         style="display:inline;fill:#ebebeb;fill-opacity:1;fill-rule:evenodd;stroke:none"
         d="m 201.62406,290.71479 c -8.05224,-11.14207 -33.37863,-5.96804 -46.83532,-7.84614"
         id="path4529"
         inkscape:connector-curvature="0"
         sodipodi:nodetypes="cc" />
    </g>
    <path
       style="display:inline;fill:#d7eef4;fill-opacity:1;fill-rule:evenodd;stroke:none"
       d="m 198.87719,304.44012 c -16.8718,9.1873 -23.8532,54.59632 35.7919,42.02241 -38.47,13.81488 -38.6713,3.86968 -51.5495,-4.86284 -12.554,-8.92729 2.8257,-34.54069 2.8222,-34.57252 z"
       id="path4423"
       inkscape:connector-curvature="0"
       sodipodi:nodetypes="ccccc"
       inkscape:export-filename="/home/alexvsharp/Desktop/jjj"
       inkscape:export-xdpi="199.81471"
       inkscape:export-ydpi="199.81471" />
    <path
       sodipodi:nodetypes="cc"
       inkscape:connector-curvature="0"
       id="path4463"
       d="m 87.086511,55.032351 c -2.0363,-1.26838 -14.4453,-4.31118 -25.1717,-8.83764"
       style="display:inline;fill:#ebebeb;fill-opacity:1;fill-rule:evenodd;stroke:none"
       inkscape:export-filename="/home/alexvsharp/Desktop/jjj"
       inkscape:export-xdpi="199.81471"
       inkscape:export-ydpi="199.81471" />
    <path
       style="display:inline;fill:#ebebeb;fill-opacity:1;fill-rule:evenodd;stroke:none"
       d="m 92.129811,42.387581 c -2.3974,-0.0885 -18.57,0.82357 -29.4717,-1.13927"
       id="path4467"
       inkscape:connector-curvature="0"
       sodipodi:nodetypes="cc"
       inkscape:export-filename="/home/alexvsharp/Desktop/jjj"
       inkscape:export-xdpi="199.81471"
       inkscape:export-ydpi="199.81471" />
    <path
       sodipodi:nodetypes="cccc"
       inkscape:connector-curvature="0"
       id="path8303"
       d="m 242.11889,408.77391 c 0,0 17.1756,3.10667 26.5662,17.70217 20.5735,-17.29323 89.4279,-45.54446 112.8072,-44.67978 -53.1063,-8.9831 -123.8299,19.47828 -139.3734,26.97761 z"
       style="display:inline;fill:#ffe300;fill-opacity:1;stroke:#948d00;stroke-width:1.30534232;stroke-miterlimit:4;stroke-dasharray:none;stroke-opacity:1"
       inkscape:export-filename="/home/alexvsharp/Desktop/jjj"
       inkscape:export-xdpi="199.81471"
       inkscape:export-ydpi="199.81471" />
    <path
       style="display:inline;fill:#d6bf00;fill-opacity:1;fill-rule:evenodd;stroke:none"
       d="m 259.00049,402.36545 c 20.2987,6.95657 48.3151,-24.45429 116.8488,-21.56012 -37.7094,-4.13728 -73.3395,4.00563 -116.8488,21.56012 z"
       id="path4559"
       inkscape:connector-curvature="0"
       sodipodi:nodetypes="ccc"
       inkscape:export-filename="/home/alexvsharp/Desktop/jjj"
       inkscape:export-xdpi="199.81471"
       inkscape:export-ydpi="199.81471" />
    <path
       sodipodi:nodetypes="cccssccc"
       inkscape:connector-curvature="0"
       id="path8301"
       d="m 215.55269,374.85371 48.1709,-44.70633 c 0,0 146.778,39.80644 157.5091,61.03924 -35.2973,-12.89346 -68.5259,-17.09535 -123.5919,-1.78469 -8.9817,2.49729 -15.5231,4.66718 -25.1373,8.28072 -5.1154,1.92267 -31.1924,-5.92181 -39.3731,-21.55283 -1.9404,11.43763 8.7186,32.09392 8.7186,32.09392 -10.0102,-13.75138 -25.61,-32.27341 -26.2963,-33.37003 z"
       style="display:inline;fill:#ffe300;fill-opacity:1;stroke:#948d00;stroke-width:2.61068463;stroke-opacity:1"
       inkscape:export-filename="/home/alexvsharp/Desktop/jjj"
       inkscape:export-xdpi="199.81471"
       inkscape:export-ydpi="199.81471" />
    <path
       sodipodi:nodetypes="ccsccccscc"
       inkscape:connector-curvature="0"
       id="path8299"
       d="m 176.68659,304.51951 21.2439,-0.96168 c 22.9425,-8.29176 63.4763,-12.42788 96.414,-12.09233 11.1608,0.11367 21.3253,38.47549 12.0686,45.16321 -2.566,1.02641 -23.7,-2.59548 -23.7,-2.59548 l -19.1775,-6.71174 -18.1342,16.32287 c -13.9796,6.53539 -29.8332,10.64623 -39.2408,11.23421 -12.3625,0.77266 -28.1469,-16.82896 -28.1469,-16.82896 -10.0114,-22.65202 0.8251,-28.97646 -1.3271,-33.5301 z"
       style="display:inline;fill:#96d8ff;fill-opacity:1;stroke:#000000;stroke-width:2.6667316px;stroke-linecap:butt;stroke-linejoin:miter;stroke-opacity:1"
       inkscape:export-filename="/home/alexvsharp/Desktop/jjj"
       inkscape:export-xdpi="199.81471"
       inkscape:export-ydpi="199.81471" />
    <path
       sodipodi:nodetypes="cc"
       inkscape:connector-curvature="0"
       id="path8305"
       d="m 123.84471,59.91787 c 0,0 4.91191,-0.80711 7.3674,2.21971"
       style="display:inline;fill:#948d00;fill-opacity:1;fill-rule:evenodd;stroke:none"
       inkscape:export-filename="/home/alexvsharp/Desktop/jjj"
       inkscape:export-xdpi="199.81471"
       inkscape:export-ydpi="199.81471" />
    <path
       style="display:inline;fill:#ffffff;fill-opacity:1;fill-rule:evenodd;stroke:none"
       d="m 169.01511,71.400743 c -3.6869,-4.43294 -45.40153,-17.621901 -53.15723,-19.552661"
       id="path4497"
       inkscape:connector-curvature="0"
       sodipodi:nodetypes="cc"
       inkscape:export-filename="/home/alexvsharp/Desktop/jjj"
       inkscape:export-xdpi="199.81471"
       inkscape:export-ydpi="199.81471" />
    <path
       sodipodi:nodetypes="cc"
       inkscape:connector-curvature="0"
       id="path4545"
       d="m 36.333011,158.38926 c 13.2079,12.2143 21.8445,37.67809 23.6698,46.38917"
       style="display:inline;fill:#ebebeb;fill-opacity:1;fill-rule:evenodd;stroke:none"
       inkscape:export-filename="/home/alexvsharp/Desktop/jjj"
       inkscape:export-xdpi="199.81471"
       inkscape:export-ydpi="199.81471" />
    <path
       style="display:inline;fill:#ebebeb;fill-opacity:1;fill-rule:evenodd;stroke:none"
       d="m 67.755511,97.02125 c -15.7961,13.26168 -17.5193,52.77486 -30.5343,61.81527"
       id="path4501"
       inkscape:connector-curvature="0"
       sodipodi:nodetypes="cc"
       inkscape:export-filename="/home/alexvsharp/Desktop/jjj"
       inkscape:export-xdpi="199.81471"
       inkscape:export-ydpi="199.81471" />
    <path
       inkscape:export-ydpi="199.81471"
       inkscape:export-xdpi="199.81471"
       inkscape:export-filename="/home/alexvsharp/Desktop/jjj"
       sodipodi:nodetypes="ccscc"
       inkscape:connector-curvature="0"
       id="path4861"
       d="m 361.13993,480.38894 c -4.82396,45.41537 -49.95943,43.42734 -57.71734,44.2766 5.86934,4.60848 21.68607,8.75682 26.72366,3.55095 7.57796,-7.83125 20.45587,-13.7139 32.35122,-25.07517 -3.12387,-3.15822 2.56438,-6.07742 -1.35754,-22.75238 z"
       style="display:inline;fill:#075c83;fill-opacity:1;fill-rule:evenodd;stroke:none" />
    <path
       inkscape:export-ydpi="199.81471"
       inkscape:export-xdpi="199.81471"
       inkscape:export-filename="/home/alexvsharp/Desktop/jjj"
       sodipodi:nodetypes="cccc"
       inkscape:connector-curvature="0"
       id="path4865"
       d="m 312.10845,527.52676 c 0,0 14.35088,4.25458 20.682,1.33766 24.28103,-32.42634 24.73905,-21.45596 28.60113,-36.39401 0.94926,-3.67154 -1.26003,-11.11823 -1.26003,-11.11823"
       style="display:inline;fill:none;stroke:#001e30;stroke-width:2.50348186px;stroke-linecap:butt;stroke-linejoin:miter;stroke-opacity:0.92941176" />
    <path
       inkscape:export-ydpi="199.81471"
       inkscape:export-xdpi="199.81471"
       inkscape:export-filename="/home/alexvsharp/Desktop/jjj"
       sodipodi:nodetypes="cccc"
       inkscape:connector-curvature="0"
       d="M 86.082959,528.21576 C 237.34843,673.82294 530.2226,573.50414 400.59542,378.51708 L 370.2044,491.55885 c -73.21336,27.33166 -116.46744,8.72113 -157.5232,-16.71065"
       style="display:inline;fill:#006ea1;fill-opacity:1;stroke:#002133;stroke-width:2.57935643;stroke-linecap:square;stroke-linejoin:miter;stroke-miterlimit:4;stroke-dasharray:none;stroke-opacity:0.97254902"
       id="path4886-8" />
    <path
       style="display:inline;fill:#006ea1;fill-opacity:1;stroke:#000000;stroke-width:2.01176476;stroke-miterlimit:4;stroke-dasharray:none;stroke-opacity:1"
       d="m 323.90295,523.35247 c -5.39542,1.02976 -16.54041,1.6851 -18.35796,-0.42367 -1.64587,-1.90977 -5.99637,-25.2255 -5.84051,-26.77067 0.0687,-0.68075 11.10064,-5.49667 29.47467,-13.46896 l 23.968,-10.39943 7.00404,8.3718 c 2.26544,19.60083 -21.783,39.67262 -36.24824,42.69093 z"
       id="path3396"
       inkscape:connector-curvature="0"
       sodipodi:nodetypes="cscsccc" />
    <path
       sodipodi:nodetypes="cc"
       inkscape:connector-curvature="0"
       id="path4537"
       d="m 274.13894,277.24155 c 2.18622,-3.31176 12.93393,-15.62741 17.56731,-16.63574"
       style="display:inline;fill:#ebebeb;fill-opacity:1;fill-rule:evenodd;stroke:none"
       inkscape:export-filename="/home/alexvsharp/Desktop/jjj"
       inkscape:export-xdpi="199.81471"
       inkscape:export-ydpi="199.81471" />
    <path
       style="display:inline;fill:#ebebeb;fill-opacity:1;fill-rule:evenodd;stroke:none"
       d="m 280.79099,280.5676 c 2.51873,-9.29866 21.24912,-10.30575 38.18875,-8.98583"
       id="path4541"
       inkscape:connector-curvature="0"
       sodipodi:nodetypes="cc"
       inkscape:export-filename="/home/alexvsharp/Desktop/jjj"
       inkscape:export-xdpi="199.81471"
       inkscape:export-ydpi="199.81471" />
  </g>
</svg>
