<?xml version="1.0" encoding="UTF-8" standalone="no"?>
<!-- Created with Inkscape (http://www.inkscape.org/) -->

<svg
   xmlns:dc="http://purl.org/dc/elements/1.1/"
   xmlns:cc="http://creativecommons.org/ns#"
   xmlns:rdf="http://www.w3.org/1999/02/22-rdf-syntax-ns#"
   xmlns:svg="http://www.w3.org/2000/svg"
   xmlns="http://www.w3.org/2000/svg"
   xmlns:sodipodi="http://sodipodi.sourceforge.net/DTD/sodipodi-0.dtd"
   xmlns:inkscape="http://www.inkscape.org/namespaces/inkscape"
   width="1300"
   height="818"
   id="svg4305"
   version="1.1"
   inkscape:version="0.91 r13725"
   inkscape:export-filename="/tmp/test2.png"
   inkscape:export-xdpi="45"
   inkscape:export-ydpi="45"
   sodipodi:docname="golum_survey_can2.svg">
  <defs
     id="defs4307" />
  <sodipodi:namedview
     id="base"
     pagecolor="#ffffff"
     bordercolor="#666666"
     borderopacity="1"
     inkscape:pageopacity="0"
     inkscape:pageshadow="2"
     inkscape:zoom="0.46397084"
     inkscape:cx="344.47032"
     inkscape:cy="30.916609"
     inkscape:document-units="px"
     inkscape:current-layer="g4857"
     showgrid="false"
     fit-margin-top="0"
     fit-margin-left="0"
     fit-margin-right="0"
     fit-margin-bottom="0"
     inkscape:snap-bbox="true"
     inkscape:snap-nodes="true"
     inkscape:snap-page="true"
     inkscape:snap-grids="false"
     inkscape:snap-center="true"
     inkscape:snap-object-midpoints="true"
     inkscape:snap-text-baseline="true"
     inkscape:bbox-paths="true"
     inkscape:snap-bbox-edge-midpoints="true"
     inkscape:bbox-nodes="true"
     inkscape:snap-bbox-midpoints="true"
     inkscape:snap-intersection-paths="true"
     inkscape:object-paths="true"
     inkscape:snap-smooth-nodes="true"
     inkscape:object-nodes="true"
     inkscape:snap-midpoints="true"
     showguides="true"
     inkscape:guide-bbox="true"
     inkscape:snap-global="false"
     inkscape:window-width="1680"
     inkscape:window-height="976"
     inkscape:window-x="0"
     inkscape:window-y="27"
     inkscape:window-maximized="1"
     borderlayer="false">
    <sodipodi:guide
       orientation="0,1"
       position="544.07972,-98.109613"
       id="guide5492" />
    <sodipodi:guide
       orientation="0,1"
       position="545.60375,-110.68288"
       id="guide5494" />
    <sodipodi:guide
       position="663.83483,299.5878"
       orientation="1,0"
       id="guide3462" />
  </sodipodi:namedview>
  <metadata
     id="metadata4310">
    <rdf:RDF>
      <cc:Work
         rdf:about="">
        <dc:format>image/svg+xml</dc:format>
        <dc:type
           rdf:resource="http://purl.org/dc/dcmitype/StillImage" />
        <dc:title />
      </cc:Work>
    </rdf:RDF>
  </metadata>
  <g
     inkscape:groupmode="layer"
     id="layer13"
     inkscape:label="background"
     style="display:inline"
     transform="translate(0,603)" />
  <g
     style="display:inline"
     transform="translate(-26.354379,594.37339)"
     id="g4857"
     inkscape:groupmode="layer"
     inkscape:label="hand-left">
    <path
       style="opacity:1;fill:#001e2c;fill-opacity:1;stroke:none;stroke-width:2;stroke-linecap:butt;stroke-miterlimit:4;stroke-dasharray:none;stroke-opacity:1"
       d="m 26.470339,-595.35988 1302.607861,0 0,219.56205 -1302.607861,0 z"
       id="rect6920"
       inkscape:connector-curvature="0" />
    <text
       xml:space="preserve"
       style="font-style:normal;font-variant:normal;font-weight:normal;font-stretch:normal;font-size:130.56587219px;line-height:125%;font-family:'Liberation Sans';-inkscape-font-specification:'Liberation Sans';letter-spacing:0px;word-spacing:0px;fill:#ffffff;fill-opacity:1;stroke:none;stroke-width:1px;stroke-linecap:butt;stroke-linejoin:miter;stroke-opacity:1"
       x="465.92578"
       y="-430.18375"
       id="text6925"
       sodipodi:linespacing="125%"
       transform="scale(0.96214766,1.0393415)"><tspan
         sodipodi:role="line"
         id="tspan6927"
         x="465.92578"
         y="-430.18375">Survey Results</tspan></text>
    <path
       inkscape:connector-curvature="0"
       id="path6923"
       d="m 556.39954,-377.4731 215.93503,-3.13189 c -67.36777,78.02187 -261.24533,9.86281 -335.46508,80.99062 50.17652,-85.73148 219.1397,-71.42045 119.53005,-77.85873 z"
       style="opacity:1;fill:#001e2c;fill-opacity:1;stroke:none;stroke-width:2;stroke-linecap:butt;stroke-miterlimit:4;stroke-dasharray:none;stroke-opacity:1"
       sodipodi:nodetypes="cccc" />
    <text
       sodipodi:linespacing="125%"
       id="text4427"
       y="-2.7838547"
       x="616.39905"
       style="font-style:normal;font-variant:normal;font-weight:normal;font-stretch:normal;font-size:180px;line-height:125%;font-family:'Liberation Sans';-inkscape-font-specification:'Liberation Sans';letter-spacing:0px;word-spacing:0px;fill:#ffffff;fill-opacity:1;stroke:none;stroke-width:1px;stroke-linecap:butt;stroke-linejoin:miter;stroke-opacity:1;"
       xml:space="preserve"><tspan
         y="-2.7838547"
         x="616.39905"
         id="tspan4429"
         sodipodi:role="line" /></text>
    <path
       inkscape:export-ydpi="199.81471"
       inkscape:export-xdpi="199.81471"
       inkscape:export-filename="/home/alexvsharp/Desktop/jjj"
       style="display:inline;fill:#006ea1;fill-opacity:1;stroke:#00283c;stroke-width:3.37087846px;stroke-linecap:butt;stroke-linejoin:miter;stroke-opacity:1"
       d="M 310.72325,-91.751649 C 221.02565,-193.39153 291.72079,-247.05628 368.22781,-222.57979 l 116.79617,141.799113 c 0,0 109.32301,-116.463603 221.60278,-144.662633 -75.65075,116.7807 -158.06499,218.2770416 -214.89533,285.531977 0,0 -44.64957,-80.158201 -64.49026,-67.2938381"
       id="path4859"
       inkscape:connector-curvature="0"
       sodipodi:nodetypes="cccccc" />
    <path
       inkscape:export-ydpi="199.81471"
       inkscape:export-xdpi="199.81471"
       inkscape:export-filename="/home/alexvsharp/Desktop/jjj"
       style="display:inline;fill:#075c83;fill-opacity:1;fill-rule:evenodd;stroke:none"
       d="M 564.20765,-31.003906 C 482.23918,69.642896 429.47256,-51.853825 423.23528,-66.81789 c 4.31845,2.896352 -3.77976,58.325644 16.12606,59.7277369 14.03572,0.9886752 45.0898,50.6436171 52.92,64.5152571 8.72933,-11.744705 38.7032,-42.507844 71.92631,-88.42901 z"
       id="path4863"
       inkscape:connector-curvature="0"
       sodipodi:nodetypes="ccscc" />
    <path
       inkscape:export-ydpi="199.81471"
       inkscape:export-xdpi="199.81471"
       inkscape:export-filename="/home/alexvsharp/Desktop/jjj"
       style="display:inline;fill:#ffffff;fill-opacity:1;fill-rule:evenodd;stroke:none"
       d="m 159.51376,44.064075 c 24.50026,30.664389 7.36744,52.040462 -10.5106,63.803365"
       id="path4867"
       inkscape:connector-curvature="0"
       sodipodi:nodetypes="cc" />
    <path
       inkscape:export-ydpi="199.81471"
       inkscape:export-xdpi="199.81471"
       inkscape:export-filename="/home/alexvsharp/Desktop/jjj"
       sodipodi:nodetypes="cc"
       inkscape:connector-curvature="0"
       id="path4869"
       d="m 110.14988,61.643744 c 17.83212,21.970979 28.52111,34.199279 38.19985,46.153116"
       style="display:inline;fill:#ebebeb;fill-opacity:1;fill-rule:evenodd;stroke:none" />
    <path
       sodipodi:nodetypes="ccccccccccccc"
       inkscape:connector-curvature="0"
       id="path8291"
       d="m 168.61099,239.36892 c -23.26862,4.34339 -48.37574,-13.06616 -73.712545,-8.12774 0,0 34.906565,-121.52955 19.369745,-367.20916 15.20477,-59.02959 49.35451,-89.00374 49.35451,-89.00374 l -29.72174,-52.81078 -25.71111,-19.14384 c 30.93722,-50.05159 37.335,-118.17906 41.10383,-170.4811 42.97757,-55.15716 85.06912,-92.97331 135.53737,-113.43551 l 2.01671,52.28857 c 55.92822,-40.70034 86.11011,-23.3151 150.92525,-29.75788 l -67.07461,97.71071 55.84749,145.1065 -58.34096,104.39511"
       style="display:inline;fill:#006ea1;fill-opacity:1;stroke:#00283c;stroke-width:3.42389226px;stroke-linecap:butt;stroke-linejoin:miter;stroke-opacity:1"
       inkscape:export-filename="/home/alexvsharp/Desktop/jjj"
       inkscape:export-xdpi="199.81471"
       inkscape:export-ydpi="199.81471" />
    <path
       sodipodi:nodetypes="cccsccc"
       inkscape:connector-curvature="0"
       id="path4471"
       d="m 255.31507,-423.61049 c -5.06853,2.83461 -33.13293,30.6213 -43.03688,39.98969 1.58814,18.92973 -3.1597,57.62452 -18.82461,77.16088 6.4163,1.04921 32.49669,-4.14124 33.4794,15.75485 1.90358,38.53976 22.46977,62.8595 41.41708,72.88027 l 11.59727,4.43516 c 19.7551,10.16396 -40.51342,-182.99606 -24.63226,-210.22085 z"
       style="display:inline;fill:#075c83;fill-opacity:1;fill-rule:evenodd;stroke:none"
       inkscape:export-filename="/home/alexvsharp/Desktop/jjj"
       inkscape:export-xdpi="199.81471"
       inkscape:export-ydpi="199.81471" />
    <path
       style="display:inline;fill:#075c83;fill-opacity:1;stroke:none"
       d="m 96.918387,229.25613 c 7.336633,-56.37694 80.872943,-358.02676 96.421093,-403.10544 -0.51906,145.220596 -49.31507,409.46229 -49.31507,409.46229 -18.04771,-6.06848 -33.15756,-5.793 -47.106023,-6.35685 z"
       id="path4555"
       inkscape:connector-curvature="0"
       sodipodi:nodetypes="cccc"
       inkscape:export-filename="/home/alexvsharp/Desktop/jjj"
       inkscape:export-xdpi="199.81471"
       inkscape:export-ydpi="199.81471" />
    <path
       style="display:inline;fill:#075c83;fill-opacity:1;fill-rule:evenodd;stroke:none"
       d="m 147.75339,-270.71254 c 0,0 -4.73648,-4.65725 -16.63878,-13.02878 4.42794,4.90567 19.11015,36.85407 31.52892,53.57762 0.9054,1.21922 5.46606,0.004 15.33714,3.25092 -10.52725,-5.38386 -33.87909,-38.05958 -30.22728,-43.79976 z"
       id="path4505"
       inkscape:connector-curvature="0"
       sodipodi:nodetypes="ccscc"
       inkscape:export-filename="/home/alexvsharp/Desktop/jjj"
       inkscape:export-xdpi="199.81471"
       inkscape:export-ydpi="199.81471" />
    <path
       sodipodi:nodetypes="cc"
       inkscape:connector-curvature="0"
       id="path4483"
       d="m 131.07572,-58.700491 c -7.5291,3.000976 -35.70091,-3.760194 -51.180543,10.703134"
       style="display:inline;fill:#ebebeb;fill-opacity:1;fill-rule:evenodd;stroke:none"
       inkscape:export-filename="/home/alexvsharp/Desktop/jjj"
       inkscape:export-xdpi="199.81471"
       inkscape:export-ydpi="199.81471" />
    <path
       sodipodi:nodetypes="ccccccc"
       inkscape:connector-curvature="0"
       id="path8293"
       d="m 223.06122,-306.09461 -18.63219,33.07708 c 0,0 17.07331,-5.57091 23.02443,-12.01219 -12.71616,24.52248 -6.3757,41.32702 -6.3757,41.32702 0,0 11.83099,-17.10921 16.78988,-22.47697 1.23986,13.71924 35.15722,49.08599 43.95081,46.56053 -15.29598,-41.1329 -19.82234,-113.16283 -58.75723,-86.47547 z"
       style="display:inline;fill:#011f31;fill-opacity:1;stroke:#000000;stroke-width:3.15564942;stroke-opacity:1"
       inkscape:export-filename="/home/alexvsharp/Desktop/jjj"
       inkscape:export-xdpi="199.81471"
       inkscape:export-ydpi="199.81471" />
    <path
       style="display:inline;fill:#011f31;fill-opacity:1;stroke:#000000;stroke-width:2.61010861;stroke-opacity:1"
       d="m 416.33853,-313.88084 8.75151,33.87838 c 0,0 -10.65506,-5.21367 -13.88959,-11.72901 5.76533,25.15532 -0.20218,42.92521 -0.20218,42.92521 0,0 -5.97158,-17.44617 -8.66685,-22.87572 -2.2787,14.36835 -33.91618,50.16697 -33.91618,50.16697 14.45909,-43.48773 25.11509,-118.85548 47.92329,-92.36583 z"
       id="path8295"
       inkscape:connector-curvature="0"
       sodipodi:nodetypes="ccccccc"
       inkscape:export-filename="/home/alexvsharp/Desktop/jjj"
       inkscape:export-xdpi="199.81471"
       inkscape:export-ydpi="199.81471" />
    <path
       style="display:inline;fill:#dadada;fill-opacity:1;fill-rule:evenodd;stroke:none"
       d="m 340.9318,-407.20154 c -15.35561,7.65923 -59.96328,66.4355 -31.3839,102.18105 -16.87591,-15.03791 -32.30167,-40.18472 -40.3605,-48.82193 10.52642,-6.52947 67.99099,-51.33083 71.7444,-53.35912 z"
       id="path4461"
       inkscape:connector-curvature="0"
       sodipodi:nodetypes="cccc"
       inkscape:export-filename="/home/alexvsharp/Desktop/jjj"
       inkscape:export-xdpi="199.81471"
       inkscape:export-ydpi="199.81471" />
    <path
       sodipodi:nodetypes="cccc"
       inkscape:connector-curvature="0"
       id="path4519"
       d="m 333.66777,-287.4913 c 2.8679,3.64009 19.54504,15.21303 29.46922,3.55373 -3.05076,5.28781 -11.30415,9.19666 -12.80606,12.5657 -2.30418,-2.42537 -15.92099,-15.23824 -16.66316,-16.11943 z"
       style="display:inline;fill:#dadada;fill-opacity:1;fill-rule:evenodd;stroke:none"
       inkscape:export-filename="/home/alexvsharp/Desktop/jjj"
       inkscape:export-xdpi="199.81471"
       inkscape:export-ydpi="199.81471" />
    <path
       sodipodi:nodetypes="cccc"
       inkscape:connector-curvature="0"
       id="path4475"
       d="m 428.18589,-321.42534 c -4.90889,-1.25592 -39.86981,63.23013 -62.3364,101.76242 l 56.55317,-108.97061 z"
       style="display:inline;fill:#dadada;fill-opacity:1;fill-rule:evenodd;stroke:none"
       inkscape:export-filename="/home/alexvsharp/Desktop/jjj"
       inkscape:export-xdpi="199.81471"
       inkscape:export-ydpi="199.81471" />
    <path
       sodipodi:nodetypes="cccccccccccccc"
       inkscape:connector-curvature="0"
       id="path8297"
       d="m 220.17873,-372.13157 c 0,0 3.62752,45.79629 -18.3323,80.02608 l 29.86912,-9.25375 4.02833,34.87043 12.53741,-10.04469 c 0,0 4.63506,34.82512 31.69564,66.01993 -27.26554,98.74319 -149.12547,449.5613 -149.12547,449.5613 l 248.73542,66.12222 75.2439,-335.945308 c 0,0 -68.2511,-154.257292 -87.1433,-180.134462 14.58109,-26.45843 53.05968,-102.91228 62.12573,-105.58538 l -62.52628,-142.26051 -100.64688,19.52818 z"
       style="display:inline;fill:#ffffff;fill-opacity:1;stroke:#00283c;stroke-width:3.42960143px;stroke-linecap:butt;stroke-linejoin:miter;stroke-opacity:1"
       inkscape:export-filename="/home/alexvsharp/Desktop/jjj"
       inkscape:export-xdpi="199.81471"
       inkscape:export-ydpi="199.81471" />
    <path
       sodipodi:nodetypes="cccsscc"
       inkscape:connector-curvature="0"
       id="path4495"
       d="m 356.10645,-206.55106 c -20.63612,8.13031 -41.88538,13.63995 -61.25516,5.97618 10.49104,8.60099 21.30957,7.30141 23.75562,14.38697 6.40882,-5.42069 21.35934,-7.54174 21.35934,-7.54174 3.53807,-3.06289 14.12571,189.2008506 14.2794,189.7509686 1.11565,3.98992596 -4.47095,-191.2676386 -9.76064,-193.4796386 0,0 8.17433,-6.33197 11.62144,-9.09274 z"
       style="display:inline;opacity:0.162;fill:#000000;fill-opacity:1;fill-rule:evenodd;stroke:none;stroke-opacity:1"
       inkscape:export-filename="/home/alexvsharp/Desktop/jjj"
       inkscape:export-xdpi="199.81471"
       inkscape:export-ydpi="199.81471" />
    <path
       style="display:inline;fill:#dadada;fill-opacity:1;fill-rule:evenodd;stroke:none"
       d="m 333.17903,119.0014 c 45.96371,9.4122 54.19166,30.94741 42.7284,77.535 -1.11816,4.54418 76.87918,-242.809973 77.24063,-242.367734 C 406.72102,76.231949 410.70911,132.88659 333.17903,119.0014 Z"
       id="path4557"
       inkscape:connector-curvature="0"
       sodipodi:nodetypes="cscc"
       inkscape:export-filename="/home/alexvsharp/Desktop/jjj"
       inkscape:export-xdpi="199.81471"
       inkscape:export-ydpi="199.81471" />
    <path
       sodipodi:nodetypes="ccccc"
       inkscape:connector-curvature="0"
       id="path4561"
       d="m 146.79485,200.61214 c 3.73778,0.0732 130.43687,-2.18699 130.43687,-2.18699 0,0 -92.2499,-36.74442 -76.81747,-45.79696 -13.78538,-13.03997 -38.44893,-2.19002 -38.24317,-1.9379 -5.59434,23.29315 -15.37623,49.92185 -15.37623,49.92185 z"
       style="display:inline;fill:#dadada;fill-opacity:1;fill-rule:evenodd;stroke:none"
       inkscape:export-filename="/home/alexvsharp/Desktop/jjj"
       inkscape:export-xdpi="199.81471"
       inkscape:export-ydpi="199.81471" />
    <path
       style="display:inline;fill:#ebebeb;fill-opacity:1;fill-rule:evenodd;stroke:none"
       d="m -21.350897,184.9108 c 0.663137,-3.02579 3.32666,-62.2628 3.216939,-77.41661"
       id="path4551"
       inkscape:connector-curvature="0"
       sodipodi:nodetypes="cc"
       inkscape:export-filename="/home/alexvsharp/Desktop/jjj"
       inkscape:export-xdpi="199.81471"
       inkscape:export-ydpi="199.81471" />
    <g
       id="g5501"
       transform="matrix(0.41727004,0.90878254,-0.90878254,0.41727004,384.98821,-676.69183)">
      <rect
         y="327.26083"
         x="483.56424"
         height="288.04221"
         width="211.84056"
         id="rect5487"
         style="opacity:1;fill:#6c6a53;fill-opacity:1;stroke:none;stroke-width:2;stroke-linecap:butt;stroke-miterlimit:4;stroke-dasharray:none;stroke-opacity:1" />
      <rect
         y="342.77173"
         x="493.03448"
         height="257.02045"
         width="192.90005"
         id="rect5496"
         style="opacity:1;fill:#ffffff;fill-opacity:1;stroke:none;stroke-width:2;stroke-linecap:butt;stroke-miterlimit:4;stroke-dasharray:none;stroke-opacity:1" />
      <path
         sodipodi:nodetypes="sssccccss"
         inkscape:connector-curvature="0"
         id="rect5489"
         d="m 523.95111,312.78253 c 38.81634,-4.74761 95.86669,-2.1094 128.97127,-0.38101 3.77573,0.19713 4.5721,9.3347 4.5721,9.3347 3.91887,7.02693 -10.68315,6.74931 3.61958,12.38276 l 0,22.09848 -143.25908,0 0,-22.09848 c 14.95286,-4.3332 0.80311,-3.98612 3.42908,-12.19226 0,0 -0.64196,-8.73947 2.66705,-9.14419 z"
         style="opacity:1;fill:#bdbdb0;fill-opacity:1;stroke:none;stroke-width:2;stroke-linecap:butt;stroke-miterlimit:4;stroke-dasharray:none;stroke-opacity:1" />
      <path
         sodipodi:nodetypes="cccccc"
         inkscape:connector-curvature="0"
         id="rect5498"
         d="m 521.47241,326.09154 c 45.80345,-2.7949 90.79904,-1.55052 135.59529,0.69057 -4.66857,4.53758 -1.1274,4.53591 4.07202,7.36056 -47.5291,2.07496 -95.25047,2.41951 -143.28689,-0.0714 3.4988,-1.55114 8.24679,-0.49516 3.61958,-7.97969 z"
         style="opacity:0.30351443;fill:#000000;fill-opacity:1;stroke:none;stroke-width:2;stroke-linecap:butt;stroke-miterlimit:4;stroke-dasharray:none;stroke-opacity:1" />
    </g>
    <path
       style="opacity:0.30351443;fill:#000000;fill-opacity:1;stroke:none;stroke-width:2;stroke-linecap:butt;stroke-miterlimit:4;stroke-dasharray:none;stroke-opacity:1"
       d="M 57.817357,86.056563 C 69.481029,50.094912 35.701797,40.00089 53.938642,7.0730101 L 61.31787,5.473332 197.37235,174.15234 116.03271,212.37433 Z"
       id="rect5507"
       inkscape:connector-curvature="0"
       sodipodi:nodetypes="cccccc" />
    <path
       id="path8424"
       style="display:inline;fill:#006ea1;fill-opacity:1;stroke:#002133;stroke-width:3.33042812;stroke-linecap:square;stroke-linejoin:miter;stroke-miterlimit:4;stroke-dasharray:none;stroke-opacity:0.97254902"
       d="M 132.06177,-182.15998 C 99.31566,-121.52743 92.94451,-26.635122 52.714803,-3.6464353 86.264478,35.047449 117.19691,84.72643 139.92307,168.86018 c 51.53897,68.13173 148.36197,-20.38688 139.73912,-40.54628 0,0 -65.12667,37.83234 -75.6058,16.37077 L 174.92788,-0.27818921 244.7267,-168.47175"
       inkscape:connector-curvature="0"
       sodipodi:nodetypes="ccccccc"
       inkscape:export-filename="/home/alexvsharp/Desktop/jjj"
       inkscape:export-xdpi="199.81471"
       inkscape:export-ydpi="199.81471" />
    <path
       sodipodi:nodetypes="ccccc"
       inkscape:connector-curvature="0"
       id="path4549"
       d="M 55.176792,-3.291397 C 90.379766,27.630714 154.07601,101.88183 194.23509,152.3749 c 19.23684,46.14153 84.10297,-18.53124 83.14839,-22.03138 12.15907,13.56157 -83.37131,103.40303 -138.35454,37.69627 C 110.78124,58.374076 55.176792,-3.291397 55.176792,-3.291397 Z"
       style="display:inline;fill:#075c83;fill-opacity:1;fill-rule:evenodd;stroke:none"
       inkscape:export-filename="/home/alexvsharp/Desktop/jjj"
       inkscape:export-xdpi="199.81471"
       inkscape:export-ydpi="199.81471" />
    <g
       style="display:inline"
       id="g4365"
       transform="matrix(3.9226259,-0.87852092,0.87852092,3.9226259,-154.43857,-519.9463)">
      <ellipse
         transform="matrix(1.0844307,0,0,1.8629962,-10.050693,-41.711981)"
         id="path4353"
         style="fill:#101010;fill-opacity:1;fill-rule:nonzero;stroke:none"
         cx="103.39285"
         cy="49.732143"
         rx="3.75"
         ry="3.4821429" />
      <path
         sodipodi:nodetypes="cscc"
         inkscape:connector-curvature="0"
         id="path4355"
         d="m 98.627627,53.275673 c 0,0 0.76596,2.56177 1.494483,2.895584 1.20936,0.554133 3.39962,-3.267181 2.95433,-3.627221 -0.0209,0.174714 -2.90327,1.75509 -4.448813,0.731637 z"
         style="fill:#ffffff;fill-opacity:1;stroke:none" />
    </g>
    <g
       style="display:inline"
       id="g4361"
       transform="matrix(3.9949745,-0.06698238,0.06698238,3.9949745,-128.05992,-603.0016)">
      <ellipse
         style="fill:#101010;fill-opacity:1;fill-rule:nonzero;stroke:none"
         id="path4357"
         transform="matrix(0.93089753,0,0,1.5992342,24.632448,-33.584235)"
         cx="103.39285"
         cy="49.732143"
         rx="3.75"
         ry="3.4821429" />
      <path
         style="fill:#ffffff;fill-opacity:1;stroke:none"
         d="m 117.92416,47.955116 c 0,0 0.6575,2.199077 1.28289,2.48563 1.03813,0.475679 2.9183,-2.804615 2.53605,-3.113682 -0.0181,0.149979 -2.49222,1.506606 -3.81894,0.628052 z"
         id="path4359"
         inkscape:connector-curvature="0"
         sodipodi:nodetypes="cscc" />
    </g>
    <g
       style="display:inline"
       id="g4508"
       transform="matrix(3.7102812,-0.06220904,0.06220904,3.7102812,-90.622427,-591.93596)">
      <path
         inkscape:export-ydpi="199.81471"
         inkscape:export-xdpi="199.81471"
         inkscape:export-filename="/home/alexvsharp/Desktop/jjj"
         sodipodi:nodetypes="cccccccc"
         inkscape:connector-curvature="0"
         id="path4477"
         d="m 98.722211,42.15236 c -4.0524,0.44178 -19.2626,-4.53349 -22.276,-5.24087 l -2.3859,-2.31737 16.9189,5.8609 c -1.1186,-3.67702 -3.7246,-8.89285 -5.1195,-12.01746 1.8427,2.12024 5.8274,6.68741 8.2645,10.14504 0.9831,-2.59517 0.6957,-6.75982 2.6787,-8.35504 -0.5176,3.62774 1.3602,8.29706 1.9193,11.9248 z"
         style="display:inline;fill:#075c83;fill-opacity:1;fill-rule:evenodd;stroke:none" />
      <path
         inkscape:export-ydpi="199.81471"
         inkscape:export-xdpi="199.81471"
         inkscape:export-filename="/home/alexvsharp/Desktop/jjj"
         sodipodi:nodetypes="ccccccc"
         inkscape:connector-curvature="0"
         id="path4397"
         d="M 103.64001,39.27391 97.583811,31.617 c 0,0 -0.6551,3.28729 0.245,5.11132 -4.6217,-5.51939 -9.5986,-7.1435 -9.5986,-7.1435 0,0 2.8689,4.27499 3.619,5.79503 -3.5899,-1.89027 -16.9608,-0.71793 -16.9608,-0.71793 12.155,4.00753 34.938099,14.21624 28.751599,4.61199 z"
         style="display:inline;fill:#011f31;fill-opacity:1;stroke:#000000;stroke-width:0.73380595;stroke-opacity:1" />
      <path
         inkscape:export-ydpi="199.81471"
         inkscape:export-xdpi="199.81471"
         inkscape:export-filename="/home/alexvsharp/Desktop/jjj"
         style="display:inline;fill:#ebebeb;fill-opacity:1;fill-rule:evenodd;stroke:none"
         d="m 103.03001,39.86059 c -0.7607,-1.15234 -3.103399,-4.61346 -5.003299,-6.73997"
         id="path4521"
         inkscape:connector-curvature="0"
         sodipodi:nodetypes="cc" />
      <path
         inkscape:export-ydpi="199.81471"
         inkscape:export-xdpi="199.81471"
         inkscape:export-filename="/home/alexvsharp/Desktop/jjj"
         sodipodi:nodetypes="cc"
         inkscape:connector-curvature="0"
         id="path4525"
         d="m 97.301711,37.07823 c -3.7886,-4.09837 -5.8858,-4.61346 -7.7857,-6.73997"
         style="display:inline;fill:#ebebeb;fill-opacity:1;fill-rule:evenodd;stroke:none" />
      <path
         inkscape:export-ydpi="199.81471"
         inkscape:export-xdpi="199.81471"
         inkscape:export-filename="/home/alexvsharp/Desktop/jjj"
         style="display:inline;fill:#ebebeb;fill-opacity:1;fill-rule:evenodd;stroke:none"
         d="m 93.782911,37.65107 c -2.8018,-3.87692 -11.6142,-2.0766 -16.2965,-2.73009"
         id="path4529"
         inkscape:connector-curvature="0"
         sodipodi:nodetypes="cc" />
    </g>
    <g
       style="display:inline"
       id="g4515"
       transform="matrix(3.7102812,-0.06220904,0.06220904,3.7102812,-92.726723,-591.66636)">
      <path
         inkscape:export-ydpi="199.81471"
         inkscape:export-xdpi="199.81471"
         inkscape:export-filename="/home/alexvsharp/Desktop/jjj"
         style="display:inline;fill:#075c83;fill-opacity:1;fill-rule:evenodd;stroke:none"
         d="m 112.66547,39.13721 c 6.6074,1.48652 16.19767,-8.329934 15.26627,-9.167384 -5.6627,-0.36283 -7.2593,3.86946 -6.9441,3.09512 1.0909,-2.68011 2.0897,-4.70389 3.2283,-7.25457 -2.191,1.81053 -5.3934,4.81415 -7.9576,8.45216 0.9295,-2.48505 1.6347,-3.4217 1.0614,-5.89875 -1.6411,3.10245 -4.06607,6.956424 -4.65427,10.773424 z"
         id="path4481"
         inkscape:connector-curvature="0"
         sodipodi:nodetypes="ccscccc" />
      <path
         style="display:inline;fill:#011f31;fill-opacity:1;stroke:#000000;stroke-width:0.61223298;stroke-opacity:1"
         d="m 114.39144,36.380436 4.9269,-7.05098 c 0,0 0.3499,3.02073 -0.4129,4.69934 3.7456,-5.08311 7.5868,-6.58598 7.5868,-6.58598 0,0 -2.3628,3.93569 -2.9984,5.33453 2.8027,-1.7448 12.8763,-0.69343 12.8763,-0.69343 -9.3833,3.70811 -27.0911,13.13794 -21.9787,4.29652 z"
         id="path4403"
         inkscape:connector-curvature="0"
         sodipodi:nodetypes="ccccccc"
         inkscape:export-filename="/home/alexvsharp/Desktop/jjj"
         inkscape:export-xdpi="199.81471"
         inkscape:export-ydpi="199.81471" />
      <path
         inkscape:export-ydpi="199.81471"
         inkscape:export-xdpi="199.81471"
         inkscape:export-filename="/home/alexvsharp/Desktop/jjj"
         sodipodi:nodetypes="cc"
         inkscape:connector-curvature="0"
         id="path4533"
         d="m 114.02784,38.201686 c 0.7607,-1.15234 3.9217,-4.85896 4.8396,-7.64015"
         style="display:inline;fill:#ebebeb;fill-opacity:1;fill-rule:evenodd;stroke:none" />
      <path
         inkscape:export-ydpi="199.81471"
         inkscape:export-xdpi="199.81471"
         inkscape:export-filename="/home/alexvsharp/Desktop/jjj"
         style="display:inline;fill:#ebebeb;fill-opacity:1;fill-rule:evenodd;stroke:none"
         d="m 119.58294,34.266836 c 0.7607,-1.15234 4.5004,-5.43761 6.1126,-5.78846"
         id="path4537"
         inkscape:connector-curvature="0"
         sodipodi:nodetypes="cc" />
      <path
         inkscape:export-ydpi="199.81471"
         inkscape:export-xdpi="199.81471"
         inkscape:export-filename="/home/alexvsharp/Desktop/jjj"
         sodipodi:nodetypes="cc"
         inkscape:connector-curvature="0"
         id="path4541"
         d="m 121.89754,35.424146 c 0.8764,-3.2355 7.3937,-3.58592 13.2879,-3.12665"
         style="display:inline;fill:#ebebeb;fill-opacity:1;fill-rule:evenodd;stroke:none" />
    </g>
    <path
       sodipodi:nodetypes="ccsccccscc"
       inkscape:connector-curvature="0"
       id="path8299"
       d="m 220.9277,-440.24959 34.26272,-1.16411 c 29.43933,-11.20131 81.67918,-17.41844 124.20907,-17.69821 14.41117,-0.0948 28.36395,49.21042 16.5583,58.04466 -3.29054,1.38064 -30.65298,-2.83777 -30.65298,-2.83777 l -24.90354,-8.24977 -23.05802,21.46543 c -17.90629,8.73981 -38.28431,14.39008 -50.41682,15.35281 -15.94342,1.2651 -36.70203,-21.117 -36.70203,-21.117 -13.41509,-29.02716 -6.41952,-37.96386 -9.2967,-43.79604 z"
       style="display:inline;fill:#96d8ff;fill-opacity:1;stroke:#000000;stroke-width:3.44324565px;stroke-linecap:butt;stroke-linejoin:miter;stroke-opacity:1"
       inkscape:export-filename="/home/alexvsharp/Desktop/jjj"
       inkscape:export-xdpi="199.81471"
       inkscape:export-ydpi="199.81471" />
    <path
       style="display:inline;fill:#d7eef4;fill-opacity:1;fill-rule:evenodd;stroke:none"
       d="m 256.43169,-440.29515 c -21.58272,12.22604 -29.61281,71.0004 47.11708,53.47636 -49.36586,18.66779 -49.84105,5.83285 -66.65583,-5.16212 -16.4005,-11.25342 2.90027,-44.65334 2.89514,-44.69435 z"
       id="path4423"
       inkscape:connector-curvature="0"
       sodipodi:nodetypes="ccccc"
       inkscape:export-filename="/home/alexvsharp/Desktop/jjj"
       inkscape:export-xdpi="199.81471"
       inkscape:export-ydpi="199.81471" />
    <path
       sodipodi:nodetypes="ccccc"
       inkscape:connector-curvature="0"
       id="path4395"
       d="m 258.25993,-440.91201 c -12.25859,3.42562 -40.84413,27.29886 -19.44966,50.37496 l -98.98686,-30.98468 c 0,0 -3.3432,-19.90127 5.9581,-21.80667 z"
       style="display:inline;fill:#000000;fill-opacity:1;stroke:none"
       inkscape:export-filename="/home/alexvsharp/Desktop/jjj"
       inkscape:export-xdpi="199.81471"
       inkscape:export-ydpi="199.81471" />
    <path
       sodipodi:nodetypes="cccc"
       inkscape:connector-curvature="0"
       id="path8303"
       d="m 314.51532,-306.5358 c 0,0 22.24101,3.63895 34.6803,22.27853 26.18609,-22.77095 114.46583,-60.73382 144.66734,-60.12358 -68.75488,-10.4477 -159.44328,27.82694 -179.34764,37.84505 z"
       style="display:inline;fill:#ffe300;fill-opacity:1;stroke:#948d00;stroke-width:1.68543923;stroke-miterlimit:4;stroke-dasharray:none;stroke-opacity:1"
       inkscape:export-filename="/home/alexvsharp/Desktop/jjj"
       inkscape:export-xdpi="199.81471"
       inkscape:export-ydpi="199.81471" />
    <path
       style="display:inline;fill:#d6bf00;fill-opacity:1;fill-rule:evenodd;stroke:none"
       d="m 336.1708,-315.17456 c 26.3563,8.54158 61.84569,-32.61641 150.38555,-30.36349 -48.7725,-4.525 -94.59484,6.75878 -150.38555,30.36349 z"
       id="path4559"
       inkscape:connector-curvature="0"
       sodipodi:nodetypes="ccc"
       inkscape:export-filename="/home/alexvsharp/Desktop/jjj"
       inkscape:export-xdpi="199.81471"
       inkscape:export-ydpi="199.81471" />
    <path
       sodipodi:nodetypes="cccssccc"
       inkscape:connector-curvature="0"
       id="path8301"
       d="m 279.48399,-349.75186 61.22113,-58.75876 c 0,0 190.35269,48.21315 204.66612,75.3925 -45.84803,-15.88148 -88.83727,-20.58688 -159.5963,0.3712 -11.54133,3.41843 -19.93933,6.36136 -32.27312,11.23456 -6.5623,2.5929 -40.39764,-6.96989 -51.29734,-26.97253 -2.25746,14.80803 11.95053,41.24467 11.95053,41.24467 -13.22092,-17.53641 -33.76127,-41.11076 -34.67102,-42.51164 z"
       style="display:inline;fill:#ffe300;fill-opacity:1;stroke:#948d00;stroke-width:3.37087846;stroke-opacity:1"
       inkscape:export-filename="/home/alexvsharp/Desktop/jjj"
       inkscape:export-xdpi="199.81471"
       inkscape:export-ydpi="199.81471" />
    <g
       id="g8234"
       transform="matrix(0.98880766,-0.0268333,0.02081808,0.99888509,63.160565,-25.104434)">
      <path
         inkscape:export-ydpi="199.81471"
         inkscape:export-xdpi="199.81471"
         inkscape:export-filename="/home/alexvsharp/Desktop/jjj"
         style="display:inline;fill:#ebebeb;fill-opacity:1;fill-rule:evenodd;stroke:none"
         d="m 181.79312,-363.23512 c -7.575,-4.71835 -53.73642,-16.03758 -93.638547,-32.87595"
         id="path4463"
         inkscape:connector-curvature="0"
         sodipodi:nodetypes="cc" />
      <path
         inkscape:export-ydpi="199.81471"
         inkscape:export-xdpi="199.81471"
         inkscape:export-filename="/home/alexvsharp/Desktop/jjj"
         sodipodi:nodetypes="cc"
         inkscape:connector-curvature="0"
         id="path4467"
         d="m 200.55418,-410.27359 c -8.91831,-0.3293 -69.08029,3.0637 -109.634537,-4.23808"
         style="display:inline;fill:#ebebeb;fill-opacity:1;fill-rule:evenodd;stroke:none" />
    </g>
    <path
       inkscape:connector-curvature="0"
       id="path4845"
       d="m 702.05603,-222.28611 c -44.54934,11.18855 -102.03236,44.43656 -133.58007,70.5723 14.88004,22.75272 25.86494,49.46969 30.90142,75.504802 33.64949,-42.244922 71.25165,-97.563812 102.67865,-146.077102 z"
       style="display:inline;fill:#006ea1;fill-opacity:1;stroke:none;stroke-width:3.37087846px;stroke-linecap:butt;stroke-linejoin:miter;stroke-opacity:1"
       sodipodi:nodetypes="cccc" />
    <ellipse
       style="opacity:1;fill:#666666;fill-opacity:1;stroke:#666666;stroke-width:18;stroke-linecap:butt;stroke-linejoin:round;stroke-miterlimit:4;stroke-dasharray:none;stroke-opacity:1"
       id="path7301"
       cx="976.90106"
       cy="15.372336"
       rx="155.45135"
       ry="35.052753"
       transform="matrix(0.97727488,0.21197598,-0.21197598,0.97727488,0,0)" />
    <rect
       style="opacity:1;fill:#999999;fill-opacity:1;stroke:#999999;stroke-width:18;stroke-linecap:butt;stroke-linejoin:round;stroke-miterlimit:4;stroke-dasharray:none;stroke-opacity:1"
       id="rect7303"
       width="79.24971"
       height="152.40329"
       x="947.2066"
       y="-153.97151"
       transform="matrix(0.97649567,0.21553701,-0.21553701,0.97649567,0,0)" />
    <path
       sodipodi:nodetypes="ccccc"
       inkscape:connector-curvature="0"
       id="path7294"
       d="M 775.75863,-329.68848 1293.5715,-206.16535 1266.3619,209.04939 748.63368,73.443524 Z"
       style="opacity:1;fill:#666666;fill-opacity:1;stroke:#666666;stroke-width:18;stroke-linecap:butt;stroke-linejoin:round;stroke-miterlimit:4;stroke-dasharray:none;stroke-opacity:1" />
    <path
       style="opacity:1;fill:#000000;fill-opacity:1;stroke:none;stroke-width:7;stroke-linecap:butt;stroke-miterlimit:4;stroke-dasharray:none;stroke-opacity:1"
       d="M 793.57851,-305.06286 1264.0565,-192.83135 1239.3343,184.42733 768.93313,61.217616 Z"
       id="rect7287"
       inkscape:connector-curvature="0"
       sodipodi:nodetypes="ccccc" />
    <path
       style="opacity:1;fill:#666666;fill-opacity:1;stroke:#666666;stroke-width:18;stroke-linecap:butt;stroke-linejoin:round;stroke-miterlimit:4;stroke-dasharray:none;stroke-opacity:1"
       d="m 775.75863,-329.68848 517.81287,123.52313 c -6.314,-11.20393 -27.863,-24.69654 -45.4531,-30.26236 -112.3653,-32.90509 -221.4487,-57.82136 -353.56594,-85.08303 -75.06433,-9.81919 -81.9498,-6.00261 -118.79383,-8.17774 z"
       id="path7299"
       inkscape:connector-curvature="0"
       sodipodi:nodetypes="ccccc" />
    <text
       transform="matrix(1.0742932,0.27324398,-0.04692086,0.91891037,0,0)"
       sodipodi:linespacing="125%"
       id="text4965"
       y="-423.86871"
       x="824.17346"
       style="font-style:normal;font-weight:normal;font-size:127.86155701px;line-height:125%;font-family:Sans;letter-spacing:0px;word-spacing:0px;fill:#00ff00;fill-opacity:1;stroke:none;stroke-width:1px;stroke-linecap:butt;stroke-linejoin:miter;stroke-opacity:1"
       xml:space="preserve"><tspan
         y="-423.86871"
         x="824.17346"
         id="tspan4967"
         sodipodi:role="line">July</tspan></text>
    <text
       xml:space="preserve"
       style="font-style:normal;font-weight:normal;font-size:127.86155701px;line-height:125%;font-family:Sans;letter-spacing:0px;word-spacing:0px;fill:#00ff00;fill-opacity:1;stroke:none;stroke-width:1px;stroke-linecap:butt;stroke-linejoin:miter;stroke-opacity:1"
       x="817.54895"
       y="-299.93268"
       id="text6953"
       sodipodi:linespacing="125%"
       transform="matrix(1.0742932,0.27324398,-0.04692086,0.91891037,0,0)"><tspan
         sodipodi:role="line"
         id="tspan6955"
         x="817.54895"
         y="-299.93268">July</tspan></text>
    <text
       transform="matrix(1.0742932,0.27324398,-0.04692086,0.91891037,0,0)"
       sodipodi:linespacing="125%"
       id="text6957"
       y="-174.27013"
       x="813.0061"
       style="font-style:normal;font-weight:normal;font-size:127.86155701px;line-height:125%;font-family:Sans;letter-spacing:0px;word-spacing:0px;fill:#00ff00;fill-opacity:1;stroke:none;stroke-width:1px;stroke-linecap:butt;stroke-linejoin:miter;stroke-opacity:1"
       xml:space="preserve"><tspan
         y="-174.27013"
         x="813.0061"
         id="tspan6959"
         sodipodi:role="line">July</tspan></text>
  </g>
  <g
     inkscape:label="back"
     inkscape:groupmode="layer"
     id="layer1"
     transform="translate(-26.354379,594.37339)"
     style="display:inline" />
  <g
     inkscape:groupmode="layer"
     id="layer10"
     inkscape:label="back-s&amp;h"
     style="display:inline"
     transform="translate(0,603)" />
  <g
     inkscape:groupmode="layer"
     id="layer11"
     inkscape:label="front"
     style="display:inline"
     transform="translate(0,603)" />
  <g
     inkscape:groupmode="layer"
     id="layer12"
     inkscape:label="front-shade"
     style="display:inline"
     transform="translate(0,603)" />
  <g
     inkscape:groupmode="layer"
     id="layer3"
     inkscape:label="laptop"
     style="display:inline"
     transform="translate(0,603)">
    <path
       style="fill:#000000;fill-opacity:0;stroke:none"
       d="m -307.22483,-71.449234 492.0801,0 0,389.019114 -492.0801,0 z"
       id="rect4965"
       inkscape:connector-curvature="0" />
  </g>
  <g
     inkscape:groupmode="layer"
     id="layer4"
     inkscape:label="hand-right"
     style="display:inline"
     transform="translate(0,603)" />
  <g
     inkscape:groupmode="layer"
     id="layer9"
     inkscape:label="!eyes"
     style="display:inline"
     transform="translate(0,603)" />
  <g
     inkscape:groupmode="layer"
     id="layer7"
     inkscape:label="eyebrow"
     style="display:inline"
     transform="translate(0,603)" />
  <g
     inkscape:groupmode="layer"
     id="layer5"
     inkscape:label="goggles"
     style="display:inline"
     transform="translate(0,603)" />
  <g
     inkscape:groupmode="layer"
     id="layer6"
     inkscape:label="beak"
     style="display:inline"
     transform="translate(0,603)" />
  <g
     inkscape:groupmode="layer"
     id="layer2"
     inkscape:label="icon-border"
     style="display:none"
     transform="translate(0,603)">
    <rect
       style="fill:none;stroke:#000000;stroke-width:0.1;stroke-linecap:square;stroke-linejoin:miter;stroke-miterlimit:4;stroke-dasharray:none;stroke-dashoffset:0;stroke-opacity:1"
       id="rect5142-3"
       width="149.14507"
       height="149.14507"
       x="49.606056"
       y="0.034620002"
       inkscape:export-xdpi="300"
       inkscape:export-ydpi="300" />
  </g>
</svg>
