<?xml version="1.0" encoding="UTF-8" standalone="no"?>
<!-- Created with Inkscape (http://www.inkscape.org/) -->

<svg
   xmlns:dc="http://purl.org/dc/elements/1.1/"
   xmlns:cc="http://creativecommons.org/ns#"
   xmlns:rdf="http://www.w3.org/1999/02/22-rdf-syntax-ns#"
   xmlns:svg="http://www.w3.org/2000/svg"
   xmlns="http://www.w3.org/2000/svg"
   xmlns:sodipodi="http://sodipodi.sourceforge.net/DTD/sodipodi-0.dtd"
   xmlns:inkscape="http://www.inkscape.org/namespaces/inkscape"
   width="210mm"
   height="400mm"
   viewBox="0 0 744.09447 1417.3228"
   id="svg2"
   version="1.1"
   inkscape:version="0.91 r13725"
   sodipodi:docname="penguin2.svg"
   inkscape:export-filename="/tmp/te.png"
   inkscape:export-xdpi="199"
   inkscape:export-ydpi="199">
  <defs
     id="defs4" />
  <sodipodi:namedview
     id="base"
     pagecolor="#ffffff"
     bordercolor="#666666"
     borderopacity="1.0"
     inkscape:pageopacity="0.0"
     inkscape:pageshadow="2"
     inkscape:zoom="0.35"
     inkscape:cx="349.16069"
     inkscape:cy="740.02373"
     inkscape:document-units="px"
     inkscape:current-layer="layer1"
     showgrid="false"
     showguides="true"
     inkscape:guide-bbox="true"
     inkscape:window-width="1680"
     inkscape:window-height="976"
     inkscape:window-x="0"
     inkscape:window-y="27"
     inkscape:window-maximized="1"
     height="500mm">
    <sodipodi:guide
       orientation="0,1"
       position="372.99883,892.21724"
       id="guide5869" />
    <sodipodi:guide
       orientation="1,0"
       position="608.11183,-137.38075"
       id="guide5883" />
    <sodipodi:guide
       orientation="1,0"
       position="137.14286,495.71429"
       id="guide5885" />
    <sodipodi:guide
       orientation="0,1"
       position="471.42857,120"
       id="guide5887" />
    <sodipodi:guide
       orientation="1,0"
       position="265.71429,625.71429"
       id="guide6135" />
    <sodipodi:guide
       orientation="1,0"
       position="491.42857,531.42857"
       id="guide6137" />
    <sodipodi:guide
       orientation="0,1"
       position="434.28571,48.57143"
       id="guide6139" />
    <sodipodi:guide
       orientation="0,1"
       position="137.14286,177.14286"
       id="guide6143" />
    <sodipodi:guide
       orientation="0,1"
       position="352.14286,413.57143"
       id="guide6158" />
    <sodipodi:guide
       orientation="0,1"
       position="400.52548,389.41381"
       id="guide6160" />
    <sodipodi:guide
       orientation="0,1"
       position="384.64286,351.78571"
       id="guide6162" />
    <sodipodi:guide
       orientation="0,1"
       position="456.42857,725"
       id="guide6164" />
    <sodipodi:guide
       orientation="0,1"
       position="465,530"
       id="guide6166" />
    <sodipodi:guide
       orientation="0,1"
       position="100.71429,802.85714"
       id="guide6175" />
    <sodipodi:guide
       orientation="0,1"
       position="382.85714,690"
       id="guide6414" />
    <sodipodi:guide
       orientation="0,1"
       position="345,445.35714"
       id="guide6425" />
  </sodipodi:namedview>
  <metadata
     id="metadata7">
    <rdf:RDF>
      <cc:Work
         rdf:about="">
        <dc:format>image/svg+xml</dc:format>
        <dc:type
           rdf:resource="http://purl.org/dc/dcmitype/StillImage" />
        <dc:title></dc:title>
      </cc:Work>
    </rdf:RDF>
  </metadata>
  <g
     inkscape:label="Layer 1"
     inkscape:groupmode="layer"
     id="layer1"
     transform="translate(0,364.96065)">
    <g
       id="g4389"
       transform="matrix(1,0,0,1.1848577,-2.7525381,-702.22887)">
      <ellipse
         style="opacity:1;fill:#ffff00;fill-opacity:1;stroke:none;stroke-width:14.39999962;stroke-linecap:butt;stroke-miterlimit:4;stroke-dasharray:none;stroke-opacity:1"
         id="ellipse4370"
         cx="372.04724"
         cy="1398.0082"
         rx="303.53656"
         ry="73.415535" />
      <ellipse
         ry="68.679047"
         rx="293.41867"
         cy="1394.3368"
         cx="372.04724"
         id="ellipse4372"
         style="opacity:1;fill:#552200;fill-opacity:1;stroke:none;stroke-width:14.39999962;stroke-linecap:butt;stroke-miterlimit:4;stroke-dasharray:none;stroke-opacity:1" />
    </g>
    <path
       style="opacity:1;fill:#552200;fill-opacity:1;stroke:none;stroke-width:7;stroke-linecap:butt;stroke-miterlimit:4;stroke-dasharray:none;stroke-opacity:1"
       d="m 75.934756,637.64061 586.898624,0 0,313.63743 -586.898624,0 z"
       id="rect4345"
       inkscape:connector-curvature="0" />
    <ellipse
       style="opacity:1;fill:#ffff00;fill-opacity:1;stroke:none;stroke-width:14.39999962;stroke-linecap:butt;stroke-miterlimit:4;stroke-dasharray:none;stroke-opacity:1"
       id="ellipse4350"
       cx="369.19009"
       cy="648.42651"
       rx="303.53656"
       ry="72.40538" />
    <ellipse
       ry="67.734062"
       rx="293.41867"
       cy="646.09082"
       cx="369.19009"
       id="ellipse3543"
       style="opacity:1;fill:#d40000;fill-opacity:1;stroke:none;stroke-width:14.39999962;stroke-linecap:butt;stroke-miterlimit:4;stroke-dasharray:none;stroke-opacity:1" />
    <path
       style="opacity:0.15800003;fill:#000000;fill-opacity:1;stroke:none;stroke-width:14.39999962;stroke-linecap:butt;stroke-miterlimit:4;stroke-dasharray:none;stroke-opacity:1"
       d="m 635.30871,631.57996 c -3.20104,26.16068 -124.54599,92.09188 -318.24743,105.57228 -182.33907,12.6897 -174.31786,295.98036 -245.273746,234.0362 -7.161241,-6.8097 -10.166976,-28.2739 4.119306,-38.7524 0.377637,-87.934 0.07768,-158.9345 0.09625,-241.4971 0.184417,-10.3864 0.340307,-13.4307 0.271573,-23.7015 -21.765349,-16.7559 -3.72014,-34.72344 -1.499839,-36.88541 33.846666,-26.19351 87.316296,-42.58592 184.145766,-32.33807 192.71774,20.3961 381.38804,-7.29619 376.38812,33.566 z"
       id="path6133"
       inkscape:connector-curvature="0"
       sodipodi:nodetypes="ssccccccs" />
    <path
       style="opacity:1;fill:#000000;fill-opacity:1;stroke:none;stroke-width:14.39999962;stroke-linecap:butt;stroke-miterlimit:4;stroke-dasharray:none;stroke-opacity:1"
       d="m 428.54093,592.54665 58.47423,-9.04782 c 34.21962,7.23007 69.94844,24.71619 83.57464,36.38514 37.33869,37.11037 -190.271,67.83067 -184.80752,28.59547 8.08993,-18.35167 23.15126,-44.41351 42.75865,-55.93279 z"
       id="rect5905"
       inkscape:connector-curvature="0"
       sodipodi:nodetypes="ccccc" />
    <path
       sodipodi:nodetypes="ccccc"
       inkscape:connector-curvature="0"
       id="path6021"
       d="M 315.16548,592.77035 256.728,583.4741 c -34.2483,7.08457 -70.04688,24.4187 -83.71971,36.02967 -37.48704,36.95137 189.99762,68.63867 184.69139,29.38067 -8.01635,-18.38597 -22.97313,-44.51157 -42.5342,-56.11409 z"
       style="opacity:1;fill:#000000;fill-opacity:1;stroke:none;stroke-width:14.39999962;stroke-linecap:butt;stroke-miterlimit:4;stroke-dasharray:none;stroke-opacity:1" />
    <path
       sodipodi:nodetypes="ssccccccs"
       inkscape:connector-curvature="0"
       id="path4375"
       d="m 635.30871,641.60943 c -3.20104,33.32011 -124.54599,117.29461 -318.24743,134.46421 -182.33907,16.1624 -174.82294,358.00366 -245.778822,279.10726 -7.161241,-8.6733 -9.283093,-22.8239 4.750651,-32.9535 0.377637,-111.99886 -0.04859,-199.85676 -0.03002,-305.01426 0.184417,-13.2288 0.342935,-36.1421 0.274201,-49.2238 -21.765349,-21.3414 -3.812054,-33.26441 -2.752467,-36.13176 27.685947,-24.37796 88.566297,-46.05252 185.395767,-33.00014 192.71774,25.97789 381.38804,-9.29294 376.38812,42.75199 z"
       style="opacity:0;fill:#000000;fill-opacity:1;stroke:none;stroke-width:14.39999962;stroke-linecap:butt;stroke-miterlimit:4;stroke-dasharray:none;stroke-opacity:1" />
    <path
       inkscape:connector-curvature="0"
       style="opacity:1;fill:#006ea1;fill-opacity:1;stroke:none;stroke-width:14.39999962;stroke-linecap:butt;stroke-miterlimit:4;stroke-dasharray:none;stroke-opacity:1"
       d="m 369.33222,-201.71944 c -210.44439,1e-5 -351.585001,529.19194 -291.08236,735.0611 23.47688,79.88357 171.95805,103.98251 291.08236,109.18141 119.12431,-5.1989 267.60548,-29.29784 291.08237,-109.18141 60.50263,-205.86916 -80.63798,-735.06109 -291.08237,-735.0611 z"
       id="rect5889" />
    <path
       inkscape:connector-curvature="0"
       style="opacity:1;fill:#ffffff;fill-opacity:1;stroke:none;stroke-width:14.39999962;stroke-linecap:butt;stroke-miterlimit:4;stroke-dasharray:none;stroke-opacity:1"
       d="m 369.33222,-69.880558 c -154.46968,10e-6 -258.06811,438.640218 -213.65824,609.282618 17.23246,66.21452 126.21902,86.19001 213.65824,90.49931 87.43923,-4.3093 196.42806,-24.28479 213.66052,-90.49931 44.40987,-170.6424 -59.19083,-609.282608 -213.66052,-609.282618 z"
       id="path5900" />
    <path
       style="opacity:0.27099998;fill:#000000;fill-opacity:1;stroke:none;stroke-width:14.39999962;stroke-linecap:butt;stroke-miterlimit:4;stroke-dasharray:none;stroke-opacity:1"
       d="M 632.29745,138.2734 519.75153,-11.315688 C 566.96241,581.76327 757.48279,717.26494 632.29745,138.2734 Z"
       id="path6131"
       inkscape:connector-curvature="0"
       sodipodi:nodetypes="ccc" />
    <path
       style="opacity:1;fill:#006ea1;fill-opacity:1;stroke:none;stroke-width:14.39999962;stroke-linecap:butt;stroke-miterlimit:4;stroke-dasharray:none;stroke-opacity:1"
       d="M 621.90417,54.048172 C 652.96867,103.41489 752.97603,510.38049 720.7002,517.90162 688.42427,525.42272 562.85165,184.46594 538.80345,129.43762 502.53129,46.437782 509.41489,3.6995018 524.16887,-30.096918 c 8.01102,-18.35054 29.42038,-22.40312 41.18523,-0.80126 12.54535,23.0349498 26.55691,37.2821698 56.55007,84.94635 z"
       id="path5902"
       inkscape:connector-curvature="0"
       sodipodi:nodetypes="ssssss" />
    <path
       sodipodi:nodetypes="ccc"
       inkscape:connector-curvature="0"
       id="path6129"
       d="M 105.63853,146.85969 224.06918,-5.2547782 C 146.95828,500.31053 -26.988499,665.91944 105.63853,146.85969 Z"
       style="opacity:0.27099998;fill:#000000;fill-opacity:1;stroke:none;stroke-width:14.39999962;stroke-linecap:butt;stroke-miterlimit:4;stroke-dasharray:none;stroke-opacity:1" />
    <path
       sodipodi:nodetypes="ssssss"
       inkscape:connector-curvature="0"
       id="path6031"
       d="M 116.76093,54.048172 C 85.696434,103.41489 -11.536853,511.37833 20.738981,518.89946 53.014911,526.42056 175.81345,184.46594 199.86165,129.43762 236.13381,46.437782 229.2502,3.6995018 214.49622,-30.096918 c -8.01101,-18.35054 -29.42037,-22.40312 -41.18522,-0.80126 -12.54535,23.0349498 -26.55691,37.2821698 -56.55007,84.94635 z"
       style="opacity:1;fill:#006ea1;fill-opacity:1;stroke:none;stroke-width:14.39999962;stroke-linecap:butt;stroke-miterlimit:4;stroke-dasharray:none;stroke-opacity:1" />
    <path
       style="opacity:0.20800003;fill:#000000;fill-opacity:1;stroke:none;stroke-width:14.39999962;stroke-linecap:butt;stroke-miterlimit:4;stroke-dasharray:none;stroke-opacity:1"
       d="m 259.79539,-106.33671 219.08322,-1.01016 c 58.21108,253.30523 5.51786,745.8751 -106.82217,745.43871 -57.37975,-2.3343 -96.26046,-0.45119 -155.1306,-14.23868 -142.70541,-48.63381 -55.83639,-336.3062 42.86955,-730.18987 z"
       id="rect6117"
       inkscape:connector-curvature="0"
       sodipodi:nodetypes="ccccc" />
    <path
       style="opacity:1;fill:#cccc0e;fill-opacity:1;stroke:none;stroke-width:14.39999962;stroke-linecap:butt;stroke-miterlimit:4;stroke-dasharray:none;stroke-opacity:1"
       d="m 514.74807,508.49541 c 0,125.81996 -75.67444,147.64113 -145.41459,147.64113 -69.74014,0 -145.41646,-21.82117 -145.41646,-147.64113 0,-125.81998 75.67632,-256.17215 145.41646,-256.17215 69.74015,-3e-5 145.41459,130.35215 145.41459,256.17215 z"
       id="path6070"
       inkscape:connector-curvature="0"
       sodipodi:nodetypes="sssss" />
    <path
       sodipodi:nodetypes="ccc"
       inkscape:connector-curvature="0"
       id="path6147"
       d="m 269.95661,-141.37559 198.88361,4.28225 c -11.06874,512.54798 -298.25224,517.00453 -198.88361,-4.28225 z"
       style="opacity:0.07399998;fill:#000000;fill-opacity:1;stroke:none;stroke-width:14.39999962;stroke-linecap:butt;stroke-miterlimit:4;stroke-dasharray:none;stroke-opacity:1" />
    <path
       inkscape:connector-curvature="0"
       style="opacity:1;fill:#000000;fill-opacity:1;stroke:none;stroke-width:14.39999962;stroke-linecap:butt;stroke-miterlimit:4;stroke-dasharray:none;stroke-opacity:1"
       d="m 331.6116,117.40704 c 21.72097,81.26929 -4.68803,119.58593 37.72062,169.97058 42.40865,-50.38465 16.00193,-88.70129 37.7229,-169.97058 l -37.7229,0 -37.72062,0 z"
       id="rect5894" />
    <path
       inkscape:connector-curvature="0"
       style="opacity:1;fill:#006ea1;fill-opacity:1;stroke:none;stroke-width:14.39999962;stroke-linecap:butt;stroke-miterlimit:4;stroke-dasharray:none;stroke-opacity:1"
       d="m 369.33222,-201.28986 c -42.80955,2.12426 -96.16892,11.97062 -104.60577,44.61062 -21.74276,84.117062 28.97865,300.34229 104.60577,300.34232 75.62712,-3e-5 126.34852,-216.225258 104.60577,-300.34232 -8.43686,-32.64 -61.79621,-42.48636 -104.60577,-44.61062 z"
       id="path5892" />
    <path
       id="path6141"
       d="m 375.74503,-177.24067 c -24.29076,2.54678 -100.76606,46.36937 -72.81733,83.238072 17.66738,23.30601 122.47725,74.54501 127.71623,149.77084 2.99266,42.97093 26.02581,-119.59573 11.04948,-174.857732 -5.8113,-21.44333 -41.52599,-57.87764 -65.94838,-58.15118 z"
       style="opacity:0.04100001;fill:#ffffff;fill-opacity:1;stroke:none;stroke-width:14.39999962;stroke-linecap:butt;stroke-miterlimit:4;stroke-dasharray:none;stroke-opacity:1"
       inkscape:connector-curvature="0"
       sodipodi:nodetypes="csssc" />
    <path
       style="opacity:0.03299997;fill:#ffffff;fill-opacity:1;stroke:none;stroke-width:14.39999962;stroke-linecap:butt;stroke-miterlimit:4;stroke-dasharray:none;stroke-opacity:1"
       d="m 422.16946,-102.54162 c 9.67584,21.168292 11.75856,28.030932 10.38322,92.7880618 -29.85842,-57.2342298 -39.52592,-94.5132018 -73.48747,-68.5386498 -18.48753,14.13967 -12.77105,-39.139512 0.74948,-45.319612 13.52051,-6.18011 52.67893,-0.0981 62.35477,21.0702 z"
       id="path6145"
       inkscape:connector-curvature="0"
       sodipodi:nodetypes="scscs" />
    <path
       sodipodi:nodetypes="sssss"
       inkscape:connector-curvature="0"
       id="path6410"
       d="m 135.92581,81.311452 c 1.12226,15.77165 -3.8422,75.412828 15.68611,85.961958 11.59382,6.26294 61.29566,-108.963428 53.13476,-136.296268 -3.60262,-12.06602 -8.3835,-22.8571402 -18.72507,-22.8571402 -10.34156,0 -55.16986,1.8827202 -50.0958,73.1914502 z"
       style="opacity:0.05199998;fill:#ffffff;fill-opacity:1;stroke:none;stroke-width:14.39999962;stroke-linecap:butt;stroke-miterlimit:4;stroke-dasharray:none;stroke-opacity:1" />
    <text
       xml:space="preserve"
       style="font-style:normal;font-variant:normal;font-weight:normal;font-stretch:normal;font-size:55.81031799px;line-height:125%;font-family:Wargames;-inkscape-font-specification:Wargames;text-align:center;letter-spacing:0px;word-spacing:0px;text-anchor:middle;fill:#000000;fill-opacity:1;stroke:none;stroke-width:1px;stroke-linecap:butt;stroke-linejoin:miter;stroke-opacity:1"
       x="370.70255"
       y="430.63583"
       id="text4235"
       sodipodi:linespacing="125%"><tspan
         sodipodi:role="line"
         id="tspan4237"
         x="370.70255"
         y="430.63583">Game of</tspan><tspan
         sodipodi:role="line"
         x="370.70255"
         y="500.39874"
         id="tspan4247">the Year</tspan></text>
    <text
       sodipodi:linespacing="125%"
       id="text4249"
       y="603.16461"
       x="286.38214"
       style="font-style:normal;font-variant:normal;font-weight:normal;font-stretch:normal;font-size:80.58480072px;line-height:125%;font-family:Wargames;-inkscape-font-specification:Wargames;letter-spacing:0px;word-spacing:0px;fill:#000000;fill-opacity:1;stroke:none;stroke-width:1px;stroke-linecap:butt;stroke-linejoin:miter;stroke-opacity:1"
       xml:space="preserve"><tspan
         id="tspan4253"
         y="603.16461"
         x="286.38214"
         sodipodi:role="line">2015</tspan></text>
    <path
       style="opacity:0.17600002;fill:#ffffff;fill-opacity:1;stroke:none;stroke-width:14.39999962;stroke-linecap:butt;stroke-miterlimit:4;stroke-dasharray:none;stroke-opacity:1"
       d="M 451.7912,602.7193 C 489.28461,486.68269 257.43197,295.80552 343.60194,298.07645 c 70.57162,0 91.12933,-2.27093 118.07193,50.53571 10.14122,19.87645 71.58279,252.38099 -9.88267,254.10714 z"
       id="path6168"
       inkscape:connector-curvature="0"
       sodipodi:nodetypes="ccsc" />
    <path
       sodipodi:nodetypes="ccsc"
       inkscape:connector-curvature="0"
       id="path4178"
       d="m 436.94881,439.47171 c 8.19055,-47.36732 -92.89194,-108.98936 -59.13618,-112.88702 27.54209,-3.91796 35.43911,-5.94555 48.88572,13.16759 5.06132,7.1942 41.94827,94.52301 10.25046,99.71943 z"
       style="opacity:0.17600002;fill:#ffffff;fill-opacity:1;stroke:none;stroke-width:14.39999962;stroke-linecap:butt;stroke-miterlimit:4;stroke-dasharray:none;stroke-opacity:1" />
    <text
       sodipodi:linespacing="125%"
       id="text4263"
       y="-261.12109"
       x="24.285707"
       style="font-style:normal;font-variant:normal;font-weight:normal;font-stretch:normal;font-size:80.58480072px;line-height:125%;font-family:Wargames;-inkscape-font-specification:Wargames;letter-spacing:0px;word-spacing:0px;fill:#ffffff;fill-opacity:1;stroke:#ffffff;stroke-width:4.69999981;stroke-linecap:butt;stroke-linejoin:miter;stroke-miterlimit:4;stroke-dasharray:none;stroke-opacity:1"
       xml:space="preserve"><tspan
         id="tspan4265"
         y="-261.12109"
         x="24.285707"
         sodipodi:role="line">Gaming On Linux</tspan><tspan
         id="tspan4267"
         y="-160.39009"
         x="24.285707"
         sodipodi:role="line">.com</tspan></text>
    <text
       xml:space="preserve"
       style="font-style:normal;font-variant:normal;font-weight:normal;font-stretch:normal;font-size:80.58480072px;line-height:125%;font-family:Wargames;-inkscape-font-specification:Wargames;letter-spacing:0px;word-spacing:0px;fill:#005e8a;fill-opacity:1;stroke:none;stroke-width:1px;stroke-linecap:butt;stroke-linejoin:miter;stroke-opacity:1"
       x="24.285707"
       y="-261.12109"
       id="text4257"
       sodipodi:linespacing="125%"><tspan
         sodipodi:role="line"
         x="24.285707"
         y="-261.12109"
         id="tspan4259">Gaming On Linux</tspan><tspan
         sodipodi:role="line"
         x="24.285707"
         y="-160.39009"
         id="tspan4261">.com</tspan></text>
    <path
       style="opacity:0.03800001;fill:#ffffff;fill-opacity:1;stroke:none;stroke-width:14.39999962;stroke-linecap:butt;stroke-miterlimit:4;stroke-dasharray:none;stroke-opacity:1"
       d="m 148.5013,75.518762 c 0.63449,8.91675 2.30022,49.542768 13.34085,55.506878 6.55474,3.54085 32.68196,-64.225398 28.06807,-79.678428 -2.03679,-6.82171 -7.23974,-17.20834 -13.0865,-17.20834 -5.84676,0 -31.19112,1.06442 -28.32242,41.37989 z"
       id="path6002"
       inkscape:connector-curvature="0"
       sodipodi:nodetypes="sssss" />
    <path
       sodipodi:nodetypes="sssss"
       inkscape:connector-curvature="0"
       id="path6004"
       d="m 94.001322,533.4045 c 5.746392,6.84763 35.294348,33.1085 46.232568,39.25841 5.9447,3.34235 -23.84965,-44.74238 -21.17379,-100.98755 0.33832,-7.11125 -13.81764,-14.68522 -18.55181,-11.25415 -4.734166,3.43107 -32.488206,42.02297 -6.506968,72.98329 z"
       style="opacity:0.03500001;fill:#ffffff;fill-opacity:1;stroke:none;stroke-width:14.39999962;stroke-linecap:butt;stroke-miterlimit:4;stroke-dasharray:none;stroke-opacity:1" />
    <path
       style="opacity:0.03500001;fill:#ffffff;fill-opacity:1;stroke:none;stroke-width:14.39999962;stroke-linecap:butt;stroke-miterlimit:4;stroke-dasharray:none;stroke-opacity:1"
       d="m 627.94048,561.3855 c -6.50827,6.12809 -38.92645,28.75058 -50.50922,33.57815 -6.295,2.62369 28.92188,-41.64386 32.84666,-97.8157 0.49622,-7.10198 15.44128,-12.96726 19.74139,-9.00574 4.3001,3.96152 27.34711,45.53624 -2.07883,73.24329 z"
       id="path6006"
       inkscape:connector-curvature="0"
       sodipodi:nodetypes="sssss" />
    <path
       style="opacity:0.05199998;fill:#ffffff;fill-opacity:1;stroke:none;stroke-width:14.39999962;stroke-linecap:butt;stroke-miterlimit:4;stroke-dasharray:none;stroke-opacity:1"
       d="M 613.32382,92.423122 C 614.59127,108.18377 656.73528,250.8715 637.20697,261.42063 625.61315,267.68357 522.19991,56.289672 530.36081,28.956832 c 3.60262,-12.06602 8.62461,-25.0772402 18.72507,-22.8571402 8.1126,1.78317 59.15672,23.1389202 64.23794,86.3234302 z"
       id="path5998"
       inkscape:connector-curvature="0"
       sodipodi:nodetypes="sssss" />
    <path
       style="opacity:0.03299997;fill:#ffffff;fill-opacity:1;stroke:none;stroke-width:14.39999962;stroke-linecap:butt;stroke-miterlimit:4;stroke-dasharray:none;stroke-opacity:1"
       d="m 596.53493,79.406982 c 0.56216,10.45107 14.49752,63.456158 2.54058,71.993418 -7.09873,5.0685 -54.99606,-80.758838 -51.88772,-99.382998 1.37217,-8.22159 3.62323,-15.7029 10.41545,-16.55482 6.79221,-0.85192 36.38996,-3.30827 38.93169,43.9444 z"
       id="path6000"
       inkscape:connector-curvature="0"
       sodipodi:nodetypes="sssss" />
    <path
       sodipodi:nodetypes="sssss"
       inkscape:connector-curvature="0"
       id="path4377"
       d="M 613.32382,92.423122 C 614.59127,108.18377 656.73528,250.8715 637.20697,261.42063 625.61315,267.68357 522.19991,56.289672 530.36081,28.956832 c 3.60262,-12.06602 8.62461,-25.0772402 18.72507,-22.8571402 8.1126,1.78317 59.15672,23.1389202 64.23794,86.3234302 z"
       style="opacity:0.05199998;fill:#ffffff;fill-opacity:1;stroke:none;stroke-width:14.39999962;stroke-linecap:butt;stroke-miterlimit:4;stroke-dasharray:none;stroke-opacity:1" />
    <path
       sodipodi:nodetypes="sssss"
       inkscape:connector-curvature="0"
       id="path4379"
       d="m 596.53493,79.406982 c 0.56216,10.45107 14.49752,63.456158 2.54058,71.993418 -7.09873,5.0685 -54.99606,-80.758838 -51.88772,-99.382998 1.37217,-8.22159 3.62323,-15.7029 10.41545,-16.55482 6.79221,-0.85192 36.38996,-3.30827 38.93169,43.9444 z"
       style="opacity:0.03299997;fill:#ffffff;fill-opacity:1;stroke:none;stroke-width:14.39999962;stroke-linecap:butt;stroke-miterlimit:4;stroke-dasharray:none;stroke-opacity:1" />
    <path
       style="opacity:0.05199998;fill:#ffffff;fill-opacity:1;stroke:none;stroke-width:14.39999962;stroke-linecap:butt;stroke-miterlimit:4;stroke-dasharray:none;stroke-opacity:1"
       d="m 642.37994,823.06694 c -10.82025,11.8566 -59.40231,139.9402 -99.45189,134.0972 -23.77715,-3.4688 -17.77572,-220.9351 17.66764,-234.4927 15.64644,-5.9849 34.34941,-11.6698 48.7999,-3.2902 11.60656,6.7301 76.36296,56.1518 32.98435,103.6857 z"
       id="path4381"
       inkscape:connector-curvature="0"
       sodipodi:nodetypes="sssss" />
    <path
       style="opacity:0.03299997;fill:#ffffff;fill-opacity:1;stroke:none;stroke-width:14.39999962;stroke-linecap:butt;stroke-miterlimit:4;stroke-dasharray:none;stroke-opacity:1"
       d="m 636.12105,810.24774 c -8.02345,8.5718 -29.93299,60.4172 -57.52729,58.0413 -16.38249,-1.4105 -23.8343,-104.494 -2.57142,-116.6647 9.38646,-5.3727 19.62644,-9.5044 31.86815,-5.0385 12.24157,4.4661 64.50685,24.9065 28.23056,63.6619 z"
       id="path4383"
       inkscape:connector-curvature="0"
       sodipodi:nodetypes="sssss" />
  </g>
</svg>
