<?xml version="1.0" encoding="UTF-8" standalone="no"?>
<!-- Created with Inkscape (http://www.inkscape.org/) -->

<svg
   xmlns:dc="http://purl.org/dc/elements/1.1/"
   xmlns:cc="http://creativecommons.org/ns#"
   xmlns:rdf="http://www.w3.org/1999/02/22-rdf-syntax-ns#"
   xmlns:svg="http://www.w3.org/2000/svg"
   xmlns="http://www.w3.org/2000/svg"
   xmlns:sodipodi="http://sodipodi.sourceforge.net/DTD/sodipodi-0.dtd"
   xmlns:inkscape="http://www.inkscape.org/namespaces/inkscape"
   width="210mm"
   height="297mm"
   viewBox="0 0 744.09448 1052.3622"
   id="svg2"
   version="1.1"
   inkscape:version="0.91pre3 r13670"
   sodipodi:docname="penguin.svg"
   inkscape:export-filename="/tmp/text6093.png"
   inkscape:export-xdpi="199"
   inkscape:export-ydpi="199">
  <defs
     id="defs4" />
  <sodipodi:namedview
     id="base"
     pagecolor="#ffffff"
     bordercolor="#666666"
     borderopacity="1.0"
     inkscape:pageopacity="0.0"
     inkscape:pageshadow="2"
     inkscape:zoom="0.7"
     inkscape:cx="281.80607"
     inkscape:cy="499.14126"
     inkscape:document-units="px"
     inkscape:current-layer="layer1"
     showgrid="false"
     showguides="true"
     inkscape:guide-bbox="true"
     inkscape:window-width="1678"
     inkscape:window-height="986"
     inkscape:window-x="0"
     inkscape:window-y="27"
     inkscape:window-maximized="1">
    <sodipodi:guide
       orientation="0,1"
       position="372.99883,892.21724"
       id="guide5869" />
    <sodipodi:guide
       orientation="1,0"
       position="607.14286,428.57143"
       id="guide5883" />
    <sodipodi:guide
       orientation="1,0"
       position="137.14286,495.71429"
       id="guide5885" />
    <sodipodi:guide
       orientation="0,1"
       position="471.42857,120"
       id="guide5887" />
    <sodipodi:guide
       orientation="1,0"
       position="265.71429,625.71429"
       id="guide6135" />
    <sodipodi:guide
       orientation="1,0"
       position="491.42857,531.42857"
       id="guide6137" />
    <sodipodi:guide
       orientation="0,1"
       position="211.12188,57.578695"
       id="guide6139" />
    <sodipodi:guide
       orientation="0,1"
       position="137.14286,177.14286"
       id="guide6143" />
    <sodipodi:guide
       orientation="0,1"
       position="352.14286,413.57143"
       id="guide6158" />
    <sodipodi:guide
       orientation="0,1"
       position="400.52548,389.41381"
       id="guide6160" />
    <sodipodi:guide
       orientation="0,1"
       position="384.64286,351.78571"
       id="guide6162" />
    <sodipodi:guide
       orientation="0,1"
       position="456.42857,725"
       id="guide6164" />
    <sodipodi:guide
       orientation="0,1"
       position="465,530"
       id="guide6166" />
    <sodipodi:guide
       orientation="0,1"
       position="403.57143,803.57143"
       id="guide6175" />
    <sodipodi:guide
       orientation="0,1"
       position="382.85714,690"
       id="guide6414" />
    <sodipodi:guide
       orientation="0,1"
       position="345,445.35714"
       id="guide6425" />
  </sodipodi:namedview>
  <metadata
     id="metadata7">
    <rdf:RDF>
      <cc:Work
         rdf:about="">
        <dc:format>image/svg+xml</dc:format>
        <dc:type
           rdf:resource="http://purl.org/dc/dcmitype/StillImage" />
        <dc:title></dc:title>
      </cc:Work>
    </rdf:RDF>
  </metadata>
  <g
     inkscape:label="Layer 1"
     inkscape:groupmode="layer"
     id="layer1"
     transform="translate(0,-3.464567e-6)">
    <ellipse
       style="opacity:0.27099998;fill:#000000;fill-opacity:1;stroke:none;stroke-width:14.39999962;stroke-linecap:butt;stroke-miterlimit:4;stroke-dasharray:none;stroke-opacity:1"
       id="path6133"
       cx="366.30496"
       cy="985.69208"
       rx="352.10242"
       ry="60.609154" />
    <path
       style="opacity:1;fill:#000000;fill-opacity:1;stroke:none;stroke-width:14.39999962;stroke-linecap:butt;stroke-miterlimit:4;stroke-dasharray:none;stroke-opacity:1"
       d="m 431.39808,949.68951 58.47423,-9.04782 c 34.21962,7.23007 69.94844,24.71619 83.57464,36.38514 37.33869,37.11037 -190.271,67.83067 -184.80752,28.59547 8.08993,-18.35167 23.15126,-44.41351 42.75865,-55.93279 z"
       id="rect5905"
       inkscape:connector-curvature="0"
       sodipodi:nodetypes="ccccc" />
    <path
       sodipodi:nodetypes="ccccc"
       inkscape:connector-curvature="0"
       id="path6021"
       d="m 318.02263,949.91321 -58.43748,-9.29625 c -34.2483,7.08457 -70.04688,24.4187 -83.71971,36.02967 -37.48704,36.95137 189.99762,68.63867 184.69139,29.38067 -8.01635,-18.38597 -22.97313,-44.51157 -42.5342,-56.11409 z"
       style="opacity:1;fill:#000000;fill-opacity:1;stroke:none;stroke-width:14.39999962;stroke-linecap:butt;stroke-miterlimit:4;stroke-dasharray:none;stroke-opacity:1" />
    <path
       inkscape:connector-curvature="0"
       style="opacity:1;fill:#005e8a;fill-opacity:1;stroke:none;stroke-width:14.39999962;stroke-linecap:butt;stroke-miterlimit:4;stroke-dasharray:none;stroke-opacity:1"
       d="M 372.18937,155.42342 C 161.74498,155.42343 20.604362,684.61536 81.107003,890.48452 104.58389,970.36809 253.06506,994.46703 372.18937,999.66593 491.31368,994.46703 639.79485,970.36809 663.27174,890.48452 723.77437,684.61536 582.63376,155.42343 372.18937,155.42342 Z"
       id="rect5889" />
    <path
       style="opacity:0.27099998;fill:#000000;fill-opacity:1;stroke:none;stroke-width:14.39999962;stroke-linecap:butt;stroke-miterlimit:4;stroke-dasharray:none;stroke-opacity:1"
       d="M 635.1546,495.41626 522.60868,345.82717 c 75.31889,498.19146 251.22435,666.16173 112.54592,149.58909 z"
       id="path6131"
       inkscape:connector-curvature="0"
       sodipodi:nodetypes="ccc" />
    <path
       style="opacity:1;fill:#005e8a;fill-opacity:1;stroke:none;stroke-width:14.39999962;stroke-linecap:butt;stroke-miterlimit:4;stroke-dasharray:none;stroke-opacity:1"
       d="m 624.76132,411.19103 c 31.0645,49.36672 131.07186,456.33232 98.79603,463.85345 -32.27593,7.5211 -157.84855,-333.43568 -181.89675,-388.464 -36.27216,-82.99984 -29.38856,-125.73812 -14.63458,-159.53454 8.01102,-18.35054 29.42038,-22.40312 41.18523,-0.80126 12.54535,23.03495 26.55691,37.28217 56.55007,84.94635 z"
       id="path5902"
       inkscape:connector-curvature="0"
       sodipodi:nodetypes="ssssss" />
    <path
       inkscape:connector-curvature="0"
       style="opacity:1;fill:#ffffff;fill-opacity:1;stroke:none;stroke-width:14.39999962;stroke-linecap:butt;stroke-miterlimit:4;stroke-dasharray:none;stroke-opacity:1"
       d="m 372.18937,287.2623 c -154.46968,1e-5 -258.06811,438.64022 -213.65824,609.28262 17.23246,66.21452 126.21902,86.19001 213.65824,90.49931 87.43923,-4.3093 196.42806,-24.28479 213.66052,-90.49931 C 630.25976,725.90252 526.65906,287.26231 372.18937,287.2623 Z"
       id="path5900" />
    <path
       style="opacity:0.20800003;fill:#000000;fill-opacity:1;stroke:none;stroke-width:14.39999962;stroke-linecap:butt;stroke-miterlimit:4;stroke-dasharray:none;stroke-opacity:1"
       d="m 262.65254,250.80615 219.08322,-1.01016 c 58.21108,253.30523 112.83042,744.9875 0.49039,744.55111 -96.17795,0.68893 -108.49109,0.43639 -219.78036,1.92376 -124.21635,-1.48737 -93.91142,-329.27063 0.20675,-745.46471 z"
       id="rect6117"
       inkscape:connector-curvature="0"
       sodipodi:nodetypes="ccccc" />
    <path
       style="opacity:1;fill:#cccc0e;fill-opacity:1;stroke:none;stroke-width:14.39999962;stroke-linecap:butt;stroke-miterlimit:4;stroke-dasharray:none;stroke-opacity:1"
       d="m 517.60522,865.63827 c 0,125.81996 -75.67444,147.64113 -145.41459,147.64113 -69.74014,0 -145.41646,-21.82117 -145.41646,-147.64113 0,-125.81998 75.67632,-256.17215 145.41646,-256.17215 69.74015,-3e-5 145.41459,130.35215 145.41459,256.17215 z"
       id="path6070"
       inkscape:connector-curvature="0"
       sodipodi:nodetypes="sssss" />
    <path
       sodipodi:nodetypes="ccc"
       inkscape:connector-curvature="0"
       id="path6147"
       d="m 272.81376,215.76727 198.88361,4.28225 c 63.27017,480.52696 -273.37468,480.52696 -198.88361,-4.28225 z"
       style="opacity:0.07399998;fill:#000000;fill-opacity:1;stroke:none;stroke-width:14.39999962;stroke-linecap:butt;stroke-miterlimit:4;stroke-dasharray:none;stroke-opacity:1" />
    <path
       inkscape:connector-curvature="0"
       style="opacity:1;fill:#000000;fill-opacity:1;stroke:none;stroke-width:14.39999962;stroke-linecap:butt;stroke-miterlimit:4;stroke-dasharray:none;stroke-opacity:1"
       d="m 334.46875,474.5499 c 21.72097,81.26929 -4.68803,119.58593 37.72062,169.97058 42.40865,-50.38465 16.00193,-88.70129 37.7229,-169.97058 l -37.7229,0 -37.72062,0 z"
       id="rect5894" />
    <path
       inkscape:connector-curvature="0"
       style="opacity:1;fill:#005278;fill-opacity:1;stroke:none;stroke-width:14.39999962;stroke-linecap:butt;stroke-miterlimit:4;stroke-dasharray:none;stroke-opacity:1"
       d="m 372.18937,155.853 c -42.80955,2.12426 -96.16892,11.97062 -104.60577,44.61062 -21.74276,84.11706 28.97865,300.34229 104.60577,300.34232 75.62712,-3e-5 126.34852,-216.22526 104.60577,-300.34232 -8.43686,-32.64 -61.79621,-42.48636 -104.60577,-44.61062 z"
       id="path5892" />
    <path
       sodipodi:nodetypes="ccc"
       inkscape:connector-curvature="0"
       id="path6129"
       d="M 108.49568,504.00255 226.92633,351.88808 C 156.73978,848.84667 -23.854114,1022.6767 108.49568,504.00255 Z"
       style="opacity:0.27099998;fill:#000000;fill-opacity:1;stroke:none;stroke-width:14.39999962;stroke-linecap:butt;stroke-miterlimit:4;stroke-dasharray:none;stroke-opacity:1" />
    <path
       sodipodi:nodetypes="ssssss"
       inkscape:connector-curvature="0"
       id="path6031"
       d="M 119.61808,411.19103 C 88.553577,460.55775 -8.6797106,868.52119 23.596124,876.04232 55.872054,883.56342 178.6706,541.6088 202.7188,486.58048 c 36.27216,-82.99984 29.38855,-125.73812 14.63457,-159.53454 -8.01101,-18.35054 -29.42037,-22.40312 -41.18522,-0.80126 -12.54535,23.03495 -26.55691,37.28217 -56.55007,84.94635 z"
       style="opacity:1;fill:#005e8a;fill-opacity:1;stroke:none;stroke-width:14.39999962;stroke-linecap:butt;stroke-miterlimit:4;stroke-dasharray:none;stroke-opacity:1" />
    <path
       id="path6141"
       d="m 372.02343,155.88997 c -24.38308,1.41169 -54.77503,7.9551 -59.58041,29.64602 -12.38406,55.90004 16.50539,199.59262 59.58041,199.59264 43.07502,-2e-5 71.96445,-143.6926 59.58042,-199.59264 -4.80539,-21.69092 -35.19734,-28.23433 -59.58042,-29.64602 z"
       style="opacity:0.144;fill:#ffffff;fill-opacity:1;stroke:none;stroke-width:14.39999962;stroke-linecap:butt;stroke-miterlimit:4;stroke-dasharray:none;stroke-opacity:1"
       inkscape:connector-curvature="0" />
    <ellipse
       style="opacity:0.144;fill:#ffffff;fill-opacity:1;stroke:none;stroke-width:14.39999962;stroke-linecap:butt;stroke-miterlimit:4;stroke-dasharray:none;stroke-opacity:1"
       id="path6145"
       cx="371.25241"
       cy="216.64789"
       rx="26.91728"
       ry="42.142857" />
    <path
       style="opacity:0.176;fill:#ffffff;fill-opacity:1;stroke:none;stroke-width:14.39999962;stroke-linecap:butt;stroke-miterlimit:4;stroke-dasharray:none;stroke-opacity:1"
       d="M 454.64835,959.86216 C 492.14176,843.82555 260.28912,652.94838 346.45909,655.21931 c 70.57162,0 91.12933,-2.27093 118.07193,50.53571 10.14122,19.87645 71.58279,252.38099 -9.88267,254.10714 z"
       id="path6168"
       inkscape:connector-curvature="0"
       sodipodi:nodetypes="ccsc" />
    <path
       sodipodi:nodetypes="sssss"
       inkscape:connector-curvature="0"
       id="path6410"
       d="m 138.78296,438.45431 c 1.12226,15.77165 -12.09674,83.6971 7.43157,94.24623 11.59382,6.26294 69.5502,-117.2477 61.3893,-144.58054 -3.60262,-12.06602 -8.3835,-22.85714 -18.72507,-22.85714 -10.34156,0 -55.16986,1.88272 -50.0958,73.19145 z"
       style="opacity:0.07900002;fill:#ffffff;fill-opacity:1;stroke:none;stroke-width:14.39999962;stroke-linecap:butt;stroke-miterlimit:4;stroke-dasharray:none;stroke-opacity:1" />
    <path
       style="opacity:0.07900002;fill:#ffffff;fill-opacity:1;stroke:none;stroke-width:14.39999962;stroke-linecap:butt;stroke-miterlimit:4;stroke-dasharray:none;stroke-opacity:1"
       d="m 596.88818,437.02574 c -1.12226,15.77165 12.09674,83.6971 -7.43157,94.24623 -11.59382,6.26294 -69.5502,-117.2477 -61.38929,-144.58054 3.60261,-12.06602 8.3835,-22.85714 18.72507,-22.85714 10.34156,0 55.16986,1.88272 50.09579,73.19145 z"
       id="path6412"
       inkscape:connector-curvature="0"
       sodipodi:nodetypes="sssss" />
    <ellipse
       ry="22.826269"
       rx="15.279292"
       cy="350.46127"
       cx="258.23996"
       id="ellipse6416"
       style="opacity:0.144;fill:#ffffff;fill-opacity:1;stroke:none;stroke-width:14.39999962;stroke-linecap:butt;stroke-miterlimit:4;stroke-dasharray:none;stroke-opacity:1"
       transform="matrix(0.9747617,0.2232479,-0.21104281,0.97747682,0,0)" />
    <ellipse
       transform="matrix(-0.9747617,0.2232479,0.21104281,0.97747682,0,0)"
       style="opacity:0.144;fill:#ffffff;fill-opacity:1;stroke:none;stroke-width:14.39999962;stroke-linecap:butt;stroke-miterlimit:4;stroke-dasharray:none;stroke-opacity:1"
       id="ellipse6418"
       cx="-458.55899"
       cy="511.98019"
       rx="15.279292"
       ry="22.826269" />
  </g>
</svg>
