<?xml version="1.0" encoding="UTF-8" standalone="no"?>
<!-- Created with Inkscape (http://www.inkscape.org/) -->

<svg
   xmlns:dc="http://purl.org/dc/elements/1.1/"
   xmlns:cc="http://creativecommons.org/ns#"
   xmlns:rdf="http://www.w3.org/1999/02/22-rdf-syntax-ns#"
   xmlns:svg="http://www.w3.org/2000/svg"
   xmlns="http://www.w3.org/2000/svg"
   xmlns:sodipodi="http://sodipodi.sourceforge.net/DTD/sodipodi-0.dtd"
   xmlns:inkscape="http://www.inkscape.org/namespaces/inkscape"
   width="210mm"
   height="400mm"
   viewBox="0 0 744.09447 1417.3228"
   id="svg2"
   version="1.1"
   inkscape:version="0.91 r13725"
   sodipodi:docname="penguin2.svg"
   inkscape:export-filename="/tmp/te.png"
   inkscape:export-xdpi="199"
   inkscape:export-ydpi="199">
  <sodipodi:namedview
     id="base"
     pagecolor="#ffffff"
     bordercolor="#666666"
     borderopacity="1.0"
     inkscape:pageopacity="0.0"
     inkscape:pageshadow="2"
     inkscape:zoom="0.70710678"
     inkscape:cx="412.82101"
     inkscape:cy="769.53073"
     inkscape:document-units="px"
     inkscape:current-layer="layer1"
     showgrid="false"
     showguides="true"
     inkscape:guide-bbox="true"
     inkscape:window-width="1680"
     inkscape:window-height="976"
     inkscape:window-x="0"
     inkscape:window-y="27"
     inkscape:window-maximized="1"
     height="500mm">
    <sodipodi:guide
       id="guide5869"
       position="372.99883,892.21724"
       orientation="0,1" />
    <sodipodi:guide
       id="guide5883"
       position="608.11183,-137.38075"
       orientation="1,0" />
    <sodipodi:guide
       id="guide5885"
       position="137.14286,495.71429"
       orientation="1,0" />
    <sodipodi:guide
       id="guide5887"
       position="471.42857,120"
       orientation="0,1" />
    <sodipodi:guide
       id="guide6135"
       position="269,717.99996"
       orientation="1,0" />
    <sodipodi:guide
       id="guide6137"
       position="468.49999,717.99996"
       orientation="1,0" />
    <sodipodi:guide
       id="guide6139"
       position="434.28571,48.57143"
       orientation="0,1" />
    <sodipodi:guide
       id="guide6143"
       position="137.14286,177.14286"
       orientation="0,1" />
    <sodipodi:guide
       id="guide6158"
       position="352.14286,413.57143"
       orientation="0,1" />
    <sodipodi:guide
       id="guide6160"
       position="400.52548,389.41381"
       orientation="0,1" />
    <sodipodi:guide
       id="guide6162"
       position="384.64286,351.78571"
       orientation="0,1" />
    <sodipodi:guide
       id="guide6164"
       position="347.5,717.99996"
       orientation="0,1" />
    <sodipodi:guide
       id="guide6166"
       position="465,530"
       orientation="0,1" />
    <sodipodi:guide
       id="guide6175"
       position="100.71429,802.85714"
       orientation="0,1" />
    <sodipodi:guide
       id="guide6414"
       position="382.85714,690"
       orientation="0,1" />
    <sodipodi:guide
       id="guide6425"
       position="345,445.35714"
       orientation="0,1" />
  </sodipodi:namedview>
  <defs
     id="defs4" />
  <metadata
     id="metadata7">
    <rdf:RDF>
      <cc:Work
         rdf:about="">
        <dc:format>image/svg+xml</dc:format>
        <dc:type
           rdf:resource="http://purl.org/dc/dcmitype/StillImage" />
        <dc:title />
      </cc:Work>
    </rdf:RDF>
  </metadata>
  <g
     transform="translate(0,364.96065)"
     id="layer1"
     inkscape:groupmode="layer"
     inkscape:label="Layer 1">
    <g
       transform="matrix(1,0,0,1.1848577,-2.7525381,-702.22887)"
       id="g4389">
      <ellipse
         ry="73.415535"
         rx="303.53656"
         cy="1398.0082"
         cx="372.04724"
         id="ellipse4370"
         style="opacity:1;fill:#ffff00;fill-opacity:1;stroke:none;stroke-width:14.39999962;stroke-linecap:butt;stroke-miterlimit:4;stroke-dasharray:none;stroke-opacity:1" />
      <ellipse
         style="opacity:1;fill:#552200;fill-opacity:1;stroke:none;stroke-width:14.39999962;stroke-linecap:butt;stroke-miterlimit:4;stroke-dasharray:none;stroke-opacity:1"
         id="ellipse4372"
         cx="372.04724"
         cy="1394.3368"
         rx="293.41867"
         ry="68.679047" />
    </g>
    <path
       inkscape:connector-curvature="0"
       id="rect4345"
       d="m 75.934756,637.64061 586.898624,0 0,313.63743 -586.898624,0 z"
       style="opacity:1;fill:#552200;fill-opacity:1;stroke:none;stroke-width:7;stroke-linecap:butt;stroke-miterlimit:4;stroke-dasharray:none;stroke-opacity:1" />
    <ellipse
       ry="72.40538"
       rx="303.53656"
       cy="648.42651"
       cx="369.19009"
       id="ellipse4350"
       style="opacity:1;fill:#ffff00;fill-opacity:1;stroke:none;stroke-width:14.39999962;stroke-linecap:butt;stroke-miterlimit:4;stroke-dasharray:none;stroke-opacity:1" />
    <ellipse
       style="opacity:1;fill:#d40000;fill-opacity:1;stroke:none;stroke-width:14.39999962;stroke-linecap:butt;stroke-miterlimit:4;stroke-dasharray:none;stroke-opacity:1"
       id="ellipse3543"
       cx="369.19009"
       cy="646.09082"
       rx="293.41867"
       ry="67.734062" />
    <path
       sodipodi:nodetypes="ssccccccs"
       inkscape:connector-curvature="0"
       id="path6133"
       d="m 635.30871,631.57996 c -3.20104,26.16068 -124.54599,92.09188 -318.24743,105.57228 -182.33907,12.6897 -174.31786,295.98036 -245.273746,234.0362 -7.161241,-6.8097 -10.166976,-28.2739 4.119306,-38.7524 0.377637,-87.934 0.07768,-158.9345 0.09625,-241.4971 0.184417,-10.3864 0.340307,-13.4307 0.271573,-23.7015 -21.765349,-16.7559 -3.72014,-34.72344 -1.499839,-36.88541 33.846666,-26.19351 87.316296,-42.58592 184.145766,-32.33807 192.71774,20.3961 381.38804,-7.29619 376.38812,33.566 z"
       style="opacity:0.15800003;fill:#000000;fill-opacity:1;stroke:none;stroke-width:14.39999962;stroke-linecap:butt;stroke-miterlimit:4;stroke-dasharray:none;stroke-opacity:1" />
    <path
       sodipodi:nodetypes="ccccc"
       inkscape:connector-curvature="0"
       id="rect5905"
       d="m 428.54093,592.54665 58.47423,-9.04782 c 34.21962,7.23007 69.94844,24.71619 83.57464,36.38514 37.33869,37.11037 -190.271,67.83067 -184.80752,28.59547 8.08993,-18.35167 23.15126,-44.41351 42.75865,-55.93279 z"
       style="opacity:1;fill:#000000;fill-opacity:1;stroke:none;stroke-width:14.39999962;stroke-linecap:butt;stroke-miterlimit:4;stroke-dasharray:none;stroke-opacity:1" />
    <path
       style="opacity:1;fill:#000000;fill-opacity:1;stroke:none;stroke-width:14.39999962;stroke-linecap:butt;stroke-miterlimit:4;stroke-dasharray:none;stroke-opacity:1"
       d="M 315.16548,592.77035 256.728,583.4741 c -34.2483,7.08457 -70.04688,24.4187 -83.71971,36.02967 -37.48704,36.95137 189.99762,68.63867 184.69139,29.38067 -8.01635,-18.38597 -22.97313,-44.51157 -42.5342,-56.11409 z"
       id="path6021"
       inkscape:connector-curvature="0"
       sodipodi:nodetypes="ccccc" />
    <path
       style="opacity:0;fill:#000000;fill-opacity:1;stroke:none;stroke-width:14.39999962;stroke-linecap:butt;stroke-miterlimit:4;stroke-dasharray:none;stroke-opacity:1"
       d="m 635.30871,641.60943 c -3.20104,33.32011 -124.54599,117.29461 -318.24743,134.46421 -182.33907,16.1624 -174.82294,358.00366 -245.778822,279.10726 -7.161241,-8.6733 -9.283093,-22.8239 4.750651,-32.9535 0.377637,-111.99886 -0.04859,-199.85676 -0.03002,-305.01426 0.184417,-13.2288 0.342935,-36.1421 0.274201,-49.2238 -21.765349,-21.3414 -3.812054,-33.26441 -2.752467,-36.13176 27.685947,-24.37796 88.566297,-46.05252 185.395767,-33.00014 192.71774,25.97789 381.38804,-9.29294 376.38812,42.75199 z"
       id="path4375"
       inkscape:connector-curvature="0"
       sodipodi:nodetypes="ssccccccs" />
    <path
       id="rect5889"
       d="m 369.33222,-201.71944 c -210.44439,1e-5 -351.585001,529.19194 -291.08236,735.0611 23.47688,79.88357 171.95805,103.98251 291.08236,109.18141 119.12431,-5.1989 267.60548,-29.29784 291.08237,-109.18141 60.50263,-205.86916 -80.63798,-735.06109 -291.08237,-735.0611 z"
       style="opacity:1;fill:#006ea1;fill-opacity:1;stroke:none;stroke-width:14.39999962;stroke-linecap:butt;stroke-miterlimit:4;stroke-dasharray:none;stroke-opacity:1"
       inkscape:connector-curvature="0" />
    <path
       id="path5900"
       d="m 369.33222,-69.880558 c -154.46968,10e-6 -258.06811,438.640218 -213.65824,609.282618 17.23246,66.21452 126.21902,86.19001 213.65824,90.49931 87.43923,-4.3093 196.42806,-24.28479 213.66052,-90.49931 44.40987,-170.6424 -59.19083,-609.282608 -213.66052,-609.282618 z"
       style="opacity:1;fill:#ffffff;fill-opacity:1;stroke:none;stroke-width:14.39999962;stroke-linecap:butt;stroke-miterlimit:4;stroke-dasharray:none;stroke-opacity:1"
       inkscape:connector-curvature="0" />
    <path
       sodipodi:nodetypes="ccc"
       inkscape:connector-curvature="0"
       id="path6131"
       d="M 632.29745,138.2734 519.75153,-11.315688 C 566.96241,581.76327 757.48279,717.26494 632.29745,138.2734 Z"
       style="opacity:0.27099998;fill:#000000;fill-opacity:1;stroke:none;stroke-width:14.39999962;stroke-linecap:butt;stroke-miterlimit:4;stroke-dasharray:none;stroke-opacity:1" />
    <path
       sodipodi:nodetypes="ssssss"
       inkscape:connector-curvature="0"
       id="path5902"
       d="M 621.90417,54.048172 C 652.96867,103.41489 752.97603,510.38049 720.7002,517.90162 688.42427,525.42272 562.85165,184.46594 538.80345,129.43762 502.53129,46.437782 509.41489,3.6995018 524.16887,-30.096918 c 8.01102,-18.35054 29.42038,-22.40312 41.18523,-0.80126 12.54535,23.0349498 26.55691,37.2821698 56.55007,84.94635 z"
       style="opacity:1;fill:#006ea1;fill-opacity:1;stroke:none;stroke-width:14.39999962;stroke-linecap:butt;stroke-miterlimit:4;stroke-dasharray:none;stroke-opacity:1" />
    <path
       style="opacity:0.27099998;fill:#000000;fill-opacity:1;stroke:none;stroke-width:14.39999962;stroke-linecap:butt;stroke-miterlimit:4;stroke-dasharray:none;stroke-opacity:1"
       d="M 105.63853,146.85969 224.06918,-5.2547782 C 146.95828,500.31053 -26.988499,665.91944 105.63853,146.85969 Z"
       id="path6129"
       inkscape:connector-curvature="0"
       sodipodi:nodetypes="ccc" />
    <path
       style="opacity:1;fill:#006ea1;fill-opacity:1;stroke:none;stroke-width:14.39999962;stroke-linecap:butt;stroke-miterlimit:4;stroke-dasharray:none;stroke-opacity:1"
       d="M 116.76093,54.048172 C 85.696434,103.41489 -11.536853,511.37833 20.738981,518.89946 53.014911,526.42056 175.81345,184.46594 199.86165,129.43762 236.13381,46.437782 229.2502,3.6995018 214.49622,-30.096918 c -8.01101,-18.35054 -29.42037,-22.40312 -41.18522,-0.80126 -12.54535,23.0349498 -26.55691,37.2821698 -56.55007,84.94635 z"
       id="path6031"
       inkscape:connector-curvature="0"
       sodipodi:nodetypes="ssssss" />
    <path
       sodipodi:nodetypes="ccccc"
       inkscape:connector-curvature="0"
       id="rect6117"
       d="m 256.91087,-106.33671 221.68361,-1.01016 c 58.90201,253.30523 5.58335,745.8751 -108.09009,745.43871 -58.06081,-2.3343 -97.40302,-0.45119 -156.97191,-14.23868 -144.399244,-48.63381 -56.49914,-336.3062 43.37839,-730.18987 z"
       style="opacity:0.20800003;fill:#000000;fill-opacity:1;stroke:none;stroke-width:14.39999962;stroke-linecap:butt;stroke-miterlimit:4;stroke-dasharray:none;stroke-opacity:1" />
    <path
       sodipodi:nodetypes="sssss"
       inkscape:connector-curvature="0"
       id="path6070"
       d="m 514.74807,508.49541 c 0,125.81996 -75.67444,147.64113 -145.41459,147.64113 -69.74014,0 -145.41646,-21.82117 -145.41646,-147.64113 0,-125.81998 75.67632,-256.17215 145.41646,-256.17215 69.74015,-3e-5 145.41459,130.35215 145.41459,256.17215 z"
       style="opacity:1;fill:#cccc0e;fill-opacity:1;stroke:none;stroke-width:14.39999962;stroke-linecap:butt;stroke-miterlimit:4;stroke-dasharray:none;stroke-opacity:1" />
    <g
       id="text5999"
       style="font-style:normal;font-weight:normal;font-size:60px;line-height:125%;font-family:Sans;letter-spacing:0px;word-spacing:0px;fill:#000000;fill-opacity:1;stroke:none;stroke-width:1px;stroke-linecap:butt;stroke-linejoin:miter;stroke-opacity:1"
       transform="translate(11.18871,235.46656)">
      <path
         id="path6005"
         style="font-style:normal;font-variant:normal;font-weight:bold;font-stretch:normal;font-size:70px;font-family:'Anonymous Pro';-inkscape-font-specification:'Anonymous Pro Bold'"
         d="m 291.71001,338.31107 c 0,2.09635 -0.85659,4.11984 -2.56975,6.07046 -1.71316,1.95063 -4.05831,3.60082 -7.05255,5.06267 0,0 -20.94946,8.22672 -20.94946,8.22672 0,0 19.64748,4.93462 19.64748,4.93462 0,0 0,-6.11816 0,-6.11816 0,0 9.7705,1.59092 9.7705,1.59092 0,0 0,12.47559 0,12.47559 0,0 -42.01827,-13.08858 -42.01827,-13.08858 0,0 0,-6.66504 0,-6.66504 0,0 25.65829,-7.0289 25.65829,-7.0289 2.33366,-1.03486 4.04548,-2.26083 5.08385,-3.44369 1.07298,-1.19874 1.60947,-2.44752 1.60947,-3.74635 0,-1.1621 -0.34612,-2.23375 -1.03837,-3.21493 -0.65764,-0.97427 -1.52295,-1.83047 -2.59593,-2.56858 -1.03837,-0.75399 -2.23537,-1.36649 -3.57378,-1.91564 -1.33842,-0.57194 -2.67684,-1.01855 -4.01526,-1.33984 -4.22116,-1.01328 -7.48131,-1.26625 -9.82417,-0.51467 -2.30987,0.76411 -3.43823,2.68673 -3.43823,5.89962 0,0 -8.63265,-5.4495 -8.63265,-5.4495 0,-5.03581 1.36882,-7.33463 4.98139,-8.18342 3.64344,-0.8317 9.26066,0.0535 16.91366,1.89055 2.88274,0.692 5.65075,1.6156 8.3159,2.71687 2.66516,1.07848 5.01081,2.3026 7.03019,3.70929 2.05419,1.41247 3.67343,3.03574 4.86216,4.84072 1.22368,1.80983 1.83553,3.76291 1.83553,5.85927 0,0 0,0 0,0"
         inkscape:connector-curvature="0" />
      <path
         id="path6007"
         style="font-style:normal;font-variant:normal;font-weight:bold;font-stretch:normal;font-size:70px;font-family:'Anonymous Pro';-inkscape-font-specification:'Anonymous Pro Bold'"
         d="m 301.26973,349.59527 c 0,-2.98502 0.49095,-5.8115 1.47285,-8.47942 0.98189,-2.66792 2.50938,-4.96304 4.58292,-6.88991 2.07354,-1.92688 4.77873,-3.36224 8.1228,-4.39268 3.37927,-1.05064 7.44672,-1.42886 12.20425,-1.16389 4.75753,0.26496 8.81379,1.08053 12.16598,2.45692 3.38748,1.35441 6.1398,3.11569 8.25697,5.28382 2.11718,2.16812 3.65293,4.60177 4.60588,7.38902 0.95296,2.78725 1.42944,5.67339 1.42944,8.65841 0,2.98503 -0.47648,5.86386 -1.42944,8.63651 -0.95295,2.74986 -2.47105,5.2271 -4.55295,7.34364 -2.08188,2.09376 -4.81656,3.75087 -8.20404,4.97133 -3.35219,1.19848 -7.44383,1.67181 -12.27184,1.40293 -4.82801,-0.26889 -8.93058,-1.18194 -12.30985,-2.70616 -3.34407,-1.54443 -6.06667,-3.5307 -8.17535,-5.86816 -2.07354,-2.35698 -3.56561,-4.97167 -4.47737,-7.83286 -0.94683,-2.88797 -1.42025,-5.82447 -1.42025,-8.8095 0,0 0,0 0,0 m 10.90574,1.07648 c 0,2.09635 0.21037,4.14981 0.63277,6.14047 0,0 27.06322,-16.08022 27.06322,-16.08022 -1.19973,-1.57723 -2.78654,-2.90169 -4.76159,-3.93584 -1.93977,-1.03277 -4.42659,-1.60058 -7.45732,-1.76937 -5.03946,-0.28067 -8.87779,0.92968 -11.51784,3.67524 -2.64005,2.74556 -3.95924,6.72883 -3.95924,11.96972 0,0 0,0 0,0 m 15.47708,17.7486 c 3.10121,0.17271 5.64099,-0.227 7.61604,-1.12971 2.01031,-0.90133 3.57957,-2.10966 4.70873,-3.65579 1.16444,-1.56811 1.97603,-3.34947 2.43476,-5.34407 0.494,-1.99377 0.741,-3.99327 0.741,-5.99847 0,-1.91406 -0.21172,-3.78745 -0.63515,-5.62017 0,0 -26.85842,16.09167 -26.85842,16.09167 1.19682,1.56902 2.72805,2.86638 4.59369,3.89207 1.90083,1.02827 4.36862,1.59567 7.39935,1.76447 0,0 0,0 0,0"
         inkscape:connector-curvature="0" />
      <path
         id="path6009"
         style="font-style:normal;font-variant:normal;font-weight:bold;font-stretch:normal;font-size:70px;font-family:'Anonymous Pro';-inkscape-font-specification:'Anonymous Pro Bold'"
         d="m 403.35153,372.97341 c 0,0 -33.09424,1.68052 -33.09424,1.68052 0,0 0,-6.35743 0,-6.35743 0,0 11.11253,-0.34199 11.11253,-0.34199 0,0 0,-25.36132 0,-25.36132 -0.49377,1.13577 -1.35786,2.16064 -2.59227,3.07461 -1.19915,0.9126 -2.66274,1.70072 -4.39176,2.33312 -1.69375,0.6088 -3.59921,1.09716 -5.71638,1.46509 -2.08189,0.34433 -4.23492,0.5052 -6.45848,0.52224 0,0 0,-7.07519 0,-7.07519 2.40004,-0.0184 4.72946,-0.28861 6.98778,-0.8421 2.2936,-0.57708 4.3402,-1.4105 6.1398,-2.50025 1.7996,-1.08976 3.24507,-2.47445 4.3384,-4.08931 1.12861,-1.63902 1.69291,-3.56367 1.69291,-5.77396 0,0 10.9453,-0.54664 10.9453,-0.54664 0,0 0,38.24707 0,38.24707 0,0 11.03641,-0.79189 11.03641,-0.79189 0,0 0,6.35743 0,6.35743 0,0 0,0 0,0"
         inkscape:connector-curvature="0" />
      <path
         id="path6011"
         style="font-style:normal;font-variant:normal;font-weight:bold;font-stretch:normal;font-size:70px;font-family:'Anonymous Pro';-inkscape-font-specification:'Anonymous Pro Bold'"
         d="m 468.51649,341.7649 c 0,2.1875 -0.47299,4.74549 -1.56806,7.49348 -1.09506,2.74798 -2.64303,5.50148 -4.78318,7.94255 -2.10822,2.40327 -4.58349,4.60938 -7.49647,6.40089 -2.91299,1.79151 -6.01494,3.10859 -9.312,3.88907 -3.22836,0.76421 -6.23132,1.08355 -9.00154,0.99171 -2.77021,-0.0918 -5.2287,-0.61712 -7.35308,-1.45225 -2.08956,-0.84085 -3.78533,-2.06542 -5.07912,-3.61974 -1.29381,-1.55431 -2.08059,-3.42882 -2.36033,-5.62352 0,0 10.31258,-2.54326 10.31258,-2.54326 0.34825,2.51753 1.62317,4.414 3.80472,5.57893 2.21617,1.13532 5.45242,1.27651 9.67677,0.27653 2.16369,-0.51219 4.07325,-1.26338 5.72932,-2.24031 1.68988,-1.00989 3.09718,-2.1477 4.23559,-3.37035 1.17189,-1.23381 2.04502,-2.56346 2.63158,-3.94677 0.61915,-1.39686 0.92872,-2.74471 0.92872,-4.04353 0,-2.98503 -1.10994,-4.85345 -3.35992,-5.68163 -2.21688,-0.84047 -5.21971,-0.72114 -9.03193,0.18129 -2.43845,0.57723 -4.69836,1.48694 -6.81064,2.587 -2.07766,1.09323 -3.72247,2.52267 -4.93444,4.28832 0,0 -10.82202,1.71992 -10.82202,1.71992 0,0 0,-24.50684 0,-24.50684 0,0 41.41675,-11.49871 41.41675,-11.49871 0,0 0,6.3916 0,6.3916 0,0 -30.59473,9.77879 -30.59473,9.77879 0,0 0,11.55274 0,11.55274 3.18574,-3.38527 7.85245,-5.58217 13.84546,-7.21684 2.86029,-0.78019 5.55841,-1.2441 8.07309,-1.42564 2.51467,-0.20432 4.66322,-0.11114 6.43612,0.30559 1.77289,0.39394 3.10462,1.14243 4.05929,2.37506 0.95467,1.23263 1.35747,2.97777 1.35747,5.41592 0,0 0,0 0,0"
         inkscape:connector-curvature="0" />
    </g>
    <g
       transform="matrix(1.1437957,0,0,1,-28.583971,149.19953)"
       style="font-style:normal;font-weight:normal;font-size:60px;line-height:125%;font-family:Sans;letter-spacing:0px;word-spacing:0px;fill:#000000;fill-opacity:1;stroke:none;stroke-width:1px;stroke-linecap:butt;stroke-linejoin:miter;stroke-opacity:1"
       id="text5043">
      <path
         inkscape:connector-curvature="0"
         d="m 227.41401,313.15041 c 0,0 28.73843,19.22041 28.73843,19.22041 0,0 0,8.52539 0,8.52539 0,0 -11.63445,-4.97926 -11.63445,-4.97926 0,0 0,35.21485 0,35.21485 0,0 -8.40253,-5.1178 -8.40253,-5.1178 0,0 0,-35.21485 0,-35.21485 0,0 -8.70145,-9.12334 -8.70145,-9.12334 0,0 0,-8.5254 0,-8.5254 0,0 0,0 0,0"
         style="font-style:normal;font-variant:normal;font-weight:bold;font-stretch:normal;font-family:Sans;-inkscape-font-specification:'Sans Bold'"
         id="path5807" />
      <path
         inkscape:connector-curvature="0"
         d="m 288.5738,364.24451 c 0,0 0,19.98047 0,19.98047 0,0 -9.05241,-1.69636 -9.05241,-1.69636 0,0 0,-3.25196 0,-3.25196 0,0 0,-11.98242 0,-11.98242 0,-2.8711 -0.0584,-4.85622 -0.17515,-5.95537 -0.10008,-1.09559 -0.28357,-1.92578 -0.55046,-2.49057 -0.3503,-0.75839 -0.8257,-1.38724 -1.4262,-1.88656 -0.6005,-0.51883 -1.28422,-0.86105 -2.04811,-1.04016 -1.8599,-0.43609 -3.32121,0.0707 -4.37846,1.49816 -1.05724,1.4079 -1.58586,3.60598 -1.58586,6.59426 0,0 0,16.14258 0,16.14258 0,0 -8.79862,-2.54047 -8.79862,-2.54047 0,0 0,-45.58594 0,-45.58594 0,0 8.79862,2.54047 8.79862,2.54047 0,0 0,17.57812 0,17.57812 1.33807,-1.57007 2.75932,-2.61342 4.27048,-3.15754 1.51118,-0.56364 3.18315,-0.64488 5.01802,-0.25311 3.23605,0.69095 5.70992,2.2663 7.38715,4.90033 1.694,2.63712 2.541,6.17248 2.541,10.60607 0,0 0,0 0,0"
         style="font-style:normal;font-variant:normal;font-weight:bold;font-stretch:normal;font-family:Sans;-inkscape-font-specification:'Sans Bold'"
         id="path5809" />
      <path
         inkscape:connector-curvature="0"
         d="m 325.48853,371.71438 c 0,0 0,2.98828 0,2.98828 0,0 -21.33375,-1.80821 -21.33375,-1.80821 0.22018,2.48711 0.99082,4.42445 2.3119,5.812 1.32109,1.38754 3.17291,2.16787 5.55116,2.38231 1.91958,0.17308 3.87854,0.0681 5.88719,-0.44945 2.02567,-0.53602 4.10241,-1.40084 6.23022,-2.59446 0,0 0,8.08594 0,8.08594 -2.16185,0.80084 -4.3237,1.36732 -6.48556,1.69941 -2.16185,0.35164 -4.31532,0.34992 -6.47273,0.1554 -5.16419,-0.46563 -9.16471,-2.49433 -12.02706,-5.84248 -2.84542,-3.36567 -4.25412,-7.87715 -4.25412,-13.32637 0,-5.35156 1.38329,-9.29037 4.1779,-12.02449 2.81154,-2.73212 6.66729,-3.74993 11.59366,-3.30574 4.48469,0.40436 8.07179,2.24458 10.76134,5.52005 2.70657,3.27656 4.05985,7.51249 4.05985,12.70781 0,0 0,0 0,0 m -9.3937,-4.11544 c 0,-1.99219 -0.50962,-3.6397 -1.52887,-4.94254 -1.00226,-1.32084 -2.31878,-2.05478 -3.94958,-2.20182 -1.7667,-0.15929 -3.20123,0.2787 -4.30214,1.30014 -1.1009,1.00192 -1.78684,2.56099 -2.05784,4.67721 0,0 11.83843,1.16701 11.83843,1.16701 0,0 0,0 0,0"
         style="font-style:normal;font-variant:normal;font-weight:bold;font-stretch:normal;font-family:Sans;-inkscape-font-specification:'Sans Bold'"
         id="path5811" />
      <path
         inkscape:connector-curvature="0"
         d="m 345.68925,345.05971 c 0,0 10.77034,-0.0933 10.77034,-0.0933 0,0 8.69329,15.28354 8.69329,15.28354 0,0 8.6844,-16.07665 8.6844,-16.07665 0,0 10.76033,-0.87524 10.76033,-0.87524 0,0 -14.51383,26.42446 -14.51383,26.42446 0,0 0,18.42774 0,18.42774 0,0 -9.83973,0.43761 -9.83973,0.43761 0,0 0,-18.42774 0,-18.42774 0,0 -14.5548,-25.10046 -14.5548,-25.10046 0,0 0,0 0,0"
         style="font-style:normal;font-variant:normal;font-weight:bold;font-stretch:normal;font-family:Sans;-inkscape-font-specification:'Sans Bold'"
         id="path5813" />
      <path
         inkscape:connector-curvature="0"
         d="m 412.02137,366.6663 c 0,0 0,2.98828 0,2.98828 0,0 -21.16664,3.20497 -21.16664,3.20497 0.2202,2.43486 0.99088,4.18932 2.31204,5.26338 1.32117,1.07405 3.16791,1.47447 5.5296,1.12185 1.90623,-0.28462 3.85462,-0.8978 5.84519,-1.83954 2.00744,-0.96379 4.04912,-2.36532 6.14612,-4.07822 0,0 0,8.08594 0,8.08594 -2.13055,1.32843 -4.25677,2.44847 -6.39916,3.23709 -2.14239,0.80816 -4.28478,1.37219 -6.42717,1.69206 -5.12824,0.76569 -9.14417,-0.3283 -12.01513,-3.07809 -2.85397,-2.77086 -4.28095,-6.8809 -4.28095,-12.33012 0,-5.35156 1.4015,-9.6865 4.2045,-13.00481 2.82,-3.31985 6.69343,-5.23412 11.5855,-5.96455 4.45347,-0.66494 8.01442,0.3656 10.66503,2.98472 2.66738,2.61605 4.00107,6.52173 4.00107,11.71704 0,0 0,0 0,0 m -9.27639,-1.88344 c 0,-1.99218 -0.50607,-3.51818 -1.51822,-4.578 -0.99529,-1.08186 -2.30265,-1.5019 -3.9221,-1.2601 -1.75439,0.26195 -3.18936,0.97993 -4.29033,2.26262 -1.10097,1.26316 -1.78696,2.985 -2.05797,5.16552 0,0 11.78862,-1.59004 11.78862,-1.59004 0,0 0,0 0,0"
         style="font-style:normal;font-variant:normal;font-weight:bold;font-stretch:normal;font-family:Sans;-inkscape-font-specification:'Sans Bold'"
         id="path5815" />
      <path
         inkscape:connector-curvature="0"
         d="m 431.23112,363.8397 c -1.8272,0.55738 -3.22589,1.28007 -4.1624,2.28334 -0.92009,0.99869 -1.38771,2.19228 -1.38771,3.63759 0,1.32813 0.3719,2.27833 1.1157,2.85059 0.76033,0.54853 1.8,0.61514 3.13083,0.24413 1.65943,-0.46262 3.04105,-1.6062 4.16674,-3.35584 1.12569,-1.76917 1.67906,-3.74784 1.67906,-5.87675 0,0 0,-1.20117 0,-1.20117 0,0 -4.54222,1.41811 -4.54222,1.41811 0,0 0,0 0,0 m 13.20906,-8.55816 c 0,0 0,18.72071 0,18.72071 0,0 -8.66684,3.18497 -8.66684,3.18497 0,0 0,-4.86328 0,-4.86328 -1.16485,2.38112 -2.48662,4.23832 -3.95491,5.60418 -1.46828,1.34634 -3.2614,2.32067 -5.39362,2.86377 -2.87602,0.73255 -5.22356,0.30623 -7.03443,-1.24541 -1.79426,-1.57503 -2.70037,-3.98499 -2.70037,-7.14905 0,-3.84766 1.1304,-6.89023 3.37322,-9.20856 2.25944,-2.32218 5.78966,-4.08039 10.55437,-5.40871 0,0 5.15574,-1.5988 5.15574,-1.5988 0,0 0,-0.82032 0,-0.82032 0,-1.66015 -0.53706,-2.67473 -1.63011,-3.10302 -1.09306,-0.44782 -2.79449,-0.30669 -5.12756,0.34373 -1.88945,0.52675 -3.65697,1.20583 -5.29332,2.07184 -1.63636,0.86601 -3.16902,1.8779 -4.58117,3.10466 0,0 0,-7.99805 0,-7.99805 1.91056,-0.99108 3.82911,-1.84865 5.74645,-2.61045 1.91734,-0.78134 3.82409,-1.45592 5.72997,-1.98725 4.97829,-1.38786 8.46436,-1.55701 10.61079,0.002 2.16244,1.53313 3.21179,4.84361 3.21179,10.09751 0,0 0,0 0,0"
         style="font-style:normal;font-variant:normal;font-weight:bold;font-stretch:normal;font-family:Sans;-inkscape-font-specification:'Sans Bold'"
         id="path5817" />
      <path
         inkscape:connector-curvature="0"
         d="m 468.36849,333.0137 c -0.44568,0.2366 -0.87889,0.60116 -1.38385,1.02841 -0.49423,0.39448 -1.00504,0.89351 -1.53605,1.49402 -1.55915,1.76321 -2.95939,3.81253 -3.97743,6.32517 -1.00446,2.48278 -1.50669,5.3355 -1.50669,8.55816 0,0 0,15.11719 0,15.11719 0,0 -7.76263,4.84039 -7.76263,4.84039 0,0 0,-32.8125 0,-32.8125 0,0 7.76263,-4.84039 7.76263,-4.84039 0,0 0,5.39062 0,5.39062 0.9366,-2.86085 2.00818,-5.24176 3.13726,-7.23296 1.14175,-2.02213 2.42709,-3.83392 3.77009,-5.48968 0.19339,-0.23842 0.38665,-0.48977 0.59958,-0.73871 0.21293,-0.26846 0.50356,-0.64124 0.88286,-1.11063 0,0 0.0142,9.47092 0.0142,9.47092 0,0 0,-1e-5 0,-1e-5"
         style="font-style:normal;font-variant:normal;font-weight:bold;font-stretch:normal;font-family:Sans;-inkscape-font-specification:'Sans Bold'"
         id="path5819" />
    </g>
    <g
       id="text4218"
       style="font-style:normal;font-weight:normal;font-size:60px;line-height:125%;font-family:Sans;letter-spacing:0px;word-spacing:0px;fill:#000000;fill-opacity:1;stroke:none;stroke-width:1px;stroke-linecap:butt;stroke-linejoin:miter;stroke-opacity:1"
       transform="translate(21.441295,73.539105)">
      <path
         id="path5048"
         style="font-style:normal;font-variant:normal;font-weight:bold;font-stretch:normal;font-family:Sans;-inkscape-font-specification:'Sans Bold'"
         d="m 258.00723,373.50689 c -2.36722,0.56712 -4.78632,0.65354 -7.27717,0.32241 -2.49085,-0.33113 -5.01492,-1.15893 -7.523,-2.53967 -5.66978,-3.12131 -9.78917,-8.30091 -12.35434,-15.1435 -2.56517,-6.86212 -3.43871,-14.10899 -3.43871,-21.08165 0,-7.05077 0.89707,-10.85262 3.50931,-12.06449 2.61223,-1.21188 6.89517,-0.0577 12.76256,3.17238 2.26487,1.24685 4.52119,2.54708 6.70671,3.98429 2.20159,1.44376 4.29114,3.05639 6.25985,4.86046 0,0 0,9.05274 0,9.05274 -2.03379,-2.14071 -4.05022,-3.95054 -6.0429,-5.44591 -1.97662,-1.48882 -3.90661,-2.76586 -5.83418,-3.72191 -3.57533,-1.77332 -6.14101,-2.23824 -7.92596,-0.95074 -1.77066,1.27782 -2.56933,4.13298 -2.56933,8.80094 0,4.62891 0.77011,8.91225 2.48365,12.61453 1.71355,3.70228 4.15651,6.65637 7.59193,8.3603 0.9327,0.4626 1.7812,0.85228 2.58859,1.07788 0.82322,0.21318 1.55937,0.30917 2.20844,0.28795 0,0 0,-8.49609 0,-8.49609 0,0 -5.51241,-2.64681 -5.51241,-2.64681 0,0 0,-7.5586 0,-7.5586 0,0 14.36696,6.08033 14.36696,6.08033 0,0 0,21.03516 0,21.03516 0,0 0,0 0,0"
         inkscape:connector-curvature="0" />
      <path
         id="path5050"
         style="font-style:normal;font-variant:normal;font-weight:bold;font-stretch:normal;font-family:Sans;-inkscape-font-specification:'Sans Bold'"
         d="m 278.69838,367.58727 c -1.90068,-0.40582 -3.33125,-0.35615 -4.29425,0.16024 -0.94609,0.52036 -1.41914,1.50319 -1.41914,2.94851 0,1.32812 0.38013,2.46217 1.14039,3.40214 0.77715,0.92441 1.84926,1.55012 3.22386,1.84362 1.71401,0.36597 3.15726,-0.0331 4.33465,-1.22186 1.17739,-1.20831 1.76608,-2.87691 1.76608,-5.00582 0,0 0,-1.20117 0,-1.20117 0,0 -4.75159,-0.92566 -4.75159,-0.92566 0,0 0,0 0,0 m 14.01159,-1.4424 c 0,0 0,18.7207 0,18.7207 0,0 -9.26,-1.58702 -9.26,-1.58702 0,0 0,-4.86328 0,-4.86328 -1.22858,1.76525 -2.61332,2.97816 -4.14065,3.57002 -1.52733,0.57233 -3.38467,0.62069 -5.56408,0.10968 -2.93966,-0.68926 -5.31411,-2.30269 -7.13474,-4.78807 -1.80392,-2.50022 -2.70425,-5.33788 -2.70425,-8.50194 0,-3.84766 1.12582,-6.34689 3.38072,-7.50873 2.27161,-1.15714 5.85363,-1.13586 10.77503,-0.0851 0,0 5.38797,1.06154 5.38797,1.06154 0,0 0,-0.82031 0,-0.82031 0,-1.66016 -0.57163,-2.97668 -1.71489,-3.94957 -1.14326,-0.99243 -2.9179,-1.75541 -5.32769,-2.26994 -1.95159,-0.41669 -3.75524,-0.63546 -5.41907,-0.61398 -1.66382,0.0215 -3.20861,0.29267 -4.62836,0.79127 0,0 0,-7.99804 0,-7.99804 1.92084,-0.006 3.85431,0.11471 5.81408,0.30079 1.95978,0.16654 3.9194,0.48028 5.88796,0.90059 5.14201,1.0979 8.87359,2.95359 11.17304,5.64253 2.31662,2.67199 3.47493,6.63494 3.47493,11.88884 0,0 0,0 0,0"
         inkscape:connector-curvature="0" />
      <path
         id="path5052"
         style="font-style:normal;font-variant:normal;font-weight:bold;font-stretch:normal;font-family:Sans;-inkscape-font-specification:'Sans Bold'"
         d="m 328.25894,360.99492 c 1.17915,-1.98708 2.57506,-3.47776 4.18773,-4.47204 1.63001,-1.01316 3.41521,-1.44836 5.35856,-1.42425 3.34881,0.0415 5.89945,1.2353 7.65194,3.58125 1.75249,2.34597 2.62873,5.71658 2.62873,10.15018 0,0 0,19.98047 0,19.98047 0,0 -9.36972,-0.0971 -9.36972,-0.0971 0,0 0,-17.10937 0,-17.10937 0.0173,-0.25369 0.026,-0.51726 0.026,-0.7907 0.0174,-0.27322 0.026,-0.66374 0.026,-1.17154 0,-2.32422 -0.30365,-4.00768 -0.91095,-5.05037 -0.6073,-1.06223 -1.58703,-1.62653 -2.93959,-1.67719 -1.76873,-0.0663 -3.13863,0.70274 -4.1097,2.307 -0.95372,1.6049 -1.44793,3.95943 -1.48261,7.0636 0,0 0,16.11328 0,16.11328 0,0 -9.35442,-0.5384 -9.35442,-0.5384 0,0 0,-17.10937 0,-17.10937 0,-3.63281 -0.27709,-5.98431 -0.83127,-7.0545 -0.55417,-1.08972 -1.5417,-1.6743 -2.95886,-1.80208 -1.7801,-0.1605 -3.15405,0.5457 -4.12188,2.11859 -0.96781,1.55336 -1.45172,3.86324 -1.45172,6.92965 0,0 0,16.14258 0,16.14258 0,0 -9.31338,-1.02447 -9.31338,-1.02447 0,0 0,-32.8125 0,-32.8125 0,0 9.31338,1.02447 9.31338,1.02447 0,0 0,4.80469 0,4.80469 1.14064,-1.75262 2.44547,-3.03145 3.91448,-3.8365 1.48629,-0.80349 3.11997,-1.1313 4.90374,-1.01855 2.00889,0.12698 3.78399,0.78606 5.3253,1.97723 1.54131,1.19118 2.71052,2.7934 3.50818,4.79593 0,0 0,0 0,0"
         inkscape:connector-curvature="0" />
      <path
         id="path5054"
         style="font-style:normal;font-variant:normal;font-weight:bold;font-stretch:normal;font-family:Sans;-inkscape-font-specification:'Sans Bold'"
         d="m 385.86998,370.42985 c 0,0 0,2.98828 0,2.98828 0,0 -21.72962,1.51817 -21.72962,1.51817 0.22542,2.45251 1.01442,4.2687 2.36698,5.44857 1.35257,1.17987 3.23963,1.66362 5.66418,1.51072 1.95696,-0.12342 3.95953,-0.54166 5.99891,-1.36947 2.05667,-0.8489 4.16519,-2.03449 6.32556,-3.55677 0,0 0,8.08593 0,8.08593 -2.19494,1.13477 -4.38987,2.03516 -6.5848,2.70117 -2.19493,0.68555 -4.39751,1.02715 -6.59693,1.16586 -5.26474,0.33203 -9.36748,-1.05239 -12.29803,-3.95058 -2.91321,-2.91836 -4.37151,-7.17027 -4.37151,-12.61949 0,-5.35157 1.43229,-9.54595 4.29347,-12.71939 2.87853,-3.17408 6.83424,-4.81416 11.85653,-5.13089 4.57201,-0.28834 8.22258,0.98712 10.95328,3.84717 2.74799,2.8585 4.12198,6.88541 4.12198,12.08072 0,0 0,0 0,0 m -9.54209,-2.65381 c 0,-1.99219 -0.51954,-3.56098 -1.55863,-4.70639 -1.02178,-1.16603 -2.36395,-1.69662 -4.0265,-1.59177 -1.80109,0.11359 -3.26435,0.78473 -4.39148,1.97924 -1.12714,1.17498 -1.82943,2.84187 -2.10688,5.00068 0,0 12.08349,-0.68176 12.08349,-0.68176 0,0 0,0 0,0"
         inkscape:connector-curvature="0" />
      <path
         id="path5056"
         style="font-style:normal;font-variant:normal;font-weight:bold;font-stretch:normal;font-family:Sans;-inkscape-font-specification:'Sans Bold'"
         d="m 428.87043,342.91568 c -2.9419,0.82015 -5.23973,2.66642 -6.87922,5.58666 -1.6395,2.92025 -2.45924,6.68506 -2.45924,11.29443 0,4.58984 0.81974,7.9637 2.45924,10.12159 1.63949,2.15788 3.93732,2.85067 6.87922,2.03052 2.95862,-0.82481 5.23027,-2.79693 6.82682,-5.86906 1.59656,-3.07215 2.39484,-6.90315 2.39484,-11.49299 0,-4.60937 -0.79828,-7.91705 -2.39484,-9.92303 -1.59655,-2.00599 -3.8682,-2.57293 -6.82682,-1.74812 0,0 0,0 0,0 m 0,-8.17383 c 6.01752,-1.67758 10.64413,-1.28168 13.92917,1.42294 3.28504,2.70462 4.8904,7.51373 4.8904,14.60357 0,7.07032 -1.60536,13.36472 -4.8904,18.70697 -3.28504,5.34226 -7.91165,8.9698 -13.92917,10.64738 -6.0008,1.67293 -10.79499,0.66282 -14.27507,-2.62327 -3.4631,-3.28968 -5.222,-8.60899 -5.222,-15.6793 0,-7.08985 1.7589,-12.87406 5.222,-17.63124 3.48008,-4.76079 8.27427,-7.77412 14.27507,-9.44705 0,0 0,0 0,0"
         inkscape:connector-curvature="0" />
      <path
         id="path5058"
         style="font-style:normal;font-variant:normal;font-weight:bold;font-stretch:normal;font-family:Sans;-inkscape-font-specification:'Sans Bold'"
         d="m 468.36849,311.30471 c 0,0 0,6.88477 0,6.88477 0,0 -3.17222,4.05189 -3.17222,4.05189 -0.91272,0.95187 -1.57945,1.8592 -1.96665,2.75402 -0.38719,0.8753 -0.58079,1.97701 -0.58079,3.30513 0,0 0,2.28516 0,2.28516 0,0 5.31448,-5.90179 5.31448,-5.90179 0,0 0,7.5 0,7.5 0,0 -5.31448,5.90179 -5.31448,5.90179 0,0 0,25.3125 0,25.3125 0,0 -7.59027,5.38055 -7.59027,5.38055 0,0 0,-25.3125 0,-25.3125 0,0 -4.05885,2.23101 -4.05885,2.23101 0,0 0,-7.5 0,-7.5 0,0 4.05885,-2.23101 4.05885,-2.23101 0,0 0,-2.28516 0,-2.28516 0,-3.57422 0.78972,-6.61775 2.25769,-9.30553 1.46798,-2.70731 3.8147,-5.03658 6.48523,-7.61674 0,0 4.56701,-5.45409 4.56701,-5.45409 0,0 0,0 0,0"
         inkscape:connector-curvature="0" />
    </g>
    <path
       style="opacity:0.07399998;fill:#000000;fill-opacity:1;stroke:none;stroke-width:14.39999962;stroke-linecap:butt;stroke-miterlimit:4;stroke-dasharray:none;stroke-opacity:1"
       d="m 269.95661,-141.37559 198.88361,4.28225 c -11.06874,512.54798 -298.25224,517.00453 -198.88361,-4.28225 z"
       id="path6147"
       inkscape:connector-curvature="0"
       sodipodi:nodetypes="ccc" />
    <path
       id="rect5894"
       d="m 331.6116,117.40704 c 21.72097,81.26929 -4.68803,119.58593 37.72062,169.97058 42.40865,-50.38465 16.00193,-88.70129 37.7229,-169.97058 l -37.7229,0 -37.72062,0 z"
       style="opacity:1;fill:#000000;fill-opacity:1;stroke:none;stroke-width:14.39999962;stroke-linecap:butt;stroke-miterlimit:4;stroke-dasharray:none;stroke-opacity:1"
       inkscape:connector-curvature="0" />
    <path
       id="path5892"
       d="m 369.33222,-201.28986 c -42.80955,2.12426 -96.16892,11.97062 -104.60577,44.61062 -21.74276,84.117062 28.97865,300.34229 104.60577,300.34232 75.62712,-3e-5 126.34852,-216.225258 104.60577,-300.34232 -8.43686,-32.64 -61.79621,-42.48636 -104.60577,-44.61062 z"
       style="opacity:1;fill:#006ea1;fill-opacity:1;stroke:none;stroke-width:14.39999962;stroke-linecap:butt;stroke-miterlimit:4;stroke-dasharray:none;stroke-opacity:1"
       inkscape:connector-curvature="0" />
    <path
       sodipodi:nodetypes="csssc"
       inkscape:connector-curvature="0"
       style="opacity:0.04100001;fill:#ffffff;fill-opacity:1;stroke:none;stroke-width:14.39999962;stroke-linecap:butt;stroke-miterlimit:4;stroke-dasharray:none;stroke-opacity:1"
       d="m 375.74503,-177.24067 c -24.29076,2.54678 -100.76606,46.36937 -72.81733,83.238072 17.66738,23.30601 122.47725,74.54501 127.71623,149.77084 2.99266,42.97093 26.02581,-119.59573 11.04948,-174.857732 -5.8113,-21.44333 -41.52599,-57.87764 -65.94838,-58.15118 z"
       id="path6141" />
    <path
       sodipodi:nodetypes="scscs"
       inkscape:connector-curvature="0"
       id="path6145"
       d="m 422.16946,-102.54162 c 9.67584,21.168292 11.75856,28.030932 10.38322,92.7880618 -29.85842,-57.2342298 -39.52592,-94.5132018 -73.48747,-68.5386498 -18.48753,14.13967 -12.77105,-39.139512 0.74948,-45.319612 13.52051,-6.18011 52.67893,-0.0981 62.35477,21.0702 z"
       style="opacity:0.03299997;fill:#ffffff;fill-opacity:1;stroke:none;stroke-width:14.39999962;stroke-linecap:butt;stroke-miterlimit:4;stroke-dasharray:none;stroke-opacity:1" />
    <path
       style="opacity:0.05199998;fill:#ffffff;fill-opacity:1;stroke:none;stroke-width:14.39999962;stroke-linecap:butt;stroke-miterlimit:4;stroke-dasharray:none;stroke-opacity:1"
       d="m 135.92581,81.311452 c 1.12226,15.77165 -3.8422,75.412828 15.68611,85.961958 11.59382,6.26294 61.29566,-108.963428 53.13476,-136.296268 -3.60262,-12.06602 -8.3835,-22.8571402 -18.72507,-22.8571402 -10.34156,0 -55.16986,1.8827202 -50.0958,73.1914502 z"
       id="path6410"
       inkscape:connector-curvature="0"
       sodipodi:nodetypes="sssss" />
    <path
       sodipodi:nodetypes="ccsc"
       inkscape:connector-curvature="0"
       id="path6168"
       d="M 452.49831,602.7193 C 489.99172,486.68269 258.13908,295.80552 344.30905,298.07645 c 70.57162,0 91.12933,-2.27093 118.07193,50.53571 10.14122,19.87645 71.58279,252.38099 -9.88267,254.10714 z"
       style="opacity:0.17600002;fill:#ffffff;fill-opacity:1;stroke:none;stroke-width:14.39999962;stroke-linecap:butt;stroke-miterlimit:4;stroke-dasharray:none;stroke-opacity:1" />
    <path
       style="opacity:0.17600002;fill:#ffffff;fill-opacity:1;stroke:none;stroke-width:14.39999962;stroke-linecap:butt;stroke-miterlimit:4;stroke-dasharray:none;stroke-opacity:1"
       d="m 436.94881,439.47171 c 8.19055,-47.36732 -92.89194,-108.98936 -59.13618,-112.88702 27.54209,-3.91796 35.43911,-5.94555 48.88572,13.16759 5.06132,7.1942 41.94827,94.52301 10.25046,99.71943 z"
       id="path4178"
       inkscape:connector-curvature="0"
       sodipodi:nodetypes="ccsc" />
    <path
       sodipodi:nodetypes="sssss"
       inkscape:connector-curvature="0"
       id="path6002"
       d="m 148.5013,75.518762 c 0.63449,8.91675 2.30022,49.542768 13.34085,55.506878 6.55474,3.54085 32.68196,-64.225398 28.06807,-79.678428 -2.03679,-6.82171 -7.23974,-17.20834 -13.0865,-17.20834 -5.84676,0 -31.19112,1.06442 -28.32242,41.37989 z"
       style="opacity:0.03800001;fill:#ffffff;fill-opacity:1;stroke:none;stroke-width:14.39999962;stroke-linecap:butt;stroke-miterlimit:4;stroke-dasharray:none;stroke-opacity:1" />
    <path
       style="opacity:0.03500001;fill:#ffffff;fill-opacity:1;stroke:none;stroke-width:14.39999962;stroke-linecap:butt;stroke-miterlimit:4;stroke-dasharray:none;stroke-opacity:1"
       d="m 94.001322,533.4045 c 5.746392,6.84763 35.294348,33.1085 46.232568,39.25841 5.9447,3.34235 -23.84965,-44.74238 -21.17379,-100.98755 0.33832,-7.11125 -13.81764,-14.68522 -18.55181,-11.25415 -4.734166,3.43107 -32.488206,42.02297 -6.506968,72.98329 z"
       id="path6004"
       inkscape:connector-curvature="0"
       sodipodi:nodetypes="sssss" />
    <path
       sodipodi:nodetypes="sssss"
       inkscape:connector-curvature="0"
       id="path6006"
       d="m 627.94048,561.3855 c -6.50827,6.12809 -38.92645,28.75058 -50.50922,33.57815 -6.295,2.62369 28.92188,-41.64386 32.84666,-97.8157 0.49622,-7.10198 15.44128,-12.96726 19.74139,-9.00574 4.3001,3.96152 27.34711,45.53624 -2.07883,73.24329 z"
       style="opacity:0.03500001;fill:#ffffff;fill-opacity:1;stroke:none;stroke-width:14.39999962;stroke-linecap:butt;stroke-miterlimit:4;stroke-dasharray:none;stroke-opacity:1" />
    <path
       sodipodi:nodetypes="sssss"
       inkscape:connector-curvature="0"
       id="path5998"
       d="M 613.32382,92.423122 C 614.59127,108.18377 656.73528,250.8715 637.20697,261.42063 625.61315,267.68357 522.19991,56.289672 530.36081,28.956832 c 3.60262,-12.06602 8.62461,-25.0772402 18.72507,-22.8571402 8.1126,1.78317 59.15672,23.1389202 64.23794,86.3234302 z"
       style="opacity:0.05199998;fill:#ffffff;fill-opacity:1;stroke:none;stroke-width:14.39999962;stroke-linecap:butt;stroke-miterlimit:4;stroke-dasharray:none;stroke-opacity:1" />
    <path
       sodipodi:nodetypes="sssss"
       inkscape:connector-curvature="0"
       id="path6000"
       d="m 596.53493,79.406982 c 0.56216,10.45107 14.49752,63.456158 2.54058,71.993418 -7.09873,5.0685 -54.99606,-80.758838 -51.88772,-99.382998 1.37217,-8.22159 3.62323,-15.7029 10.41545,-16.55482 6.79221,-0.85192 36.38996,-3.30827 38.93169,43.9444 z"
       style="opacity:0.03299997;fill:#ffffff;fill-opacity:1;stroke:none;stroke-width:14.39999962;stroke-linecap:butt;stroke-miterlimit:4;stroke-dasharray:none;stroke-opacity:1" />
    <path
       style="opacity:0.05199998;fill:#ffffff;fill-opacity:1;stroke:none;stroke-width:14.39999962;stroke-linecap:butt;stroke-miterlimit:4;stroke-dasharray:none;stroke-opacity:1"
       d="M 613.32382,92.423122 C 614.59127,108.18377 656.73528,250.8715 637.20697,261.42063 625.61315,267.68357 522.19991,56.289672 530.36081,28.956832 c 3.60262,-12.06602 8.62461,-25.0772402 18.72507,-22.8571402 8.1126,1.78317 59.15672,23.1389202 64.23794,86.3234302 z"
       id="path4377"
       inkscape:connector-curvature="0"
       sodipodi:nodetypes="sssss" />
    <path
       style="opacity:0.03299997;fill:#ffffff;fill-opacity:1;stroke:none;stroke-width:14.39999962;stroke-linecap:butt;stroke-miterlimit:4;stroke-dasharray:none;stroke-opacity:1"
       d="m 596.53493,79.406982 c 0.56216,10.45107 14.49752,63.456158 2.54058,71.993418 -7.09873,5.0685 -54.99606,-80.758838 -51.88772,-99.382998 1.37217,-8.22159 3.62323,-15.7029 10.41545,-16.55482 6.79221,-0.85192 36.38996,-3.30827 38.93169,43.9444 z"
       id="path4379"
       inkscape:connector-curvature="0"
       sodipodi:nodetypes="sssss" />
    <path
       sodipodi:nodetypes="sssss"
       inkscape:connector-curvature="0"
       id="path4381"
       d="m 642.37994,823.06694 c -10.82025,11.8566 -59.40231,139.9402 -99.45189,134.0972 -23.77715,-3.4688 -17.77572,-220.9351 17.66764,-234.4927 15.64644,-5.9849 34.34941,-11.6698 48.7999,-3.2902 11.60656,6.7301 76.36296,56.1518 32.98435,103.6857 z"
       style="opacity:0.05199998;fill:#ffffff;fill-opacity:1;stroke:none;stroke-width:14.39999962;stroke-linecap:butt;stroke-miterlimit:4;stroke-dasharray:none;stroke-opacity:1" />
    <path
       sodipodi:nodetypes="sssss"
       inkscape:connector-curvature="0"
       id="path4383"
       d="m 636.12105,810.24774 c -8.02345,8.5718 -29.93299,60.4172 -57.52729,58.0413 -16.38249,-1.4105 -23.8343,-104.494 -2.57142,-116.6647 9.38646,-5.3727 19.62644,-9.5044 31.86815,-5.0385 12.24157,4.4661 64.50685,24.9065 28.23056,63.6619 z"
       style="opacity:0.03299997;fill:#ffffff;fill-opacity:1;stroke:none;stroke-width:14.39999962;stroke-linecap:butt;stroke-miterlimit:4;stroke-dasharray:none;stroke-opacity:1" />
    <g
       transform="translate(-7.6846775,179.60512)"
       style="font-style:normal;font-weight:normal;font-size:60px;line-height:125%;font-family:Sans;letter-spacing:0px;word-spacing:0px;fill:#006ea1;fill-opacity:1;stroke:none;stroke-width:1px;stroke-linecap:butt;stroke-linejoin:miter;stroke-opacity:1"
       id="text8860">
      <path
         inkscape:connector-curvature="0"
         d="m 49.341032,-288.76343 c 2.886085,0.924 5.516191,2.19918 7.890319,3.82554 2.383444,1.59725 4.373341,3.30301 5.92092,5.66295 1.555704,2.33048 2.688609,4.53835 3.268802,7.68417 0.564901,3.1109 0.654737,5.37068 0.04572,9.51233 -0.60902,4.14165 -1.600664,6.2694 -3.062707,9.08311 -1.484779,2.81222 -3.355364,4.60912 -5.520794,6.4189 -2.164664,1.77924 -4.646859,3.04611 -7.446587,3.80061 -2.798955,0.72396 -5.690372,1.04822 -8.674251,0.97279 -2.983879,-0.0754 -5.855219,-0.54537 -8.614019,-1.40983 -2.758028,-0.895 -5.184428,-2.28596 -7.279199,-4.17287 -2.093999,-1.91746 -3.568623,-5.37949 -4.653087,-8.35917 -1.107208,-2.98115 -1.006869,-8.90439 -0.39785,-13.04604 0.173371,-1.17901 0.708909,-3.54553 1.187953,-4.72994 0.479047,-1.18441 1.081064,-2.28338 1.806054,-3.2969 0.702601,-1.01775 1.804045,-2.93533 2.729808,-3.59889 0.932667,-0.69333 1.917632,-1.10791 2.954895,-1.24374 0,0 -5.1272,-1.18918 -5.1272,-1.18918 0,0 2.90581,-10.52383 2.90581,-10.52383 0,0 15.070559,4.82495 15.070559,4.82495 0,0 -2.561475,9.27415 -2.561475,9.27415 -1.353936,-0.31403 -2.695773,-0.32726 -4.025511,-0.0397 -1.351938,0.28241 -2.603732,0.83899 -3.755383,1.66973 -1.151658,0.83074 -2.291648,2.79732 -3.084766,4.17112 -0.815514,1.36958 -1.553565,3.85366 -1.811398,5.60705 -0.391194,2.66033 -0.313472,5.82191 0.503553,7.62901 0.817025,1.80708 1.863133,4.08117 3.387137,5.22161 1.523996,1.14044 3.261133,1.98856 5.211409,2.54436 1.952256,0.52531 3.928798,0.85317 5.929625,0.98357 2.000828,0.1304 4.003208,0.0619 6.00714,-0.2056 2.005912,-0.29796 3.837443,-0.89818 5.494592,-1.80067 1.634413,-0.90397 3.056963,-1.86977 4.214444,-3.49878 1.157488,-1.62901 1.896893,-3.35531 2.288088,-6.01563 0.564565,-3.83934 0.16567,-6.28306 -1.093687,-9.02179 -1.259353,-2.73872 -3.703334,-4.86378 -7.202089,-6.74723 0,0 -2.670423,12.40013 -2.670423,12.40013 0,0 -6.246281,-1.18115 -6.246281,-1.18115 0,0 5.335737,-21.54905 5.335737,-21.54905 0,0 1.074144,0.3439 1.074144,0.3439 0,0 0,0 0,0"
         style="font-style:normal;font-variant:normal;font-weight:bold;font-stretch:normal;font-size:70px;font-family:'Anonymous Pro';-inkscape-font-specification:'Anonymous Pro Bold';fill:#006ea1;fill-opacity:1"
         id="path8867" />
      <path
         inkscape:connector-curvature="0"
         d="m 63.667178,-290.28505 c -1.754745,-0.64158 -3.142897,-1.72543 -3.915707,-3.49804 -0.793881,-1.78128 -1.209399,-3.85281 -1.246555,-6.21459 -0.02551,-2.39003 0.510005,-5.15887 1.377186,-7.8715 0.860704,-2.75019 2.085356,-5.55857 3.514396,-8.12036 0.788948,-1.41431 1.623232,-2.73191 2.265963,-3.70002 0.642731,-0.96811 1.375952,-2.08521 2.109089,-3.02913 0,0 -1.054949,-0.69731 -1.054949,-0.69731 -1.387585,-0.91718 -3.058249,-0.60586 -4.664569,0.45534 -1.590436,1.0351 -3.305666,3.10004 -4.675162,5.55508 -1.250409,2.24156 -2.38283,5.04763 -3.099549,7.66534 -0.737036,2.6074 -1.343891,5.86033 -1.303958,8.45459 0,0 -6.586007,1.45022 -6.586007,1.45022 -0.04547,-3.05923 0.493866,-6.73591 1.212498,-9.93664 0.710687,-3.238 2.543396,-7.57493 4.285037,-10.6971 1.131325,-2.02808 2.773906,-4.43444 4.264663,-6.13836 1.506647,-1.73001 3.470199,-3.55059 5.188772,-4.53908 1.735432,-1.01398 3.789028,-1.90611 5.578748,-1.94167 1.771176,-0.0488 3.509532,0.53617 5.215069,1.75492 0,0 17.379804,12.41941 17.379804,12.41941 0,0 -4.975278,7.27683 -4.975278,7.27683 0,0 -3.90616,-2.58193 -3.90616,-2.58193 0.618993,2.20394 1.095026,3.88795 0.501718,6.91592 -0.578416,3.0013 -1.361254,5.40973 -2.883847,8.40627 -0.941241,1.85241 -1.6648,2.96558 -2.836484,4.47846 -1.138227,1.49462 -2.067316,2.15519 -3.359014,3.07706 -1.291692,0.92188 -2.49309,1.06353 -3.931966,1.41587 -1.449777,0.31581 -2.934344,0.19596 -4.4537,-0.35956 0,0 -3.8e-5,-2e-5 -3.8e-5,-2e-5 m 10.044685,-13.64171 c 0.844348,-1.66172 1.365431,-2.90521 1.855903,-4.48603 0.485461,-1.6186 0.624958,-2.80939 0.750924,-4.1994 0.106499,-1.40186 -0.03705,-2.63398 -0.43063,-3.69637 -0.377701,-1.08848 -1.093062,-1.7677 -1.986444,-2.35822 0,0 -0.997916,-0.65961 -0.997916,-0.65961 -0.977688,1.14855 -1.728806,2.25925 -2.431493,3.36971 -0.702703,1.11047 -1.271595,2.05022 -1.762827,2.93083 -2.262646,4.05615 -3.443255,7.23608 -3.610348,9.78231 -0.154336,2.51845 0.37925,4.05835 1.600758,4.61969 2.4223,1.11318 4.548222,-0.45396 7.012055,-5.30292 0,0 1.8e-5,10e-6 1.8e-5,10e-6"
         style="font-style:normal;font-variant:normal;font-weight:bold;font-stretch:normal;font-size:70px;font-family:'Anonymous Pro';-inkscape-font-specification:'Anonymous Pro Bold';fill:#006ea1;fill-opacity:1"
         id="path8869" />
      <path
         inkscape:connector-curvature="0"
         d="m 123.85371,-353.80874 c 0,0 -7.02124,5.69713 -7.02124,5.69713 0,0 -13.94724,-16.80666 -13.94724,-16.80666 -0.96037,-1.15726 -2.02296,-1.71723 -2.81072,-1.96495 -0.779887,-0.28501 -1.559833,-0.0844 -2.339841,0.60191 -1.422366,1.25146 -1.801751,2.6475 -1.138157,4.18812 0.671474,1.50333 1.929077,3.48546 3.997848,5.69996 0,0 11.57269,12.38788 11.57269,12.38788 0,0 -6.49632,6.22406 -6.49632,6.22406 0,0 -15.393132,-15.49303 -15.393132,-15.49303 -1.059935,-1.06681 -1.990565,-1.7 -2.791891,-1.89956 -0.817379,-0.21572 -1.840434,0.28164 -2.574821,1.05913 -1.279931,1.35505 -1.508004,2.7579 -0.68422,4.20856 0.828196,1.41278 2.343825,3.15964 4.546886,5.24057 0,0 12.323888,11.64069 12.323888,11.64069 0,0 -5.544415,6.34952 -5.544415,6.34952 0,0 -24.556092,-20.28967 -24.556092,-20.28967 0,0 7.006478,-7.99971 7.006478,-7.99971 0,0 3.354285,3.16833 3.354285,3.16833 -0.813839,-1.69346 -1.100926,-3.33071 -0.861259,-4.91175 0.239678,-1.58104 1.510174,-3.5251 3.070906,-5.07577 1.300608,-1.29222 3.056032,-2.40243 4.524725,-2.62077 1.475465,-0.25584 2.878419,-0.007 4.208861,0.74533 -0.307298,-1.89562 0.03253,-3.78784 0.384672,-5.09921 0.360022,-1.34865 1.772259,-3.15668 3.606412,-4.67878 2.257416,-1.87335 4.844937,-2.96709 7.069467,-2.65507 2.23453,0.27525 4.35675,1.69517 6.36666,4.25978 0,0 14.12557,18.02396 14.12557,18.02396 0,0 0,0 0,0"
         style="font-style:normal;font-variant:normal;font-weight:bold;font-stretch:normal;font-size:70px;font-family:'Anonymous Pro';-inkscape-font-specification:'Anonymous Pro Bold';fill:#006ea1;fill-opacity:1"
         id="path8871" />
      <path
         inkscape:connector-curvature="0"
         d="m 133.83898,-403.66812 c 0,0 -10.68907,6.45354 -10.68907,6.45354 0,0 -4.58715,-7.28993 -4.58715,-7.28993 0,0 11.0343,-6.65971 11.0343,-6.65971 0,0 4.24192,7.4961 4.24192,7.4961 0,0 0,0 0,0 m 25.0292,27.26792 c 0,0 -23.28382,14.04614 -23.28382,14.04614 0,0 -3.51661,-5.29606 -3.51661,-5.29606 0,0 7.71762,-5.02068 7.71762,-5.02068 0,0 -10.17546,-16.17092 -10.17546,-16.17092 0,0 -8.1109,5.27497 -8.1109,5.27497 0,0 -3.53551,-5.32453 -3.53551,-5.32453 0,0 16.99476,-10.65831 16.99476,-10.65831 0,0 12.55743,22.19085 12.55743,22.19085 0,0 8.34536,-4.64256 8.34536,-4.64256 0,0 3.00713,5.6011 3.00713,5.6011 0,0 0,0 0,0"
         style="font-style:normal;font-variant:normal;font-weight:bold;font-stretch:normal;font-size:70px;font-family:'Anonymous Pro';-inkscape-font-specification:'Anonymous Pro Bold';fill:#006ea1;fill-opacity:1"
         id="path8873" />
      <path
         inkscape:connector-curvature="0"
         d="m 207.86406,-397.71774 c 0,0 -8.65844,3.13433 -8.65844,3.13433 0,0 -6.82596,-18.42958 -6.82596,-18.42958 -0.86264,-2.32907 -2.18774,-3.69093 -3.7031,-4.12595 -1.51536,-0.43504 -3.38296,-0.21854 -5.60278,0.64947 -3.27283,1.27978 -5.8641,3.49781 -7.06416,6.33092 -1.17205,2.82093 -1.01264,5.94471 0.47824,9.37135 0,0 5.69985,13.10065 5.69985,13.10065 0,0 -8.36545,3.76762 -8.36545,3.76762 0,0 -13.28034,-28.95461 -13.28034,-28.95461 0,0 8.93703,-4.02306 8.93703,-4.02306 0,0 3.19082,7.33386 3.19082,7.33386 -0.23133,-2.90613 0.74428,-5.68194 2.53487,-8.07217 1.78191,-2.41131 4.70016,-4.44148 8.20066,-5.81027 4.06969,-1.59137 8.18295,-1.99675 11.2198,-0.81577 3.03685,1.18099 5.28268,3.84654 6.7375,7.99667 0,0 6.50146,18.54654 6.50146,18.54654 0,0 0,0 0,0"
         style="font-style:normal;font-variant:normal;font-weight:bold;font-stretch:normal;font-size:70px;font-family:'Anonymous Pro';-inkscape-font-specification:'Anonymous Pro Bold';fill:#006ea1;fill-opacity:1"
         id="path8875" />
      <path
         inkscape:connector-curvature="0"
         d="m 255.41326,-411.6701 c 0.48944,2.13203 0.43392,4.14367 -0.16656,6.03494 -0.60047,1.89127 -1.30619,3.53274 -2.80461,5.12029 -1.46875,1.58027 -2.92845,2.83283 -5.16752,4.05415 -2.20375,1.23564 -4.33445,2.0928 -7.24907,2.90339 -7.15405,1.98961 -12.81983,1.94851 -18.83646,0.32224 0,0 2.65297,-6.56098 2.65297,-6.56098 5.00755,1.36915 9.37576,1.60435 14.49842,0.17969 3.15014,-0.87608 5.20058,-2.00353 6.81677,-3.67435 1.65152,-1.6565 1.89311,-3.62052 1.28516,-6.09911 0,0 -0.81424,-3.31953 -0.81424,-3.31953 -1.60085,1.68305 -2.98351,3.00991 -4.57216,4.06119 -1.59443,1.02922 -3.30473,1.78108 -5.6011,2.41972 -2.64965,0.73689 -4.98484,0.94053 -7.48669,0.77648 -2.50184,-0.16405 -4.58733,-0.77776 -6.66292,-1.67995 -2.05323,-0.93307 -3.84258,-2.19945 -5.36804,-3.79916 -1.4963,-1.60883 -2.57803,-3.47878 -3.24519,-5.60983 -0.66717,-2.13106 -0.84487,-4.28402 -0.53312,-6.4589 0.33411,-2.20575 1.08527,-4.25555 2.25349,-6.14939 1.19058,-1.92472 3.01965,-3.67419 5.03749,-5.14914 2.01141,-1.4968 4.60025,-2.6739 7.2499,-3.41079 2.29636,-0.63864 4.67879,-0.94618 6.63782,-0.82247 1.95327,0.10167 4.18055,0.45515 6.24893,1.19128 0,0 -0.68395,-2.78841 -0.68395,-2.78841 0,0 9.45975,-2.25581 9.45975,-2.25581 0,0 7.05093,30.71445 7.05093,30.71445 0,0 0,0 0,0 m -14.49139,-20.22619 c -1.32065,-0.638 -3.04543,-0.93301 -4.91075,-0.93991 -1.84152,-0.0367 -3.73651,0.17528 -5.35575,0.6256 -3.44454,0.95796 -6.138,2.66444 -7.74823,5.08817 -1.58092,2.41507 -1.96159,5.0103 -1.14203,7.78567 0.40655,1.37676 1.06248,2.57296 1.96778,3.58861 0.92816,0.98514 2.01629,1.75672 3.2644,2.31476 1.27741,0.54938 2.57028,0.91915 4.12386,1.03106 1.5769,0.0818 3.20441,-0.11069 4.88252,-0.57739 1.61923,-0.45032 3.0882,-1.06655 4.67612,-1.99986 1.61171,-0.96309 2.73746,-1.99715 3.613,-3.17383 0,0 -3.37092,-13.74288 -3.37092,-13.74288 0,0 0,0 0,0"
         style="font-style:normal;font-variant:normal;font-weight:bold;font-stretch:normal;font-size:70px;font-family:'Anonymous Pro';-inkscape-font-specification:'Anonymous Pro Bold';fill:#006ea1;fill-opacity:1"
         id="path8877" />
      <path
         inkscape:connector-curvature="0"
         d="m 259.71941,-435.11822 c -0.62536,-2.91876 -0.81092,-5.82688 -0.55668,-8.72437 0.25424,-2.89748 1.3304,-5.60415 2.6843,-8.03482 1.3539,-2.43067 3.69223,-4.62225 6.31513,-6.40441 2.64881,-1.81012 6.60758,-3.15428 10.67878,-3.81968 4.07122,-0.6654 8.40191,-0.7506 11.45338,0.14523 3.07867,0.86913 5.66912,2.23006 7.77135,4.08279 2.10223,1.85273 3.74938,4.10078 4.94145,6.74414 1.19206,2.64335 1.98918,5.44389 2.39135,8.40162 0.40217,2.95772 0.38176,5.86942 -0.0612,8.7351 -0.44606,2.84311 -1.41649,5.45857 -2.91128,7.84639 -1.49786,2.36524 -3.61268,4.38896 -6.34444,6.07114 -2.70456,1.65549 -5.66645,2.83528 -9.79798,3.51054 -4.13152,0.67526 -7.41443,0.59773 -10.53098,-0.12416 -3.09065,-0.74985 -5.56323,-2.01137 -7.78004,-3.75355 -2.19129,-1.77051 -3.87686,-3.95024 -5.23135,-6.47975 -1.38915,-2.54538 -2.3964,-5.27745 -3.02176,-8.19621 0,0 0,0 0,0 m 9.47911,-1.90954 c 0.36426,1.97183 0.92384,3.90758 1.67874,5.80725 0.78496,1.89411 1.80311,3.53659 3.05445,4.92746 1.27725,1.36291 2.84625,2.37068 4.70701,3.02332 1.89082,0.64709 3.96006,0.83121 6.61388,0.39747 2.65384,-0.43375 4.74613,-1.27211 6.27689,-2.51508 1.56091,-1.24791 2.52333,-2.69027 3.28042,-4.3799 0.7843,-1.71633 1.23818,-3.59468 1.36165,-5.63507 0.15374,-2.04451 0.0955,-4.0602 -0.17463,-6.04706 -0.27016,-1.98687 -0.75073,-3.93362 -1.44172,-5.84027 -0.66072,-1.91077 -1.59812,-3.58846 -2.81222,-5.03305 -1.18382,-1.44872 -3.2637,-2.43056 -5.17085,-3.11164 -1.877,-0.68602 -4.11225,-0.81708 -6.70577,-0.39319 -4.31247,0.70483 -7.79658,2.80215 -9.51633,6.10901 -1.71973,3.30686 -2.10357,7.53711 -1.15152,12.69075 0,0 0,0 0,0"
         style="font-style:normal;font-variant:normal;font-weight:bold;font-stretch:normal;font-size:70px;font-family:'Anonymous Pro';-inkscape-font-specification:'Anonymous Pro Bold';fill:#006ea1;fill-opacity:1"
         id="path8879" />
      <path
         inkscape:connector-curvature="0"
         d="m 354.48228,-424.58306 c 0,0 -9.47206,0.55101 -9.47206,0.55101 0,0 -1.14131,-19.61964 -1.14131,-19.61964 -0.14423,-2.47947 -0.86951,-4.16052 -2.17583,-5.04315 -1.30632,-0.88263 -3.40854,-1.23264 -5.78375,-1.03428 -3.50191,0.29246 -6.27616,1.58738 -8.32275,3.88475 -2.01614,2.29484 -2.86871,5.30422 -2.55771,9.02813 0,0 1.189,14.23717 1.189,14.23717 0,0 -9.02841,0.96095 -9.02841,0.96095 0,0 -3.46395,-31.66568 -3.46395,-31.66568 0,0 9.84128,-1.03938 9.84128,-1.03938 0,0 0.66562,7.97009 0.66562,7.97009 0.71453,-2.82636 2.28723,-5.10703 4.71809,-6.842 2.42897,-1.75769 5.92957,-2.90936 9.68178,-3.12763 4.36233,-0.25377 7.84052,0.60523 10.43456,2.577 2.59403,1.97177 4.01874,5.15278 4.27413,9.54303 0,0 1.14131,19.61963 1.14131,19.61963 0,0 0,0 0,0"
         style="font-style:normal;font-variant:normal;font-weight:bold;font-stretch:normal;font-size:70px;font-family:'Anonymous Pro';-inkscape-font-specification:'Anonymous Pro Bold';fill:#006ea1;fill-opacity:1"
         id="path8881" />
      <path
         inkscape:connector-curvature="0"
         d="m 404.22682,-424.95508 c 0,0 -37.04064,-0.0812 -37.04064,-0.0812 0,0 -1.4803,-44.57878 -1.4803,-44.57878 0,0 10.19451,-0.1974 10.19451,-0.1974 0,0 0.32384,38.24473 0.32384,38.24473 0,0 28.26249,0.26069 28.26249,0.26069 0,0 -0.2599,6.35195 -0.2599,6.35195 0,0 0,0 0,0"
         style="font-style:normal;font-variant:normal;font-weight:bold;font-stretch:normal;font-size:70px;font-family:'Anonymous Pro';-inkscape-font-specification:'Anonymous Pro Bold';fill:#006ea1;fill-opacity:1"
         id="path8883" />
      <path
         inkscape:connector-curvature="0"
         d="m 444.61517,-458.45907 c 0,0 -12.01099,-1.02244 -12.01099,-1.02244 0,0 0.56595,-8.59444 0.56595,-8.59444 0,0 12.22685,1.03939 12.22685,1.03939 0,0 -0.78181,8.57749 -0.78181,8.57749 0,0 0,0 0,0 m 4.9963,36.64004 c 0,0 -27.78774,-2.30415 -27.78774,-2.30415 0,0 0.41772,-6.34352 0.41772,-6.34352 0,0 9.42184,0.62043 9.42184,0.62043 0,0 1.25541,-19.06466 1.25541,-19.06466 0,0 -9.42184,-0.62043 -9.42184,-0.62043 0,0 0.41996,-6.37762 0.41996,-6.37762 0,0 19.27308,1.47278 19.27308,1.47278 0,0 -2.31441,25.39211 -2.31441,25.39211 0,0 9.47451,0.91086 9.47451,0.91086 0,0 -0.73853,6.3142 -0.73853,6.3142 0,0 0,0 0,0"
         style="font-style:normal;font-variant:normal;font-weight:bold;font-stretch:normal;font-size:70px;font-family:'Anonymous Pro';-inkscape-font-specification:'Anonymous Pro Bold';fill:#006ea1;fill-opacity:1"
         id="path8885" />
      <path
         inkscape:connector-curvature="0"
         d="m 503.62419,-413.40343 c 0,0 -9.30501,-1.85447 -9.30501,-1.85447 0,0 3.8412,-19.27363 3.8412,-19.27363 0.48544,-2.43575 0.20735,-4.24533 -0.83429,-5.42874 -1.04163,-1.18342 -3.02517,-1.97989 -5.37459,-2.38127 -3.4639,-0.5918 -6.47369,-0.0311 -9.02937,1.68203 -2.52557,1.7183 -4.16617,4.46037 -4.69686,8.15936 0,0 -2.02892,14.1419 -2.02892,14.1419 0,0 -9.39189,-1.34744 -9.39189,-1.34744 0,0 4.5238,-31.53169 4.5238,-31.53169 0,0 9.39189,1.34744 9.39189,1.34744 0,0 -1.1358,7.91676 -1.1358,7.91676 1.32922,-2.59462 3.70781,-4.39053 6.49505,-5.4631 2.79109,-1.09504 6.03907,-1.32607 9.74393,-0.69311 4.30728,0.73588 7.89834,2.57815 9.91156,5.14013 2.01321,2.56198 2.59005,5.99938 1.73051,10.3122 0,0 -3.84121,19.27363 -3.84121,19.27363 0,0 0,0 0,0"
         style="font-style:normal;font-variant:normal;font-weight:bold;font-stretch:normal;font-size:70px;font-family:'Anonymous Pro';-inkscape-font-specification:'Anonymous Pro Bold';fill:#006ea1;fill-opacity:1"
         id="path8887" />
      <path
         inkscape:connector-curvature="0"
         d="m 523.21565,-441.73989 c 0,0 9.44824,2.2961 9.44824,2.2961 0,0 -4.81736,19.08884 -4.81736,19.08884 -0.60217,2.3861 -0.41294,4.19641 0.56767,5.4309 0.98061,1.2345 2.47092,2.12308 4.77293,2.74109 3.36446,0.90323 6.25043,0.62137 8.97661,-0.80506 2.72619,-1.42644 4.56616,-3.93347 5.64704,-7.51068 0,0 4.13241,-13.67627 4.13241,-13.67627 0,0 9.3136,2.8668 9.3136,2.8668 0,0 -9.70447,30.34093 -9.70447,30.34093 0,0 -8.82302,-2.71423 -8.82302,-2.71423 0,0 2.30348,-7.62337 2.30348,-7.62337 -1.6977,2.34346 -3.81349,3.97106 -6.70678,4.75752 -2.89328,0.78647 -5.9107,0.77501 -9.54078,-0.19954 -4.22035,-1.13301 -6.82273,-2.83518 -8.74323,-5.46746 -1.91525,-2.65447 -2.369,-6.11035 -1.36125,-10.36767 0,0 4.53491,-19.1579 4.53491,-19.1579 0,0 0,0 0,0"
         style="font-style:normal;font-variant:normal;font-weight:bold;font-stretch:normal;font-size:70px;font-family:'Anonymous Pro';-inkscape-font-specification:'Anonymous Pro Bold';fill:#006ea1;fill-opacity:1"
         id="path8889" />
      <path
         inkscape:connector-curvature="0"
         d="m 600.15964,-381.85935 c 0,0 -17.65288,-7.8635 -17.65288,-7.8635 0,0 2.4564,-5.86359 2.4564,-5.86359 0,0 3.46669,1.45228 3.46669,1.45228 0,0 -2.74772,-8.3683 -2.74772,-8.3683 0,0 -7.78622,4.07732 -7.78622,4.07732 0,0 3.23725,1.28672 3.23725,1.28672 0,0 -2.34818,5.90777 -2.34818,5.90777 0,0 -18.03824,-6.69952 -18.03824,-6.69952 0,0 2.03653,-6.02232 2.03653,-6.02232 0,0 5.68267,2.00364 5.68267,2.00364 0,0 12.28653,-5.89679 12.28653,-5.89679 0,0 -5.4284,-11.94204 -5.4284,-11.94204 0,0 -5.55184,-1.9705 -5.55184,-1.9705 0,0 2.04748,-6.05471 2.04748,-6.05471 0,0 18.81662,7.01372 18.81662,7.01372 0,0 -2.36081,5.93953 -2.36081,5.93953 0,0 -2.81129,-1.11741 -2.81129,-1.11741 0,0 2.54083,7.63034 2.54083,7.63034 0,0 7.29992,-3.62227 7.29992,-3.62227 0,0 -3.12849,-1.31061 -3.12849,-1.31061 0,0 2.46962,-5.89511 2.46962,-5.89511 0,0 18.61315,8.26105 18.61315,8.26105 0,0 -2.81008,5.74061 -2.81008,5.74061 0,0 -5.20133,-2.42242 -5.20133,-2.42242 0,0 -12.26674,4.73252 -12.26674,4.73252 0,0 4.6286,12.78642 4.6286,12.78642 0,0 5.34499,2.50726 5.34499,2.50726 0,0 -2.79506,5.70991 -2.79506,5.70991 0,0 0,0 0,0"
         style="font-style:normal;font-variant:normal;font-weight:bold;font-stretch:normal;font-size:70px;font-family:'Anonymous Pro';-inkscape-font-specification:'Anonymous Pro Bold';fill:#006ea1;fill-opacity:1"
         id="path8891" />
      <path
         inkscape:connector-curvature="0"
         d="m 629.02944,-365.94831 c 0,0 -9.25737,-5.5834 -9.25737,-5.5834 0,0 4.27518,-7.47718 4.27518,-7.47718 0,0 9.59941,5.78966 9.59941,5.78966 0,0 -4.61722,7.27092 -4.61722,7.27092 0,0 0,0 0,0"
         style="font-style:normal;font-variant:normal;font-weight:bold;font-stretch:normal;font-size:70px;font-family:'Anonymous Pro';-inkscape-font-specification:'Anonymous Pro Bold';fill:#006ea1;fill-opacity:1"
         id="path8893" />
      <path
         inkscape:connector-curvature="0"
         d="m 678.36081,-330.05749 c -3.32971,-0.82545 -5.73329,-1.33099 -8.37241,-3.04495 -2.61821,-1.69168 -4.40655,-3.09078 -6.98854,-5.51928 -2.60426,-2.44944 -4.37028,-4.61214 -6.03713,-7.15437 -1.64398,-2.52197 -2.52662,-4.66511 -3.17691,-7.07952 -0.61224,-2.41229 -0.54302,-4.53432 -0.13561,-6.82552 0.43139,-2.27226 1.43074,-4.40092 2.99806,-6.38598 1.4967,-1.89565 3.30015,-3.31685 5.41035,-4.26362 2.1483,-0.94571 4.64897,-1.27274 6.99094,-1.21587 2.38004,0.059 5.14793,0.81088 7.56739,1.85852 2.43456,1.03058 5.07616,2.8067 7.12395,4.73276 2.13682,2.0098 3.99865,4.48108 4.888,6.65975 0.88935,2.17869 1.30397,4.57445 0.69351,6.488 0,0 3.36493,-3.15703 3.36493,-3.15703 0,0 6.0201,6.68995 6.0201,6.68995 0,0 -11.14397,9.78973 -11.14397,9.78973 0,0 -5.69374,-6.33043 -5.69374,-6.33043 2.04388,-1.9176 2.86862,-4.38399 2.57583,-7.02947 -0.25507,-2.63998 -1.75473,-5.37087 -4.15865,-7.63189 -0.95712,-0.90022 -2.31135,-1.92994 -3.68117,-2.5956 -1.33186,-0.66246 -2.73476,-1.08344 -4.20871,-1.26295 -1.45106,-0.15925 -3.04351,-0.1174 -4.48604,0.36962 -1.44251,0.48703 -2.74828,1.42987 -3.91728,2.82852 -1.13979,1.36368 -1.83307,2.78875 -2.07983,4.2752 -0.23215,1.46897 -0.31023,2.79702 0.0456,4.23859 0.39379,1.44479 1.07611,2.88646 2.04697,4.32501 1.00885,1.44175 1.89212,2.62877 3.20537,3.86395 2.24811,2.11448 3.91426,3.33569 5.97654,4.50143 2.09981,1.17245 3.98959,1.76228 5.96875,2.21997 0,0 -0.79627,6.65548 -0.79627,6.65548 0,0 0,0 0,0"
         style="font-style:normal;font-variant:normal;font-weight:bold;font-stretch:normal;font-size:70px;font-family:'Anonymous Pro';-inkscape-font-specification:'Anonymous Pro Bold';fill:#006ea1;fill-opacity:1"
         id="path8895" />
      <path
         inkscape:connector-curvature="0"
         d="m 714.3248,-290.90659 c -2.33789,0.83801 -4.64174,1.09577 -6.91152,0.77327 -2.25948,-0.29373 -4.32557,-0.69915 -6.44416,-1.98359 -2.08599,-1.26467 -3.87135,-2.43939 -5.75346,-4.60579 -1.88211,-2.1664 -3.08924,-3.54282 -4.72806,-6.51237 -1.60929,-2.91604 -2.12048,-4.69922 -2.9417,-7.44901 -0.82123,-2.7498 -0.88163,-4.95007 -0.84066,-7.41375 0.0772,-2.45193 0.83503,-4.45762 1.79726,-6.53854 0.98078,-2.05664 2.45798,-3.83881 4.43158,-5.3465 1.91928,-1.4662 4.00906,-2.40895 6.26934,-2.82825 2.29692,-0.40885 4.79169,0.059 7.13093,0.79787 2.37549,0.7506 4.90824,2.51296 7.08257,4.37609 2.19339,1.85062 4.69633,5.35198 6.30562,8.26802 1.63882,2.96955 3.2788,7.03772 3.66662,9.88117 0.40858,2.83405 0.5382,5.9564 -0.12096,8.33364 -0.62656,2.397 -1.57754,4.79971 -3.1788,6.47731 -1.56952,1.69868 -3.49105,2.95549 -5.7646,3.77043 0,0 0,0 0,0 m -3.48683,-8.76829 c 1.3075,-0.59242 2.41626,-1.43026 3.32626,-2.51351 0.94337,-1.06481 1.59684,-2.30019 1.9604,-3.70613 0.36356,-1.40595 0.24487,-3.25242 -0.0133,-4.93489 -0.22407,-1.66539 -0.99487,-3.72922 -1.95454,-5.46815 -0.97444,-1.76568 -2.30516,-3.52939 -3.59393,-4.60773 -1.26925,-1.0901 -2.73166,-2.14004 -4.0969,-2.56059 -1.36524,-0.42054 -2.75848,-0.53047 -4.17973,-0.32979 -1.38545,0.21375 -2.6785,0.71401 -3.87915,1.50079 -1.25781,0.82423 -2.24218,1.81635 -2.9531,2.97633 -0.69416,1.18553 -1.13047,2.49435 -1.30892,3.92647 -0.17844,1.4321 -0.28579,2.70314 0.0859,4.33446 0.39119,1.61954 0.87781,2.96877 1.85224,4.73445 0.95967,1.73893 1.82293,2.85381 2.98373,4.04902 1.19486,1.21229 2.32272,1.81474 3.64023,2.459 1.31751,0.64426 2.65642,0.9769 4.01674,0.99793 1.37293,0.0489 2.74428,-0.23703 4.11404,-0.85766 0,0 0,0 0,0"
         style="font-style:normal;font-variant:normal;font-weight:bold;font-stretch:normal;font-size:70px;font-family:'Anonymous Pro';-inkscape-font-specification:'Anonymous Pro Bold';fill:#006ea1;fill-opacity:1"
         id="path8897" />
      <path
         inkscape:connector-curvature="0"
         d="m 706.73788,-241.43094 c 0,0 -0.24093,-8.83632 -0.24093,-8.83632 0,0 21.80758,-1.17685 21.80758,-1.17685 1.50161,-0.081 2.59355,-0.35417 3.2758,-0.81939 0.70665,-0.43594 1.03842,-1.59789 0.93991,-2.63212 -0.17962,-1.88594 -1.08794,-3.01185 -2.72495,-3.37773 -1.61142,-0.33764 -3.9255,-0.36279 -6.94223,-0.0755 0,0 -16.87556,1.60731 -16.87556,1.60731 0,0 -1.13397,-8.08375 -1.13397,-8.08375 0,0 21.4943,-3.86621 21.4943,-3.86621 1.48005,-0.26622 2.52979,-0.67236 3.14923,-1.21843 0.64187,-0.5501 0.86814,-1.35144 0.67881,-2.404 -0.32997,-1.83448 -1.49048,-3.22268 -3.15363,-3.35226 -1.63424,-0.10472 -3.93014,0.17312 -6.88768,0.83351 0,0 -16.54448,3.69421 -16.54448,3.69421 0,0 -2.06183,-7.89456 -2.06183,-7.89456 0,0 30.40294,-9.50193 30.40294,-9.50193 0,0 2.76646,10.54441 2.76646,10.54441 0,0 -4.50303,1.00548 -4.50303,1.00548 1.85876,0.27375 3.37605,0.95248 4.55187,2.03619 1.17582,1.08372 2.02672,3.40419 2.4162,5.56947 0.32456,1.80441 0.18288,4.06724 -0.48619,5.39273 -0.64236,1.35266 -1.58806,2.90801 -2.99626,3.50255 1.68915,0.91342 2.96158,1.89723 3.81729,2.95142 0.88129,1.08244 1.45853,3.49465 1.58697,5.87456 0.15807,2.92913 -0.59563,5.86193 -2.19244,7.44172 -1.57362,1.61004 -3.98942,2.43678 -7.24737,2.48021 0,0 -22.89681,0.30524 -22.89681,0.30524 0,0 0,0 0,0"
         style="font-style:normal;font-variant:normal;font-weight:bold;font-stretch:normal;font-size:70px;font-family:'Anonymous Pro';-inkscape-font-specification:'Anonymous Pro Bold';fill:#006ea1;fill-opacity:1"
         id="path8899" />
    </g>
  </g>
</svg>
