<?xml version="1.0" encoding="UTF-8" standalone="no"?>
<!-- Created with Inkscape (http://www.inkscape.org/) -->

<svg
   xmlns:dc="http://purl.org/dc/elements/1.1/"
   xmlns:cc="http://creativecommons.org/ns#"
   xmlns:rdf="http://www.w3.org/1999/02/22-rdf-syntax-ns#"
   xmlns:svg="http://www.w3.org/2000/svg"
   xmlns="http://www.w3.org/2000/svg"
   xmlns:sodipodi="http://sodipodi.sourceforge.net/DTD/sodipodi-0.dtd"
   xmlns:inkscape="http://www.inkscape.org/namespaces/inkscape"
   width="210mm"
   height="400mm"
   viewBox="0 0 744.09447 1417.3228"
   id="svg2"
   version="1.1"
   inkscape:version="0.91 r13725"
   sodipodi:docname="penguin2.svg"
   inkscape:export-filename="/tmp/te.png"
   inkscape:export-xdpi="199"
   inkscape:export-ydpi="199">
  <sodipodi:namedview
     id="base"
     pagecolor="#ffffff"
     bordercolor="#666666"
     borderopacity="1.0"
     inkscape:pageopacity="0.0"
     inkscape:pageshadow="2"
     inkscape:zoom="0.70710678"
     inkscape:cx="571.23706"
     inkscape:cy="906.63268"
     inkscape:document-units="px"
     inkscape:current-layer="layer1"
     showgrid="false"
     showguides="true"
     inkscape:guide-bbox="true"
     inkscape:window-width="1680"
     inkscape:window-height="976"
     inkscape:window-x="0"
     inkscape:window-y="27"
     inkscape:window-maximized="1"
     height="500mm">
    <sodipodi:guide
       orientation="0,1"
       position="372.99883,892.21724"
       id="guide5869" />
    <sodipodi:guide
       orientation="1,0"
       position="608.11183,-137.38075"
       id="guide5883" />
    <sodipodi:guide
       orientation="1,0"
       position="137.14286,495.71429"
       id="guide5885" />
    <sodipodi:guide
       orientation="0,1"
       position="471.42857,120"
       id="guide5887" />
    <sodipodi:guide
       orientation="1,0"
       position="265.71429,625.71429"
       id="guide6135" />
    <sodipodi:guide
       orientation="1,0"
       position="491.42857,531.42857"
       id="guide6137" />
    <sodipodi:guide
       orientation="0,1"
       position="434.28571,48.57143"
       id="guide6139" />
    <sodipodi:guide
       orientation="0,1"
       position="137.14286,177.14286"
       id="guide6143" />
    <sodipodi:guide
       orientation="0,1"
       position="352.14286,413.57143"
       id="guide6158" />
    <sodipodi:guide
       orientation="0,1"
       position="400.52548,389.41381"
       id="guide6160" />
    <sodipodi:guide
       orientation="0,1"
       position="384.64286,351.78571"
       id="guide6162" />
    <sodipodi:guide
       orientation="0,1"
       position="456.42857,725"
       id="guide6164" />
    <sodipodi:guide
       orientation="0,1"
       position="465,530"
       id="guide6166" />
    <sodipodi:guide
       orientation="0,1"
       position="100.71429,802.85714"
       id="guide6175" />
    <sodipodi:guide
       orientation="0,1"
       position="382.85714,690"
       id="guide6414" />
    <sodipodi:guide
       orientation="0,1"
       position="345,445.35714"
       id="guide6425" />
  </sodipodi:namedview>
  <defs
     id="defs4" />
  <metadata
     id="metadata7">
    <rdf:RDF>
      <cc:Work
         rdf:about="">
        <dc:format>image/svg+xml</dc:format>
        <dc:type
           rdf:resource="http://purl.org/dc/dcmitype/StillImage" />
        <dc:title />
      </cc:Work>
    </rdf:RDF>
  </metadata>
  <g
     inkscape:label="Layer 1"
     inkscape:groupmode="layer"
     id="layer1"
     transform="translate(0,364.96065)">
    <g
       id="g4389"
       transform="matrix(1,0,0,1.1848577,-2.7525381,-702.22887)">
      <ellipse
         style="opacity:1;fill:#ffff00;fill-opacity:1;stroke:none;stroke-width:14.39999962;stroke-linecap:butt;stroke-miterlimit:4;stroke-dasharray:none;stroke-opacity:1"
         id="ellipse4370"
         cx="372.04724"
         cy="1398.0082"
         rx="303.53656"
         ry="73.415535" />
      <ellipse
         ry="68.679047"
         rx="293.41867"
         cy="1394.3368"
         cx="372.04724"
         id="ellipse4372"
         style="opacity:1;fill:#552200;fill-opacity:1;stroke:none;stroke-width:14.39999962;stroke-linecap:butt;stroke-miterlimit:4;stroke-dasharray:none;stroke-opacity:1" />
    </g>
    <path
       style="opacity:1;fill:#552200;fill-opacity:1;stroke:none;stroke-width:7;stroke-linecap:butt;stroke-miterlimit:4;stroke-dasharray:none;stroke-opacity:1"
       d="m 75.934756,637.64061 586.898624,0 0,313.63743 -586.898624,0 z"
       id="rect4345"
       inkscape:connector-curvature="0" />
    <ellipse
       style="opacity:1;fill:#ffff00;fill-opacity:1;stroke:none;stroke-width:14.39999962;stroke-linecap:butt;stroke-miterlimit:4;stroke-dasharray:none;stroke-opacity:1"
       id="ellipse4350"
       cx="369.19009"
       cy="648.42651"
       rx="303.53656"
       ry="72.40538" />
    <ellipse
       ry="67.734062"
       rx="293.41867"
       cy="646.09082"
       cx="369.19009"
       id="ellipse3543"
       style="opacity:1;fill:#d40000;fill-opacity:1;stroke:none;stroke-width:14.39999962;stroke-linecap:butt;stroke-miterlimit:4;stroke-dasharray:none;stroke-opacity:1" />
    <path
       style="opacity:0.15800003;fill:#000000;fill-opacity:1;stroke:none;stroke-width:14.39999962;stroke-linecap:butt;stroke-miterlimit:4;stroke-dasharray:none;stroke-opacity:1"
       d="m 635.30871,631.57996 c -3.20104,26.16068 -124.54599,92.09188 -318.24743,105.57228 -182.33907,12.6897 -174.31786,295.98036 -245.273746,234.0362 -7.161241,-6.8097 -10.166976,-28.2739 4.119306,-38.7524 0.377637,-87.934 0.07768,-158.9345 0.09625,-241.4971 0.184417,-10.3864 0.340307,-13.4307 0.271573,-23.7015 -21.765349,-16.7559 -3.72014,-34.72344 -1.499839,-36.88541 33.846666,-26.19351 87.316296,-42.58592 184.145766,-32.33807 192.71774,20.3961 381.38804,-7.29619 376.38812,33.566 z"
       id="path6133"
       inkscape:connector-curvature="0"
       sodipodi:nodetypes="ssccccccs" />
    <path
       style="opacity:1;fill:#000000;fill-opacity:1;stroke:none;stroke-width:14.39999962;stroke-linecap:butt;stroke-miterlimit:4;stroke-dasharray:none;stroke-opacity:1"
       d="m 428.54093,592.54665 58.47423,-9.04782 c 34.21962,7.23007 69.94844,24.71619 83.57464,36.38514 37.33869,37.11037 -190.271,67.83067 -184.80752,28.59547 8.08993,-18.35167 23.15126,-44.41351 42.75865,-55.93279 z"
       id="rect5905"
       inkscape:connector-curvature="0"
       sodipodi:nodetypes="ccccc" />
    <path
       sodipodi:nodetypes="ccccc"
       inkscape:connector-curvature="0"
       id="path6021"
       d="M 315.16548,592.77035 256.728,583.4741 c -34.2483,7.08457 -70.04688,24.4187 -83.71971,36.02967 -37.48704,36.95137 189.99762,68.63867 184.69139,29.38067 -8.01635,-18.38597 -22.97313,-44.51157 -42.5342,-56.11409 z"
       style="opacity:1;fill:#000000;fill-opacity:1;stroke:none;stroke-width:14.39999962;stroke-linecap:butt;stroke-miterlimit:4;stroke-dasharray:none;stroke-opacity:1" />
    <path
       sodipodi:nodetypes="ssccccccs"
       inkscape:connector-curvature="0"
       id="path4375"
       d="m 635.30871,641.60943 c -3.20104,33.32011 -124.54599,117.29461 -318.24743,134.46421 -182.33907,16.1624 -174.82294,358.00366 -245.778822,279.10726 -7.161241,-8.6733 -9.283093,-22.8239 4.750651,-32.9535 0.377637,-111.99886 -0.04859,-199.85676 -0.03002,-305.01426 0.184417,-13.2288 0.342935,-36.1421 0.274201,-49.2238 -21.765349,-21.3414 -3.812054,-33.26441 -2.752467,-36.13176 27.685947,-24.37796 88.566297,-46.05252 185.395767,-33.00014 192.71774,25.97789 381.38804,-9.29294 376.38812,42.75199 z"
       style="opacity:0;fill:#000000;fill-opacity:1;stroke:none;stroke-width:14.39999962;stroke-linecap:butt;stroke-miterlimit:4;stroke-dasharray:none;stroke-opacity:1" />
    <path
       inkscape:connector-curvature="0"
       style="opacity:1;fill:#006ea1;fill-opacity:1;stroke:none;stroke-width:14.39999962;stroke-linecap:butt;stroke-miterlimit:4;stroke-dasharray:none;stroke-opacity:1"
       d="m 369.33222,-201.71944 c -210.44439,1e-5 -351.585001,529.19194 -291.08236,735.0611 23.47688,79.88357 171.95805,103.98251 291.08236,109.18141 119.12431,-5.1989 267.60548,-29.29784 291.08237,-109.18141 60.50263,-205.86916 -80.63798,-735.06109 -291.08237,-735.0611 z"
       id="rect5889" />
    <path
       inkscape:connector-curvature="0"
       style="opacity:1;fill:#ffffff;fill-opacity:1;stroke:none;stroke-width:14.39999962;stroke-linecap:butt;stroke-miterlimit:4;stroke-dasharray:none;stroke-opacity:1"
       d="m 369.33222,-69.880558 c -154.46968,10e-6 -258.06811,438.640218 -213.65824,609.282618 17.23246,66.21452 126.21902,86.19001 213.65824,90.49931 87.43923,-4.3093 196.42806,-24.28479 213.66052,-90.49931 44.40987,-170.6424 -59.19083,-609.282608 -213.66052,-609.282618 z"
       id="path5900" />
    <path
       style="opacity:0.27099998;fill:#000000;fill-opacity:1;stroke:none;stroke-width:14.39999962;stroke-linecap:butt;stroke-miterlimit:4;stroke-dasharray:none;stroke-opacity:1"
       d="M 632.29745,138.2734 519.75153,-11.315688 C 566.96241,581.76327 757.48279,717.26494 632.29745,138.2734 Z"
       id="path6131"
       inkscape:connector-curvature="0"
       sodipodi:nodetypes="ccc" />
    <path
       style="opacity:1;fill:#006ea1;fill-opacity:1;stroke:none;stroke-width:14.39999962;stroke-linecap:butt;stroke-miterlimit:4;stroke-dasharray:none;stroke-opacity:1"
       d="M 621.90417,54.048172 C 652.96867,103.41489 752.97603,510.38049 720.7002,517.90162 688.42427,525.42272 562.85165,184.46594 538.80345,129.43762 502.53129,46.437782 509.41489,3.6995018 524.16887,-30.096918 c 8.01102,-18.35054 29.42038,-22.40312 41.18523,-0.80126 12.54535,23.0349498 26.55691,37.2821698 56.55007,84.94635 z"
       id="path5902"
       inkscape:connector-curvature="0"
       sodipodi:nodetypes="ssssss" />
    <path
       sodipodi:nodetypes="ccc"
       inkscape:connector-curvature="0"
       id="path6129"
       d="M 105.63853,146.85969 224.06918,-5.2547782 C 146.95828,500.31053 -26.988499,665.91944 105.63853,146.85969 Z"
       style="opacity:0.27099998;fill:#000000;fill-opacity:1;stroke:none;stroke-width:14.39999962;stroke-linecap:butt;stroke-miterlimit:4;stroke-dasharray:none;stroke-opacity:1" />
    <path
       sodipodi:nodetypes="ssssss"
       inkscape:connector-curvature="0"
       id="path6031"
       d="M 116.76093,54.048172 C 85.696434,103.41489 -11.536853,511.37833 20.738981,518.89946 53.014911,526.42056 175.81345,184.46594 199.86165,129.43762 236.13381,46.437782 229.2502,3.6995018 214.49622,-30.096918 c -8.01101,-18.35054 -29.42037,-22.40312 -41.18522,-0.80126 -12.54535,23.0349498 -26.55691,37.2821698 -56.55007,84.94635 z"
       style="opacity:1;fill:#006ea1;fill-opacity:1;stroke:none;stroke-width:14.39999962;stroke-linecap:butt;stroke-miterlimit:4;stroke-dasharray:none;stroke-opacity:1" />
    <path
       style="opacity:0.20800003;fill:#000000;fill-opacity:1;stroke:none;stroke-width:14.39999962;stroke-linecap:butt;stroke-miterlimit:4;stroke-dasharray:none;stroke-opacity:1"
       d="m 256.91087,-106.33671 221.68361,-1.01016 c 58.90201,253.30523 5.58335,745.8751 -108.09009,745.43871 -58.06081,-2.3343 -97.40302,-0.45119 -156.97191,-14.23868 -144.399244,-48.63381 -56.49914,-336.3062 43.37839,-730.18987 z"
       id="rect6117"
       inkscape:connector-curvature="0"
       sodipodi:nodetypes="ccccc" />
    <path
       style="opacity:1;fill:#cccc0e;fill-opacity:1;stroke:none;stroke-width:14.39999962;stroke-linecap:butt;stroke-miterlimit:4;stroke-dasharray:none;stroke-opacity:1"
       d="m 514.74807,508.49541 c 0,125.81996 -75.67444,147.64113 -145.41459,147.64113 -69.74014,0 -145.41646,-21.82117 -145.41646,-147.64113 0,-125.81998 75.67632,-256.17215 145.41646,-256.17215 69.74015,-3e-5 145.41459,130.35215 145.41459,256.17215 z"
       id="path6070"
       inkscape:connector-curvature="0"
       sodipodi:nodetypes="sssss" />
    <g
       id="text4235"
       style="font-style:normal;font-variant:normal;font-weight:normal;font-stretch:normal;font-size:55.81031799px;line-height:125%;font-family:Wargames;-inkscape-font-specification:Wargames;text-align:center;letter-spacing:0px;word-spacing:0px;text-anchor:middle;fill:#000000;fill-opacity:1;stroke:none;stroke-width:1px;stroke-linecap:butt;stroke-linejoin:miter;stroke-opacity:1"
       transform="matrix(0.99930112,0.03294885,-0.049512,1.1667145,19.943843,-50.050626)">
      <path
         id="path3419"
         style="font-style:normal;font-variant:normal;font-weight:normal;font-stretch:normal;font-family:'Wednesday Matinee';-inkscape-font-specification:'Wednesday Matinee'"
         d="m 287.73805,373.79291 c 0,0 0,10.71558 0,10.71558 0,2.67889 -0.42079,4.85121 -1.23553,6.46449 -0.0339,0.0191 -0.0509,0.0473 -0.0509,0.0845 0,0 -0.017,0.01 -0.0509,0.0287 -0.98447,1.8207 -2.50891,2.8446 -4.54155,3.01431 -1.99931,0.15169 -4.4485,-0.79797 -7.29112,-2.90254 -2.13197,-1.57843 -3.89138,-3.47124 -5.28724,-5.62935 -1.39587,-2.19533 -2.53619,-4.57133 -3.46777,-7.08304 0,0 3.88439,0.28197 3.88439,0.28197 0.31563,0.6907 0.73169,1.43375 1.24819,2.22914 0.4304,0.68142 0.98638,1.41529 1.67327,2.19534 0.71675,0.76704 1.60928,1.55937 2.69071,2.36002 1.05053,0.77777 2.00828,1.27181 2.83533,1.53552 0.85885,0.24809 1.59959,0.32341 2.18663,0.28057 0.68487,-0.019 1.29437,-0.19211 1.82752,-0.51781 0.0666,-0.0733 0.16661,-0.16457 0.29989,-0.2739 0.13329,-0.14654 0.23326,-0.29365 0.2999,-0.44134 0.0666,-0.11047 0.11663,-0.24914 0.14995,-0.416 0.0333,-0.20406 0.0666,-0.38952 0.1,-0.55638 0.0333,-0.16686 0.0666,-0.35232 0.1,-0.55639 0,0 -0.05,-9.12584 -0.05,-9.12584 0,0 -5.29555,1.35795 -5.29555,1.35795 0,0 -2.87073,-2.03173 -2.87073,-2.03173 -0.1236,-0.0915 -0.23174,-0.22737 -0.32443,-0.40762 0,0 2.38402,-2.79929 2.38402,-2.79929 0,0 6.10669,3.82488 6.10669,3.82488 0,0 4.67934,-1.79926 4.67934,-1.79926 0,0 0,0.16743 0,0.16743 0,0 -3e-5,0 -3e-5,0 m -18.12675,4.89795 c -0.57387,-1.21863 -1.04216,-2.6793 -1.48008,-4.30185 -0.38318,-1.38253 -0.71383,-3.05183 -0.99848,-5.00165 -0.25877,-1.92139 -0.38816,-4.10991 -0.38816,-6.56557 0,-1.56268 0.0388,-2.9525 0.11645,-4.16946 0.10351,-1.22573 0.28465,-2.25455 0.54342,-3.08647 0.38816,-1.47112 1.08779,-2.35494 2.20685,-2.77099 0.91821,-0.29749 1.87269,-0.2324 2.91795,0.13121 1.04526,0.36362 2.10054,0.88759 3.15108,1.59095 1.08143,0.72624 2.13997,1.53675 3.18359,2.41143 1.04362,0.83747 1.97889,1.70581 2.84526,2.53925 0,0 1.34954,-1.84646 1.34954,-1.84646 0,0 1.15235,-1.5758 1.15235,-1.5758 0.0679,0.18492 0.10184,0.27738 0.10184,0.27738 0,0 0,11.21787 0,11.21787 0,0.29766 -0.10458,0.43451 -0.30451,0.39387 -0.16661,0.0157 -0.34989,-0.16414 -0.54982,-0.53964 -0.59979,-1.08931 -1.4801,-2.19716 -2.58895,-3.41021 -1.07623,-1.2299 -2.19989,-2.21358 -3.34503,-2.99085 -2.9901,-2.02957 -4.91478,-1.76749 -5.89038,0.97169 -0.20086,0.63946 -0.35867,1.39171 -0.47345,2.25675 -0.11477,0.86504 -0.17216,1.85566 -0.17216,2.97186 0,5.28338 0.85376,9.13635 2.61577,11.49484 0,0 -3.99308,0.002 -3.99308,0.002 0,0 0,0 0,0"
         inkscape:connector-curvature="0" />
      <path
         id="path3421"
         style="font-style:normal;font-variant:normal;font-weight:normal;font-stretch:normal;font-family:'Wednesday Matinee';-inkscape-font-specification:'Wednesday Matinee'"
         d="m 322.55346,410.42356 c 0.0374,0.12032 0.0187,0.24619 -0.0562,0.37761 0,0 0,0.0558 0,0.0558 -0.11234,0.0855 -0.26212,0.10647 -0.44936,0.0629 0,0 -11.39957,-2.8974 -11.39957,-2.8974 -0.11087,-0.0318 -0.20327,-0.0769 -0.27718,-0.13527 0,0 5.39281,-2.92335 5.39281,-2.92335 0,0 -5.72543,-33.95101 -5.72543,-33.95101 0,0 -4.3521,5.18302 -4.3521,5.18302 0,0 -0.0547,-0.0183 -0.0547,-0.0183 0,0 -1.96825,12.51071 -1.96825,12.51071 0,0 -6.38759,2.34404 -6.38759,2.34404 0,0 16.98261,5.55292 16.98261,5.55292 0,0 -5.10468,4.13575 -5.10468,4.13575 0,0 -7.01725,-2.28865 -7.01725,-2.28865 0,0 -0.92173,6.08416 -0.92173,6.08416 0,0.11162 -0.0542,0.20359 -0.16266,0.27591 0,0 -0.0542,-0.0196 -0.0542,-0.0196 -0.0723,0.0482 -0.16266,0.0527 -0.2711,0.0134 0,0 -10.86527,-4.49997 -10.86527,-4.49997 -0.17494,-0.0797 -0.31073,-0.20802 -0.41423,-0.37054 0,0 6.16817,-0.56031 6.16817,-0.56031 0,0 5.65353,-31.15169 5.65353,-31.15169 0,0 -0.0542,-0.0754 -0.0542,-0.0754 0,0 8.82366,2.88472 8.82366,2.88472 0,0 0,-0.0558 0,-0.0558 0,0 4.22,-3.78388 4.22,-3.78388 0.11151,0.0667 0.20444,0.20284 0.27878,0.40852 0,0 8.01612,42.84187 8.01612,42.84187 0,0 0,0 0,0 0,0 -4e-5,-3e-5 -4e-5,-3e-5"
         inkscape:connector-curvature="0" />
      <path
         id="path3423"
         style="font-style:normal;font-variant:normal;font-weight:normal;font-stretch:normal;font-family:'Wednesday Matinee';-inkscape-font-specification:'Wednesday Matinee'"
         d="m 334.63733,387.04785 c 0,0 0,0.0558 0,0.0558 0,0 0,25.72856 0,25.72856 0,0.11162 -0.019,0.20166 -0.057,0.27011 -0.15193,0.125 -0.30385,0.17558 -0.45577,0.15175 0,0 -7.99753,-1.46268 -7.99753,-1.46268 -0.15099,-0.0292 -0.30197,-0.13281 -0.45296,-0.31083 0,0 4.58618,-2.51766 4.58618,-2.51766 0,0 0,-35.27212 0,-35.27212 0,0 4.37705,13.35706 4.37705,13.35706 0,0 -10e-6,10e-6 -10e-6,10e-6 m 9.24924,8.78448 c 0,0 0,15.1804 0,15.1804 0,0 -7.54009,-36.30991 -7.54009,-36.30991 0,0 3.53318,-2.46629 3.53318,-2.46629 0.22896,0.10244 0.34345,0.24667 0.34345,0.43271 0,0 3.66346,23.16309 3.66346,23.16309 0,0 0,0 0,0 m 18.26781,-21.55449 c 0.23031,0.12477 0.34546,0.28017 0.34546,0.46621 0,0 0,40.96477 0,40.96477 0,0 -0.0192,0.0361 -0.0576,0.10833 0,0.0372 -0.0192,0.0733 -0.0576,0.10833 -0.0768,0.18166 -0.2303,0.26591 -0.4606,0.25276 0,0 -8.11348,-0.52635 -8.11348,-0.52635 -0.19147,-0.0171 -0.36379,-0.1441 -0.51697,-0.38101 0,0 4.88807,-2.93391 4.88807,-2.93391 0,0 0,-35.27212 0,-35.27212 0,0 3.97268,-2.78701 3.97268,-2.78701 0,0 -3e-5,0 -3e-5,0 m -10.69884,2.26399 c 0,0 6.72615,0.52301 6.72615,0.52301 0,0 -4.9455,10.46317 -4.9455,10.46317 0,0 0,-0.0558 0,-0.0558 0,0 -5.34195,27.20498 -5.34195,27.20498 0,0.0744 -0.0383,0.14541 -0.11488,0.21298 0,0 -0.11484,0.10093 -0.11484,0.10093 -0.0763,0.0651 -0.17172,0.0906 -0.2862,0.0766 0,0 -7.44142,-0.91061 -7.44142,-0.91061 -0.11448,-0.014 -0.24807,-0.1046 -0.39999,-0.27726 0,0 4.34966,-2.86709 4.34966,-2.86709 0,0 7.56897,-34.4709 7.56897,-34.4709 0,0 0,-10e-6 0,-10e-6"
         inkscape:connector-curvature="0" />
      <path
         id="path3425"
         style="font-style:normal;font-variant:normal;font-weight:normal;font-stretch:normal;font-family:'Wednesday Matinee';-inkscape-font-specification:'Wednesday Matinee'"
         d="m 390.68271,405.64197 c 0.0767,0.0689 0.11504,0.15913 0.11504,0.27075 0,0 0,9.54356 0,9.54356 0,0 0,0.11162 0,0.11162 -0.0767,0.15437 -0.11504,0.23155 -0.11504,0.23155 -0.11504,0.11993 -0.24925,0.18544 -0.40264,0.19651 0,0 -21.55586,0.41816 -21.55586,0.41816 -0.23061,-0.006 -0.40356,-0.10322 -0.51886,-0.29217 0,0 6.68828,-4.88627 6.68828,-4.88627 0,0 0,-31.30958 0,-31.30958 0,0 12.50863,-0.31192 12.50863,-0.31192 0,0 3.16541,-5.32929 3.16541,-5.32929 0.0767,0.0689 0.11504,0.15912 0.11504,0.27074 0,0 0,9.54356 0,9.54356 0,0.0744 -0.0383,0.18881 -0.11504,0.34317 0,0 -0.0575,0.004 -0.0575,0.004 -0.11505,0.11993 -0.23009,0.18405 -0.34512,0.19236 0,0 -9.62017,0.43246 -9.62017,0.43246 0,0 0,4.74387 0,4.74387 0,0 -5.1899,5.28826 -5.1899,5.28826 0,0 10.77954,-0.25957 10.77954,-0.25957 0,0 3.11023,-5.17144 3.11023,-5.17144 0.11504,0.10331 0.17256,0.22939 0.17256,0.37822 0,0 0,9.54356 0,9.54356 0,0.11162 -0.0192,0.20602 -0.0575,0.2832 0,0 -0.0192,0.02 -0.0575,0.06 -0.11504,0.11993 -0.24925,0.18543 -0.40263,0.19651 0,0 -8.35476,0.34106 -8.35476,0.34106 0,0 0,5.4136 0,5.4136 0,0 -5.59357,5.34672 -5.59357,5.34672 0,0 12.56621,-0.31603 12.56621,-0.31603 0,0 3.1652,-5.2773 3.1652,-5.2773 0,0 0,0 0,0 0,0 -3e-5,10e-6 -3e-5,10e-6"
         inkscape:connector-curvature="0" />
      <path
         id="path3427"
         style="font-style:normal;font-variant:normal;font-weight:normal;font-stretch:normal;font-family:'Wednesday Matinee';-inkscape-font-specification:'Wednesday Matinee'"
         d="m 430.45204,388.19254 c 0,1.82314 0.12933,3.33007 0.38794,4.52062 0.25861,1.15334 0.62806,2.07012 1.10834,2.75033 0,0 -2.94655,6.72754 -2.94655,6.72754 -3.04929,-1.50626 -4.58807,-5.59 -4.58807,-12.13841 0,-0.93017 0.0374,-1.83205 0.11219,-2.70565 0.0748,-0.8736 0.16829,-1.69585 0.28048,-2.46675 0.78536,-4.76375 2.74553,-8.24216 5.81194,-10.68806 1.47779,-1.16977 3.21485,-2.03978 5.19495,-2.66382 2.4568,-0.77426 4.52334,-0.92841 6.21507,-0.40998 0,0 -2.54871,6.27935 -2.54871,6.27935 -0.87249,-1.03917 -2.08961,-1.28755 -3.66636,-0.79064 -0.88005,0.27735 -1.68521,0.79718 -2.4241,1.5309 -0.70195,0.68586 -1.31154,1.60558 -1.82876,2.75914 -0.48028,1.14292 -0.81278,2.59674 -0.99751,4.36146 -0.0369,0.45712 -0.0737,0.93364 -0.11085,1.42709 0,0.4837 0,0.98599 0,1.50688 0,0 0,0 0,0 m 14.10533,-23.90856 c 1.49455,0.31886 2.77029,0.9359 3.82381,1.8431 1.05351,0.9072 1.90857,2.0565 2.56568,3.44895 0.6571,1.39245 1.14128,2.98049 1.45254,4.76411 0.31126,1.78363 0.46671,3.69828 0.46671,5.74465 0,1.67432 -0.10358,3.34354 -0.31108,5.00698 -0.17292,1.64665 -0.4496,3.26928 -0.83003,4.86787 -0.79543,3.28836 -2.04448,6.35854 -3.76523,9.17169 -1.72074,2.81316 -4.04174,5.15459 -6.95727,7.03027 -1.51176,1.01392 -3.2458,1.81232 -5.18924,2.42479 -1.9801,0.62404 -3.7808,0.93864 -5.417,0.88453 -1.63621,-0.0541 -3.10293,-0.32966 -4.41185,-0.87323 0,0 3.01736,-6.40666 3.01736,-6.40666 1.74775,0.91778 4.02467,0.96706 6.81149,0.0888 1.21007,-0.38135 2.35763,-0.91695 3.44824,-1.58995 3.45359,-2.08158 5.7051,-5.52413 6.8438,-10.08264 0.56935,-2.24206 0.85363,-4.83367 0.85363,-7.77301 -0.0351,-3.37018 -0.44441,-6.03071 -1.22727,-7.98011 -0.78286,-1.9494 -2.0116,-3.18012 -3.70333,-3.73575 0,0 2.52904,-6.83438 2.52904,-6.83438 0,0 0,0 0,0"
         inkscape:connector-curvature="0" />
      <path
         id="path3429"
         style="font-style:normal;font-variant:normal;font-weight:normal;font-stretch:normal;font-family:'Wednesday Matinee';-inkscape-font-specification:'Wednesday Matinee'"
         d="m 475.06228,341.49958 c 0.0695,0.0196 0.10419,0.10375 0.10419,0.25258 0,0 0,9.54356 0,9.54356 0,0.11162 -0.0463,0.30322 -0.13892,0.57479 0,0 0,0.0558 0,0.0558 -0.0463,0.0986 -0.11576,0.20923 -0.20837,0.33198 0,0 -7.04237,7.67416 -7.04237,7.67416 0,0 0,4.68806 0,4.68806 0,0 -4.04516,8.55103 -4.04516,8.55103 0,0 8.60077,-7.81979 8.60077,-7.81979 0,0 0,0.0558 0,0.0558 0,0 2.00054,-7.53775 2.00054,-7.53775 0.0695,0.0196 0.10419,0.10376 0.10419,0.25259 0,0 0,9.54356 0,9.54356 0,0.0744 -0.0231,0.21672 -0.0695,0.42692 -0.0695,0.20368 -0.15049,0.36689 -0.2431,0.48964 0,0 -6.34778,6.75357 -6.34778,6.75357 0,0 0,15.45946 0,15.45946 0,0.14883 -0.0147,0.25422 -0.0441,0.31617 -0.0294,0.0247 -0.0441,0.0557 -0.0441,0.0929 -0.0883,0.18587 -0.19122,0.3283 -0.30889,0.42729 0,0 -9.16368,6.59219 -9.16368,6.59219 -0.13314,0.077 -0.26627,0.0795 -0.39941,0.008 0,0 5.54816,-7.4794 5.54816,-7.4794 0,0 0,-32.4816 0,-32.4816 0,0 9.7173,-8.97583 9.7173,-8.97583 0,0 1.98024,-7.79541 1.98024,-7.79541 0,0 0,0 0,0 0,0 -1e-5,7e-5 -1e-5,7e-5"
         inkscape:connector-curvature="0" />
    </g>
    <g
       transform="matrix(1.249458,0,0,1.4335522,-89.47244,-58.805216)"
       style="font-style:normal;font-weight:normal;font-size:60px;line-height:125%;font-family:Sans;letter-spacing:0px;word-spacing:0px;fill:#000000;fill-opacity:1;stroke:none;stroke-width:1px;stroke-linecap:butt;stroke-linejoin:miter;stroke-opacity:1"
       id="text6127">
      <path
         inkscape:connector-curvature="0"
         d="m 285.04901,358.24544 c 0.0324,0.0506 0.0487,0.0925 0.0487,0.12586 0,0 0,8.55 0,8.55 0,0.16666 -0.0487,0.2408 -0.14593,0.22242 0,0.0667 -0.0324,0.0828 -0.0973,0.0483 -0.0324,0.0161 -0.1135,-0.0103 -0.24322,-0.0793 0,0 -5.54014,-3.18097 -5.54014,-3.18097 0,0 0,27.65 0,27.65 0,0.1 -0.0156,0.17361 -0.0467,0.22082 -0.12461,0.0555 -0.21808,0.0639 -0.28039,0.025 -0.0311,-0.0195 -0.0623,-0.0222 -0.0935,-0.008 0,0 -8.66979,-6.4146 -8.66979,-6.4146 -0.13705,-0.1222 -0.24669,-0.3033 -0.32892,-0.54328 0,0 4.76097,0.33178 4.76097,0.33178 0,0 0,-29.4 0,-29.4 0,0 7.63912,4.91521 7.63912,4.91521 0,0 2.99714,-2.46287 2.99714,-2.46287 0,0 0,0 0,0 m -17.99704,-8.74458 c 0,0 7.36078,6.29224 7.36078,6.29224 0,0 -4.80209,1.18155 -4.80209,1.18155 0,0 0,-0.05 0,-0.05 0,0 -4.51116,-4.51872 -4.51116,-4.51872 -0.1236,-0.13579 -0.22248,-0.29442 -0.29664,-0.47589 0,0 2.24911,-2.42918 2.24911,-2.42918 0,0 0,0 0,0"
         style="font-style:normal;font-variant:normal;font-weight:normal;font-stretch:normal;font-size:50px;font-family:'Wednesday Matinee';-inkscape-font-specification:'Wednesday Matinee'"
         id="path6132" />
      <path
         inkscape:connector-curvature="0"
         d="m 293.18683,379.92901 c 0,0 0,-15.5 0,-15.5 0,0 5.3181,-0.56995 5.3181,-0.56995 0.24171,0.22093 0.36256,0.41473 0.36256,0.58139 0,0 0,13.35 0,13.35 0,0 -5.68066,2.13856 -5.68066,2.13856 0,0 0,0 0,0 m 0,0 c 0,0 16.72299,5.88349 16.72299,5.88349 0,0 -5.84237,2.99618 -5.84237,2.99618 0,0 -5.19996,-1.81823 -5.19996,-1.81823 0,0 0,14.15 0,14.15 0,0.0667 -0.0173,0.12708 -0.0518,0.18123 0,0 -0.0518,0.0312 -0.0518,0.0312 -0.13811,0.0833 -0.25897,0.10615 -0.36256,0.0686 0,0 -9.93796,-4.21354 -9.93796,-4.21354 -0.19774,-0.0972 -0.32957,-0.2454 -0.39548,-0.44448 0,0 5.11893,-0.63449 5.11893,-0.63449 0,0 0,-16.2 0,-16.2 0,0 0,0 0,0 m 22.03688,-10.76404 c 0.14203,0.13753 0.21305,0.27296 0.21305,0.40629 0,0 0,36.7 0,36.7 0,0.0667 -0.0178,0.12865 -0.0533,0.18593 0,0 -0.0533,0.0359 -0.0533,0.0359 -0.10652,0.10518 -0.23081,0.13901 -0.37284,0.10148 0,0 -10.36765,-3.01065 -10.36765,-3.01065 -0.13928,-0.0467 -0.26114,-0.13763 -0.3656,-0.27269 0,0 5.68568,-1.34876 5.68568,-1.34876 0,0 0,-16.15 0,-16.15 0,0 0,-15.45 0,-15.45 0,0 5.31389,-1.19753 5.31389,-1.19753 0,0 0,0 0,0"
         style="font-style:normal;font-variant:normal;font-weight:normal;font-stretch:normal;font-size:50px;font-family:'Wednesday Matinee';-inkscape-font-specification:'Wednesday Matinee'"
         id="path6134" />
      <path
         inkscape:connector-curvature="0"
         d="m 337.95454,401.87543 c 0.0726,0.0781 0.10885,0.16708 0.10885,0.26708 0,0 0,8.55 0,8.55 0,0 0,0.1 0,0.1 -0.0726,0.12195 -0.10885,0.18292 -0.10885,0.18292 -0.10885,0.0829 -0.23584,0.11301 -0.38097,0.0902 0,0 -20.22384,-3.89135 -20.22384,-3.89135 -0.21463,-0.0499 -0.3756,-0.17069 -0.48291,-0.36231 0,0 6.22417,-3.00249 6.22417,-3.00249 0,0 0,-28.05 0,-28.05 0,0 11.76139,2.12929 11.76139,2.12929 0,0 2.99331,-4.13046 2.99331,-4.13046 0.0726,0.0781 0.10885,0.16707 0.10885,0.26707 0,0 0,8.55 0,8.55 0,0.0667 -0.0363,0.16098 -0.10885,0.28293 0,0 -0.0544,-0.009 -0.0544,-0.009 -0.10885,0.0829 -0.2177,0.11586 -0.32654,0.0988 0,0 -9.07366,-1.512 -9.07366,-1.512 0,0 0,4.25 0,4.25 0,0 -4.86785,3.75878 -4.86785,3.75878 0,0 10.13184,1.85563 10.13184,1.85563 0,0 2.93888,-4.039 2.93888,-4.039 0.10885,0.11707 0.16328,0.24228 0.16328,0.37561 0,0 0,8.55 0,8.55 0,0.1 -0.0181,0.18049 -0.0544,0.24146 0,0 -0.0181,0.0138 -0.0544,0.0415 -0.10885,0.0829 -0.23584,0.113 -0.38097,0.0902 0,0 -7.87633,-1.32419 -7.87633,-1.32419 0,0 0,4.85 0,4.85 0,0 -5.24642,3.73541 -5.24642,3.73541 0,0 11.81658,2.13389 11.81658,2.13389 0,0 2.99331,-4.08047 2.99331,-4.08047 0,0 0,0 0,0 0,0 0,0 0,0"
         style="font-style:normal;font-variant:normal;font-weight:normal;font-stretch:normal;font-size:50px;font-family:'Wednesday Matinee';-inkscape-font-specification:'Wednesday Matinee'"
         id="path6136" />
      <path
         inkscape:connector-curvature="0"
         d="m 393.59552,375.29567 c 0.18316,0.0868 0.21979,0.26746 0.1099,0.54206 0,0 -9.18136,22.71701 -9.18136,22.71701 0,0 0,14.35 0,14.35 0,0.13333 -0.055,0.25214 -0.16515,0.35642 0,0 -0.055,0.002 -0.055,0.002 -0.0734,0.0695 -0.16515,0.10643 -0.27524,0.11071 0,0 -10.79385,0.22422 -10.79385,0.22422 -0.25708,0.002 -0.42235,-0.11389 -0.4958,-0.34674 0,0 5.83938,-3.53833 5.83938,-3.53833 0,0 -0.0551,-0.0496 -0.0551,-0.0496 0,0 0,-14.3 0,-14.3 0,0 0.0551,-0.10036 0.0551,-0.10036 0,0 8.09257,-16.39195 8.09257,-16.39195 0,0 6.92459,-3.57554 6.92459,-3.57554 0,0 0,0 0,0 m -15.7884,18.67255 c 0,0 -7.60194,-14.77899 -7.60194,-14.77899 0,0 4.90261,-3.00329 4.90261,-3.00329 0.0734,0.0662 0.11017,0.11594 0.11017,0.14928 0,0 3.30531,9.4783 3.30531,9.4783 0,0 0,9.45 0,9.45 0,0 -0.0551,-0.0496 -0.0551,-0.0496 0,0 -0.66106,-1.24567 -0.66106,-1.24567 0,0 0,0 0,0"
         style="font-style:normal;font-variant:normal;font-weight:normal;font-stretch:normal;font-size:50px;font-family:'Wednesday Matinee';-inkscape-font-specification:'Wednesday Matinee'"
         id="path6138" />
      <path
         inkscape:connector-curvature="0"
         d="m 415.20052,400.73201 c 0.0721,0.0527 0.10817,0.12901 0.10817,0.22901 0,0 0,8.55 0,8.55 0,0 0,0.1 0,0.1 -0.0721,0.14733 -0.10817,0.22099 -0.10817,0.22099 -0.10816,0.12099 -0.23403,0.19723 -0.37878,0.22233 0,0 -20.42006,2.6831 -20.42006,2.6831 -0.21978,0.0159 -0.38462,-0.0555 -0.49451,-0.21428 0,0 6.35879,-5.07722 6.35879,-5.07722 0,0 0,-28.05 0,-28.05 0,0 11.84172,-1.62102 11.84172,-1.62102 0,0 2.98468,-5.12192 2.98468,-5.12192 0.0721,0.0527 0.10816,0.12901 0.10816,0.22901 0,0 0,8.55 0,8.55 0,0.0667 -0.036,0.17366 -0.10816,0.32099 0,0 -0.0541,0.0105 -0.0541,0.0105 -0.10817,0.12099 -0.21654,0.19084 -0.3251,0.20967 0,0 -9.08956,1.41525 -9.08956,1.41525 0,0 0,4.25 0,4.25 0,0 -4.91945,5.31062 -4.91945,5.31062 0,0 10.20855,-1.37199 10.20855,-1.37199 0,0 2.93196,-5.0033 2.93196,-5.0033 0.10856,0.0812 0.16284,0.18843 0.16284,0.32177 0,0 0,8.55 0,8.55 0,0.1 -0.0181,0.18647 -0.0543,0.25941 0,0 -0.0181,0.0198 -0.0543,0.0594 -0.10856,0.11882 -0.23522,0.19078 -0.37997,0.21588 0,0 -7.89537,1.2082 -7.89537,1.2082 0,0 0,4.85 0,4.85 0,0 -5.30288,5.40166 -5.30288,5.40166 0,0 11.8955,-1.63398 11.8955,-1.63398 0,0 2.98428,-5.07409 2.98428,-5.07409 0,0 0,0 0,0 0,0 0,0 0,0"
         style="font-style:normal;font-variant:normal;font-weight:normal;font-stretch:normal;font-size:50px;font-family:'Wednesday Matinee';-inkscape-font-specification:'Wednesday Matinee'"
         id="path6140" />
      <path
         inkscape:connector-curvature="0"
         d="m 447.26375,399.90668 c 0.0335,0.0851 0.0168,0.2092 -0.0503,0.37243 0,0 0,0.05 0,0.05 -0.10064,0.14484 -0.23483,0.25464 -0.40256,0.32938 0,0 -10.49593,4.00489 -10.49593,4.00489 -0.10418,0.0359 -0.19248,0.0446 -0.26254,0.0333 0,0 5.04002,-5.72426 5.04002,-5.72426 0,0 -5.35528,-27.12639 -5.35528,-27.12639 0,0 -4.16087,7.12511 -4.16087,7.12511 0,0 -0.0529,0.0152 -0.0529,0.0152 0,0 -1.90579,12.34891 -1.90579,12.34891 0,0 -6.30113,5.79651 -6.30113,5.79651 0,0 16.38343,-4.78669 16.38343,-4.78669 0,0 -4.8034,6.61585 -4.8034,6.61585 0,0 -6.76976,1.97014 -6.76976,1.97014 0,0 -0.90584,5.98782 -0.90584,5.98782 0,0.1 -0.0533,0.21399 -0.15985,0.34197 0,0 -0.0533,0.014 -0.0533,0.014 -0.0711,0.0853 -0.15985,0.14197 -0.26642,0.16995 0,0 -10.97122,2.42661 -10.97122,2.42661 -0.18027,0.035 -0.32449,0.013 -0.43265,-0.066 0,0 6.31463,-4.24126 6.31463,-4.24126 0,0 5.62209,-31.20922 5.62209,-31.20922 0,0 -0.0533,-0.036 -0.0533,-0.036 0,0 8.51629,-2.4729 8.51629,-2.4729 0,0 0,-0.05 0,-0.05 0,0 3.96271,-5.80091 3.96271,-5.80091 0.10315,-0.005 0.18911,0.0623 0.25788,0.2032 0,0 7.30601,33.70834 7.30601,33.70834 0,0 0,0 0,0 0,0 0,0 0,0"
         style="font-style:normal;font-variant:normal;font-weight:normal;font-stretch:normal;font-size:50px;font-family:'Wednesday Matinee';-inkscape-font-specification:'Wednesday Matinee'"
         id="path6142" />
      <path
         inkscape:connector-curvature="0"
         d="m 455.68949,378.21285 c 0,0 -0.57232,0.78084 -0.57232,0.78084 0,0 0,-14.4 0,-14.4 0,0 7.0201,-4.45408 7.0201,-4.45408 3.10892,-2.15482 4.93961,-3.02796 5.90631,-2.06314 0,0 -4.1031,5.40354 -4.1031,5.40354 -0.61338,-0.33251 -1.59193,0.0132 -2.98038,0.97551 0,0 -0.95079,0.659 -0.95079,0.659 0,0 0,7 0,7 0,0 0,0.05 0,0.05 0,0 0,0.1 0,0.1 0,0 -4.31982,5.94833 -4.31982,5.94833 0,0 0,0 0,0 m 18.42259,1.42132 c 0.0442,0.14137 0.0553,0.26005 0.0332,0.35603 0,0.0333 -0.0111,0.0646 -0.0332,0.094 0,0 0,0.0167 0,0.05 -0.0885,0.25059 -0.17694,0.43451 -0.26541,0.55177 0,0 -7.5602,8.12802 -7.5602,8.12802 -0.0562,0.0473 -0.0984,0.0661 -0.12646,0.0564 -0.0281,-0.01 -0.0703,-0.008 -0.12646,0.006 0,0 -0.0422,-0.0145 -0.0422,-0.0145 0,0 3.43277,-6.73051 3.43277,-6.73051 0,0 0.19084,-0.0486 0.19084,-0.0486 0,0 -0.19084,0.0486 -0.19084,0.0486 0,0 -2.22644,-5.21609 -2.22644,-5.21609 0,0 -0.28195,-0.58697 -0.28195,-0.58697 0,0 -1.97823,-4.37989 -1.97823,-4.37989 0,0 -3.29831,7.53607 -3.29831,7.53607 0,0 -0.0453,-0.0186 -0.0453,-0.0186 0,0 -1.58465,1.09833 -1.58465,1.09833 0,0 0,12.5 0,12.5 0,0.1 -0.0302,0.20425 -0.0906,0.31276 0,0.0333 -0.0151,0.0604 -0.0462,0.08 0,0 0,0.0167 0,0.05 -0.0931,0.15888 -0.20177,0.27757 -0.32594,0.35608 0,0 -9.36624,5.24385 -9.36624,5.24385 -0.23126,0.11229 -0.37993,0.0678 -0.44601,-0.13344 0,0 5.38277,-6.18011 5.38277,-6.18011 0,0 0,-13.8 0,-13.8 0,0 0.0477,-0.0276 0.0477,-0.0276 0,0 -0.0477,0.0276 -0.0477,0.0276 0,0 6.79372,-4.29717 6.79372,-4.29717 0.60367,-0.41842 1.13872,-0.87088 1.63527,-1.31598 0.49655,-0.47844 0.96984,-0.96053 1.39138,-1.48181 1.23652,-1.47354 2.19305,-3.03718 2.86437,-4.6968 0.77873,-1.95982 1.16424,-3.82697 1.16424,-5.59364 0,-1.76666 -0.30496,-2.94133 -0.92257,-3.53182 0,0 4.18688,-7.44899 4.18688,-7.44899 0.40578,0.52558 0.66516,1.2523 0.81998,2.21376 0.17694,0.89883 0.26541,1.93157 0.26541,3.09824 0,0 0,0.05 0,0.05 0,1.1 -0.0663,2.23794 -0.19906,3.41382 -0.19906,1.76383 -0.58796,3.60868 -1.20857,5.50092 -0.28644,0.83488 -0.60868,1.67828 -0.96673,2.53022 -0.35805,0.8186 -0.80485,1.60583 -1.28832,2.40893 0,0 -0.0382,0.0397 -0.0382,0.0397 0,0 0.64886,1.32479 0.64886,1.32479 0,0 0.34352,0.74254 0.34352,0.74254 0,0 3.5047,7.68375 3.5047,7.68375 0,0 0,0 0,0"
         style="font-style:normal;font-variant:normal;font-weight:normal;font-stretch:normal;font-size:50px;font-family:'Wednesday Matinee';-inkscape-font-specification:'Wednesday Matinee'"
         id="path6144" />
    </g>
    <path
       sodipodi:nodetypes="ccc"
       inkscape:connector-curvature="0"
       id="path6147"
       d="m 269.95661,-141.37559 198.88361,4.28225 c -11.06874,512.54798 -298.25224,517.00453 -198.88361,-4.28225 z"
       style="opacity:0.07399998;fill:#000000;fill-opacity:1;stroke:none;stroke-width:14.39999962;stroke-linecap:butt;stroke-miterlimit:4;stroke-dasharray:none;stroke-opacity:1" />
    <path
       inkscape:connector-curvature="0"
       style="opacity:1;fill:#000000;fill-opacity:1;stroke:none;stroke-width:14.39999962;stroke-linecap:butt;stroke-miterlimit:4;stroke-dasharray:none;stroke-opacity:1"
       d="m 331.6116,117.40704 c 21.72097,81.26929 -4.68803,119.58593 37.72062,169.97058 42.40865,-50.38465 16.00193,-88.70129 37.7229,-169.97058 l -37.7229,0 -37.72062,0 z"
       id="rect5894" />
    <path
       inkscape:connector-curvature="0"
       style="opacity:1;fill:#006ea1;fill-opacity:1;stroke:none;stroke-width:14.39999962;stroke-linecap:butt;stroke-miterlimit:4;stroke-dasharray:none;stroke-opacity:1"
       d="m 369.33222,-201.28986 c -42.80955,2.12426 -96.16892,11.97062 -104.60577,44.61062 -21.74276,84.117062 28.97865,300.34229 104.60577,300.34232 75.62712,-3e-5 126.34852,-216.225258 104.60577,-300.34232 -8.43686,-32.64 -61.79621,-42.48636 -104.60577,-44.61062 z"
       id="path5892" />
    <path
       id="path6141"
       d="m 375.74503,-177.24067 c -24.29076,2.54678 -100.76606,46.36937 -72.81733,83.238072 17.66738,23.30601 122.47725,74.54501 127.71623,149.77084 2.99266,42.97093 26.02581,-119.59573 11.04948,-174.857732 -5.8113,-21.44333 -41.52599,-57.87764 -65.94838,-58.15118 z"
       style="opacity:0.04100001;fill:#ffffff;fill-opacity:1;stroke:none;stroke-width:14.39999962;stroke-linecap:butt;stroke-miterlimit:4;stroke-dasharray:none;stroke-opacity:1"
       inkscape:connector-curvature="0"
       sodipodi:nodetypes="csssc" />
    <path
       style="opacity:0.03299997;fill:#ffffff;fill-opacity:1;stroke:none;stroke-width:14.39999962;stroke-linecap:butt;stroke-miterlimit:4;stroke-dasharray:none;stroke-opacity:1"
       d="m 422.16946,-102.54162 c 9.67584,21.168292 11.75856,28.030932 10.38322,92.7880618 -29.85842,-57.2342298 -39.52592,-94.5132018 -73.48747,-68.5386498 -18.48753,14.13967 -12.77105,-39.139512 0.74948,-45.319612 13.52051,-6.18011 52.67893,-0.0981 62.35477,21.0702 z"
       id="path6145"
       inkscape:connector-curvature="0"
       sodipodi:nodetypes="scscs" />
    <path
       sodipodi:nodetypes="sssss"
       inkscape:connector-curvature="0"
       id="path6410"
       d="m 135.92581,81.311452 c 1.12226,15.77165 -3.8422,75.412828 15.68611,85.961958 11.59382,6.26294 61.29566,-108.963428 53.13476,-136.296268 -3.60262,-12.06602 -8.3835,-22.8571402 -18.72507,-22.8571402 -10.34156,0 -55.16986,1.8827202 -50.0958,73.1914502 z"
       style="opacity:0.05199998;fill:#ffffff;fill-opacity:1;stroke:none;stroke-width:14.39999962;stroke-linecap:butt;stroke-miterlimit:4;stroke-dasharray:none;stroke-opacity:1" />
    <path
       style="opacity:0.17600002;fill:#ffffff;fill-opacity:1;stroke:none;stroke-width:14.39999962;stroke-linecap:butt;stroke-miterlimit:4;stroke-dasharray:none;stroke-opacity:1"
       d="M 451.7912,602.7193 C 489.28461,486.68269 257.43197,295.80552 343.60194,298.07645 c 70.57162,0 91.12933,-2.27093 118.07193,50.53571 10.14122,19.87645 71.58279,252.38099 -9.88267,254.10714 z"
       id="path6168"
       inkscape:connector-curvature="0"
       sodipodi:nodetypes="ccsc" />
    <path
       sodipodi:nodetypes="ccsc"
       inkscape:connector-curvature="0"
       id="path4178"
       d="m 436.94881,439.47171 c 8.19055,-47.36732 -92.89194,-108.98936 -59.13618,-112.88702 27.54209,-3.91796 35.43911,-5.94555 48.88572,13.16759 5.06132,7.1942 41.94827,94.52301 10.25046,99.71943 z"
       style="opacity:0.17600002;fill:#ffffff;fill-opacity:1;stroke:none;stroke-width:14.39999962;stroke-linecap:butt;stroke-miterlimit:4;stroke-dasharray:none;stroke-opacity:1" />
    <path
       style="opacity:0.03800001;fill:#ffffff;fill-opacity:1;stroke:none;stroke-width:14.39999962;stroke-linecap:butt;stroke-miterlimit:4;stroke-dasharray:none;stroke-opacity:1"
       d="m 148.5013,75.518762 c 0.63449,8.91675 2.30022,49.542768 13.34085,55.506878 6.55474,3.54085 32.68196,-64.225398 28.06807,-79.678428 -2.03679,-6.82171 -7.23974,-17.20834 -13.0865,-17.20834 -5.84676,0 -31.19112,1.06442 -28.32242,41.37989 z"
       id="path6002"
       inkscape:connector-curvature="0"
       sodipodi:nodetypes="sssss" />
    <path
       sodipodi:nodetypes="sssss"
       inkscape:connector-curvature="0"
       id="path6004"
       d="m 94.001322,533.4045 c 5.746392,6.84763 35.294348,33.1085 46.232568,39.25841 5.9447,3.34235 -23.84965,-44.74238 -21.17379,-100.98755 0.33832,-7.11125 -13.81764,-14.68522 -18.55181,-11.25415 -4.734166,3.43107 -32.488206,42.02297 -6.506968,72.98329 z"
       style="opacity:0.03500001;fill:#ffffff;fill-opacity:1;stroke:none;stroke-width:14.39999962;stroke-linecap:butt;stroke-miterlimit:4;stroke-dasharray:none;stroke-opacity:1" />
    <path
       style="opacity:0.03500001;fill:#ffffff;fill-opacity:1;stroke:none;stroke-width:14.39999962;stroke-linecap:butt;stroke-miterlimit:4;stroke-dasharray:none;stroke-opacity:1"
       d="m 627.94048,561.3855 c -6.50827,6.12809 -38.92645,28.75058 -50.50922,33.57815 -6.295,2.62369 28.92188,-41.64386 32.84666,-97.8157 0.49622,-7.10198 15.44128,-12.96726 19.74139,-9.00574 4.3001,3.96152 27.34711,45.53624 -2.07883,73.24329 z"
       id="path6006"
       inkscape:connector-curvature="0"
       sodipodi:nodetypes="sssss" />
    <path
       style="opacity:0.05199998;fill:#ffffff;fill-opacity:1;stroke:none;stroke-width:14.39999962;stroke-linecap:butt;stroke-miterlimit:4;stroke-dasharray:none;stroke-opacity:1"
       d="M 613.32382,92.423122 C 614.59127,108.18377 656.73528,250.8715 637.20697,261.42063 625.61315,267.68357 522.19991,56.289672 530.36081,28.956832 c 3.60262,-12.06602 8.62461,-25.0772402 18.72507,-22.8571402 8.1126,1.78317 59.15672,23.1389202 64.23794,86.3234302 z"
       id="path5998"
       inkscape:connector-curvature="0"
       sodipodi:nodetypes="sssss" />
    <path
       style="opacity:0.03299997;fill:#ffffff;fill-opacity:1;stroke:none;stroke-width:14.39999962;stroke-linecap:butt;stroke-miterlimit:4;stroke-dasharray:none;stroke-opacity:1"
       d="m 596.53493,79.406982 c 0.56216,10.45107 14.49752,63.456158 2.54058,71.993418 -7.09873,5.0685 -54.99606,-80.758838 -51.88772,-99.382998 1.37217,-8.22159 3.62323,-15.7029 10.41545,-16.55482 6.79221,-0.85192 36.38996,-3.30827 38.93169,43.9444 z"
       id="path6000"
       inkscape:connector-curvature="0"
       sodipodi:nodetypes="sssss" />
    <path
       sodipodi:nodetypes="sssss"
       inkscape:connector-curvature="0"
       id="path4377"
       d="M 613.32382,92.423122 C 614.59127,108.18377 656.73528,250.8715 637.20697,261.42063 625.61315,267.68357 522.19991,56.289672 530.36081,28.956832 c 3.60262,-12.06602 8.62461,-25.0772402 18.72507,-22.8571402 8.1126,1.78317 59.15672,23.1389202 64.23794,86.3234302 z"
       style="opacity:0.05199998;fill:#ffffff;fill-opacity:1;stroke:none;stroke-width:14.39999962;stroke-linecap:butt;stroke-miterlimit:4;stroke-dasharray:none;stroke-opacity:1" />
    <path
       sodipodi:nodetypes="sssss"
       inkscape:connector-curvature="0"
       id="path4379"
       d="m 596.53493,79.406982 c 0.56216,10.45107 14.49752,63.456158 2.54058,71.993418 -7.09873,5.0685 -54.99606,-80.758838 -51.88772,-99.382998 1.37217,-8.22159 3.62323,-15.7029 10.41545,-16.55482 6.79221,-0.85192 36.38996,-3.30827 38.93169,43.9444 z"
       style="opacity:0.03299997;fill:#ffffff;fill-opacity:1;stroke:none;stroke-width:14.39999962;stroke-linecap:butt;stroke-miterlimit:4;stroke-dasharray:none;stroke-opacity:1" />
    <path
       style="opacity:0.05199998;fill:#ffffff;fill-opacity:1;stroke:none;stroke-width:14.39999962;stroke-linecap:butt;stroke-miterlimit:4;stroke-dasharray:none;stroke-opacity:1"
       d="m 642.37994,823.06694 c -10.82025,11.8566 -59.40231,139.9402 -99.45189,134.0972 -23.77715,-3.4688 -17.77572,-220.9351 17.66764,-234.4927 15.64644,-5.9849 34.34941,-11.6698 48.7999,-3.2902 11.60656,6.7301 76.36296,56.1518 32.98435,103.6857 z"
       id="path4381"
       inkscape:connector-curvature="0"
       sodipodi:nodetypes="sssss" />
    <path
       style="opacity:0.03299997;fill:#ffffff;fill-opacity:1;stroke:none;stroke-width:14.39999962;stroke-linecap:butt;stroke-miterlimit:4;stroke-dasharray:none;stroke-opacity:1"
       d="m 636.12105,810.24774 c -8.02345,8.5718 -29.93299,60.4172 -57.52729,58.0413 -16.38249,-1.4105 -23.8343,-104.494 -2.57142,-116.6647 9.38646,-5.3727 19.62644,-9.5044 31.86815,-5.0385 12.24157,4.4661 64.50685,24.9065 28.23056,63.6619 z"
       id="path4383"
       inkscape:connector-curvature="0"
       sodipodi:nodetypes="sssss" />
    <g
       transform="matrix(1,0,0,1.0744866,3.5355339,-39.967361)"
       style="font-style:normal;font-weight:normal;font-size:60px;line-height:125%;font-family:Sans;letter-spacing:0px;word-spacing:0px;fill:#000000;fill-opacity:1;stroke:none;stroke-width:1px;stroke-linecap:butt;stroke-linejoin:miter;stroke-opacity:1"
       id="text6813">
      <path
         inkscape:connector-curvature="0"
         d="m 270.21923,561.03908 c 0,0 0,0.06 0,0.06 0,0 0,27.66 0,27.66 0,0.12 -0.0239,0.2008 -0.0718,0.2424 -0.19157,0.006 -0.38313,-0.0672 -0.57469,-0.2208 0,0 -6.36402,-10.88004 -6.36402,-10.88004 -0.009,-0.24531 -0.0188,-0.57062 -0.0282,-0.97593 0,0 2.17788,3.35942 2.17788,3.35942 0,0 0,-37.92 0,-37.92 0,0 4.86082,18.67495 4.86082,18.67495 0,0 0,0 0,0 m 13.11321,15.0401 c 0,0 0,16.32 0,16.32 0,0 -10.86812,-43.31213 -10.86812,-43.31213 0,0 4.96123,-0.42217 4.96123,-0.42217 0.32553,0.25223 0.50071,0.45338 0.50071,0.65338 0,0 5.40618,26.76092 5.40618,26.76092 0,0 0,0 0,0 m 28.32669,-17.6136 c 0.36322,0.18113 0.54483,0.37169 0.54483,0.57169 0,0 0,44.04 0,44.04 0,0 -0.0303,0.0349 -0.0908,0.10472 0,0.04 -0.0303,0.0749 -0.0908,0.10472 -0.12107,0.17962 -0.36322,0.23887 -0.72644,0.17775 0,0 -12.72472,-2.56527 -12.72472,-2.56527 -0.29882,-0.0701 -0.56775,-0.25326 -0.8068,-0.54937 0,0 7.64299,-1.85605 7.64299,-1.85605 0,0 0,-37.92 0,-37.92 0,0 6.25175,-2.10819 6.25175,-2.10819 0,0 0,0 0,0 m -16.74901,-0.30694 c 0,0 10.49726,2.41513 10.49726,2.41513 0,0 -7.73264,9.93501 -7.73264,9.93501 0,0 0,-0.06 0,-0.06 0,0 -8.25223,27.47824 -8.25223,27.47824 0,0.08 -0.0584,0.14097 -0.17509,0.18292 0,0 -0.17509,0.0629 -0.17509,0.0629 -0.11673,0.042 -0.26264,0.0344 -0.43773,-0.0227 0,0 -11.12587,-4.38584 -11.12587,-4.38584 -0.16701,-0.0776 -0.35446,-0.26296 -0.57148,-0.53778 0,0 6.39519,-0.82736 6.39519,-0.82736 0,0 11.57768,-34.24054 11.57768,-34.24054 0,0 0,0 0,0"
         style="font-style:normal;font-variant:normal;font-weight:normal;font-stretch:normal;font-family:'Wednesday Matinee';-inkscape-font-specification:'Wednesday Matinee'"
         id="path6818" />
      <path
         inkscape:connector-curvature="0"
         d="m 336.33449,578.23469 c 0,0 0,0.06 0,0.06 0,0 0,27.66 0,27.66 0,0.12 -0.0306,0.21757 -0.0918,0.29271 -0.24478,0.14055 -0.48956,0.2011 -0.73433,0.18165 0,0 -12.9162,-1.30719 -12.9162,-1.30719 -0.24314,-0.0343 -0.48629,-0.14852 -0.72943,-0.34278 0,0 7.41159,-2.8285 7.41159,-2.8285 0,0 0,-37.92 0,-37.92 0,0 7.06016,14.20411 7.06016,14.20411 0,0 0,0 0,0 m 14.88654,8.97496 c 0,0 0,16.32 0,16.32 0,0 -12.1328,-38.63617 -12.1328,-38.63617 0,0 5.69613,-2.86422 5.69613,-2.86422 0.36781,0.0994 0.55171,0.24918 0.55171,0.44918 0,0 5.88496,24.73121 5.88496,24.73121 0,0 0,0 0,0 m 29.2753,-24.63977 c 0.36826,0.11279 0.55238,0.26918 0.55238,0.46918 0,0 0,44.04 0,44.04 0,0 -0.0307,0.0406 -0.0921,0.1218 0,0.04 -0.0307,0.0806 -0.0921,0.12181 -0.12275,0.2024 -0.36826,0.30721 -0.73651,0.31442 0,0 -12.98194,0.13245 -12.98194,0.13245 -0.30693,-10e-4 -0.58317,-0.12232 -0.82872,-0.3633 0,0 7.82652,-3.55195 7.82652,-3.55195 0,0 0,-37.92 0,-37.92 0,0 6.35239,-3.36441 6.35239,-3.36441 0,0 0,0 0,0 m -17.12549,3.36463 c 0,0 10.7731,-2.2e-4 10.7731,-2.2e-4 0,0 -7.9186,11.65159 -7.9186,11.65159 0,0 0,-0.06 0,-0.06 0,0 -8.56181,29.62056 -8.56181,29.62056 0,0.08 -0.0614,0.15829 -0.18409,0.23486 0,0 -0.18409,0.11485 -0.18409,0.11485 -0.12273,0.0766 -0.27614,0.11229 -0.46023,0.10714 0,0 -11.95881,-0.50917 -11.95881,-0.50917 -0.1839,-0.01 -0.39846,-0.10107 -0.64367,-0.27404 0,0 6.98839,-3.29043 6.98839,-3.29043 0,0 12.14981,-37.59514 12.14981,-37.59514 0,0 0,0 0,0"
         style="font-style:normal;font-variant:normal;font-weight:normal;font-stretch:normal;font-family:'Wednesday Matinee';-inkscape-font-specification:'Wednesday Matinee'"
         id="path6820" />
      <path
         inkscape:connector-curvature="0"
         d="m 416.57939,581.91002 c 0,0 0,12.12 0,12.12 0,0 -5.85586,11.33761 -5.85586,11.33761 0,0 -0.27504,0.20573 -0.27504,0.20573 -0.18336,0.13715 -0.36672,0.2143 -0.55008,0.23145 0,0 -18.54511,1.40427 -18.54511,1.40427 -0.42931,0.0186 -0.70529,-0.0694 -0.82795,-0.26414 0,0 13.5055,-6.35131 13.5055,-6.35131 0,0 12.54854,-18.68361 12.54854,-18.68361 0,0 0,0 0,0 m 25.79647,18.15927 c 0.17995,0.12084 0.20994,0.27431 0.09,0.46042 0,0 -0.09,0.0796 -0.09,0.0796 -0.06,0.17305 -0.29992,0.30526 -0.71982,0.39662 0,0 -18.59043,3.24829 -18.59043,3.24829 -0.24275,0.037 -0.45515,0.009 -0.63721,-0.083 0,0 5.82592,-6.46723 5.82592,-6.46723 0,0 -11.67493,-15.79399 -11.67493,-15.79399 0,0 0,-0.06 0,-0.06 0,0 13.4045,-20.5294 13.4045,-20.5294 0,0 11.85211,-5.23387 11.85211,-5.23387 0.17995,0.12085 0.17995,0.32085 0,0.6 0,0 -13.9458,23.01271 -13.9458,23.01271 0,0 -0.091,0.0739 -0.091,0.0739 0,0 14.57669,20.29596 14.57669,20.29596 0,0 0,0 0,0 m -26.43637,-19.0416 c 0,0 -12.18371,-16.70834 -12.18371,-16.70834 0,0 8.43461,-3.60893 8.43461,-3.60893 0.12225,0.0686 0.18337,0.12284 0.18337,0.16284 0,0 4.57123,9.83236 4.57123,9.83236 0,0 -0.36563,9.16439 -0.36563,9.16439 0,0 -0.0914,1.9911 -0.0914,1.9911 0,0 -0.54846,-0.83342 -0.54846,-0.83342 0,0 0,0 0,0"
         style="font-style:normal;font-variant:normal;font-weight:normal;font-stretch:normal;font-family:'Wednesday Matinee';-inkscape-font-specification:'Wednesday Matinee'"
         id="path6822" />
      <path
         inkscape:connector-curvature="0"
         d="m 463.99871,589.77353 c 0,0 -14.89027,-32.52926 -14.89027,-32.52926 0,0 7.52188,-5.0389 7.52188,-5.0389 0.1168,0.002 0.1752,0.0233 0.1752,0.0633 0,0.04 0.0292,0.0706 0.0876,0.0916 0,0 7.10559,19.53327 7.10559,19.53327 0,0 0,17.88 0,17.88 0,0 0,0 0,0 m 19.83891,-57.94567 c 0.007,-0.0209 0.0109,0.0686 0.0109,0.2686 0,0 -8.58306,55.52003 -8.58306,55.52003 0,0 -0.1519,0.70412 -0.1519,0.70412 -0.10127,0.22941 -0.20254,0.39882 -0.3038,0.50823 -0.20253,0.21883 -0.33205,0.34116 -0.38382,0.37415 0,0 -21.4977,8.99997 -21.4977,8.99997 -0.23567,0.069 -0.44187,0.0693 -0.61862,10e-4 0,0 11.68905,-8.43047 11.68905,-8.43047 0,0 0.0855,0.0258 0.0855,0.0258 0,0 -0.0855,-0.0258 -0.0855,-0.0258 0,0 14.85421,-46.13429 14.85421,-46.13429 0,0 4.9847,-11.81138 4.9847,-11.81138 0,0 0,0 0,0"
         style="font-style:normal;font-variant:normal;font-weight:normal;font-stretch:normal;font-family:'Wednesday Matinee';-inkscape-font-specification:'Wednesday Matinee'"
         id="path6824" />
    </g>
    <g
       id="text8860"
       style="font-style:normal;font-weight:normal;font-size:60px;line-height:125%;font-family:Sans;letter-spacing:0px;word-spacing:0px;fill:#006ea1;fill-opacity:1;stroke:none;stroke-width:1px;stroke-linecap:butt;stroke-linejoin:miter;stroke-opacity:1"
       transform="translate(-7.6846775,179.60512)">
      <path
         id="path8867"
         style="font-style:normal;font-variant:normal;font-weight:bold;font-stretch:normal;font-size:70px;font-family:'Anonymous Pro';-inkscape-font-specification:'Anonymous Pro Bold';fill:#006ea1;fill-opacity:1"
         d="m 49.341032,-288.76343 c 2.886085,0.924 5.516191,2.19918 7.890319,3.82554 2.383444,1.59725 4.373341,3.30301 5.92092,5.66295 1.555704,2.33048 2.688609,4.53835 3.268802,7.68417 0.564901,3.1109 0.654737,5.37068 0.04572,9.51233 -0.60902,4.14165 -1.600664,6.2694 -3.062707,9.08311 -1.484779,2.81222 -3.355364,4.60912 -5.520794,6.4189 -2.164664,1.77924 -4.646859,3.04611 -7.446587,3.80061 -2.798955,0.72396 -5.690372,1.04822 -8.674251,0.97279 -2.983879,-0.0754 -5.855219,-0.54537 -8.614019,-1.40983 -2.758028,-0.895 -5.184428,-2.28596 -7.279199,-4.17287 -2.093999,-1.91746 -3.568623,-5.37949 -4.653087,-8.35917 -1.107208,-2.98115 -1.006869,-8.90439 -0.39785,-13.04604 0.173371,-1.17901 0.708909,-3.54553 1.187953,-4.72994 0.479047,-1.18441 1.081064,-2.28338 1.806054,-3.2969 0.702601,-1.01775 1.804045,-2.93533 2.729808,-3.59889 0.932667,-0.69333 1.917632,-1.10791 2.954895,-1.24374 0,0 -5.1272,-1.18918 -5.1272,-1.18918 0,0 2.90581,-10.52383 2.90581,-10.52383 0,0 15.070559,4.82495 15.070559,4.82495 0,0 -2.561475,9.27415 -2.561475,9.27415 -1.353936,-0.31403 -2.695773,-0.32726 -4.025511,-0.0397 -1.351938,0.28241 -2.603732,0.83899 -3.755383,1.66973 -1.151658,0.83074 -2.291648,2.79732 -3.084766,4.17112 -0.815514,1.36958 -1.553565,3.85366 -1.811398,5.60705 -0.391194,2.66033 -0.313472,5.82191 0.503553,7.62901 0.817025,1.80708 1.863133,4.08117 3.387137,5.22161 1.523996,1.14044 3.261133,1.98856 5.211409,2.54436 1.952256,0.52531 3.928798,0.85317 5.929625,0.98357 2.000828,0.1304 4.003208,0.0619 6.00714,-0.2056 2.005912,-0.29796 3.837443,-0.89818 5.494592,-1.80067 1.634413,-0.90397 3.056963,-1.86977 4.214444,-3.49878 1.157488,-1.62901 1.896893,-3.35531 2.288088,-6.01563 0.564565,-3.83934 0.16567,-6.28306 -1.093687,-9.02179 -1.259353,-2.73872 -3.703334,-4.86378 -7.202089,-6.74723 0,0 -2.670423,12.40013 -2.670423,12.40013 0,0 -6.246281,-1.18115 -6.246281,-1.18115 0,0 5.335737,-21.54905 5.335737,-21.54905 0,0 1.074144,0.3439 1.074144,0.3439 0,0 0,0 0,0"
         inkscape:connector-curvature="0" />
      <path
         id="path8869"
         style="font-style:normal;font-variant:normal;font-weight:bold;font-stretch:normal;font-size:70px;font-family:'Anonymous Pro';-inkscape-font-specification:'Anonymous Pro Bold';fill:#006ea1;fill-opacity:1"
         d="m 63.667178,-290.28505 c -1.754745,-0.64158 -3.142897,-1.72543 -3.915707,-3.49804 -0.793881,-1.78128 -1.209399,-3.85281 -1.246555,-6.21459 -0.02551,-2.39003 0.510005,-5.15887 1.377186,-7.8715 0.860704,-2.75019 2.085356,-5.55857 3.514396,-8.12036 0.788948,-1.41431 1.623232,-2.73191 2.265963,-3.70002 0.642731,-0.96811 1.375952,-2.08521 2.109089,-3.02913 0,0 -1.054949,-0.69731 -1.054949,-0.69731 -1.387585,-0.91718 -3.058249,-0.60586 -4.664569,0.45534 -1.590436,1.0351 -3.305666,3.10004 -4.675162,5.55508 -1.250409,2.24156 -2.38283,5.04763 -3.099549,7.66534 -0.737036,2.6074 -1.343891,5.86033 -1.303958,8.45459 0,0 -6.586007,1.45022 -6.586007,1.45022 -0.04547,-3.05923 0.493866,-6.73591 1.212498,-9.93664 0.710687,-3.238 2.543396,-7.57493 4.285037,-10.6971 1.131325,-2.02808 2.773906,-4.43444 4.264663,-6.13836 1.506647,-1.73001 3.470199,-3.55059 5.188772,-4.53908 1.735432,-1.01398 3.789028,-1.90611 5.578748,-1.94167 1.771176,-0.0488 3.509532,0.53617 5.215069,1.75492 0,0 17.379804,12.41941 17.379804,12.41941 0,0 -4.975278,7.27683 -4.975278,7.27683 0,0 -3.90616,-2.58193 -3.90616,-2.58193 0.618993,2.20394 1.095026,3.88795 0.501718,6.91592 -0.578416,3.0013 -1.361254,5.40973 -2.883847,8.40627 -0.941241,1.85241 -1.6648,2.96558 -2.836484,4.47846 -1.138227,1.49462 -2.067316,2.15519 -3.359014,3.07706 -1.291692,0.92188 -2.49309,1.06353 -3.931966,1.41587 -1.449777,0.31581 -2.934344,0.19596 -4.4537,-0.35956 0,0 -3.8e-5,-2e-5 -3.8e-5,-2e-5 m 10.044685,-13.64171 c 0.844348,-1.66172 1.365431,-2.90521 1.855903,-4.48603 0.485461,-1.6186 0.624958,-2.80939 0.750924,-4.1994 0.106499,-1.40186 -0.03705,-2.63398 -0.43063,-3.69637 -0.377701,-1.08848 -1.093062,-1.7677 -1.986444,-2.35822 0,0 -0.997916,-0.65961 -0.997916,-0.65961 -0.977688,1.14855 -1.728806,2.25925 -2.431493,3.36971 -0.702703,1.11047 -1.271595,2.05022 -1.762827,2.93083 -2.262646,4.05615 -3.443255,7.23608 -3.610348,9.78231 -0.154336,2.51845 0.37925,4.05835 1.600758,4.61969 2.4223,1.11318 4.548222,-0.45396 7.012055,-5.30292 0,0 1.8e-5,10e-6 1.8e-5,10e-6"
         inkscape:connector-curvature="0" />
      <path
         id="path8871"
         style="font-style:normal;font-variant:normal;font-weight:bold;font-stretch:normal;font-size:70px;font-family:'Anonymous Pro';-inkscape-font-specification:'Anonymous Pro Bold';fill:#006ea1;fill-opacity:1"
         d="m 123.85371,-353.80874 c 0,0 -7.02124,5.69713 -7.02124,5.69713 0,0 -13.94724,-16.80666 -13.94724,-16.80666 -0.96037,-1.15726 -2.02296,-1.71723 -2.81072,-1.96495 -0.779887,-0.28501 -1.559833,-0.0844 -2.339841,0.60191 -1.422366,1.25146 -1.801751,2.6475 -1.138157,4.18812 0.671474,1.50333 1.929077,3.48546 3.997848,5.69996 0,0 11.57269,12.38788 11.57269,12.38788 0,0 -6.49632,6.22406 -6.49632,6.22406 0,0 -15.393132,-15.49303 -15.393132,-15.49303 -1.059935,-1.06681 -1.990565,-1.7 -2.791891,-1.89956 -0.817379,-0.21572 -1.840434,0.28164 -2.574821,1.05913 -1.279931,1.35505 -1.508004,2.7579 -0.68422,4.20856 0.828196,1.41278 2.343825,3.15964 4.546886,5.24057 0,0 12.323888,11.64069 12.323888,11.64069 0,0 -5.544415,6.34952 -5.544415,6.34952 0,0 -24.556092,-20.28967 -24.556092,-20.28967 0,0 7.006478,-7.99971 7.006478,-7.99971 0,0 3.354285,3.16833 3.354285,3.16833 -0.813839,-1.69346 -1.100926,-3.33071 -0.861259,-4.91175 0.239678,-1.58104 1.510174,-3.5251 3.070906,-5.07577 1.300608,-1.29222 3.056032,-2.40243 4.524725,-2.62077 1.475465,-0.25584 2.878419,-0.007 4.208861,0.74533 -0.307298,-1.89562 0.03253,-3.78784 0.384672,-5.09921 0.360022,-1.34865 1.772259,-3.15668 3.606412,-4.67878 2.257416,-1.87335 4.844937,-2.96709 7.069467,-2.65507 2.23453,0.27525 4.35675,1.69517 6.36666,4.25978 0,0 14.12557,18.02396 14.12557,18.02396 0,0 0,0 0,0"
         inkscape:connector-curvature="0" />
      <path
         id="path8873"
         style="font-style:normal;font-variant:normal;font-weight:bold;font-stretch:normal;font-size:70px;font-family:'Anonymous Pro';-inkscape-font-specification:'Anonymous Pro Bold';fill:#006ea1;fill-opacity:1"
         d="m 133.83898,-403.66812 c 0,0 -10.68907,6.45354 -10.68907,6.45354 0,0 -4.58715,-7.28993 -4.58715,-7.28993 0,0 11.0343,-6.65971 11.0343,-6.65971 0,0 4.24192,7.4961 4.24192,7.4961 0,0 0,0 0,0 m 25.0292,27.26792 c 0,0 -23.28382,14.04614 -23.28382,14.04614 0,0 -3.51661,-5.29606 -3.51661,-5.29606 0,0 7.71762,-5.02068 7.71762,-5.02068 0,0 -10.17546,-16.17092 -10.17546,-16.17092 0,0 -8.1109,5.27497 -8.1109,5.27497 0,0 -3.53551,-5.32453 -3.53551,-5.32453 0,0 16.99476,-10.65831 16.99476,-10.65831 0,0 12.55743,22.19085 12.55743,22.19085 0,0 8.34536,-4.64256 8.34536,-4.64256 0,0 3.00713,5.6011 3.00713,5.6011 0,0 0,0 0,0"
         inkscape:connector-curvature="0" />
      <path
         id="path8875"
         style="font-style:normal;font-variant:normal;font-weight:bold;font-stretch:normal;font-size:70px;font-family:'Anonymous Pro';-inkscape-font-specification:'Anonymous Pro Bold';fill:#006ea1;fill-opacity:1"
         d="m 207.86406,-397.71774 c 0,0 -8.65844,3.13433 -8.65844,3.13433 0,0 -6.82596,-18.42958 -6.82596,-18.42958 -0.86264,-2.32907 -2.18774,-3.69093 -3.7031,-4.12595 -1.51536,-0.43504 -3.38296,-0.21854 -5.60278,0.64947 -3.27283,1.27978 -5.8641,3.49781 -7.06416,6.33092 -1.17205,2.82093 -1.01264,5.94471 0.47824,9.37135 0,0 5.69985,13.10065 5.69985,13.10065 0,0 -8.36545,3.76762 -8.36545,3.76762 0,0 -13.28034,-28.95461 -13.28034,-28.95461 0,0 8.93703,-4.02306 8.93703,-4.02306 0,0 3.19082,7.33386 3.19082,7.33386 -0.23133,-2.90613 0.74428,-5.68194 2.53487,-8.07217 1.78191,-2.41131 4.70016,-4.44148 8.20066,-5.81027 4.06969,-1.59137 8.18295,-1.99675 11.2198,-0.81577 3.03685,1.18099 5.28268,3.84654 6.7375,7.99667 0,0 6.50146,18.54654 6.50146,18.54654 0,0 0,0 0,0"
         inkscape:connector-curvature="0" />
      <path
         id="path8877"
         style="font-style:normal;font-variant:normal;font-weight:bold;font-stretch:normal;font-size:70px;font-family:'Anonymous Pro';-inkscape-font-specification:'Anonymous Pro Bold';fill:#006ea1;fill-opacity:1"
         d="m 255.41326,-411.6701 c 0.48944,2.13203 0.43392,4.14367 -0.16656,6.03494 -0.60047,1.89127 -1.30619,3.53274 -2.80461,5.12029 -1.46875,1.58027 -2.92845,2.83283 -5.16752,4.05415 -2.20375,1.23564 -4.33445,2.0928 -7.24907,2.90339 -7.15405,1.98961 -12.81983,1.94851 -18.83646,0.32224 0,0 2.65297,-6.56098 2.65297,-6.56098 5.00755,1.36915 9.37576,1.60435 14.49842,0.17969 3.15014,-0.87608 5.20058,-2.00353 6.81677,-3.67435 1.65152,-1.6565 1.89311,-3.62052 1.28516,-6.09911 0,0 -0.81424,-3.31953 -0.81424,-3.31953 -1.60085,1.68305 -2.98351,3.00991 -4.57216,4.06119 -1.59443,1.02922 -3.30473,1.78108 -5.6011,2.41972 -2.64965,0.73689 -4.98484,0.94053 -7.48669,0.77648 -2.50184,-0.16405 -4.58733,-0.77776 -6.66292,-1.67995 -2.05323,-0.93307 -3.84258,-2.19945 -5.36804,-3.79916 -1.4963,-1.60883 -2.57803,-3.47878 -3.24519,-5.60983 -0.66717,-2.13106 -0.84487,-4.28402 -0.53312,-6.4589 0.33411,-2.20575 1.08527,-4.25555 2.25349,-6.14939 1.19058,-1.92472 3.01965,-3.67419 5.03749,-5.14914 2.01141,-1.4968 4.60025,-2.6739 7.2499,-3.41079 2.29636,-0.63864 4.67879,-0.94618 6.63782,-0.82247 1.95327,0.10167 4.18055,0.45515 6.24893,1.19128 0,0 -0.68395,-2.78841 -0.68395,-2.78841 0,0 9.45975,-2.25581 9.45975,-2.25581 0,0 7.05093,30.71445 7.05093,30.71445 0,0 0,0 0,0 m -14.49139,-20.22619 c -1.32065,-0.638 -3.04543,-0.93301 -4.91075,-0.93991 -1.84152,-0.0367 -3.73651,0.17528 -5.35575,0.6256 -3.44454,0.95796 -6.138,2.66444 -7.74823,5.08817 -1.58092,2.41507 -1.96159,5.0103 -1.14203,7.78567 0.40655,1.37676 1.06248,2.57296 1.96778,3.58861 0.92816,0.98514 2.01629,1.75672 3.2644,2.31476 1.27741,0.54938 2.57028,0.91915 4.12386,1.03106 1.5769,0.0818 3.20441,-0.11069 4.88252,-0.57739 1.61923,-0.45032 3.0882,-1.06655 4.67612,-1.99986 1.61171,-0.96309 2.73746,-1.99715 3.613,-3.17383 0,0 -3.37092,-13.74288 -3.37092,-13.74288 0,0 0,0 0,0"
         inkscape:connector-curvature="0" />
      <path
         id="path8879"
         style="font-style:normal;font-variant:normal;font-weight:bold;font-stretch:normal;font-size:70px;font-family:'Anonymous Pro';-inkscape-font-specification:'Anonymous Pro Bold';fill:#006ea1;fill-opacity:1"
         d="m 259.71941,-435.11822 c -0.62536,-2.91876 -0.81092,-5.82688 -0.55668,-8.72437 0.25424,-2.89748 1.3304,-5.60415 2.6843,-8.03482 1.3539,-2.43067 3.69223,-4.62225 6.31513,-6.40441 2.64881,-1.81012 6.60758,-3.15428 10.67878,-3.81968 4.07122,-0.6654 8.40191,-0.7506 11.45338,0.14523 3.07867,0.86913 5.66912,2.23006 7.77135,4.08279 2.10223,1.85273 3.74938,4.10078 4.94145,6.74414 1.19206,2.64335 1.98918,5.44389 2.39135,8.40162 0.40217,2.95772 0.38176,5.86942 -0.0612,8.7351 -0.44606,2.84311 -1.41649,5.45857 -2.91128,7.84639 -1.49786,2.36524 -3.61268,4.38896 -6.34444,6.07114 -2.70456,1.65549 -5.66645,2.83528 -9.79798,3.51054 -4.13152,0.67526 -7.41443,0.59773 -10.53098,-0.12416 -3.09065,-0.74985 -5.56323,-2.01137 -7.78004,-3.75355 -2.19129,-1.77051 -3.87686,-3.95024 -5.23135,-6.47975 -1.38915,-2.54538 -2.3964,-5.27745 -3.02176,-8.19621 0,0 0,0 0,0 m 9.47911,-1.90954 c 0.36426,1.97183 0.92384,3.90758 1.67874,5.80725 0.78496,1.89411 1.80311,3.53659 3.05445,4.92746 1.27725,1.36291 2.84625,2.37068 4.70701,3.02332 1.89082,0.64709 3.96006,0.83121 6.61388,0.39747 2.65384,-0.43375 4.74613,-1.27211 6.27689,-2.51508 1.56091,-1.24791 2.52333,-2.69027 3.28042,-4.3799 0.7843,-1.71633 1.23818,-3.59468 1.36165,-5.63507 0.15374,-2.04451 0.0955,-4.0602 -0.17463,-6.04706 -0.27016,-1.98687 -0.75073,-3.93362 -1.44172,-5.84027 -0.66072,-1.91077 -1.59812,-3.58846 -2.81222,-5.03305 -1.18382,-1.44872 -3.2637,-2.43056 -5.17085,-3.11164 -1.877,-0.68602 -4.11225,-0.81708 -6.70577,-0.39319 -4.31247,0.70483 -7.79658,2.80215 -9.51633,6.10901 -1.71973,3.30686 -2.10357,7.53711 -1.15152,12.69075 0,0 0,0 0,0"
         inkscape:connector-curvature="0" />
      <path
         id="path8881"
         style="font-style:normal;font-variant:normal;font-weight:bold;font-stretch:normal;font-size:70px;font-family:'Anonymous Pro';-inkscape-font-specification:'Anonymous Pro Bold';fill:#006ea1;fill-opacity:1"
         d="m 354.48228,-424.58306 c 0,0 -9.47206,0.55101 -9.47206,0.55101 0,0 -1.14131,-19.61964 -1.14131,-19.61964 -0.14423,-2.47947 -0.86951,-4.16052 -2.17583,-5.04315 -1.30632,-0.88263 -3.40854,-1.23264 -5.78375,-1.03428 -3.50191,0.29246 -6.27616,1.58738 -8.32275,3.88475 -2.01614,2.29484 -2.86871,5.30422 -2.55771,9.02813 0,0 1.189,14.23717 1.189,14.23717 0,0 -9.02841,0.96095 -9.02841,0.96095 0,0 -3.46395,-31.66568 -3.46395,-31.66568 0,0 9.84128,-1.03938 9.84128,-1.03938 0,0 0.66562,7.97009 0.66562,7.97009 0.71453,-2.82636 2.28723,-5.10703 4.71809,-6.842 2.42897,-1.75769 5.92957,-2.90936 9.68178,-3.12763 4.36233,-0.25377 7.84052,0.60523 10.43456,2.577 2.59403,1.97177 4.01874,5.15278 4.27413,9.54303 0,0 1.14131,19.61963 1.14131,19.61963 0,0 0,0 0,0"
         inkscape:connector-curvature="0" />
      <path
         id="path8883"
         style="font-style:normal;font-variant:normal;font-weight:bold;font-stretch:normal;font-size:70px;font-family:'Anonymous Pro';-inkscape-font-specification:'Anonymous Pro Bold';fill:#006ea1;fill-opacity:1"
         d="m 404.22682,-424.95508 c 0,0 -37.04064,-0.0812 -37.04064,-0.0812 0,0 -1.4803,-44.57878 -1.4803,-44.57878 0,0 10.19451,-0.1974 10.19451,-0.1974 0,0 0.32384,38.24473 0.32384,38.24473 0,0 28.26249,0.26069 28.26249,0.26069 0,0 -0.2599,6.35195 -0.2599,6.35195 0,0 0,0 0,0"
         inkscape:connector-curvature="0" />
      <path
         id="path8885"
         style="font-style:normal;font-variant:normal;font-weight:bold;font-stretch:normal;font-size:70px;font-family:'Anonymous Pro';-inkscape-font-specification:'Anonymous Pro Bold';fill:#006ea1;fill-opacity:1"
         d="m 444.61517,-458.45907 c 0,0 -12.01099,-1.02244 -12.01099,-1.02244 0,0 0.56595,-8.59444 0.56595,-8.59444 0,0 12.22685,1.03939 12.22685,1.03939 0,0 -0.78181,8.57749 -0.78181,8.57749 0,0 0,0 0,0 m 4.9963,36.64004 c 0,0 -27.78774,-2.30415 -27.78774,-2.30415 0,0 0.41772,-6.34352 0.41772,-6.34352 0,0 9.42184,0.62043 9.42184,0.62043 0,0 1.25541,-19.06466 1.25541,-19.06466 0,0 -9.42184,-0.62043 -9.42184,-0.62043 0,0 0.41996,-6.37762 0.41996,-6.37762 0,0 19.27308,1.47278 19.27308,1.47278 0,0 -2.31441,25.39211 -2.31441,25.39211 0,0 9.47451,0.91086 9.47451,0.91086 0,0 -0.73853,6.3142 -0.73853,6.3142 0,0 0,0 0,0"
         inkscape:connector-curvature="0" />
      <path
         id="path8887"
         style="font-style:normal;font-variant:normal;font-weight:bold;font-stretch:normal;font-size:70px;font-family:'Anonymous Pro';-inkscape-font-specification:'Anonymous Pro Bold';fill:#006ea1;fill-opacity:1"
         d="m 503.62419,-413.40343 c 0,0 -9.30501,-1.85447 -9.30501,-1.85447 0,0 3.8412,-19.27363 3.8412,-19.27363 0.48544,-2.43575 0.20735,-4.24533 -0.83429,-5.42874 -1.04163,-1.18342 -3.02517,-1.97989 -5.37459,-2.38127 -3.4639,-0.5918 -6.47369,-0.0311 -9.02937,1.68203 -2.52557,1.7183 -4.16617,4.46037 -4.69686,8.15936 0,0 -2.02892,14.1419 -2.02892,14.1419 0,0 -9.39189,-1.34744 -9.39189,-1.34744 0,0 4.5238,-31.53169 4.5238,-31.53169 0,0 9.39189,1.34744 9.39189,1.34744 0,0 -1.1358,7.91676 -1.1358,7.91676 1.32922,-2.59462 3.70781,-4.39053 6.49505,-5.4631 2.79109,-1.09504 6.03907,-1.32607 9.74393,-0.69311 4.30728,0.73588 7.89834,2.57815 9.91156,5.14013 2.01321,2.56198 2.59005,5.99938 1.73051,10.3122 0,0 -3.84121,19.27363 -3.84121,19.27363 0,0 0,0 0,0"
         inkscape:connector-curvature="0" />
      <path
         id="path8889"
         style="font-style:normal;font-variant:normal;font-weight:bold;font-stretch:normal;font-size:70px;font-family:'Anonymous Pro';-inkscape-font-specification:'Anonymous Pro Bold';fill:#006ea1;fill-opacity:1"
         d="m 523.21565,-441.73989 c 0,0 9.44824,2.2961 9.44824,2.2961 0,0 -4.81736,19.08884 -4.81736,19.08884 -0.60217,2.3861 -0.41294,4.19641 0.56767,5.4309 0.98061,1.2345 2.47092,2.12308 4.77293,2.74109 3.36446,0.90323 6.25043,0.62137 8.97661,-0.80506 2.72619,-1.42644 4.56616,-3.93347 5.64704,-7.51068 0,0 4.13241,-13.67627 4.13241,-13.67627 0,0 9.3136,2.8668 9.3136,2.8668 0,0 -9.70447,30.34093 -9.70447,30.34093 0,0 -8.82302,-2.71423 -8.82302,-2.71423 0,0 2.30348,-7.62337 2.30348,-7.62337 -1.6977,2.34346 -3.81349,3.97106 -6.70678,4.75752 -2.89328,0.78647 -5.9107,0.77501 -9.54078,-0.19954 -4.22035,-1.13301 -6.82273,-2.83518 -8.74323,-5.46746 -1.91525,-2.65447 -2.369,-6.11035 -1.36125,-10.36767 0,0 4.53491,-19.1579 4.53491,-19.1579 0,0 0,0 0,0"
         inkscape:connector-curvature="0" />
      <path
         id="path8891"
         style="font-style:normal;font-variant:normal;font-weight:bold;font-stretch:normal;font-size:70px;font-family:'Anonymous Pro';-inkscape-font-specification:'Anonymous Pro Bold';fill:#006ea1;fill-opacity:1"
         d="m 600.15964,-381.85935 c 0,0 -17.65288,-7.8635 -17.65288,-7.8635 0,0 2.4564,-5.86359 2.4564,-5.86359 0,0 3.46669,1.45228 3.46669,1.45228 0,0 -2.74772,-8.3683 -2.74772,-8.3683 0,0 -7.78622,4.07732 -7.78622,4.07732 0,0 3.23725,1.28672 3.23725,1.28672 0,0 -2.34818,5.90777 -2.34818,5.90777 0,0 -18.03824,-6.69952 -18.03824,-6.69952 0,0 2.03653,-6.02232 2.03653,-6.02232 0,0 5.68267,2.00364 5.68267,2.00364 0,0 12.28653,-5.89679 12.28653,-5.89679 0,0 -5.4284,-11.94204 -5.4284,-11.94204 0,0 -5.55184,-1.9705 -5.55184,-1.9705 0,0 2.04748,-6.05471 2.04748,-6.05471 0,0 18.81662,7.01372 18.81662,7.01372 0,0 -2.36081,5.93953 -2.36081,5.93953 0,0 -2.81129,-1.11741 -2.81129,-1.11741 0,0 2.54083,7.63034 2.54083,7.63034 0,0 7.29992,-3.62227 7.29992,-3.62227 0,0 -3.12849,-1.31061 -3.12849,-1.31061 0,0 2.46962,-5.89511 2.46962,-5.89511 0,0 18.61315,8.26105 18.61315,8.26105 0,0 -2.81008,5.74061 -2.81008,5.74061 0,0 -5.20133,-2.42242 -5.20133,-2.42242 0,0 -12.26674,4.73252 -12.26674,4.73252 0,0 4.6286,12.78642 4.6286,12.78642 0,0 5.34499,2.50726 5.34499,2.50726 0,0 -2.79506,5.70991 -2.79506,5.70991 0,0 0,0 0,0"
         inkscape:connector-curvature="0" />
      <path
         id="path8893"
         style="font-style:normal;font-variant:normal;font-weight:bold;font-stretch:normal;font-size:70px;font-family:'Anonymous Pro';-inkscape-font-specification:'Anonymous Pro Bold';fill:#006ea1;fill-opacity:1"
         d="m 629.02944,-365.94831 c 0,0 -9.25737,-5.5834 -9.25737,-5.5834 0,0 4.27518,-7.47718 4.27518,-7.47718 0,0 9.59941,5.78966 9.59941,5.78966 0,0 -4.61722,7.27092 -4.61722,7.27092 0,0 0,0 0,0"
         inkscape:connector-curvature="0" />
      <path
         id="path8895"
         style="font-style:normal;font-variant:normal;font-weight:bold;font-stretch:normal;font-size:70px;font-family:'Anonymous Pro';-inkscape-font-specification:'Anonymous Pro Bold';fill:#006ea1;fill-opacity:1"
         d="m 678.36081,-330.05749 c -3.32971,-0.82545 -5.73329,-1.33099 -8.37241,-3.04495 -2.61821,-1.69168 -4.40655,-3.09078 -6.98854,-5.51928 -2.60426,-2.44944 -4.37028,-4.61214 -6.03713,-7.15437 -1.64398,-2.52197 -2.52662,-4.66511 -3.17691,-7.07952 -0.61224,-2.41229 -0.54302,-4.53432 -0.13561,-6.82552 0.43139,-2.27226 1.43074,-4.40092 2.99806,-6.38598 1.4967,-1.89565 3.30015,-3.31685 5.41035,-4.26362 2.1483,-0.94571 4.64897,-1.27274 6.99094,-1.21587 2.38004,0.059 5.14793,0.81088 7.56739,1.85852 2.43456,1.03058 5.07616,2.8067 7.12395,4.73276 2.13682,2.0098 3.99865,4.48108 4.888,6.65975 0.88935,2.17869 1.30397,4.57445 0.69351,6.488 0,0 3.36493,-3.15703 3.36493,-3.15703 0,0 6.0201,6.68995 6.0201,6.68995 0,0 -11.14397,9.78973 -11.14397,9.78973 0,0 -5.69374,-6.33043 -5.69374,-6.33043 2.04388,-1.9176 2.86862,-4.38399 2.57583,-7.02947 -0.25507,-2.63998 -1.75473,-5.37087 -4.15865,-7.63189 -0.95712,-0.90022 -2.31135,-1.92994 -3.68117,-2.5956 -1.33186,-0.66246 -2.73476,-1.08344 -4.20871,-1.26295 -1.45106,-0.15925 -3.04351,-0.1174 -4.48604,0.36962 -1.44251,0.48703 -2.74828,1.42987 -3.91728,2.82852 -1.13979,1.36368 -1.83307,2.78875 -2.07983,4.2752 -0.23215,1.46897 -0.31023,2.79702 0.0456,4.23859 0.39379,1.44479 1.07611,2.88646 2.04697,4.32501 1.00885,1.44175 1.89212,2.62877 3.20537,3.86395 2.24811,2.11448 3.91426,3.33569 5.97654,4.50143 2.09981,1.17245 3.98959,1.76228 5.96875,2.21997 0,0 -0.79627,6.65548 -0.79627,6.65548 0,0 0,0 0,0"
         inkscape:connector-curvature="0" />
      <path
         id="path8897"
         style="font-style:normal;font-variant:normal;font-weight:bold;font-stretch:normal;font-size:70px;font-family:'Anonymous Pro';-inkscape-font-specification:'Anonymous Pro Bold';fill:#006ea1;fill-opacity:1"
         d="m 714.3248,-290.90659 c -2.33789,0.83801 -4.64174,1.09577 -6.91152,0.77327 -2.25948,-0.29373 -4.32557,-0.69915 -6.44416,-1.98359 -2.08599,-1.26467 -3.87135,-2.43939 -5.75346,-4.60579 -1.88211,-2.1664 -3.08924,-3.54282 -4.72806,-6.51237 -1.60929,-2.91604 -2.12048,-4.69922 -2.9417,-7.44901 -0.82123,-2.7498 -0.88163,-4.95007 -0.84066,-7.41375 0.0772,-2.45193 0.83503,-4.45762 1.79726,-6.53854 0.98078,-2.05664 2.45798,-3.83881 4.43158,-5.3465 1.91928,-1.4662 4.00906,-2.40895 6.26934,-2.82825 2.29692,-0.40885 4.79169,0.059 7.13093,0.79787 2.37549,0.7506 4.90824,2.51296 7.08257,4.37609 2.19339,1.85062 4.69633,5.35198 6.30562,8.26802 1.63882,2.96955 3.2788,7.03772 3.66662,9.88117 0.40858,2.83405 0.5382,5.9564 -0.12096,8.33364 -0.62656,2.397 -1.57754,4.79971 -3.1788,6.47731 -1.56952,1.69868 -3.49105,2.95549 -5.7646,3.77043 0,0 0,0 0,0 m -3.48683,-8.76829 c 1.3075,-0.59242 2.41626,-1.43026 3.32626,-2.51351 0.94337,-1.06481 1.59684,-2.30019 1.9604,-3.70613 0.36356,-1.40595 0.24487,-3.25242 -0.0133,-4.93489 -0.22407,-1.66539 -0.99487,-3.72922 -1.95454,-5.46815 -0.97444,-1.76568 -2.30516,-3.52939 -3.59393,-4.60773 -1.26925,-1.0901 -2.73166,-2.14004 -4.0969,-2.56059 -1.36524,-0.42054 -2.75848,-0.53047 -4.17973,-0.32979 -1.38545,0.21375 -2.6785,0.71401 -3.87915,1.50079 -1.25781,0.82423 -2.24218,1.81635 -2.9531,2.97633 -0.69416,1.18553 -1.13047,2.49435 -1.30892,3.92647 -0.17844,1.4321 -0.28579,2.70314 0.0859,4.33446 0.39119,1.61954 0.87781,2.96877 1.85224,4.73445 0.95967,1.73893 1.82293,2.85381 2.98373,4.04902 1.19486,1.21229 2.32272,1.81474 3.64023,2.459 1.31751,0.64426 2.65642,0.9769 4.01674,0.99793 1.37293,0.0489 2.74428,-0.23703 4.11404,-0.85766 0,0 0,0 0,0"
         inkscape:connector-curvature="0" />
      <path
         id="path8899"
         style="font-style:normal;font-variant:normal;font-weight:bold;font-stretch:normal;font-size:70px;font-family:'Anonymous Pro';-inkscape-font-specification:'Anonymous Pro Bold';fill:#006ea1;fill-opacity:1"
         d="m 706.73788,-241.43094 c 0,0 -0.24093,-8.83632 -0.24093,-8.83632 0,0 21.80758,-1.17685 21.80758,-1.17685 1.50161,-0.081 2.59355,-0.35417 3.2758,-0.81939 0.70665,-0.43594 1.03842,-1.59789 0.93991,-2.63212 -0.17962,-1.88594 -1.08794,-3.01185 -2.72495,-3.37773 -1.61142,-0.33764 -3.9255,-0.36279 -6.94223,-0.0755 0,0 -16.87556,1.60731 -16.87556,1.60731 0,0 -1.13397,-8.08375 -1.13397,-8.08375 0,0 21.4943,-3.86621 21.4943,-3.86621 1.48005,-0.26622 2.52979,-0.67236 3.14923,-1.21843 0.64187,-0.5501 0.86814,-1.35144 0.67881,-2.404 -0.32997,-1.83448 -1.49048,-3.22268 -3.15363,-3.35226 -1.63424,-0.10472 -3.93014,0.17312 -6.88768,0.83351 0,0 -16.54448,3.69421 -16.54448,3.69421 0,0 -2.06183,-7.89456 -2.06183,-7.89456 0,0 30.40294,-9.50193 30.40294,-9.50193 0,0 2.76646,10.54441 2.76646,10.54441 0,0 -4.50303,1.00548 -4.50303,1.00548 1.85876,0.27375 3.37605,0.95248 4.55187,2.03619 1.17582,1.08372 2.02672,3.40419 2.4162,5.56947 0.32456,1.80441 0.18288,4.06724 -0.48619,5.39273 -0.64236,1.35266 -1.58806,2.90801 -2.99626,3.50255 1.68915,0.91342 2.96158,1.89723 3.81729,2.95142 0.88129,1.08244 1.45853,3.49465 1.58697,5.87456 0.15807,2.92913 -0.59563,5.86193 -2.19244,7.44172 -1.57362,1.61004 -3.98942,2.43678 -7.24737,2.48021 0,0 -22.89681,0.30524 -22.89681,0.30524 0,0 0,0 0,0"
         inkscape:connector-curvature="0" />
    </g>
  </g>
</svg>
