<?xml version="1.0" encoding="UTF-8" standalone="no"?>
<!-- Created with Inkscape (http://www.inkscape.org/) -->

<svg
   xmlns:dc="http://purl.org/dc/elements/1.1/"
   xmlns:cc="http://creativecommons.org/ns#"
   xmlns:rdf="http://www.w3.org/1999/02/22-rdf-syntax-ns#"
   xmlns:svg="http://www.w3.org/2000/svg"
   xmlns="http://www.w3.org/2000/svg"
   xmlns:sodipodi="http://sodipodi.sourceforge.net/DTD/sodipodi-0.dtd"
   xmlns:inkscape="http://www.inkscape.org/namespaces/inkscape"
   width="210mm"
   height="297mm"
   viewBox="0 0 744.09448 1052.3622"
   id="svg2"
   version="1.1"
   inkscape:version="0.91pre3 r13670"
   sodipodi:docname="penguin2.svg"
   inkscape:export-filename="/tmp/te.png"
   inkscape:export-xdpi="199"
   inkscape:export-ydpi="199">
  <defs
     id="defs4" />
  <sodipodi:namedview
     id="base"
     pagecolor="#ffffff"
     bordercolor="#666666"
     borderopacity="1.0"
     inkscape:pageopacity="0.0"
     inkscape:pageshadow="2"
     inkscape:zoom="0.98994949"
     inkscape:cx="412.49522"
     inkscape:cy="571.967"
     inkscape:document-units="px"
     inkscape:current-layer="layer1"
     showgrid="false"
     showguides="true"
     inkscape:guide-bbox="true"
     inkscape:window-width="1678"
     inkscape:window-height="986"
     inkscape:window-x="0"
     inkscape:window-y="27"
     inkscape:window-maximized="1">
    <sodipodi:guide
       orientation="0,1"
       position="372.99883,892.21724"
       id="guide5869" />
    <sodipodi:guide
       orientation="1,0"
       position="607.14286,428.57143"
       id="guide5883" />
    <sodipodi:guide
       orientation="1,0"
       position="137.14286,495.71429"
       id="guide5885" />
    <sodipodi:guide
       orientation="0,1"
       position="471.42857,120"
       id="guide5887" />
    <sodipodi:guide
       orientation="1,0"
       position="265.71429,625.71429"
       id="guide6135" />
    <sodipodi:guide
       orientation="1,0"
       position="491.42857,531.42857"
       id="guide6137" />
    <sodipodi:guide
       orientation="0,1"
       position="211.12188,57.578695"
       id="guide6139" />
    <sodipodi:guide
       orientation="0,1"
       position="137.14286,177.14286"
       id="guide6143" />
    <sodipodi:guide
       orientation="0,1"
       position="352.14286,413.57143"
       id="guide6158" />
    <sodipodi:guide
       orientation="0,1"
       position="400.52548,389.41381"
       id="guide6160" />
    <sodipodi:guide
       orientation="0,1"
       position="384.64286,351.78571"
       id="guide6162" />
    <sodipodi:guide
       orientation="0,1"
       position="456.42857,725"
       id="guide6164" />
    <sodipodi:guide
       orientation="0,1"
       position="465,530"
       id="guide6166" />
    <sodipodi:guide
       orientation="0,1"
       position="100.71429,802.85714"
       id="guide6175" />
    <sodipodi:guide
       orientation="0,1"
       position="382.85714,690"
       id="guide6414" />
    <sodipodi:guide
       orientation="0,1"
       position="345,445.35714"
       id="guide6425" />
  </sodipodi:namedview>
  <metadata
     id="metadata7">
    <rdf:RDF>
      <cc:Work
         rdf:about="">
        <dc:format>image/svg+xml</dc:format>
        <dc:type
           rdf:resource="http://purl.org/dc/dcmitype/StillImage" />
        <dc:title />
      </cc:Work>
    </rdf:RDF>
  </metadata>
  <g
     inkscape:label="Layer 1"
     inkscape:groupmode="layer"
     id="layer1"
     transform="translate(0,-3.464567e-6)">
    <ellipse
       style="opacity:0.27099998;fill:#000000;fill-opacity:1;stroke:none;stroke-width:14.39999962;stroke-linecap:butt;stroke-miterlimit:4;stroke-dasharray:none;stroke-opacity:1"
       id="path6133"
       cx="366.30496"
       cy="985.69208"
       rx="352.10242"
       ry="60.609154" />
    <path
       style="opacity:1;fill:#000000;fill-opacity:1;stroke:none;stroke-width:14.39999962;stroke-linecap:butt;stroke-miterlimit:4;stroke-dasharray:none;stroke-opacity:1"
       d="m 431.39808,949.68951 58.47423,-9.04782 c 34.21962,7.23007 69.94844,24.71619 83.57464,36.38514 37.33869,37.11037 -190.271,67.83067 -184.80752,28.59547 8.08993,-18.35167 23.15126,-44.41351 42.75865,-55.93279 z"
       id="rect5905"
       inkscape:connector-curvature="0"
       sodipodi:nodetypes="ccccc" />
    <path
       sodipodi:nodetypes="ccccc"
       inkscape:connector-curvature="0"
       id="path6021"
       d="m 318.02263,949.91321 -58.43748,-9.29625 c -34.2483,7.08457 -70.04688,24.4187 -83.71971,36.02967 -37.48704,36.95137 189.99762,68.63867 184.69139,29.38067 -8.01635,-18.38597 -22.97313,-44.51157 -42.5342,-56.11409 z"
       style="opacity:1;fill:#000000;fill-opacity:1;stroke:none;stroke-width:14.39999962;stroke-linecap:butt;stroke-miterlimit:4;stroke-dasharray:none;stroke-opacity:1" />
    <path
       inkscape:connector-curvature="0"
       style="opacity:1;fill:#006ea1;fill-opacity:1;stroke:none;stroke-width:14.39999962;stroke-linecap:butt;stroke-miterlimit:4;stroke-dasharray:none;stroke-opacity:1"
       d="M 372.18937,155.42342 C 161.74498,155.42343 20.604362,684.61536 81.107003,890.48452 104.58389,970.36809 253.06506,994.46703 372.18937,999.66593 491.31368,994.46703 639.79485,970.36809 663.27174,890.48452 723.77437,684.61536 582.63376,155.42343 372.18937,155.42342 Z"
       id="rect5889" />
    <path
       inkscape:connector-curvature="0"
       style="opacity:1;fill:#ffffff;fill-opacity:1;stroke:none;stroke-width:14.39999962;stroke-linecap:butt;stroke-miterlimit:4;stroke-dasharray:none;stroke-opacity:1"
       d="m 372.18937,287.2623 c -154.46968,1e-5 -258.06811,438.64022 -213.65824,609.28262 17.23246,66.21452 126.21902,86.19001 213.65824,90.49931 87.43923,-4.3093 196.42806,-24.28479 213.66052,-90.49931 C 630.25976,725.90252 526.65906,287.26231 372.18937,287.2623 Z"
       id="path5900" />
    <path
       style="opacity:0.27099998;fill:#000000;fill-opacity:1;stroke:none;stroke-width:14.39999962;stroke-linecap:butt;stroke-miterlimit:4;stroke-dasharray:none;stroke-opacity:1"
       d="M 635.1546,495.41626 522.60868,345.82717 c 47.21088,593.07896 237.73126,728.58063 112.54592,149.58909 z"
       id="path6131"
       inkscape:connector-curvature="0"
       sodipodi:nodetypes="ccc" />
    <path
       style="opacity:1;fill:#006ea1;fill-opacity:1;stroke:none;stroke-width:14.39999962;stroke-linecap:butt;stroke-miterlimit:4;stroke-dasharray:none;stroke-opacity:1"
       d="m 624.76132,411.19103 c 31.0645,49.36672 131.07186,456.33232 98.79603,463.85345 -32.27593,7.5211 -157.84855,-333.43568 -181.89675,-388.464 -36.27216,-82.99984 -29.38856,-125.73812 -14.63458,-159.53454 8.01102,-18.35054 29.42038,-22.40312 41.18523,-0.80126 12.54535,23.03495 26.55691,37.28217 56.55007,84.94635 z"
       id="path5902"
       inkscape:connector-curvature="0"
       sodipodi:nodetypes="ssssss" />
    <path
       sodipodi:nodetypes="ccc"
       inkscape:connector-curvature="0"
       id="path6129"
       d="M 108.49568,504.00255 226.92633,351.88808 C 149.81543,857.45339 -24.131356,1023.0623 108.49568,504.00255 Z"
       style="opacity:0.27099998;fill:#000000;fill-opacity:1;stroke:none;stroke-width:14.39999962;stroke-linecap:butt;stroke-miterlimit:4;stroke-dasharray:none;stroke-opacity:1" />
    <path
       sodipodi:nodetypes="ssssss"
       inkscape:connector-curvature="0"
       id="path6031"
       d="M 119.61808,411.19103 C 88.553577,460.55775 -8.6797106,868.52119 23.596124,876.04232 55.872054,883.56342 178.6706,541.6088 202.7188,486.58048 c 36.27216,-82.99984 29.38855,-125.73812 14.63457,-159.53454 -8.01101,-18.35054 -29.42037,-22.40312 -41.18522,-0.80126 -12.54535,23.03495 -26.55691,37.28217 -56.55007,84.94635 z"
       style="opacity:1;fill:#006ea1;fill-opacity:1;stroke:none;stroke-width:14.39999962;stroke-linecap:butt;stroke-miterlimit:4;stroke-dasharray:none;stroke-opacity:1" />
    <path
       style="opacity:0.20800003;fill:#000000;fill-opacity:1;stroke:none;stroke-width:14.39999962;stroke-linecap:butt;stroke-miterlimit:4;stroke-dasharray:none;stroke-opacity:1"
       d="m 262.65254,250.80615 219.08322,-1.01016 c 58.21108,253.30523 5.51786,745.8751 -106.82217,745.43871 -57.37975,-2.3343 -96.26046,-0.45119 -155.1306,-14.23868 C 77.077573,932.36221 163.9466,644.68982 262.65254,250.80615 Z"
       id="rect6117"
       inkscape:connector-curvature="0"
       sodipodi:nodetypes="ccccc" />
    <path
       style="opacity:1;fill:#cccc0e;fill-opacity:1;stroke:none;stroke-width:14.39999962;stroke-linecap:butt;stroke-miterlimit:4;stroke-dasharray:none;stroke-opacity:1"
       d="m 517.60522,865.63827 c 0,125.81996 -75.67444,147.64113 -145.41459,147.64113 -69.74014,0 -145.41646,-21.82117 -145.41646,-147.64113 0,-125.81998 75.67632,-256.17215 145.41646,-256.17215 69.74015,-3e-5 145.41459,130.35215 145.41459,256.17215 z"
       id="path6070"
       inkscape:connector-curvature="0"
       sodipodi:nodetypes="sssss" />
    <path
       sodipodi:nodetypes="ccc"
       inkscape:connector-curvature="0"
       id="path6147"
       d="m 272.81376,215.76727 198.88361,4.28225 C 460.62863,732.5975 173.44513,737.05405 272.81376,215.76727 Z"
       style="opacity:0.07399998;fill:#000000;fill-opacity:1;stroke:none;stroke-width:14.39999962;stroke-linecap:butt;stroke-miterlimit:4;stroke-dasharray:none;stroke-opacity:1" />
    <path
       inkscape:connector-curvature="0"
       style="opacity:1;fill:#000000;fill-opacity:1;stroke:none;stroke-width:14.39999962;stroke-linecap:butt;stroke-miterlimit:4;stroke-dasharray:none;stroke-opacity:1"
       d="m 334.46875,474.5499 c 21.72097,81.26929 -4.68803,119.58593 37.72062,169.97058 42.40865,-50.38465 16.00193,-88.70129 37.7229,-169.97058 l -37.7229,0 -37.72062,0 z"
       id="rect5894" />
    <path
       inkscape:connector-curvature="0"
       style="opacity:1;fill:#006ea1;fill-opacity:1;stroke:none;stroke-width:14.39999962;stroke-linecap:butt;stroke-miterlimit:4;stroke-dasharray:none;stroke-opacity:1"
       d="m 372.18937,155.853 c -42.80955,2.12426 -96.16892,11.97062 -104.60577,44.61062 -21.74276,84.11706 28.97865,300.34229 104.60577,300.34232 75.62712,-3e-5 126.34852,-216.22526 104.60577,-300.34232 -8.43686,-32.64 -61.79621,-42.48636 -104.60577,-44.61062 z"
       id="path5892" />
    <path
       id="path6141"
       d="m 378.60218,179.90219 c -24.29076,2.54678 -100.76606,46.36937 -72.81733,83.23807 17.66738,23.30601 122.47725,74.54501 127.71623,149.77084 2.99266,42.97093 26.02581,-119.59573 11.04948,-174.85773 -5.8113,-21.44333 -41.52599,-57.87764 -65.94838,-58.15118 z"
       style="opacity:0.041;fill:#ffffff;fill-opacity:1;stroke:none;stroke-width:14.39999962;stroke-linecap:butt;stroke-miterlimit:4;stroke-dasharray:none;stroke-opacity:1"
       inkscape:connector-curvature="0"
       sodipodi:nodetypes="csssc" />
    <path
       style="opacity:0.033;fill:#ffffff;fill-opacity:1;stroke:none;stroke-width:14.39999962;stroke-linecap:butt;stroke-miterlimit:4;stroke-dasharray:none;stroke-opacity:1"
       d="m 425.02661,254.60124 c 9.67584,21.16829 11.75856,28.03093 10.38322,92.78806 -29.85842,-57.23423 -39.52592,-94.5132 -73.48747,-68.53865 -18.48753,14.13967 -12.77105,-39.13951 0.74948,-45.31961 13.52051,-6.18011 52.67893,-0.0981 62.35477,21.0702 z"
       id="path6145"
       inkscape:connector-curvature="0"
       sodipodi:nodetypes="scscs" />
    <path
       sodipodi:nodetypes="sssss"
       inkscape:connector-curvature="0"
       id="path6410"
       d="m 138.78296,438.45431 c 1.12226,15.77165 -3.8422,75.41283 15.68611,85.96196 11.59382,6.26294 61.29566,-108.96343 53.13476,-136.29627 -3.60262,-12.06602 -8.3835,-22.85714 -18.72507,-22.85714 -10.34156,0 -55.16986,1.88272 -50.0958,73.19145 z"
       style="opacity:0.05199998;fill:#ffffff;fill-opacity:1;stroke:none;stroke-width:14.39999962;stroke-linecap:butt;stroke-miterlimit:4;stroke-dasharray:none;stroke-opacity:1" />
    <text
       xml:space="preserve"
       style="font-style:normal;font-variant:normal;font-weight:normal;font-stretch:normal;font-size:55.81031799px;line-height:125%;font-family:Wargames;-inkscape-font-specification:Wargames;text-align:center;letter-spacing:0px;word-spacing:0px;text-anchor:middle;fill:#000000;fill-opacity:1;stroke:none;stroke-width:1px;stroke-linecap:butt;stroke-linejoin:miter;stroke-opacity:1"
       x="373.55969"
       y="787.77869"
       id="text4235"
       sodipodi:linespacing="125%"><tspan
         sodipodi:role="line"
         id="tspan4237"
         x="373.55969"
         y="787.77869">Game of</tspan><tspan
         sodipodi:role="line"
         x="373.55969"
         y="857.54156"
         id="tspan4247">the Year</tspan></text>
    <text
       sodipodi:linespacing="125%"
       id="text4249"
       y="960.3075"
       x="289.23929"
       style="font-style:normal;font-variant:normal;font-weight:normal;font-stretch:normal;font-size:80.58480072px;line-height:125%;font-family:Wargames;-inkscape-font-specification:Wargames;letter-spacing:0px;word-spacing:0px;fill:#000000;fill-opacity:1;stroke:none;stroke-width:1px;stroke-linecap:butt;stroke-linejoin:miter;stroke-opacity:1"
       xml:space="preserve"><tspan
         id="tspan4253"
         y="960.3075"
         x="289.23929"
         sodipodi:role="line">2014</tspan></text>
    <path
       style="opacity:0.176;fill:#ffffff;fill-opacity:1;stroke:none;stroke-width:14.39999962;stroke-linecap:butt;stroke-miterlimit:4;stroke-dasharray:none;stroke-opacity:1"
       d="M 454.64835,959.86216 C 492.14176,843.82555 260.28912,652.94838 346.45909,655.21931 c 70.57162,0 91.12933,-2.27093 118.07193,50.53571 10.14122,19.87645 71.58279,252.38099 -9.88267,254.10714 z"
       id="path6168"
       inkscape:connector-curvature="0"
       sodipodi:nodetypes="ccsc" />
    <path
       sodipodi:nodetypes="ccsc"
       inkscape:connector-curvature="0"
       id="path4178"
       d="m 439.80596,796.61457 c 8.19055,-47.36732 -92.89194,-108.98936 -59.13618,-112.88702 27.54209,-3.91796 35.43911,-5.94555 48.88572,13.16759 5.06132,7.1942 41.94827,94.52301 10.25046,99.71943 z"
       style="opacity:0.17600002;fill:#ffffff;fill-opacity:1;stroke:none;stroke-width:14.39999962;stroke-linecap:butt;stroke-miterlimit:4;stroke-dasharray:none;stroke-opacity:1" />
    <text
       sodipodi:linespacing="125%"
       id="text4263"
       y="96.021774"
       x="27.142849"
       style="font-style:normal;font-variant:normal;font-weight:normal;font-stretch:normal;font-size:80.58480072px;line-height:125%;font-family:Wargames;-inkscape-font-specification:Wargames;letter-spacing:0px;word-spacing:0px;fill:#ffffff;fill-opacity:1;stroke:#ffffff;stroke-width:4.7;stroke-linecap:butt;stroke-linejoin:miter;stroke-opacity:1;stroke-miterlimit:4;stroke-dasharray:none"
       xml:space="preserve"><tspan
         id="tspan4265"
         y="96.021774"
         x="27.142849"
         sodipodi:role="line">Gaming On Linux</tspan><tspan
         id="tspan4267"
         y="196.75276"
         x="27.142849"
         sodipodi:role="line">.com</tspan></text>
    <text
       xml:space="preserve"
       style="font-style:normal;font-variant:normal;font-weight:normal;font-stretch:normal;font-size:80.58480072px;line-height:125%;font-family:Wargames;-inkscape-font-specification:Wargames;letter-spacing:0px;word-spacing:0px;fill:#005e8a;fill-opacity:1;stroke:none;stroke-width:1px;stroke-linecap:butt;stroke-linejoin:miter;stroke-opacity:1;"
       x="27.142849"
       y="96.021774"
       id="text4257"
       sodipodi:linespacing="125%"><tspan
         sodipodi:role="line"
         x="27.142849"
         y="96.021774"
         id="tspan4259">Gaming On Linux</tspan><tspan
         sodipodi:role="line"
         x="27.142849"
         y="196.75276"
         id="tspan4261">.com</tspan></text>
    <path
       style="opacity:0.038;fill:#ffffff;fill-opacity:1;stroke:none;stroke-width:14.39999962;stroke-linecap:butt;stroke-miterlimit:4;stroke-dasharray:none;stroke-opacity:1"
       d="m 151.35845,432.66162 c 0.63449,8.91675 2.30022,49.54277 13.34085,55.50688 6.55474,3.54085 32.68196,-64.2254 28.06807,-79.67843 -2.03679,-6.82171 -7.23974,-17.20834 -13.0865,-17.20834 -5.84676,0 -31.19112,1.06442 -28.32242,41.37989 z"
       id="path6002"
       inkscape:connector-curvature="0"
       sodipodi:nodetypes="sssss" />
    <path
       sodipodi:nodetypes="sssss"
       inkscape:connector-curvature="0"
       id="path6004"
       d="m 96.858465,890.54736 c 5.746395,6.84763 35.294355,33.1085 46.232575,39.25841 5.9447,3.34235 -23.84965,-44.74238 -21.17379,-100.98755 0.33832,-7.11125 -13.81764,-14.68522 -18.55181,-11.25415 -4.734169,3.43107 -32.488213,42.02297 -6.506975,72.98329 z"
       style="opacity:0.035;fill:#ffffff;fill-opacity:1;stroke:none;stroke-width:14.39999962;stroke-linecap:butt;stroke-miterlimit:4;stroke-dasharray:none;stroke-opacity:1" />
    <path
       style="opacity:0.03500001;fill:#ffffff;fill-opacity:1;stroke:none;stroke-width:14.39999962;stroke-linecap:butt;stroke-miterlimit:4;stroke-dasharray:none;stroke-opacity:1"
       d="m 630.79763,918.52836 c -6.50827,6.12809 -38.92645,28.75058 -50.50922,33.57815 -6.295,2.62369 28.92188,-41.64386 32.84666,-97.8157 0.49622,-7.10198 15.44128,-12.96726 19.74139,-9.00574 4.3001,3.96152 27.34711,45.53624 -2.07883,73.24329 z"
       id="path6006"
       inkscape:connector-curvature="0"
       sodipodi:nodetypes="sssss" />
    <path
       style="opacity:0.05199998;fill:#ffffff;fill-opacity:1;stroke:none;stroke-width:14.39999962;stroke-linecap:butt;stroke-miterlimit:4;stroke-dasharray:none;stroke-opacity:1"
       d="m 616.18097,449.56598 c 1.26745,15.76065 43.41146,158.44838 23.88315,168.99751 -11.59382,6.26294 -115.00706,-205.13096 -106.84616,-232.4638 3.60262,-12.06602 8.62461,-25.07724 18.72507,-22.85714 8.1126,1.78317 59.15672,23.13892 64.23794,86.32343 z"
       id="path5998"
       inkscape:connector-curvature="0"
       sodipodi:nodetypes="sssss" />
    <path
       style="opacity:0.033;fill:#ffffff;fill-opacity:1;stroke:none;stroke-width:14.39999962;stroke-linecap:butt;stroke-miterlimit:4;stroke-dasharray:none;stroke-opacity:1"
       d="m 599.39208,436.54984 c 0.56216,10.45107 14.49752,63.45616 2.54058,71.99342 -7.09873,5.0685 -54.99606,-80.75884 -51.88772,-99.383 1.37217,-8.22159 3.62323,-15.7029 10.41545,-16.55482 6.79221,-0.85192 36.38996,-3.30827 38.93169,43.9444 z"
       id="path6000"
       inkscape:connector-curvature="0"
       sodipodi:nodetypes="sssss" />
  </g>
</svg>
