<?xml version="1.0" encoding="UTF-8" standalone="no"?>
<!-- Created with Inkscape (http://www.inkscape.org/) -->

<svg
   xmlns:dc="http://purl.org/dc/elements/1.1/"
   xmlns:cc="http://creativecommons.org/ns#"
   xmlns:rdf="http://www.w3.org/1999/02/22-rdf-syntax-ns#"
   xmlns:svg="http://www.w3.org/2000/svg"
   xmlns="http://www.w3.org/2000/svg"
   xmlns:sodipodi="http://sodipodi.sourceforge.net/DTD/sodipodi-0.dtd"
   xmlns:inkscape="http://www.inkscape.org/namespaces/inkscape"
   width="210mm"
   height="297mm"
   viewBox="0 0 744.09448819 1052.3622047"
   id="svg18484"
   version="1.1"
   inkscape:version="0.91 r13725"
   sodipodi:docname="recorder.svg">
  <defs
     id="defs18486">
    <inkscape:perspective
       sodipodi:type="inkscape:persp3d"
       inkscape:vp_x="-26.744775 : 17.841655 : 1"
       inkscape:vp_y="998.94258 : 45.97504 : 0"
       inkscape:vp_z="105.65951 : 931.84708 : 1"
       inkscape:persp3d-origin="-59.572867 : 769.17411 : 1"
       id="perspective19032" />
  </defs>
  <sodipodi:namedview
     id="base"
     pagecolor="#ffffff"
     bordercolor="#666666"
     borderopacity="1.0"
     inkscape:pageopacity="0.0"
     inkscape:pageshadow="2"
     inkscape:zoom="1"
     inkscape:cx="5.1605696"
     inkscape:cy="526.10994"
     inkscape:document-units="px"
     inkscape:current-layer="layer1"
     showgrid="false"
     showguides="true"
     inkscape:guide-bbox="true"
     inkscape:window-width="1678"
     inkscape:window-height="986"
     inkscape:window-x="0"
     inkscape:window-y="27"
     inkscape:window-maximized="1">
    <sodipodi:guide
       position="-347.49248,236.3757"
       orientation="1,0"
       id="guide19060" />
    <sodipodi:guide
       position="-58.841386,727.24671"
       orientation="0,1"
       id="guide19145" />
    <sodipodi:guide
       position="-44.319197,724.84377"
       orientation="0,1"
       id="guide19160" />
  </sodipodi:namedview>
  <metadata
     id="metadata18489">
    <rdf:RDF>
      <cc:Work
         rdf:about="">
        <dc:format>image/svg+xml</dc:format>
        <dc:type
           rdf:resource="http://purl.org/dc/dcmitype/StillImage" />
        <dc:title></dc:title>
      </cc:Work>
    </rdf:RDF>
  </metadata>
  <g
     inkscape:label="Layer 1"
     inkscape:groupmode="layer"
     id="layer1">
    <g
       id="g19442">
      <rect
         y="325.28903"
         x="-69.535301"
         height="28.031736"
         width="189.71927"
         id="rect19147"
         style="opacity:1;fill:#000000;fill-opacity:1;stroke:none;stroke-width:10;stroke-linecap:butt;stroke-miterlimit:4;stroke-dasharray:none;stroke-opacity:1" />
      <g
         transform="translate(0.17677669,0.26516504)"
         id="g19162">
        <g
           id="g19154"
           transform="translate(-0.03156727,-0.34723994)">
          <path
             sodipodi:nodetypes="ccccccccc"
             inkscape:connector-curvature="0"
             id="rect19142"
             d="m -60.482885,325.87312 16.067739,0 0.0079,1.99664 -0.213079,-10e-6 -0.07892,22.49958 -15.404827,0 -0.102594,-22.49957 -0.268322,-0.008 z"
             style="opacity:1;fill:#2b0000;fill-opacity:1;stroke:none;stroke-width:10;stroke-linecap:butt;stroke-miterlimit:4;stroke-dasharray:none;stroke-opacity:1" />
          <path
             sodipodi:nodetypes="ccccc"
             inkscape:connector-curvature="0"
             id="rect19151"
             d="m -59.961721,325.28083 14.907826,0.0112 0.634254,0.5914 -16.059591,-0.0101 z"
             style="opacity:1;fill:#1a1a1a;fill-opacity:1;stroke:none;stroke-width:10;stroke-linecap:butt;stroke-miterlimit:4;stroke-dasharray:none;stroke-opacity:1" />
        </g>
        <rect
           style="opacity:0.42600002;fill:#000000;fill-opacity:1;stroke:none;stroke-width:10;stroke-linecap:butt;stroke-miterlimit:4;stroke-dasharray:none;stroke-opacity:1"
           id="rect19158"
           width="15.660478"
           height="0.54453534"
           x="-60.273712"
           y="327.52295" />
      </g>
      <g
         transform="translate(16.390165,14.645369)"
         id="g19168">
        <g
           transform="translate(-0.03156727,-0.34723994)"
           id="g19170">
          <path
             style="opacity:1;fill:#2b0000;fill-opacity:1;stroke:none;stroke-width:10;stroke-linecap:butt;stroke-miterlimit:4;stroke-dasharray:none;stroke-opacity:1"
             d="m -60.482885,325.87312 16.067739,0 0.0079,1.99664 -0.213079,-10e-6 -0.07892,22.49958 -15.404827,0 -0.102594,-22.49957 -0.268322,-0.008 z"
             id="path19172"
             inkscape:connector-curvature="0"
             sodipodi:nodetypes="ccccccccc" />
          <path
             style="opacity:1;fill:#1a1a1a;fill-opacity:1;stroke:none;stroke-width:10;stroke-linecap:butt;stroke-miterlimit:4;stroke-dasharray:none;stroke-opacity:1"
             d="m -59.961721,325.28083 14.907826,0.0112 0.634254,0.5914 -16.059591,-0.0101 z"
             id="path19174"
             inkscape:connector-curvature="0"
             sodipodi:nodetypes="ccccc" />
        </g>
        <rect
           y="327.52295"
           x="-60.273712"
           height="0.54453534"
           width="15.660478"
           id="rect19176"
           style="opacity:0.42600002;fill:#000000;fill-opacity:1;stroke:none;stroke-width:10;stroke-linecap:butt;stroke-miterlimit:4;stroke-dasharray:none;stroke-opacity:1" />
      </g>
      <g
         transform="translate(32.526912,0.79549512)"
         id="g19178">
        <g
           transform="translate(-0.03156727,-0.34723994)"
           id="g19180">
          <path
             style="opacity:1;fill:#2b0000;fill-opacity:1;stroke:none;stroke-width:10;stroke-linecap:butt;stroke-miterlimit:4;stroke-dasharray:none;stroke-opacity:1"
             d="m -60.482885,325.87312 16.067739,0 0.0079,1.99664 -0.213079,-10e-6 -0.07892,22.49958 -15.404827,0 -0.102594,-22.49957 -0.268322,-0.008 z"
             id="path19182"
             inkscape:connector-curvature="0"
             sodipodi:nodetypes="ccccccccc" />
          <path
             style="opacity:1;fill:#1a1a1a;fill-opacity:1;stroke:none;stroke-width:10;stroke-linecap:butt;stroke-miterlimit:4;stroke-dasharray:none;stroke-opacity:1"
             d="m -59.961721,325.28083 14.907826,0.0112 0.634254,0.5914 -16.059591,-0.0101 z"
             id="path19184"
             inkscape:connector-curvature="0"
             sodipodi:nodetypes="ccccc" />
        </g>
        <rect
           y="327.52295"
           x="-60.273712"
           height="0.54453534"
           width="15.660478"
           id="rect19186"
           style="opacity:0.42600002;fill:#000000;fill-opacity:1;stroke:none;stroke-width:10;stroke-linecap:butt;stroke-miterlimit:4;stroke-dasharray:none;stroke-opacity:1" />
      </g>
      <g
         id="g19188"
         transform="translate(48.839412,0.17049512)">
        <g
           id="g19190"
           transform="translate(-0.03156727,-0.34723994)">
          <path
             sodipodi:nodetypes="ccccccccc"
             inkscape:connector-curvature="0"
             id="path19192"
             d="m -60.482885,325.87312 16.067739,0 0.0079,1.99664 -0.213079,-10e-6 -0.07892,22.49958 -15.404827,0 -0.102594,-22.49957 -0.268322,-0.008 z"
             style="opacity:1;fill:#2b0000;fill-opacity:1;stroke:none;stroke-width:10;stroke-linecap:butt;stroke-miterlimit:4;stroke-dasharray:none;stroke-opacity:1" />
          <path
             sodipodi:nodetypes="ccccc"
             inkscape:connector-curvature="0"
             id="path19194"
             d="m -59.961721,325.28083 14.907826,0.0112 0.634254,0.5914 -16.059591,-0.0101 z"
             style="opacity:1;fill:#1a1a1a;fill-opacity:1;stroke:none;stroke-width:10;stroke-linecap:butt;stroke-miterlimit:4;stroke-dasharray:none;stroke-opacity:1" />
        </g>
        <rect
           style="opacity:0.42600002;fill:#000000;fill-opacity:1;stroke:none;stroke-width:10;stroke-linecap:butt;stroke-miterlimit:4;stroke-dasharray:none;stroke-opacity:1"
           id="rect19196"
           width="15.660478"
           height="0.54453534"
           x="-60.273712"
           y="327.52295" />
      </g>
      <g
         transform="translate(65.339412,0.29549512)"
         id="g19198">
        <g
           transform="translate(-0.03156727,-0.34723994)"
           id="g19200">
          <path
             style="opacity:1;fill:#2b0000;fill-opacity:1;stroke:none;stroke-width:10;stroke-linecap:butt;stroke-miterlimit:4;stroke-dasharray:none;stroke-opacity:1"
             d="m -60.482885,325.87312 16.067739,0 0.0079,1.99664 -0.213079,-10e-6 -0.07892,22.49958 -15.404827,0 -0.102594,-22.49957 -0.268322,-0.008 z"
             id="path19202"
             inkscape:connector-curvature="0"
             sodipodi:nodetypes="ccccccccc" />
          <path
             style="opacity:1;fill:#1a1a1a;fill-opacity:1;stroke:none;stroke-width:10;stroke-linecap:butt;stroke-miterlimit:4;stroke-dasharray:none;stroke-opacity:1"
             d="m -59.961721,325.28083 14.907826,0.0112 0.634254,0.5914 -16.059591,-0.0101 z"
             id="path19204"
             inkscape:connector-curvature="0"
             sodipodi:nodetypes="ccccc" />
        </g>
        <rect
           y="327.52295"
           x="-60.273712"
           height="0.54453534"
           width="15.660478"
           id="rect19206"
           style="opacity:0.42600002;fill:#000000;fill-opacity:1;stroke:none;stroke-width:10;stroke-linecap:butt;stroke-miterlimit:4;stroke-dasharray:none;stroke-opacity:1" />
      </g>
      <g
         id="g19208"
         transform="translate(81.602868,14.437631)">
        <g
           id="g19210"
           transform="translate(-0.03156727,-0.34723994)">
          <path
             sodipodi:nodetypes="ccccccccc"
             inkscape:connector-curvature="0"
             id="path19212"
             d="m -60.482885,325.87312 16.067739,0 0.0079,1.99664 -0.213079,-10e-6 -0.07892,22.49958 -15.404827,0 -0.102594,-22.49957 -0.268322,-0.008 z"
             style="opacity:1;fill:#2b0000;fill-opacity:1;stroke:none;stroke-width:10;stroke-linecap:butt;stroke-miterlimit:4;stroke-dasharray:none;stroke-opacity:1" />
          <path
             sodipodi:nodetypes="ccccc"
             inkscape:connector-curvature="0"
             id="path19214"
             d="m -59.961721,325.28083 14.907826,0.0112 0.634254,0.5914 -16.059591,-0.0101 z"
             style="opacity:1;fill:#1a1a1a;fill-opacity:1;stroke:none;stroke-width:10;stroke-linecap:butt;stroke-miterlimit:4;stroke-dasharray:none;stroke-opacity:1" />
        </g>
        <rect
           style="opacity:0.42600002;fill:#000000;fill-opacity:1;stroke:none;stroke-width:10;stroke-linecap:butt;stroke-miterlimit:4;stroke-dasharray:none;stroke-opacity:1"
           id="rect19216"
           width="15.660478"
           height="0.54453534"
           x="-60.273712"
           y="327.52295" />
      </g>
      <g
         transform="translate(-0.13258252,0)"
         id="g19234">
        <path
           sodipodi:nodetypes="ccccccccc"
           inkscape:connector-curvature="0"
           id="path19222"
           d="m 37.528649,325.46782 16.067739,0 0.0079,1.99664 -0.213079,-10e-6 -0.07892,22.49958 -15.404827,0 -0.102594,-22.49957 -0.268322,-0.008 z"
           style="opacity:1;fill:#241c1c;fill-opacity:1;stroke:none;stroke-width:10;stroke-linecap:butt;stroke-miterlimit:4;stroke-dasharray:none;stroke-opacity:1" />
        <path
           sodipodi:nodetypes="ccccc"
           inkscape:connector-curvature="0"
           id="path19224"
           d="m 38.049813,324.87553 14.907826,0.0112 0.634254,0.5914 -16.059591,-0.0101 z"
           style="opacity:1;fill:#1a1a1a;fill-opacity:1;stroke:none;stroke-width:10;stroke-linecap:butt;stroke-miterlimit:4;stroke-dasharray:none;stroke-opacity:1" />
        <rect
           y="327.4649"
           x="37.76939"
           height="0.54453534"
           width="15.660478"
           id="rect19226"
           style="opacity:0.42600002;fill:#000000;fill-opacity:1;stroke:none;stroke-width:10;stroke-linecap:butt;stroke-miterlimit:4;stroke-dasharray:none;stroke-opacity:1" />
      </g>
      <g
         id="g19247"
         transform="translate(16.117417,14.75)">
        <path
           style="opacity:1;fill:#241c1c;fill-opacity:1;stroke:none;stroke-width:10;stroke-linecap:butt;stroke-miterlimit:4;stroke-dasharray:none;stroke-opacity:1"
           d="m 37.528649,325.46782 16.067739,0 0.0079,1.99664 -0.213079,-10e-6 -0.07892,22.49958 -15.404827,0 -0.102594,-22.49957 -0.268322,-0.008 z"
           id="path19249"
           inkscape:connector-curvature="0"
           sodipodi:nodetypes="ccccccccc" />
        <path
           style="opacity:1;fill:#1a1a1a;fill-opacity:1;stroke:none;stroke-width:10;stroke-linecap:butt;stroke-miterlimit:4;stroke-dasharray:none;stroke-opacity:1"
           d="m 38.049813,324.87553 14.907826,0.0112 0.634254,0.5914 -16.059591,-0.0101 z"
           id="path19251"
           inkscape:connector-curvature="0"
           sodipodi:nodetypes="ccccc" />
        <rect
           style="opacity:0.42600002;fill:#000000;fill-opacity:1;stroke:none;stroke-width:10;stroke-linecap:butt;stroke-miterlimit:4;stroke-dasharray:none;stroke-opacity:1"
           id="rect19253"
           width="15.660478"
           height="0.54453534"
           x="37.76939"
           y="327.4649" />
      </g>
      <g
         transform="translate(32.867417,14.75)"
         id="g19255">
        <path
           sodipodi:nodetypes="ccccccccc"
           inkscape:connector-curvature="0"
           id="path19257"
           d="m 37.528649,325.46782 16.067739,0 0.0079,1.99664 -0.213079,-10e-6 -0.07892,22.49958 -15.404827,0 -0.102594,-22.49957 -0.268322,-0.008 z"
           style="opacity:1;fill:#241c1c;fill-opacity:1;stroke:none;stroke-width:10;stroke-linecap:butt;stroke-miterlimit:4;stroke-dasharray:none;stroke-opacity:1" />
        <path
           sodipodi:nodetypes="ccccc"
           inkscape:connector-curvature="0"
           id="path19259"
           d="m 38.049813,324.87553 14.907826,0.0112 0.634254,0.5914 -16.059591,-0.0101 z"
           style="opacity:1;fill:#1a1a1a;fill-opacity:1;stroke:none;stroke-width:10;stroke-linecap:butt;stroke-miterlimit:4;stroke-dasharray:none;stroke-opacity:1" />
        <rect
           y="327.4649"
           x="37.76939"
           height="0.54453534"
           width="15.660478"
           id="rect19261"
           style="opacity:0.42600002;fill:#000000;fill-opacity:1;stroke:none;stroke-width:10;stroke-linecap:butt;stroke-miterlimit:4;stroke-dasharray:none;stroke-opacity:1" />
      </g>
      <g
         id="g19263"
         transform="matrix(1.5909563,0,0,1,27.189626,2.25)">
        <path
           style="opacity:1;fill:#241c1c;fill-opacity:1;stroke:none;stroke-width:10;stroke-linecap:butt;stroke-miterlimit:4;stroke-dasharray:none;stroke-opacity:1"
           d="m 37.528649,325.46782 16.067739,0 0.0079,1.99664 -0.213079,-10e-6 -0.07892,22.49958 -15.404827,0 -0.102594,-22.49957 -0.268322,-0.008 z"
           id="path19265"
           inkscape:connector-curvature="0"
           sodipodi:nodetypes="ccccccccc" />
        <path
           style="opacity:1;fill:#1a1a1a;fill-opacity:1;stroke:none;stroke-width:10;stroke-linecap:butt;stroke-miterlimit:4;stroke-dasharray:none;stroke-opacity:1"
           d="m 38.049813,324.87553 14.907826,0.0112 0.634254,0.5914 -16.059591,-0.0101 z"
           id="path19267"
           inkscape:connector-curvature="0"
           sodipodi:nodetypes="ccccc" />
        <rect
           style="opacity:0.42600002;fill:#000000;fill-opacity:1;stroke:none;stroke-width:10;stroke-linecap:butt;stroke-miterlimit:4;stroke-dasharray:none;stroke-opacity:1"
           id="rect19269"
           width="15.660478"
           height="0.54453534"
           x="37.76939"
           y="327.4649" />
      </g>
      <path
         id="rect19072"
         d="M -282.8418 325.16016 L -282.8418 719.12109 L 335.37109 719.12109 L 335.37109 325.16016 L 113.13672 325.16016 L 113.13672 348.28516 L -60.609375 348.28516 L -60.609375 325.16016 L -282.8418 325.16016 z "
         style="opacity:1;fill:#2b1100;fill-opacity:1;stroke:none;stroke-width:10;stroke-linecap:butt;stroke-miterlimit:4;stroke-dasharray:none;stroke-opacity:1" />
      <path
         sodipodi:nodetypes="cccc"
         inkscape:connector-curvature="0"
         id="rect19418"
         d="m -282.8418,679.34636 c 15.8577,2.45678 41.38735,24.67687 37.05046,39.77475 l -37.05046,0 z"
         style="opacity:1;fill:#000000;fill-opacity:1;stroke:none;stroke-width:10;stroke-linecap:butt;stroke-miterlimit:4;stroke-dasharray:none;stroke-opacity:1" />
      <path
         style="opacity:1;fill:#241f1c;fill-opacity:1;stroke:none;stroke-width:10;stroke-linecap:butt;stroke-miterlimit:4;stroke-dasharray:none;stroke-opacity:1"
         d="m -260.67293,364.44275 575.63158,0 0,322.53833 -575.63158,0 z"
         id="path19077"
         inkscape:connector-curvature="0" />
      <path
         sodipodi:nodetypes="cccc"
         inkscape:connector-curvature="0"
         id="path19440"
         d="m 57.469599,652.44501 13.531657,-13.53166 -27.063313,0 z"
         style="opacity:1;fill:#000000;fill-opacity:1;stroke:none;stroke-width:10;stroke-linecap:butt;stroke-miterlimit:4;stroke-dasharray:none;stroke-opacity:1" />
      <rect
         transform="matrix(0.84753337,-0.53074211,0.56426742,0.82559208,0,0)"
         y="306.98059"
         x="-402.914"
         height="0.22472538"
         width="148.71017"
         id="rect19120"
         style="opacity:1;fill:#2b0000;fill-opacity:1;stroke:none;stroke-width:10;stroke-linecap:butt;stroke-miterlimit:4;stroke-dasharray:none;stroke-opacity:1" />
      <g
         id="g19103">
        <circle
           style="opacity:1;fill:#2b0000;fill-opacity:1;stroke:none;stroke-width:10;stroke-linecap:butt;stroke-miterlimit:4;stroke-dasharray:none;stroke-opacity:1"
           id="path19099"
           cx="-135.71428"
           cy="523.79077"
           r="70" />
        <circle
           r="25"
           cy="523.79077"
           cx="-135.71428"
           id="circle19101"
           style="opacity:1;fill:#000000;fill-opacity:1;stroke:none;stroke-width:10;stroke-linecap:butt;stroke-miterlimit:4;stroke-dasharray:none;stroke-opacity:1" />
        <path
           style="opacity:1;fill:#b3b3b3;fill-opacity:0.26633167;stroke:none;stroke-width:10;stroke-linecap:butt;stroke-miterlimit:4;stroke-dasharray:none;stroke-opacity:1"
           d="M -132.25195 392.8418 A 129.29953 129.29953 0 0 0 -261.55273 522.14062 A 129.29953 129.29953 0 0 0 -132.25195 651.43945 A 129.29953 129.29953 0 0 0 -2.953125 522.14062 A 129.29953 129.29953 0 0 0 -132.25195 392.8418 z M -215.83984 449.88477 C -209.23424 449.91663 -201.70773 451.97431 -193.76562 456.75977 L -140.53711 488.83203 L -167.08008 532.88281 L -220.30664 500.81055 C -253.47279 480.82656 -241.75412 449.75975 -215.83984 449.88477 z M -52.816406 453.57617 C -25.807468 453.06133 -14.002875 485.35949 -48.462891 504.62695 L -102.70312 534.95312 L -127.80273 490.06445 L -73.5625 459.73828 C -66.091806 455.56123 -59.049238 453.69498 -52.816406 453.57617 z M -135.82422 504.2832 A 17.857143 17.857143 0 0 1 -117.9668 522.14062 A 17.857143 17.857143 0 0 1 -135.82422 539.99805 A 17.857143 17.857143 0 0 1 -153.68164 522.14062 A 17.857143 17.857143 0 0 1 -135.82422 504.2832 z M -110.43945 546.78516 L -109.88086 608.92578 C -109.44478 657.5155 -160.89697 655.03367 -161.30664 609.38672 L -161.86523 547.24609 L -110.43945 546.78516 z "
           id="path19070" />
      </g>
      <rect
         style="opacity:1;fill:#2b0000;fill-opacity:1;stroke:none;stroke-width:10;stroke-linecap:butt;stroke-miterlimit:4;stroke-dasharray:none;stroke-opacity:1"
         id="rect19118"
         width="148.71017"
         height="0.22472538"
         x="-443.02814"
         y="269.39166"
         transform="matrix(-0.83001564,-0.55774012,-0.590542,0.8070069,0,0)" />
      <rect
         y="370.86771"
         x="-49.285717"
         height="22.274727"
         width="151.42857"
         id="rect19095"
         style="opacity:1;fill:#0a0a0a;fill-opacity:1;stroke:none;stroke-width:10;stroke-linecap:butt;stroke-miterlimit:4;stroke-dasharray:none;stroke-opacity:1" />
      <rect
         style="opacity:1;fill:#999999;fill-opacity:1;stroke:none;stroke-width:10;stroke-linecap:butt;stroke-miterlimit:4;stroke-dasharray:none;stroke-opacity:1"
         id="rect19097"
         width="151.42857"
         height="22.274727"
         x="-49.285717"
         y="393.14243" />
      <g
         transform="translate(317.91177,3.57129)"
         id="g19108">
        <circle
           r="70"
           cy="523.79077"
           cx="-135.71428"
           id="circle19110"
           style="opacity:1;fill:#2b0000;fill-opacity:1;stroke:none;stroke-width:10;stroke-linecap:butt;stroke-miterlimit:4;stroke-dasharray:none;stroke-opacity:1" />
        <circle
           style="opacity:1;fill:#000000;fill-opacity:1;stroke:none;stroke-width:10;stroke-linecap:butt;stroke-miterlimit:4;stroke-dasharray:none;stroke-opacity:1"
           id="circle19112"
           cx="-135.71428"
           cy="523.79077"
           r="25" />
        <path
           inkscape:connector-curvature="0"
           id="path19114"
           d="M -132.25195,392.8418 A 129.29953,129.29953 0 0 0 -261.55273,522.14062 129.29953,129.29953 0 0 0 -132.25195,651.43945 129.29953,129.29953 0 0 0 -2.953125,522.14062 129.29953,129.29953 0 0 0 -132.25195,392.8418 Z m -83.58789,57.04297 c 6.6056,0.0319 14.13211,2.08954 22.07422,6.875 l 53.22851,32.07226 -26.54297,44.05078 -53.22656,-32.07226 c -33.16615,-19.98399 -21.44748,-51.0508 4.4668,-50.92578 z m 163.023434,3.6914 c 27.008938,-0.51484 38.813531,31.78332 4.353515,51.05078 l -54.240229,30.32617 -25.09961,-44.88867 54.24023,-30.32617 c 7.470694,-4.17705 14.513262,-6.0433 20.746094,-6.16211 z m -83.007814,50.70703 a 17.857143,17.857143 0 0 1 17.85742,17.85742 17.857143,17.857143 0 0 1 -17.85742,17.85743 17.857143,17.857143 0 0 1 -17.85742,-17.85743 17.857143,17.857143 0 0 1 17.85742,-17.85742 z m 25.38477,42.50196 0.55859,62.14062 c 0.43608,48.58972 -51.01611,46.10789 -51.42578,0.46094 l -0.55859,-62.14063 51.42578,-0.46093 z"
           style="opacity:1;fill:#b3b3b3;fill-opacity:0.26633169;stroke:none;stroke-width:10;stroke-linecap:butt;stroke-miterlimit:4;stroke-dasharray:none;stroke-opacity:1" />
      </g>
      <rect
         y="325.11551"
         x="-63.462833"
         height="26.150324"
         width="2.8284271"
         id="rect19271"
         style="opacity:0.508;fill:#000000;fill-opacity:1;stroke:none;stroke-width:10;stroke-linecap:butt;stroke-miterlimit:4;stroke-dasharray:none;stroke-opacity:1" />
      <rect
         style="opacity:0.50800003;fill:#000000;fill-opacity:1;stroke:none;stroke-width:10;stroke-linecap:butt;stroke-miterlimit:4;stroke-dasharray:none;stroke-opacity:1"
         id="rect19273"
         width="2.8284271"
         height="25.995644"
         x="113.13708"
         y="325.11551" />
      <rect
         transform="matrix(0,-1,1,0,0,0)"
         y="-60.649548"
         x="-351.11877"
         height="173.75887"
         width="2.8284271"
         id="rect19275"
         style="opacity:0.50800003;fill:#000000;fill-opacity:1;stroke:none;stroke-width:10;stroke-linecap:butt;stroke-miterlimit:4;stroke-dasharray:none;stroke-opacity:1" />
      <path
         style="opacity:1;fill:#000000;fill-opacity:1;stroke:none;stroke-width:10;stroke-linecap:butt;stroke-miterlimit:4;stroke-dasharray:none;stroke-opacity:1"
         d="m -3.9338773,638.46458 13.5316564,13.53165 -27.0633131,0 z"
         id="path19438"
         inkscape:connector-curvature="0"
         sodipodi:nodetypes="cccc" />
      <circle
         r="20.194798"
         cy="648.97186"
         cx="27.005859"
         id="path19277"
         style="opacity:1;fill:#808080;fill-opacity:1;stroke:none;stroke-width:10;stroke-linecap:butt;stroke-miterlimit:4;stroke-dasharray:none;stroke-opacity:1" />
      <path
         inkscape:connector-curvature="0"
         id="path19427"
         d="M 27.021373,615.31391 A 39.581327,25.710234 0 0 0 -12.0209,636.85454 l 16.4200326,0 A 23.534842,15.287166 0 0 1 27.021373,625.73682 23.534842,15.287166 0 0 1 49.65691,636.85454 l 16.375707,0 A 39.581327,25.710234 0 0 0 27.021373,615.31391 Z"
         style="opacity:1;fill:#2b0000;fill-opacity:1;stroke:none;stroke-width:10;stroke-linecap:butt;stroke-miterlimit:4;stroke-dasharray:none;stroke-opacity:1" />
      <path
         sodipodi:nodetypes="sssss"
         inkscape:connector-curvature="0"
         id="path19284"
         d="m 24.21788,651.64371 c 0,25.77738 5.418463,12.66679 3.490637,12.66679 -1.927825,0 -10.471911,13.11059 -10.471911,-12.66679 0,-25.7774 2.356138,-18.50738 4.283964,-18.50738 1.927825,0 2.69731,-7.27002 2.69731,18.50738 z"
         style="opacity:0.23000004;fill:#000000;fill-opacity:1;stroke:none;stroke-width:10;stroke-linecap:butt;stroke-miterlimit:4;stroke-dasharray:none;stroke-opacity:1" />
      <rect
         y="620.69916"
         x="22.9669"
         height="46.672424"
         width="8.077919"
         id="rect19279"
         style="opacity:1;fill:#333333;fill-opacity:1;stroke:none;stroke-width:10;stroke-linecap:butt;stroke-miterlimit:4;stroke-dasharray:none;stroke-opacity:1" />
      <path
         sodipodi:nodetypes="cccc"
         inkscape:connector-curvature="0"
         id="rect19281"
         d="m 27.005859,621.48739 2.742415,2.74241 -5.48483,0 z"
         style="opacity:1;fill:#000000;fill-opacity:1;stroke:none;stroke-width:10;stroke-linecap:butt;stroke-miterlimit:4;stroke-dasharray:none;stroke-opacity:1" />
      <path
         style="opacity:1;fill:#000000;fill-opacity:1;stroke:none;stroke-width:10;stroke-linecap:butt;stroke-miterlimit:4;stroke-dasharray:none;stroke-opacity:1"
         d="m 335.37109,679.34634 c -15.8577,2.45678 -41.38735,24.67687 -37.05046,39.77475 l 37.05046,0 z"
         id="path19421"
         inkscape:connector-curvature="0"
         sodipodi:nodetypes="cccc" />
      <path
         sodipodi:nodetypes="cccc"
         inkscape:connector-curvature="0"
         id="path19423"
         d="m 335.37109,364.93491 c -15.8577,-2.45678 -41.38735,-24.67687 -37.05046,-39.77475 l 37.05046,0 z"
         style="opacity:1;fill:#000000;fill-opacity:1;stroke:none;stroke-width:10;stroke-linecap:butt;stroke-miterlimit:4;stroke-dasharray:none;stroke-opacity:1" />
      <path
         style="opacity:1;fill:#000000;fill-opacity:1;stroke:none;stroke-width:10;stroke-linecap:butt;stroke-miterlimit:4;stroke-dasharray:none;stroke-opacity:1"
         d="m -282.8418,364.93491 c 15.8577,-2.45678 41.38735,-24.67687 37.05046,-39.77475 l -37.05046,0 z"
         id="path19425"
         inkscape:connector-curvature="0"
         sodipodi:nodetypes="cccc" />
    </g>
  </g>
</svg>
