<?xml version="1.0" encoding="UTF-8" standalone="no"?>
<!-- Created with Inkscape (http://www.inkscape.org/) -->
<svg xmlns:dc="http://purl.org/dc/elements/1.1/" xmlns:cc="http://creativecommons.org/ns#" xmlns:rdf="http://www.w3.org/1999/02/22-rdf-syntax-ns#" xmlns:svg="http://www.w3.org/2000/svg" xmlns="http://www.w3.org/2000/svg" xmlns:xlink="http://www.w3.org/1999/xlink" xmlns:sodipodi="http://sodipodi.sourceforge.net/DTD/sodipodi-0.dtd" xmlns:inkscape="http://www.inkscape.org/namespaces/inkscape" width="1455" height="1311" id="svg2" version="1.1" inkscape:version="0.48.4 r9939" sodipodi:docname="Rysunek-2.svg.2013_05_22_16_52_45.0.svg" inkscape:export-filename="/home/sobkas/Obrazy/Rysunek-34.png" inkscape:export-xdpi="100" inkscape:export-ydpi="100">
  <defs id="defs4">
    <linearGradient inkscape:collect="always" id="linearGradient4231">
      <stop style="stop-color:#ff7070;stop-opacity:1" offset="0" id="stop4233"/>
      <stop style="stop-color:#ff0000;stop-opacity:1" offset="1" id="stop4235"/>
    </linearGradient>
    <linearGradient inkscape:collect="always" id="linearGradient4221">
      <stop style="stop-color:#000000;stop-opacity:1;" offset="0" id="stop4223"/>
      <stop style="stop-color:#ffffff;stop-opacity:1" offset="1" id="stop4225"/>
    </linearGradient>
    <linearGradient id="linearGradient4194" inkscape:collect="always">
      <stop id="stop4196" offset="0" style="stop-color:#e16147;stop-opacity:1"/>
      <stop id="stop4198" offset="1" style="stop-color:#a90000;stop-opacity:1"/>
    </linearGradient>
    <linearGradient inkscape:collect="always" id="linearGradient4152">
      <stop style="stop-color:#990000;stop-opacity:1" offset="0" id="stop4154"/>
      <stop style="stop-color:#ff2d2d;stop-opacity:1" offset="1" id="stop4156"/>
    </linearGradient>
    <linearGradient id="linearGradient4084">
      <stop style="stop-color:#000000;stop-opacity:1" offset="0" id="stop4086"/>
      <stop style="stop-color:#ffffff;stop-opacity:0" offset="1" id="stop4092"/>
    </linearGradient>
    <linearGradient inkscape:collect="always" id="linearGradient4060">
      <stop style="stop-color:#333333;stop-opacity:1;" offset="0" id="stop4062"/>
      <stop style="stop-color:#666666;stop-opacity:1" offset="1" id="stop4064"/>
    </linearGradient>
    <linearGradient inkscape:collect="always" id="linearGradient4034">
      <stop style="stop-color:#333333;stop-opacity:1;" offset="0" id="stop4036"/>
      <stop style="stop-color:#666666;stop-opacity:1" offset="1" id="stop4038"/>
    </linearGradient>
    <linearGradient id="linearGradient4020" inkscape:collect="always">
      <stop id="stop4022" offset="0" style="stop-color:#d4aa00;stop-opacity:1"/>
      <stop id="stop4024" offset="1" style="stop-color:#ae8c00;stop-opacity:1"/>
    </linearGradient>
    <linearGradient id="linearGradient4010" inkscape:collect="always">
      <stop id="stop4012" offset="0" style="stop-color:#baba00;stop-opacity:1"/>
      <stop id="stop4014" offset="1" style="stop-color:#ffffff;stop-opacity:1"/>
    </linearGradient>
    <linearGradient inkscape:collect="always" id="linearGradient3992">
      <stop style="stop-color:#ffcc00;stop-opacity:1;" offset="0" id="stop3994"/>
      <stop style="stop-color:#333333;stop-opacity:1" offset="1" id="stop3996"/>
    </linearGradient>
    <linearGradient inkscape:collect="always" id="linearGradient3946">
      <stop style="stop-color:#27a3b9;stop-opacity:1" offset="0" id="stop3948"/>
      <stop style="stop-color:#ffffff;stop-opacity:1" offset="1" id="stop3950"/>
    </linearGradient>
    <linearGradient inkscape:collect="always" id="linearGradient3938">
      <stop style="stop-color:#333333;stop-opacity:1;" offset="0" id="stop3940"/>
      <stop style="stop-color:#ffffff;stop-opacity:1" offset="1" id="stop3942"/>
    </linearGradient>
    <linearGradient inkscape:collect="always" id="linearGradient3930">
      <stop style="stop-color:#333333;stop-opacity:1;" offset="0" id="stop3932"/>
      <stop style="stop-color:#ffffff;stop-opacity:1" offset="1" id="stop3934"/>
    </linearGradient>
    <linearGradient inkscape:collect="always" id="linearGradient3922">
      <stop style="stop-color:#ff0000;stop-opacity:1;" offset="0" id="stop3924"/>
      <stop style="stop-color:#ffffff;stop-opacity:1" offset="1" id="stop3926"/>
    </linearGradient>
    <linearGradient inkscape:collect="always" id="linearGradient3914">
      <stop style="stop-color:#ff0000;stop-opacity:1;" offset="0" id="stop3916"/>
      <stop style="stop-color:#ffffff;stop-opacity:1" offset="1" id="stop3918"/>
    </linearGradient>
    <linearGradient inkscape:collect="always" id="linearGradient3882">
      <stop style="stop-color:#000000;stop-opacity:1;" offset="0" id="stop3884"/>
      <stop style="stop-color:#ffffff;stop-opacity:1" offset="1" id="stop3886"/>
    </linearGradient>
    <linearGradient inkscape:collect="always" id="linearGradient3905">
      <stop style="stop-color:#6d4b17;stop-opacity:0" offset="0" id="stop3907"/>
      <stop style="stop-color:#6d4b17;stop-opacity:0;" offset="1" id="stop3909"/>
    </linearGradient>
    <filter inkscape:collect="always" id="filter3873" color-interpolation-filters="sRGB">
      <feGaussianBlur inkscape:collect="always" stdDeviation="1.174053" id="feGaussianBlur3875"/>
    </filter>
    <filter inkscape:collect="always" id="filter3897" color-interpolation-filters="sRGB">
      <feGaussianBlur inkscape:collect="always" stdDeviation="1.2056564" id="feGaussianBlur3899"/>
    </filter>
    <linearGradient inkscape:collect="always" xlink:href="#linearGradient3905" id="linearGradient3875" gradientUnits="userSpaceOnUse" gradientTransform="translate(-2170.9903,28.368382)" x1="626.75372" y1="731.68219" x2="652.24054" y2="920.2536"/>
    <linearGradient inkscape:collect="always" xlink:href="#linearGradient3882" id="linearGradient3888" x1="-181.42859" y1="-29.066393" x2="428.57144" y2="213.79076" gradientUnits="userSpaceOnUse" gradientTransform="matrix(0.98920587,0,0,0.96348793,564.72158,-161.51079)"/>
    <linearGradient inkscape:collect="always" xlink:href="#linearGradient3882" id="linearGradient3896" x1="-181.42859" y1="-29.066393" x2="428.57144" y2="213.79076" gradientUnits="userSpaceOnUse" gradientTransform="matrix(0.98920587,0,0,0.96348793,564.72158,-161.51079)"/>
    <linearGradient inkscape:collect="always" xlink:href="#linearGradient3882" id="linearGradient3904" x1="-134.7606" y1="-21.095669" x2="410.46735" y2="76.155937" gradientUnits="userSpaceOnUse" gradientTransform="matrix(0.98920587,0,0,0.96348793,564.72158,-161.51079)"/>
    <linearGradient inkscape:collect="always" xlink:href="#linearGradient3914" id="linearGradient3920" x1="-65.714287" y1="175.21931" x2="382.85715" y2="33.790752" gradientUnits="userSpaceOnUse" gradientTransform="matrix(0.98920587,0,0,0.96348793,564.72158,-161.51079)"/>
    <linearGradient inkscape:collect="always" xlink:href="#linearGradient3922" id="linearGradient3928" x1="-65.714287" y1="175.21931" x2="382.85715" y2="33.790752" gradientUnits="userSpaceOnUse" gradientTransform="matrix(0.98920587,0,0,0.96348793,564.72158,-161.51079)"/>
    <linearGradient inkscape:collect="always" xlink:href="#linearGradient4084" id="linearGradient4072" gradientUnits="userSpaceOnUse" gradientTransform="matrix(1.0665537,0,0,0.97638652,571.49874,-172.88109)" x1="-272.63361" y1="741.51031" x2="243.57155" y2="631.19318"/>
    <filter inkscape:collect="always" id="filter4140" x="-0.43029484" width="1.8605897" y="-0.53287065" height="2.0657413" color-interpolation-filters="sRGB">
      <feGaussianBlur inkscape:collect="always" stdDeviation="23.493265" id="feGaussianBlur4142"/>
    </filter>
    <radialGradient inkscape:collect="always" xlink:href="#linearGradient4194" id="radialGradient4178" gradientUnits="userSpaceOnUse" gradientTransform="matrix(1.762995,-0.91284441,0.34498837,0.66628294,472.40682,-253.44025)" cx="-723.68115" cy="272.40955" fx="-723.68115" fy="272.40955" r="28.239592"/>
    <linearGradient inkscape:collect="always" xlink:href="#linearGradient4221" id="linearGradient4227" x1="-705.08649" y1="647.79608" x2="-652.55853" y2="642.7453" gradientUnits="userSpaceOnUse"/>
    <radialGradient inkscape:collect="always" xlink:href="#linearGradient4231" id="radialGradient4237" cx="-715.18787" cy="748.81134" fx="-715.18787" fy="748.81134" r="39.911465" gradientTransform="matrix(1.9566185,-0.14481486,0.13194363,0.57727548,585.36107,212.97109)" gradientUnits="userSpaceOnUse"/>
    <radialGradient inkscape:collect="always" xlink:href="#linearGradient4231" id="radialGradient4253" gradientUnits="userSpaceOnUse" gradientTransform="matrix(1.9566185,-0.14481486,0.13194363,0.57727548,585.36107,212.97109)" cx="-715.18787" cy="748.81134" fx="-715.18787" fy="748.81134" r="39.911465"/>
    <linearGradient inkscape:collect="always" xlink:href="#linearGradient4221" id="linearGradient4255" gradientUnits="userSpaceOnUse" x1="-705.08649" y1="647.79608" x2="-652.55853" y2="642.7453"/>
    <radialGradient inkscape:collect="always" xlink:href="#linearGradient4194" id="radialGradient4257" gradientUnits="userSpaceOnUse" gradientTransform="matrix(1.762995,-0.91284441,0.34498837,0.66628294,472.40682,-253.44025)" cx="-723.68115" cy="272.40955" fx="-723.68115" fy="272.40955" r="28.239592"/>
    <radialGradient inkscape:collect="always" xlink:href="#linearGradient4194" id="radialGradient4260" gradientUnits="userSpaceOnUse" gradientTransform="matrix(1.3428899,-1.014376,0.3982023,0.45456552,775.89809,-299.01338)" cx="-723.68115" cy="272.40955" fx="-723.68115" fy="272.40955" r="28.239592"/>
    <linearGradient inkscape:collect="always" xlink:href="#linearGradient4221" id="linearGradient4263" gradientUnits="userSpaceOnUse" x1="-705.08649" y1="647.79608" x2="-652.55853" y2="642.7453" gradientTransform="matrix(0.84469868,-0.17515999,0.16027888,0.77293542,417.47779,-20.373663)"/>
    <radialGradient inkscape:collect="always" xlink:href="#linearGradient4152" id="radialGradient3202" gradientUnits="userSpaceOnUse" gradientTransform="matrix(-0.91298101,0.96086297,-0.79456144,-0.62786558,-1581.9641,2319.5767)" cx="-1139.4519" cy="752.34686" fx="-1139.4519" fy="752.34686" r="66.687508"/>
    <radialGradient inkscape:collect="always" xlink:href="#linearGradient4152" id="radialGradient3204" gradientUnits="userSpaceOnUse" gradientTransform="matrix(-0.91298101,0.96086297,-0.79456144,-0.62786558,-1581.9641,2319.5767)" cx="-1139.4519" cy="752.34686" fx="-1139.4519" fy="752.34686" r="66.687508"/>
    <linearGradient inkscape:collect="always" xlink:href="#linearGradient3946" id="linearGradient3987" gradientUnits="userSpaceOnUse" x1="-120" y1="499.50504" x2="271.62589" y2="43.593426" gradientTransform="matrix(0.98920587,0,0,0.96348793,563.72233,-156.64444)"/>
    <linearGradient inkscape:collect="always" xlink:href="#linearGradient3946" id="linearGradient3989" gradientUnits="userSpaceOnUse" x1="-120" y1="499.50504" x2="439.61548" y2="138.93225" gradientTransform="matrix(0.98920587,0,0,0.96348793,563.72233,-156.64444)"/>
    <radialGradient inkscape:collect="always" xlink:href="#linearGradient4231" id="radialGradient4014" gradientUnits="userSpaceOnUse" gradientTransform="matrix(1.9566185,-0.14481486,0.13194363,0.57727548,585.36107,212.97109)" cx="-715.18787" cy="748.81134" fx="-715.18787" fy="748.81134" r="39.911465"/>
    <radialGradient inkscape:collect="always" xlink:href="#linearGradient4194" id="radialGradient4021" gradientUnits="userSpaceOnUse" gradientTransform="matrix(1.3428899,-1.014376,0.3982023,0.45456552,1116.2687,-243.50576)" cx="-723.68115" cy="272.40955" fx="-723.68115" fy="272.40955" r="28.239592"/>
    <linearGradient inkscape:collect="always" xlink:href="#linearGradient4221" id="linearGradient4024" gradientUnits="userSpaceOnUse" gradientTransform="matrix(0.84469868,-0.17515999,0.16027888,0.77293542,757.84842,35.133958)" x1="-705.08649" y1="647.79608" x2="-652.55853" y2="642.7453"/>
    <filter inkscape:collect="always" id="filter4045" color-interpolation-filters="sRGB">
      <feGaussianBlur inkscape:collect="always" stdDeviation="1.0974815" id="feGaussianBlur4047"/>
    </filter>
    <linearGradient inkscape:collect="always" xlink:href="#linearGradient3992" id="linearGradient4149" gradientUnits="userSpaceOnUse" gradientTransform="translate(517.1981,-46.467017)" x1="101.01525" y1="468.49402" x2="46.467018" y2="310.91022"/>
    <linearGradient inkscape:collect="always" xlink:href="#linearGradient3992" id="linearGradient4151" gradientUnits="userSpaceOnUse" gradientTransform="translate(517.1981,-46.467017)" x1="101.01525" y1="468.49402" x2="46.467018" y2="310.91022"/>
    <linearGradient inkscape:collect="always" xlink:href="#linearGradient4020" id="linearGradient4153" gradientUnits="userSpaceOnUse" gradientTransform="translate(517.1981,-46.467017)" x1="25.714285" y1="962.36218" x2="211.42857" y2="975.2193"/>
    <linearGradient inkscape:collect="always" xlink:href="#linearGradient4020" id="linearGradient4155" gradientUnits="userSpaceOnUse" gradientTransform="translate(517.1981,-46.467017)" x1="25.714285" y1="962.36218" x2="211.42857" y2="975.2193"/>
    <linearGradient inkscape:collect="always" xlink:href="#linearGradient4010" id="linearGradient4157" gradientUnits="userSpaceOnUse" gradientTransform="translate(517.1981,-46.467017)" x1="2.8571389" y1="412.36218" x2="191.42859" y2="206.6479"/>
    <linearGradient inkscape:collect="always" xlink:href="#linearGradient4010" id="linearGradient4159" gradientUnits="userSpaceOnUse" gradientTransform="translate(517.1981,-46.467017)" x1="2.8571389" y1="412.36218" x2="191.42859" y2="206.6479"/>
    <linearGradient inkscape:collect="always" xlink:href="#linearGradient4034" id="linearGradient4161" gradientUnits="userSpaceOnUse" x1="301.92856" y1="671.04846" x2="-767.86304" y2="889.21558"/>
    <linearGradient inkscape:collect="always" xlink:href="#linearGradient4034" id="linearGradient4163" gradientUnits="userSpaceOnUse" x1="301.92856" y1="671.04846" x2="-767.86304" y2="889.21558"/>
    <linearGradient inkscape:collect="always" xlink:href="#linearGradient4060" id="linearGradient4165" gradientUnits="userSpaceOnUse" gradientTransform="matrix(0.97127594,-0.23795599,0.23795599,0.97127594,301.13836,148.96321)" x1="665.19714" y1="1133.4716" x2="867.10468" y2="1314.2701"/>
    <linearGradient inkscape:collect="always" xlink:href="#linearGradient3930" id="linearGradient4167" gradientUnits="userSpaceOnUse" gradientTransform="translate(517.1981,-46.467017)" x1="470.73108" y1="624.0575" x2="1464.7212" y2="-264.87674"/>
    <linearGradient inkscape:collect="always" xlink:href="#linearGradient3938" id="linearGradient4169" gradientUnits="userSpaceOnUse" gradientTransform="translate(517.1981,-46.467017)" x1="470.73108" y1="624.0575" x2="1464.7212" y2="-264.87674"/>
    <linearGradient inkscape:collect="always" xlink:href="#linearGradient4034" id="linearGradient4171" gradientUnits="userSpaceOnUse" x1="224.71704" y1="675.28821" x2="-575.19006" y2="1283.6987"/>
    <linearGradient inkscape:collect="always" xlink:href="#linearGradient4034" id="linearGradient4173" gradientUnits="userSpaceOnUse" x1="224.71704" y1="675.28821" x2="-575.19006" y2="1283.6987"/>
    <filter inkscape:collect="always" id="filter4196" x="-0.46724007" width="1.9344802" y="-0.22927144" height="1.4585429" color-interpolation-filters="sRGB">
      <feGaussianBlur inkscape:collect="always" stdDeviation="92.811924" id="feGaussianBlur4198"/>
    </filter>
  </defs>
  <sodipodi:namedview id="base" pagecolor="#ffffff" bordercolor="#666666" borderopacity="1.0" inkscape:pageopacity="0.0" inkscape:pageshadow="2" inkscape:zoom="0.72242778" inkscape:cx="549.52896" inkscape:cy="778.8822" inkscape:document-units="px" inkscape:current-layer="layer1" showgrid="false" inkscape:window-width="1678" inkscape:window-height="985" inkscape:window-x="0" inkscape:window-y="27" inkscape:window-maximized="1" showguides="true" inkscape:guide-bbox="true"/>
  <metadata id="metadata7">
    <rdf:RDF>
      <cc:Work rdf:about="">
        <dc:format>image/svg+xml</dc:format>
        <dc:type rdf:resource="http://purl.org/dc/dcmitype/StillImage"/>
        <dc:title/>
      </cc:Work>
    </rdf:RDF>
  </metadata>
  <g inkscape:label="Layer 1" inkscape:groupmode="layer" id="layer1" transform="translate(0,258.63782)">
    <path sodipodi:type="arc" style="opacity:0.8639053;fill:#a3eaec;fill-opacity:0.92447133;stroke:none;filter:url(#filter4196)" id="path4190" sodipodi:cx="-1487.1428" sodipodi:cy="1209.505" sodipodi:rx="241.42857" sodipodi:ry="457.14285" d="m -1710.7987,1037.3555 a 241.42857,457.14285 0 1 1 -0.5976,2.8102" sodipodi:start="3.5276912" sodipodi:end="9.8042497" sodipodi:open="true" transform="matrix(0.93415386,0.35828835,-0.06502452,1.0498007,2172.1245,-445.1952)"/>
    <path style="fill:none;stroke:#000000;stroke-width:16.07610893;stroke-linecap:round;stroke-linejoin:round;stroke-miterlimit:4;stroke-opacity:1;stroke-dasharray:none" d="M 633.0309,-13.335249 381.66142,133.53761 379.37025,458.08562 470.75057,533.42388 471.6892,826.33295 722.05942,663.85912 718.52654,394.7707 633.0309,319.75628 z" id="rect3756" inkscape:connector-curvature="0" sodipodi:nodetypes="ccccccccc" inkscape:export-filename="/home/sobkas/Obrazy/Mascot_s.png" inkscape:export-xdpi="60" inkscape:export-ydpi="60"/>
    <path style="fill:none;stroke:#000000;stroke-width:16.07610893;stroke-linecap:butt;stroke-linejoin:miter;stroke-miterlimit:4;stroke-opacity:1;stroke-dasharray:none" d="M 65.973988,-126.68193 83.960471,618.84272 471.66902,825.1759" id="path3765" inkscape:connector-curvature="0" inkscape:export-filename="/home/sobkas/Obrazy/Mascot_s.png" inkscape:export-xdpi="60" inkscape:export-ydpi="60"/>
    <path style="fill:#ffffff;fill-opacity:1;stroke:#000000;stroke-width:9.76262188;stroke-linecap:round;stroke-linejoin:round;stroke-miterlimit:4;stroke-opacity:1;stroke-dasharray:none" d="M 696.61604,-125.32246 437.66396,0.88686387 383.11427,131.23455 636.13117,-10.695842 z" id="rect3759" inkscape:connector-curvature="0" sodipodi:nodetypes="ccccc" inkscape:export-filename="/home/sobkas/Obrazy/Mascot_s.png" inkscape:export-xdpi="60" inkscape:export-ydpi="60"/>
    <text xml:space="preserve" style="font-size:144px;font-style:normal;font-variant:normal;font-weight:normal;font-stretch:normal;line-height:125%;letter-spacing:0px;word-spacing:0px;fill:none;stroke:#000000;stroke-width:1px;stroke-linecap:butt;stroke-linejoin:miter;stroke-opacity:1;font-family:MgOpen Modata;-inkscape-font-specification:MgOpen Modata" x="37.142857" y="1298.0765" id="text3909" sodipodi:linespacing="125%"><tspan sodipodi:role="line" id="tspan3911" x="37.142857" y="1298.0765"/></text>
    <path style="fill:#000000;fill-opacity:1;stroke:#000000;stroke-width:18.40003204;stroke-linecap:round;stroke-linejoin:round;stroke-miterlimit:4;stroke-opacity:1;stroke-dasharray:none" d="M 276.91525,711.37391 93.053459,613.37296 92.605903,602.02184 C 90.659868,552.66512 76.270593,-113.85123 77.088874,-114.64822 78.055733,-115.58995 425.9828,1.3427569 430.89562,4.2262549 433.28822,5.6305479 387.12805,121.1695 381.5942,127.24419 c -2.91485,3.19971 -3.34407,19.96228 -4.27789,167.06588 -0.57087,89.93013 -6.45739,165.44113 -5.75332,167.20746 0.70408,1.76631 21.2901,19.67338 45.74671,39.79347 l 44.46658,36.582 0,135.88171 c 0,74.73494 -0.22484,135.81831 -0.49963,135.74095 -0.27479,-0.0771 -83.23743,-44.24126 -184.3614,-98.14175 z" id="path3821" inkscape:connector-curvature="0" sodipodi:nodetypes="scssssssscscs"/>
    <path style="fill:#27a3b9;fill-opacity:1" d="m 197.44593,300.07385 c -0.14442,-5.1963 4.80977,-9.94773 8.39815,-8.05427 0.91245,0.4815 3.00312,4.52845 4.64589,8.99323 1.64285,4.46477 3.96096,8.22029 5.15151,8.34556 1.25279,0.13183 1.25816,-2.23595 0.0126,-5.62073 -1.67749,-4.55918 -1.20942,-7.10525 2.1233,-11.54933 3.60376,-4.80559 5.87003,-5.99156 14.43094,-7.55188 8.58084,-1.56397 11.35543,-1.29988 17.8903,1.70265 6.40255,2.94186 8.16235,4.71697 10.21999,10.30936 1.98643,5.39855 1.73154,7.71678 -1.26884,11.54038 -3.46341,4.41363 -5.32311,5.07066 -23.97645,8.47044 -18.36714,3.34765 -20.7663,3.43147 -26.15897,0.91379 -6.92847,-3.23467 -11.25548,-9.83717 -11.46843,-17.4992 z m 42.14547,4.62812 c 8.37447,-1.52635 9.20909,-2.07976 8.50288,-5.63827 -0.90483,-4.55946 -4.67316,-6.13012 -11.71682,-4.88354 -8.32703,1.47368 -10.49488,3.62096 -8.18546,8.10785 1.96625,3.82021 2.76076,3.98848 11.3994,2.41396 z M 105.71358,21.638062 c 3.7144,-0.677043 4.93824,-0.04394 6.11955,3.166878 1.18131,3.210506 0.54807,4.182367 -3.16636,4.859342 -3.71432,0.676928 -4.93823,0.04394 -6.11953,-3.166869 -1.1812,-3.210525 -0.54798,-4.182366 3.16634,-4.859351 z m 3.54391,9.631468 c 3.71431,-0.676918 4.93822,-0.04393 6.11954,3.166889 1.1812,3.210486 0.54798,4.182337 -3.16635,4.859341 -3.7144,0.676937 -4.93822,0.04393 -6.11952,-3.166888 -1.18132,-3.210486 -0.5481,-4.182328 3.16633,-4.859342 z m 7.0877,19.262947 c 3.71432,-0.677053 4.93824,-0.04394 6.11955,3.166859 1.1812,3.210496 0.54797,4.182367 -3.16634,4.859333 -3.71441,0.677071 -4.93822,0.04393 -6.11953,-3.16687 -1.18129,-3.210476 -0.54808,-4.182356 3.16632,-4.859322 z m 3.54381,9.631459 c 3.71431,-0.677024 4.93822,-0.04393 6.11954,3.166869 1.1813,3.210477 0.54807,4.182357 -3.16633,4.859351 -3.71432,0.676908 -4.93821,0.04393 -6.11954,-3.166898 -1.1813,-3.210467 -0.54797,-4.182347 3.16633,-4.859322 z M 321.88865,609.15729 c 3.71434,-0.67655 4.93824,-0.0439 6.11953,3.1669 1.18132,3.21054 0.54799,4.18233 -3.16633,4.85936 -3.71434,0.67656 -4.93822,0.044 -6.11954,-3.16688 -1.1813,-3.21043 -0.54799,-4.18234 3.16634,-4.85938 z m 3.5438,9.63155 c 3.71445,-0.67659 4.93823,-0.044 6.11955,3.1669 1.18131,3.21041 0.54808,4.18232 -3.16636,4.85926 -3.71433,0.67654 -4.93821,0.0439 -6.11944,-3.16691 -1.18129,-3.21044 -0.54806,-4.18233 3.16625,-4.85925 z m 28.35085,77.05163 c 3.71434,-0.67657 4.93823,-0.0439 6.11954,3.16687 1.1813,3.21054 0.54808,4.18245 -3.16634,4.85938 -3.71435,0.67658 -4.93821,0.044 -6.11955,-3.16688 -1.1813,-3.21044 -0.54797,-4.18234 3.16635,-4.85937 z m 3.54392,9.63154 c 3.71433,-0.67658 4.9382,-0.044 6.11952,3.16686 1.18121,3.21046 0.54799,4.18236 -3.16635,4.85926 -3.71443,0.67659 -4.93819,0.0439 -6.11951,-3.16687 -1.18131,-3.21044 -0.5481,-4.18233 3.16634,-4.85925 z M 148.46555,125.18421 c -0.25542,-6.86371 8.30739,-11.78574 26.17388,-15.04519 21.78244,-3.97387 33.70464,-0.83109 37.63121,9.91993 1.46053,3.99882 -2.09682,14.43295 -5.10774,14.98172 -4.71509,0.85941 -9.46551,-3.27707 -8.24335,-7.17786 1.51678,-4.84098 -0.55914,-9.5011 -4.46391,-10.02111 -4.16501,-0.55466 -24.99323,3.23837 -29.84449,5.43486 -2.098,0.94997 -3.41183,3.36733 -3.0858,5.67774 0.51311,3.63642 1.19812,3.90862 7.11983,2.8293 3.60367,-0.65684 5.82725,-1.56926 4.94138,-2.0277 -2.45167,-1.26873 0.5101,-5.81746 4.22925,-6.49532 3.88733,-0.70852 6.68509,2.0941 9.36713,9.38337 2.34102,6.36237 0.61472,7.63918 -13.90579,10.2857 -7.84451,1.42976 -11.75842,1.34247 -14.65346,-0.32679 -4.78472,-2.75892 -9.94177,-11.6018 -10.15814,-17.41865 z m 16.31965,34.76977 c 1.09021,-10.01459 15.91113,-16.189 29.46541,-12.27531 13.36528,3.85913 17.86133,13.77215 10.4313,22.99949 -3.7615,4.67145 -5.35403,5.27827 -19.36323,7.37813 l -15.26463,2.2881 -2.91084,-7.65608 c -1.60087,-4.21085 -2.66206,-9.94128 -2.35801,-12.73431 z m 18.49232,7.85593 c 8.3296,0.26749 13.75384,-3.01394 12.15683,-7.35442 -1.68281,-4.57342 -8.99241,-5.37548 -15.34493,-1.6837 -5.57711,3.24122 -3.60941,8.81984 3.1881,9.03812 z m 4.05015,55.95907 c 0.61172,-2.44707 3.58646,-3.54778 15.41348,-5.70339 8.17714,-1.49039 14.91261,-3.50836 15.23714,-4.56507 1.04813,-3.41367 -5.24707,-5.62634 -13.32637,-4.68395 -7.0356,0.82069 -8.09386,0.47308 -9.4043,-3.08837 -1.33883,-3.63855 -0.63751,-4.24599 7.51397,-6.5082 7.49209,-2.07923 8.79356,-3.03013 7.80916,-5.70555 -1.06542,-2.89575 -2.75777,-3.00711 -17.26245,-1.13595 -15.63986,2.01763 -16.12185,1.96439 -17.55789,-1.93854 -1.45364,-3.95044 -1.21757,-4.06796 15.1151,-7.52454 14.63961,-3.09828 17.21865,-3.21007 21.92066,-0.95031 6.79298,3.26474 10.87985,9.1339 10.0998,14.50461 -0.43577,3.00044 0.47579,5.50724 3.18913,8.76615 4.37572,5.25647 4.45179,13.72073 0.15321,17.06121 -2.06239,1.60274 -24.0761,6.83335 -34.07857,8.09729 -3.14314,0.39712 -5.69961,-3.11539 -4.82206,-6.62539 z m 5.21449,14.56911 c 0.72315,-2.65432 3.66012,-3.66467 18.53225,-6.37528 22.52679,-4.10579 29.98233,-2.70766 25.14533,4.71552 -1.5257,2.34154 -6.04622,3.79372 -19.36796,6.22174 -13.32188,2.42808 -18.27569,2.70274 -21.22447,1.17676 -2.11557,-1.09483 -3.86856,-2.12424 -3.89555,-2.28754 -0.0273,-0.16325 0.33772,-1.71634 0.8104,-3.45115 z m 6.21737,14.738 c 1.35798,-1.65972 7.05907,-3.18422 17.31449,-4.62995 13.98614,-1.97169 15.81115,-1.84242 21.40338,1.51603 9.24805,5.55401 11.92762,16.65915 5.70112,23.62763 -1.3429,1.50295 -8.59275,3.6744 -18.26,5.46924 -13.2898,2.46745 -16.40453,2.55587 -18.20569,0.51693 -3.61126,-4.08803 -0.12711,-6.50017 14.55024,-10.07356 11.60265,-2.82479 13.92126,-3.92011 13.56746,-6.40914 -0.81699,-5.74817 -5.91037,-6.97671 -19.01905,-4.5875 -14.9424,2.72345 -21.90802,0.50622 -17.05194,-5.42965 z m 39.18783,107.59465 c 2.6994,-14.19916 30.56592,-18.64965 41.75186,-6.66809 6.08776,6.52075 6.65494,15.38929 1.30763,20.44612 -9.47218,8.9575 -29.25328,8.91188 -37.65454,-0.0868 -5.79917,-6.21162 -6.49283,-7.96875 -5.40495,-13.69117 z m 20.30886,10.10025 c 8.63693,1.12777 14.5173,-2.81652 12.4749,-8.36747 -1.27704,-3.47047 -2.93824,-4.66922 -7.01104,-5.05903 -8.05772,-0.77119 -14.34651,3.56587 -12.48934,8.61321 1.08568,2.95072 3.04587,4.29365 7.02548,4.81329 z m -9.11456,20.74698 c 0.92476,-1.4193 7.24684,-3.37618 16.14863,-4.99874 13.69243,-2.49556 15.08672,-2.42921 21.78393,1.03656 5.29728,2.74146 7.71549,5.22576 9.31316,9.56821 1.5978,4.34238 1.1969,7.34046 -1.54401,11.54696 -3.50905,5.38531 -4.52251,5.83126 -19.43231,8.54872 -12.81376,2.33541 -16.12314,2.42176 -17.85028,0.46685 -3.98451,-4.51059 -0.1196,-7.3116 14.47047,-10.4872 13.24155,-2.88212 14.01112,-3.28833 13.2735,-7.00535 -1.07676,-5.4259 -4.76111,-6.12077 -18.92595,-3.56956 -10.81327,1.94756 -17.25289,1.31391 -18.40263,-1.81085 -0.19492,-0.52975 0.3295,-2.01275 1.16549,-3.29568 z m 21.83911,56.25902 c 1.29296,-1.98422 8.02486,-3.80617 26.52004,-7.17709 13.63298,-2.48486 26.27054,-4.32035 28.08343,-4.0788 4.27289,0.56895 6.76083,7.33069 3.41742,9.28792 -1.41854,0.83037 -12.1216,3.24896 -23.78469,5.37479 -19.70571,3.59154 -21.12498,4.08393 -20.06645,6.96077 0.62651,1.70266 0.24364,4.47036 -0.85124,6.15029 -1.80929,2.77673 -0.53195,2.78866 14.0505,0.13082 20.91509,-3.81208 28.24523,-2.24924 23.51312,5.01296 -1.52571,2.3416 -6.04625,3.79374 -19.36809,6.22177 -13.32174,2.42807 -18.27562,2.70224 -21.22435,1.17666 -2.11555,-1.09477 -3.94154,-2.24862 -4.05757,-2.56389 -0.11551,-0.31534 0.68473,-1.94782 1.77941,-3.62772 1.80933,-2.77676 1.63288,-3.23939 -1.94021,-5.08842 -4.74687,-2.45656 -8.63558,-13.84489 -6.07132,-17.78011 z m 13.00875,38.45042 c 0.92476,-1.41931 7.24685,-3.37629 16.14862,-4.99874 13.69245,-2.49558 15.08673,-2.42922 21.78393,1.03655 9.62503,4.98094 12.68271,12.93414 7.98399,20.76664 -3.0119,5.02054 -4.8941,6.01033 -17.36935,9.13322 -11.15451,2.79215 -14.75545,3.1069 -17.75973,1.55222 -8.39104,-4.34236 -5.34281,-7.1476 12.5252,-11.52668 12.68127,-3.10795 13.57881,-3.61687 12.85044,-7.28713 -1.07675,-5.42592 -4.76113,-6.12076 -18.92589,-3.56959 -10.81334,1.94747 -17.25299,1.31383 -18.40271,-1.81082 -0.19493,-0.52975 0.32962,-2.01277 1.1655,-3.29567 z m 16.24057,45.32326 c 0.73924,-8.06093 6.88224,-12.19653 22.2874,-15.00434 10.51614,-1.91668 15.23875,-2.08711 17.57749,-0.63437 6.06359,3.7666 1.68437,7.39815 -11.95352,9.91295 -14.28769,2.63464 -17.03539,4.49081 -14.22937,9.61256 1.8588,3.39274 3.02295,3.57602 13.33168,2.09959 14.79543,-2.11918 19.40409,-1.97696 21.74281,0.67047 3.65084,4.13281 -1.32938,8.01469 -13.01445,10.14445 -14.98255,2.73082 -24.56474,1.02761 -30.60239,-5.43946 -5.39612,-5.77982 -5.60844,-6.24924 -5.13965,-11.36185 z m 10.81781,26.44062 c 2.34858,-2.87042 7.05504,-2.31152 17.90955,2.1271 l 6.23298,2.54877 5.21516,-6.32392 c 5.85859,-7.10422 10.3068,-8.68892 13.67787,-4.87291 1.61734,1.83083 0.87042,4.51356 -2.57619,9.25335 l -4.85394,6.67498 8.69385,4.10384 c 9.64714,4.55407 10.74505,5.91868 7.72808,9.60593 -1.69908,2.07663 -3.67474,1.97051 -11.20775,-0.60179 -5.02974,-1.71754 -9.83458,-3.67653 -10.67747,-4.35329 -0.8428,-0.67693 -4.20792,1.99161 -7.47794,5.93011 -6.85831,8.26014 -8.63704,8.94355 -13.02168,5.00308 -2.71435,-2.43943 -2.46539,-3.86084 1.67268,-9.54922 l 4.86189,-6.68302 -8.67685,-3.91131 c -9.71329,-4.37844 -10.48672,-5.30151 -7.50024,-8.9517 z M 106.22509,-9.2872991 c 3.7143,-0.677034 4.93823,-0.04393 6.11954,3.166907 1.18132,3.210467 0.54799,4.182338 -3.16633,4.859342 -3.71431,0.67690797 -4.93823,0.04394 -6.11956,-3.166898 -1.18129,-3.210477 -0.54807,-4.182357 3.16635,-4.859351 z m 7.08772,19.262947 c 3.71432,-0.676918 4.93822,-0.04393 6.11955,3.1668591 1.18119,3.210506 0.54797,4.182386 -3.16636,4.859351 -3.71439,0.677043 -4.93823,0.04394 -6.11953,-3.166878 -1.18129,-3.210467 -0.54806,-4.182338 3.16634,-4.8593321 z M 134.57595,67.76443 c 3.71432,-0.676909 4.93822,-0.04394 6.11943,3.166888 1.18131,3.210506 0.54808,4.182366 -3.16623,4.859332 -3.71442,0.676947 -4.93823,0.04393 -6.11953,-3.166869 -1.18133,-3.210496 -0.54809,-4.182366 3.16633,-4.859351 z m 7.0876,19.262946 c 3.71441,-0.677052 4.93833,-0.04394 6.11955,3.166879 1.1813,3.210467 0.54808,4.182357 -3.16622,4.859322 -3.71445,0.676937 -4.93834,0.04403 -6.11957,-3.166869 -1.1813,-3.210486 -0.54806,-4.182347 3.16624,-4.859332 z M 340.1194,626.38938 c 3.71434,-0.67657 4.93822,-0.0439 6.11952,3.16676 1.18131,3.21056 0.54799,4.18246 -3.16633,4.85937 -3.71434,0.67657 -4.9382,0.0439 -6.11953,-3.16689 -1.1813,-3.21042 -0.54809,-4.18231 3.16634,-4.85924 z m 3.54379,9.63143 c 3.71447,-0.67658 4.93822,-0.0439 6.11955,3.16688 1.18128,3.21045 0.54806,4.18233 -3.16634,4.85926 -3.71434,0.67655 -4.93822,0.0439 -6.11954,-3.16676 -1.18118,-3.21058 -0.54797,-4.18246 3.16633,-4.85938 z m 7.08774,19.26295 c 3.71443,-0.67657 4.93821,-0.0439 6.11953,3.16677 1.18128,3.21056 0.54807,4.18245 -3.16635,4.85939 -3.71434,0.67654 -4.93822,0.044 -6.11953,-3.16689 -1.18121,-3.21048 -0.54799,-4.18235 3.16635,-4.85927 z m 7.08769,19.26285 c 3.71433,-0.67656 4.93825,-0.0439 6.11954,3.16689 1.18131,3.21056 0.54808,4.18232 -3.16632,4.85936 -3.71436,0.67659 -4.93825,0.0439 -6.11955,-3.16688 -1.18132,-3.21053 -0.54797,-4.18234 3.16633,-4.85937 z m 3.54391,9.63154 c 3.71434,-0.67656 4.93822,-0.044 6.11955,3.16677 1.18119,3.21055 0.54797,4.18246 -3.16636,4.85938 -3.71444,0.67656 -4.9382,0.0439 -6.11953,-3.1669 -1.18128,-3.21043 -0.54805,-4.18232 3.16634,-4.85925 z M 117.36812,-11.318236 c 3.71432,-0.676917 4.93824,-0.04394 6.11957,3.1668889 1.18118,3.210486 0.54796,4.182357 -3.16637,4.859322 -3.7144,0.677063 -4.93822,0.04393 -6.11952,-3.166869 -1.18132,-3.210476 -0.54808,-4.1823469 3.16632,-4.8593419 z m 7.08774,19.2629279 c 3.7143,-0.677033 4.93822,-0.04393 6.11952,3.1668791 1.18121,3.210506 0.54799,4.182366 -3.16633,4.859351 -3.71441,0.676908 -4.93823,0.04393 -6.11955,-3.166869 -1.18132,-3.2105251 -0.54808,-4.1823561 3.16636,-4.8593611 z m 3.54379,9.6314591 c 3.71431,-0.676918 4.93824,-0.04394 6.11955,3.166888 1.1813,3.210486 0.54807,4.182357 -3.16635,4.859351 -3.71429,0.677034 -4.93824,0.04394 -6.11954,-3.166888 -1.18131,-3.210486 -0.54799,-4.182366 3.16634,-4.859351 z m 3.54391,9.631478 c 3.71432,-0.676908 4.93821,-0.04394 6.11957,3.166869 1.18117,3.210515 0.54794,4.182376 -3.16636,4.859361 -3.71441,0.677043 -4.93822,0.04393 -6.11955,-3.166888 -1.18131,-3.210477 -0.54808,-4.182357 3.16634,-4.859342 z m 3.5438,9.631468 c 3.7143,-0.677043 4.93823,-0.04393 6.11954,3.166879 1.18132,3.210506 0.548,4.182366 -3.16633,4.859342 -3.7143,0.676927 -4.93824,0.04394 -6.11956,-3.166879 -1.18129,-3.210477 -0.54797,-4.182356 3.16635,-4.859342 z m 3.54392,9.631459 c 3.71429,-0.677043 4.93822,-0.04393 6.11943,3.166898 1.1813,3.210477 0.54807,4.182347 -3.16622,4.859323 -3.71444,0.676937 -4.93825,0.04393 -6.11955,-3.166879 -1.18132,-3.210496 -0.54809,-4.182337 3.16634,-4.859342 z m 3.54377,9.631469 c 3.71435,-0.676918 4.93826,-0.04393 6.11958,3.166888 1.18131,3.210467 0.54796,4.182347 -3.16635,4.859332 -3.71431,0.677043 -4.93823,0.04393 -6.11955,-3.166859 -1.18129,-3.210525 -0.54796,-4.182395 3.16632,-4.859361 z m 3.54383,9.631478 c 3.71441,-0.676937 4.93833,-0.04393 6.11955,3.166869 1.1813,3.210496 0.54808,4.182347 -3.16622,4.859342 -3.71444,0.676927 -4.93835,0.04393 -6.11957,-3.166908 -1.1813,-3.210467 -0.54808,-4.182337 3.16624,-4.859303 z m 7.0877,19.262908 c 3.71443,-0.676927 4.93833,-0.04393 6.11956,3.166889 1.1813,3.210495 0.54806,4.182366 -3.16632,4.859341 -3.71433,0.677043 -4.93825,0.04394 -6.11946,-3.166888 -1.1813,-3.210486 -0.54808,-4.182357 3.16622,-4.859342 z M 354.80624,633.98981 c 3.71442,-0.6766 4.93822,-0.0439 6.11955,3.16687 1.18129,3.21055 0.54805,4.18232 -3.16635,4.85937 -3.71436,0.67659 -4.93823,0.044 -6.11952,-3.16688 -1.18123,-3.21044 -0.548,-4.18233 3.16632,-4.85936 z m 3.54392,9.6315 c 3.71433,-0.67655 4.9382,-0.0439 6.11952,3.16691 1.18121,3.21045 0.54799,4.18234 -3.16633,4.85926 -3.71446,0.67659 -4.93821,0.0439 -6.11955,-3.16689 -1.18129,-3.21043 -0.54807,-4.18233 3.16636,-4.85928 z m 7.08768,19.26288 c 3.71435,-0.67658 4.93825,-0.044 6.11955,3.16688 1.18123,3.21055 0.54797,4.18233 -3.16634,4.85936 -3.71445,0.67658 -4.93821,0.0439 -6.11953,-3.16687 -1.1813,-3.21045 -0.54808,-4.18232 3.16632,-4.85937 z m 3.54382,9.63153 c 3.71436,-0.67656 4.93821,-0.0439 6.11954,3.16688 1.1813,3.21046 0.54798,4.18236 -3.16635,4.85926 -3.71435,0.67657 -4.9382,0.0439 -6.11954,-3.16689 -1.18129,-3.21041 -0.54795,-4.18233 3.16635,-4.85925 z M 128.51118,-13.349181 c 3.7143,-0.676918 4.93823,-0.04393 6.11953,3.166878 1.18119,3.2104669 0.54798,4.1823569 -3.16633,4.8593329 -3.71443,0.676956 -4.93823,0.04394 -6.11952,-3.16686 -1.18133,-3.2104959 -0.54811,-4.1823569 3.16632,-4.8593509 z m 3.54379,9.6314679 c 3.71434,-0.676927 4.93823,-0.04394 6.11955,3.16685997 1.1813,3.21051503 0.54796,4.18238603 -3.16634,4.85935103 -3.71429,0.677034 -4.93824,0.04394 -6.11955,-3.166878 -1.18129,-3.210458 -0.54797,-4.182377 3.16634,-4.859333 z m 3.54391,9.631469 c 3.71432,-0.677043 4.93823,-0.04393 6.11955,3.166879 1.18119,3.2104861 0.54796,4.1823471 -3.16634,4.8593321 -3.71441,0.677052 -4.93823,0.04394 -6.11955,-3.166889 -1.18131,-3.2104861 -0.54807,-4.1823371 3.16634,-4.8593221 z m 3.5438,9.6314591 c 3.71432,-0.677034 4.93824,-0.04394 6.11954,3.166888 1.1813,3.210467 0.548,4.182347 -3.16634,4.859322 -3.7143,0.676918 -4.93823,0.04393 -6.11954,-3.166878 -1.18129,-3.210486 -0.54796,-4.182357 3.16634,-4.859332 z m 3.5439,9.631458 c 3.71432,-0.676917 4.93823,-0.04394 6.11945,3.166889 1.1813,3.210496 0.54806,4.182356 -3.16622,4.859342 -3.71444,0.676927 -4.93833,0.04393 -6.11955,-3.166889 -1.18133,-3.210486 -0.5481,-4.182347 3.16632,-4.859342 z m 3.5438,9.631469 c 3.71433,-0.676898 4.93824,-0.04393 6.11954,3.166888 1.18133,3.210477 0.54799,4.182367 -3.16632,4.859352 -3.7143,0.677033 -4.93822,0.04393 -6.11956,-3.166879 -1.18129,-3.210496 -0.54795,-4.182376 3.16634,-4.859361 z m 3.54382,9.631468 c 3.71441,-0.677042 4.93835,-0.04393 6.11954,3.166899 1.18131,3.210476 0.54808,4.182318 -3.16624,4.859312 -3.71442,0.676928 -4.93831,0.04394 -6.11955,-3.166878 -1.18128,-3.210458 -0.54806,-4.182357 3.16625,-4.859333 z m 3.54392,9.631479 c 3.71429,-0.677043 4.93821,-0.04393 6.11952,3.166878 1.18131,3.210458 0.54799,4.182367 -3.16634,4.859323 -3.71429,0.676937 -4.9382,0.04393 -6.11952,-3.16686 -1.18131,-3.210505 -0.54799,-4.182366 3.16634,-4.859341 z m 3.5438,9.631468 c 3.7144,-0.677062 4.9383,-0.04393 6.11953,3.16686 1.1813,3.210486 0.54809,4.182366 -3.16635,4.859361 -3.7143,0.676908 -4.9382,0.04394 -6.11943,-3.166918 -1.1813,-3.210457 -0.54807,-4.182337 3.16625,-4.859303 z m 3.54391,9.63144 c 3.7143,-0.676908 4.93822,-0.04403 6.11954,3.166879 1.1813,3.210486 0.54797,4.182356 -3.16635,4.859361 -3.71432,0.676908 -4.93821,0.04394 -6.11954,-3.166889 -1.1813,-3.210496 -0.54796,-4.182356 3.16635,-4.859351 z m 3.5438,9.631459 c 3.71441,-0.676908 4.93821,-0.04394 6.11952,3.166898 1.18132,3.210467 0.54809,4.182356 -3.16632,4.859351 -3.71432,0.676908 -4.93823,0.04394 -6.11954,-3.166869 -1.18119,-3.210525 -0.54798,-4.182386 3.16634,-4.85938 z M 355.31775,603.06452 c 3.71435,-0.67658 4.93823,-0.0439 6.11954,3.16687 1.18121,3.21046 0.54798,4.18236 -3.16632,4.85927 -3.71446,0.67659 -4.93825,0.0439 -6.11955,-3.16689 -1.18131,-3.21041 -0.54808,-4.18233 3.16633,-4.85925 z m 3.5438,9.63142 c 3.71444,-0.67658 4.93825,-0.0439 6.11955,3.1669 1.1813,3.21043 0.54808,4.18232 -3.16633,4.85936 -3.71436,0.67657 -4.93824,0.044 -6.11954,-3.16688 -1.1812,-3.21056 -0.54797,-4.18234 3.16632,-4.85938 z m 3.54391,9.63141 c 3.71435,-0.67656 4.93823,-0.0439 6.11956,3.16691 1.18118,3.21055 0.54797,4.18244 -3.16635,4.85936 -3.71445,0.67657 -4.93821,0.0439 -6.11954,-3.16686 -1.18128,-3.21047 -0.54808,-4.18235 3.16633,-4.85941 z m 3.54381,9.63156 c 3.71435,-0.67656 4.93822,-0.0439 6.11956,3.16689 1.18129,3.21042 0.54807,4.18231 -3.16635,4.85926 -3.71433,0.67655 -4.93823,0.044 -6.11955,-3.1669 -1.1813,-3.21042 -0.54797,-4.18233 3.16634,-4.85925 z m 3.54391,9.63142 c 3.71433,-0.67655 4.93824,-0.044 6.11955,3.16689 1.1812,3.21055 0.54796,4.18233 -3.16635,4.85936 -3.71444,0.67659 -4.93823,0.0439 -6.11953,-3.16687 -1.1813,-3.21056 -0.54807,-4.18234 3.16633,-4.85938 z m 3.54382,9.63143 c 3.71431,-0.67656 4.93824,-0.0439 6.11952,3.16687 1.18132,3.21056 0.54799,4.18247 -3.16635,4.8594 -3.71433,0.67655 -4.93821,0.0439 -6.11952,-3.16691 -1.18131,-3.21041 -0.54796,-4.18234 3.16635,-4.85936 z m 3.54389,9.63151 c 3.71435,-0.67655 4.93821,-0.044 6.11943,3.16693 1.18132,3.21042 0.5481,4.18233 -3.16624,4.85924 -3.71443,0.67657 -4.93822,0.0439 -6.11954,-3.16677 -1.18128,-3.21056 -0.54807,-4.18244 3.16635,-4.8594 z m 3.5438,9.63145 c 3.71437,-0.67658 4.93823,-0.0439 6.11954,3.16688 1.18131,3.21056 0.54797,4.18236 -3.16632,4.85938 -3.71435,0.67657 -4.93823,0.0439 -6.11956,-3.16689 -1.18129,-3.21056 -0.54797,-4.18235 3.16634,-4.85937 z m 3.54381,9.63154 c 3.71445,-0.67657 4.93834,-0.0439 6.11953,3.16677 1.18131,3.21056 0.54808,4.18245 -3.16622,4.85935 -3.71445,0.6766 -4.93832,0.044 -6.11955,-3.16687 -1.1813,-3.21043 -0.54807,-4.18232 3.16624,-4.85925 z m 3.54391,9.63142 c 3.71435,-0.67655 4.9382,-0.0439 6.11954,3.16688 1.18129,3.21044 0.54797,4.18234 -3.16634,4.85927 -3.71435,0.67655 -4.93822,0.0439 -6.11954,-3.16678 -1.18128,-3.21053 -0.54798,-4.18244 3.16634,-4.85937 z m 3.54379,9.63143 c 3.71444,-0.67659 4.93835,-0.0439 6.11955,3.16689 1.18132,3.21055 0.54809,4.18233 -3.16632,4.85937 -3.71436,0.67657 -4.93825,0.044 -6.11945,-3.16688 -1.18132,-3.21057 -0.54808,-4.18234 3.16622,-4.85938 z M 143.198,-5.7486591 c 3.71432,-0.677043 4.93824,-0.04394 6.11955,3.16687 1.18131,3.21048597 0.54797,4.182366 -3.16634,4.859351 -3.71432,0.676918 -4.93823,0.04394 -6.11954,-3.16688903 -1.18129,-3.21047597 -0.54797,-4.18235597 3.16633,-4.85933197 z m 3.54391,9.63145 c 3.71433,-0.676908 4.93822,-0.04394 6.11944,3.166888 1.1813,3.2104871 0.54809,4.1823381 -3.16625,4.8593231 -3.7144,0.677052 -4.93831,0.04394 -6.11951,-3.1668791 -1.18132,-3.210467 -0.54809,-4.182337 3.16632,-4.859332 z m 7.08761,19.2629461 c 3.71441,-0.677062 4.93834,-0.04394 6.11953,3.166869 1.18131,3.210506 0.5481,4.182367 -3.16622,4.859342 -3.71443,0.676928 -4.93832,0.04393 -6.11955,-3.166869 -1.1813,-3.210506 -0.54806,-4.182376 3.16624,-4.859342 z m 3.54391,9.631478 c 3.71433,-0.676927 4.93822,-0.04393 6.11955,3.166879 1.18128,3.210467 0.54797,4.182338 -3.16635,4.859313 -3.7143,0.676937 -4.93821,0.04394 -6.11953,-3.166879 -1.18131,-3.210476 -0.54798,-4.182337 3.16633,-4.859313 z m 3.5438,9.63145 c 3.71443,-0.676928 4.93833,-0.04393 6.11955,3.166869 1.1813,3.210486 0.54807,4.182356 -3.16636,4.859361 -3.71429,0.677024 -4.9382,0.04393 -6.11943,-3.166908 -1.18127,-3.210477 -0.54805,-4.182337 3.16624,-4.859322 z m 7.08773,19.262946 c 3.71441,-0.676956 4.93822,-0.04393 6.11952,3.16687 1.18132,3.210476 0.54809,4.182346 -3.16634,4.859341 -3.71429,0.677043 -4.93821,0.04393 -6.11953,-3.166898 -1.18121,-3.210486 -0.54798,-4.182356 3.16635,-4.859313 z m 3.54391,9.63145 c 3.71428,-0.677053 4.93821,-0.04393 6.11953,3.166869 1.18129,3.210496 0.54797,4.182366 -3.16634,4.859332 -3.71431,0.676918 -4.93821,0.04393 -6.11954,-3.166869 -1.1813,-3.210487 -0.54799,-4.182367 3.16635,-4.859332 z M 366.46078,601.03352 c 3.71435,-0.67658 4.93824,-0.0439 6.11954,3.16689 1.18123,3.21054 0.548,4.18233 -3.16632,4.85936 -3.71445,0.67657 -4.93823,0.0439 -6.11955,-3.16689 -1.1813,-3.21055 -0.54807,-4.18231 3.16633,-4.85936 z m 3.54381,9.63152 c 3.71435,-0.67656 4.93822,-0.0439 6.11953,3.16677 1.18132,3.21059 0.54811,4.18246 -3.16633,4.85939 -3.71435,0.67657 -4.93821,0.0439 -6.11953,-3.16689 -1.18129,-3.21041 -0.54798,-4.18234 3.16633,-4.85927 z m 3.54391,9.63144 c 3.71435,-0.67657 4.93824,-0.044 6.11954,3.16688 1.1812,3.21046 0.54798,4.18235 -3.16633,4.85939 -3.71444,0.67657 -4.93825,0.0439 -6.11953,-3.16691 -1.18133,-3.21055 -0.54811,-4.18244 3.16632,-4.85936 z m 7.08773,19.26297 c 3.71433,-0.67658 4.93822,-0.044 6.11943,3.16689 1.18129,3.21043 0.54808,4.18234 -3.16625,4.85923 -3.71444,0.67657 -4.93821,0.0439 -6.11954,-3.16687 -1.18131,-3.21044 -0.54809,-4.18232 3.16636,-4.85925 z m 3.54379,9.63142 c 3.71436,-0.67657 4.93822,-0.0439 6.11952,3.16688 1.18132,3.21044 0.54799,4.18236 -3.16633,4.85938 -3.71432,0.67658 -4.93823,0.0439 -6.11954,-3.1669 -1.1813,-3.21053 -0.54797,-4.18245 3.16635,-4.85936 z m 3.54379,9.63142 c 3.71447,-0.67656 4.93834,-0.0439 6.11955,3.16688 1.18134,3.21058 0.54807,4.18233 -3.16623,4.85938 -3.71444,0.67656 -4.93833,0.044 -6.11955,-3.16689 -1.1813,-3.21046 -0.54807,-4.18233 3.16623,-4.85937 z m 7.08773,19.26298 c 3.71442,-0.67659 4.93828,-0.0439 6.11958,3.16687 1.18129,3.21043 0.54802,4.18233 -3.16632,4.85937 -3.71442,0.67659 -4.93827,0.044 -6.11949,-3.16689 -1.18132,-3.21053 -0.5481,-4.18245 3.16623,-4.85935 z m 3.5439,9.63141 c 3.71437,-0.67657 4.93824,-0.044 6.11954,3.16689 1.18129,3.21055 0.548,4.18234 -3.16634,4.85938 -3.71436,0.67656 -4.93824,0.0439 -6.11954,-3.1669 -1.1813,-3.21043 -0.54799,-4.18234 3.16634,-4.85937 z m 3.54385,9.63152 c 3.71437,-0.67655 4.93824,-0.0439 6.11954,3.1669 1.18129,3.21044 0.54803,4.18234 -3.16631,4.85926 -3.71439,0.67657 -4.93825,0.044 -6.11955,-3.16688 -1.18129,-3.21044 -0.54803,-4.18235 3.16632,-4.85928 z M 157.88486,1.8518549 c 3.71439,-0.677053 4.93831,-0.04394 6.11952,3.166879 1.18132,3.210486 0.54808,4.182347 -3.16622,4.859322 -3.71442,0.6769371 -4.93833,0.04393 -6.11956,-3.166879 -1.18129,-3.210476 -0.54805,-4.182347 3.16626,-4.859322 z m 3.54391,9.6314491 c 3.71431,-0.676918 4.93822,-0.04394 6.11953,3.166879 1.18129,3.210496 0.54798,4.182356 -3.16634,4.859351 -3.71431,0.677033 -4.93823,0.04394 -6.11954,-3.166888 -1.1813,-3.210496 -0.54797,-4.182367 3.16635,-4.859342 z m 3.54379,9.631468 c 3.71443,-0.676908 4.93831,-0.04393 6.11954,3.166908 1.1813,3.210467 0.54807,4.182347 -3.16634,4.859341 -3.71431,0.677024 -4.93822,0.04394 -6.11942,-3.166898 -1.18129,-3.210505 -0.54809,-4.182356 3.16622,-4.859351 z m 3.54392,9.631478 c 3.71428,-0.677043 4.9382,-0.04393 6.11953,3.166869 1.1813,3.210487 0.54797,4.182367 -3.16633,4.859342 -3.71433,0.676918 -4.93823,0.04394 -6.11954,-3.166879 -1.18132,-3.210476 -0.54798,-4.182356 3.16634,-4.859332 z m 3.5438,9.631459 c 3.71442,-0.677052 4.93822,-0.04394 6.11953,3.166889 1.18131,3.210496 0.54808,4.182356 -3.16633,4.859332 -3.71432,0.676927 -4.93824,0.04394 -6.11953,-3.166898 -1.18121,-3.210467 -0.54799,-4.182338 3.16633,-4.859323 z m 3.5439,9.631469 c 3.71431,-0.676918 4.93822,-0.04393 6.11955,3.166888 1.18128,3.210486 0.54796,4.182337 -3.16635,4.859313 -3.7143,0.677043 -4.93822,0.04393 -6.11953,-3.166869 -1.18129,-3.210496 -0.54799,-4.182347 3.16633,-4.859332 z m 3.54381,9.631449 c 3.7144,-0.677043 4.93822,-0.04394 6.11954,3.166888 1.18128,3.210487 0.54808,4.182357 -3.16635,4.859352 -3.7143,0.677023 -4.93821,0.04393 -6.11953,-3.166879 -1.1812,-3.210515 -0.54797,-4.182386 3.16634,-4.859361 z M 381.14762,608.63404 c 3.71435,-0.67655 4.93823,-0.0439 6.11955,3.1669 1.18128,3.21043 0.54797,4.18235 -3.16633,4.85938 -3.71434,0.67656 -4.93826,0.044 -6.11956,-3.16689 -1.1813,-3.21056 -0.54795,-4.18236 3.16634,-4.85939 z m 3.5439,9.63144 c 3.71436,-0.67657 4.93826,-0.044 6.11945,3.16689 1.18134,3.21053 0.54808,4.18232 -3.16623,4.85937 -3.71445,0.67656 -4.93822,0.0439 -6.11955,-3.1669 -1.18129,-3.21043 -0.54806,-4.18232 3.16633,-4.85936 z m 3.54384,9.63152 c 3.71437,-0.67655 4.93823,-0.0439 6.11952,3.16689 1.18128,3.21044 0.54802,4.18235 -3.16633,4.85927 -3.71435,0.67655 -4.93822,0.0439 -6.11955,-3.16691 -1.18129,-3.2104 -0.54797,-4.18232 3.16636,-4.85925 z m 3.54378,9.63145 c 3.71444,-0.67658 4.93831,-0.0439 6.11961,3.16687 1.18126,3.21045 0.54801,4.18235 -3.16633,4.85939 -3.7144,0.67656 -4.93831,0.044 -6.11951,-3.1669 -1.18132,-3.21057 -0.54807,-4.18233 3.16623,-4.85936 z m 3.54391,9.63141 c 3.71436,-0.67657 4.93825,-0.0439 6.11954,3.1669 1.18129,3.21053 0.54802,4.18245 -3.16631,4.85936 -3.71439,0.67659 -4.93826,0.0439 -6.11958,-3.16689 -1.18128,-3.21042 -0.54795,-4.18235 3.16635,-4.85937 z m 3.54386,9.63155 c 3.71437,-0.67657 4.93823,-0.0439 6.11955,3.16688 1.18126,3.21045 0.54801,4.18233 -3.16635,4.85925 -3.71438,0.67658 -4.93824,0.044 -6.11951,-3.16689 -1.18131,-3.21043 -0.54803,-4.18233 3.16631,-4.85924 z m 3.54385,9.63142 c 3.71438,-0.67658 4.93825,-0.044 6.11955,3.16689 1.18128,3.21042 0.54801,4.18233 -3.16634,4.85938 -3.71435,0.67654 -4.93824,0.0439 -6.11953,-3.1669 -1.18127,-3.21056 -0.54803,-4.18232 3.16632,-4.85937 z m 3.54385,9.63142 c 3.71438,-0.67658 4.93825,-0.0439 6.11954,3.16687 1.18128,3.21057 0.54802,4.18246 -3.16631,4.85939 -3.71438,0.67656 -4.93824,0.044 -6.11955,-3.16689 -1.18127,-3.21043 -0.54802,-4.18233 3.16632,-4.85937 z m 3.54386,9.63154 c 3.71436,-0.67656 4.93824,-0.0439 6.11954,3.16689 1.18126,3.21044 0.54803,4.18232 -3.16634,4.85925 -3.71436,0.67658 -4.93824,0.0439 -6.11954,-3.16688 -1.18126,-3.21044 -0.54801,-4.18234 3.16634,-4.85926 z M 243.60317,228.5765 c 2.31988,-3.56037 5.14783,-3.61946 9.38065,-0.19585 2.35993,1.90876 2.44837,3.06538 0.40843,5.27304 -4.85323,5.24056 -13.56214,0.72031 -9.78379,-5.07794 z m 85.64307,232.76042 c 2.31995,-3.56049 5.14793,-3.61951 9.38072,-0.19606 2.35993,1.90883 2.44838,3.06547 0.39809,5.27465 -4.85319,5.24062 -13.56215,0.72031 -9.78389,-5.07786 z M 172.57179,9.4523679 c 3.71429,-0.677034 4.93822,-0.04403 6.11954,3.1668691 1.18129,3.210496 0.54799,4.182366 -3.16632,4.859351 -3.71431,0.676899 -4.93823,0.04394 -6.11956,-3.166888 -1.18129,-3.210487 -0.54796,-4.182366 3.16634,-4.8593321 z m 14.17542,38.5258541 c 3.7143,-0.677023 4.93823,-0.04393 6.11955,3.166869 1.18122,3.210516 0.54797,4.182367 -3.16633,4.859361 -3.71433,0.676908 -4.93826,0.04393 -6.11956,-3.166888 -1.1813,-3.210477 -0.54806,-4.182347 3.16634,-4.859342 z M 399.37839,625.866 c 3.71435,-0.67657 4.93823,-0.0439 6.11951,3.1669 1.1813,3.21055 0.54803,4.18232 -3.16631,4.85938 -3.71436,0.67656 -4.93825,0.0439 -6.11953,-3.1669 -1.1813,-3.21055 -0.54803,-4.18235 3.16633,-4.85938 z m 3.54385,9.63154 c 3.71437,-0.67654 4.93822,-0.0439 6.11953,3.16678 1.18129,3.21055 0.54802,4.18245 -3.16635,4.85938 -3.71436,0.67656 -4.93822,0.0439 -6.1195,-3.16689 -1.1813,-3.21045 -0.54802,-4.18233 3.16632,-4.85927 z m 3.54384,9.63144 c 3.7144,-0.67656 4.93822,-0.044 6.11954,3.16689 1.18128,3.21042 0.54802,4.18232 -3.16634,4.85925 -3.71437,0.67655 -4.93823,0.0439 -6.1195,-3.16676 -1.18129,-3.21057 -0.54804,-4.18244 3.1663,-4.85938 z m 3.54385,9.63142 c 3.71439,-0.67656 4.93825,-0.0439 6.11953,3.16688 1.18131,3.21057 0.54801,4.18233 -3.1663,4.85938 -3.71438,0.67656 -4.93824,0.044 -6.11955,-3.1669 -1.18131,-3.21053 -0.54801,-4.18233 3.16632,-4.85936 z m 3.54387,9.63154 c 3.71437,-0.67657 4.93823,-0.044 6.11951,3.16677 1.18129,3.21056 0.54804,4.18245 -3.16632,4.85938 -3.71436,0.67656 -4.93822,0.0439 -6.11954,-3.1669 -1.18126,-3.21043 -0.54801,-4.18233 3.16635,-4.85925 z M 180.17091,-2.2100571 c 3.71442,-0.676937 4.93824,-0.04394 6.11955,3.16688897 1.1813,3.21047703 0.54808,4.18234703 -3.16633,4.85933203 -3.71433,0.676918 -4.93824,0.04393 -6.11955,-3.166869 -1.18123,-3.21050603 -0.54799,-4.182366 3.16633,-4.859352 z m 21.26314,57.7888021 c 3.71429,-0.677033 4.93823,-0.04403 6.11954,3.166869 1.18132,3.210486 0.5481,4.182357 -3.16632,4.859361 -3.71433,0.676908 -4.93824,0.04393 -6.11956,-3.166888 -1.18129,-3.210487 -0.54797,-4.182347 3.16634,-4.859342 z" id="path3808" inkscape:connector-curvature="0"/>
    <path style="fill:none;stroke:url(#linearGradient3904);stroke-width:16.07610893;stroke-linecap:round;stroke-linejoin:miter;stroke-miterlimit:4;stroke-opacity:1;stroke-dasharray:none" d="M 327.77719,-210.38314 81.961969,-126.68194 443.58961,0.90234687 686.79975,-133.83268 z" id="rect3762" inkscape:connector-curvature="0" sodipodi:nodetypes="ccccc" inkscape:export-filename="/home/sobkas/Obrazy/Mascot_s.png" inkscape:export-xdpi="60" inkscape:export-ydpi="60"/>
    <path style="fill:url(#linearGradient3888);fill-opacity:1;stroke:url(#linearGradient3896);stroke-width:16.23914719;stroke-linecap:round;stroke-linejoin:miter;stroke-miterlimit:4;stroke-opacity:1;stroke-dasharray:none" d="M 267.74901,-66.524859 C 172.17099,-98.34667 108.89993,-124.13422 108.76275,-124.27223 c -0.13717,-0.13801 37.55672,-17.87083 102.14807,-38.96455 l 116.73226,-41.10505 171.88101,40.61343 c 93.82152,22.16892 173.34937,36.9628 173.25496,37.02203 -2.8907,1.81367 -231.06344,115.984533 -231.64656,115.954434 -0.46988,-0.02418 -77.80546,-23.951105 -173.38348,-55.772923 z" id="path3922" inkscape:connector-curvature="0" sodipodi:nodetypes="ssscsscs"/>
    <path style="fill:url(#linearGradient3920);fill-opacity:1;stroke:url(#linearGradient3928);stroke-width:11.40859985;stroke-linecap:square;stroke-linejoin:miter;stroke-miterlimit:4;stroke-opacity:1;stroke-dasharray:none" d="M 424.90286,55.146852 446.24769,1.8361309 564.74711,-58.151331 c 65.63406,-33.225649 113.61042,-56.052239 130.71647,-65.271409 -32.98082,61.295238 -27.74712,55.202372 -58.22645,111.739188 -79.22543,44.146189 -158.59386,93.022341 -237.65941,137.440032 0,0 13.39118,-42.802779 25.32514,-70.609628 z" id="path5565" inkscape:connector-curvature="0" sodipodi:nodetypes="scscccs"/>
    <path style="fill:#000000;fill-opacity:1" d="m 512.31728,32.090807 c -1.27815,0.228973 -1.30389,-0.74493 -0.0792,-3.031846 1.28243,-2.395106 3.39512,-4.472935 3.65035,-3.590139 0.22177,0.767775 3.1746,-1.228698 4.26275,-2.882033 0.58557,-0.889829 0.28864,-0.848766 -1.01847,0.141864 -2.45304,1.85905 -3.10724,-0.421565 -1.372,-4.781906 1.0674,-2.682273 1.79758,-3.979456 4.44409,-7.894666 5.34471,-7.9067961 10.41158,-12.1236361 10.67219,-8.8818461 0.14221,1.770477 0.0665,1.941592 -5.31594,11.9931321 -5.38236,10.051539 -5.50323,10.247792 -8.46661,13.745715 -2.94918,3.481159 -4.6819,4.805946 -6.77709,5.181687 z m 13.93673,-21.080133 c 1.96029,-3.6608971 2.28366,-4.5148651 1.64158,-4.3361671 -1.20769,0.33591 -3.36127,2.954613 -5.0999,6.2013261 -1.83419,3.425604 -1.91278,4.765854 -0.20793,3.560011 1.04041,-0.735922 1.59377,-1.554713 3.66623,-5.425179 z M 422.18049,78.521522 c 0.9789,-1.828209 1.49316,-2.435274 2.57109,-3.034929 1.07781,-0.599463 1.10241,-0.292159 0.12334,1.536214 -0.97899,1.828401 -1.49339,2.435553 -2.57092,3.034813 -1.07806,0.599733 -1.10284,0.29266 -0.12342,-1.536156 z m 3.23348,-1.798534 c 0.97895,-1.828295 1.49335,-2.435447 2.571,-3.034852 1.07793,-0.599626 1.10258,-0.29236 0.12341,1.536147 -0.97907,1.828372 -1.49333,2.435447 -2.57122,3.035045 -1.07772,0.599424 -1.1026,0.292351 -0.12328,-1.536291 z m 6.46712,-3.597384 c 0.97894,-1.828295 1.49328,-2.435399 2.57099,-3.034814 1.07778,-0.599549 1.10252,-0.292341 0.12336,1.536157 -0.97899,1.828411 -1.49321,2.43537 -2.57081,3.034678 -1.07807,0.599694 -1.10273,0.292515 -0.12354,-1.536021 z m 3.23337,-1.798466 c 0.97902,-1.828421 1.49342,-2.435562 2.57121,-3.035045 1.07782,-0.599501 1.10261,-0.292399 0.12357,1.535974 -0.97901,1.82842 -1.49347,2.435581 -2.5712,3.035054 -1.07785,0.599569 -1.10265,0.29238 -0.12358,-1.535983 z M 619.42731,-31.197275 c 0.97933,-1.828594 1.49344,-2.435495 2.57139,-3.035141 1.07789,-0.599588 1.10253,-0.292342 0.12349,1.536098 -0.97906,1.828363 -1.49316,2.435264 -2.57131,3.035113 -1.07794,0.599607 -1.10232,0.292129 -0.12372,-1.535887 z m 3.23365,-1.798678 c 0.97921,-1.828546 1.49316,-2.435293 2.57136,-3.03515 1.07776,-0.599444 1.10256,-0.292352 0.12351,1.536079 -0.97921,1.828546 -1.49345,2.435582 -2.57137,3.03515 -1.07792,0.599618 -1.10253,0.292332 -0.1235,-1.536079 z m 25.86842,-14.389326 c 0.97906,-1.828372 1.49343,-2.435553 2.57146,-3.035247 1.07779,-0.599482 1.10259,-0.29238 0.12356,1.535983 -0.97953,1.828864 -1.49343,2.435563 -2.57153,3.035314 -1.078,0.599714 -1.10267,0.292458 -0.12349,-1.53605 z m 3.23349,-1.798591 c 0.97907,-1.828382 1.49345,-2.435534 2.57134,-3.035151 1.07793,-0.599607 1.10258,-0.292351 0.12354,1.53608 -0.97907,1.828372 -1.49327,2.435321 -2.57136,3.035141 -1.07792,0.599597 -1.10259,0.29236 -0.12352,-1.53607 z M 458.04188,56.990553 c -1.27727,-0.336122 0.11735,-3.966439 5.0916,-13.252882 5.52849,-10.320902 8.46658,-14.530419 11.96801,-17.146578 2.41508,-1.804517 3.99157,-1.607705 3.5553,0.443831 -0.41258,1.940647 -3.69154,5.710554 -4.32554,4.973235 -1.12315,-1.306297 -3.59862,1.770583 -7.90217,9.822143 -3.87418,7.24806 -4.51937,8.954464 -3.25075,8.598311 0.96978,-0.272214 1.23926,-0.611613 2.80016,-3.526616 0.95,-1.774051 1.4225,-2.865847 1.05027,-2.426448 -1.03,1.215796 -1.14625,-0.220986 -0.16594,-2.051748 1.02497,-1.913882 2.50341,-3.308425 4.95074,-4.669775 2.13579,-1.187933 1.8963,-0.343696 -1.93146,6.804633 -2.08125,3.886604 -3.2789,5.794127 -4.56546,7.270846 -2.16439,2.484363 -6.29913,5.417741 -7.27472,5.16101 z m 13.00111,-7.886659 c -1.48652,-0.237134 -0.83547,-2.679489 2.24979,-8.441233 2.68612,-5.016304 3.18761,-5.763479 6.11452,-9.11106 3.56324,-4.075284 5.00268,-5.094953 6.18365,-4.380161 1.12206,0.679095 -0.0894,3.86694 -4.52203,11.899346 l -3.7969,6.880479 -2.76565,1.631696 c -1.52121,0.897547 -3.07974,1.58196 -3.46327,1.520856 z m 7.44965,-9.608855 c 2.61896,-4.147527 3.58756,-6.924501 2.03175,-5.825721 -1.03528,0.731163 -1.76726,1.68304 -3.15809,4.106164 -2.40947,4.198361 -2.83016,5.525209 -1.51995,4.796234 0.70772,-0.393865 1.62755,-1.463326 2.64628,-3.076677 z m 1.41886,4.883766 c -0.29942,-0.06022 0.95764,-2.671781 4.20516,-8.736668 4.32491,-8.076447 4.80814,-8.858183 7.28179,-11.777994 2.30908,-2.725669 2.89502,-3.208184 4.5681,-3.761197 2.19327,-0.724957 2.27485,-0.770607 5.27353,-2.948899 1.79824,-1.306249 2.28797,-1.344152 2.56575,-0.19817 0.31992,1.322406 0.0824,1.918169 -3.5643,8.941437 -2.94688,5.675185 -4.34855,8.085938 -5.70256,9.807296 -1.43942,1.830164 -1.88082,2.189439 -2.22874,1.814228 -0.35055,-0.378487 0.30108,-1.879572 3.39711,-7.827357 3.36613,-6.466709 3.7097,-7.291667 2.8323,-6.803641 -1.18251,0.657793 -2.57883,2.648744 -4.90732,6.997293 -1.57236,2.936191 -1.81001,3.227829 -3.03304,3.720884 -1.21813,0.491129 -1.14734,0.181483 0.86321,-3.772286 1.95984,-3.854655 2.04971,-4.207918 0.85547,-3.364413 -1.21792,0.860298 -1.66738,1.546003 -5.1447,7.847676 -4.47703,8.113205 -6.05922,10.305689 -7.26198,10.062235 z m 16.94279,-9.769565 c -0.0382,-0.476985 1.70061,-4.023902 4.92326,-10.041954 3.94874,-7.374266 5.29318,-9.652587 6.47938,-10.981054 1.08519,-1.215045 1.60306,-1.550069 1.88196,-1.217839 0.30737,0.366405 -0.53421,2.215771 -4.18115,9.187926 -4.54946,8.697512 -7.02461,12.66688 -8.36246,13.411039 -0.37465,0.208181 -0.70833,0.0474 -0.74086,-0.358273 z m 5.39086,-2.98003 c -0.0376,-0.466926 1.38233,-3.450154 3.72025,-7.816123 3.35339,-6.262401 4.1091,-7.466674 6.68238,-10.649749 2.3896,-2.955817 3.2997,-3.8104791 5.15887,-4.8447061 1.24144,-0.690552 2.44985,-0.920854 2.68534,-0.511911 1.17353,2.038759 -9.49614,21.6676481 -10.93675,20.1203351 -0.34092,-0.365509 0.34138,-1.99154 3.15652,-7.526624 3.03439,-5.965309 3.46356,-7.024655 2.76439,-6.827371 -1.37488,0.387794 -2.98271,2.658976 -7.21231,10.187526 -3.05276,5.433523 -4.27058,7.359815 -4.99732,7.904166 -0.52826,0.395714 -0.98821,0.37998 -1.02161,-0.03536 z m 36.05328,-19.963585 c -0.42232,-0.08344 -0.52953,-1.233352 -0.23893,-2.5545631 1.02558,-4.660449 6.68254,-13.686414 11.38578,-18.166594 5.44618,-5.1877949 6.64752,-2.8555469 2.65399,5.151596 -4.17496,8.371015 -11.04043,16.1162631 -13.80084,15.5695611 z m 9.51961,-12.65888313 c 2.39302,-4.46922497 2.41151,-4.55085197 0.83086,-3.67171797 -1.48735,0.827396 -1.78085,1.188492 -3.67479,4.51882597 -2.91119,5.12016803 -3.17726,6.15508903 -1.24406,4.83988903 1.54637,-1.051993 1.78074,-1.37799 4.08789,-5.68693903 z m 0.77336,6.82350903 c -0.0359,-0.446144 1.43373,-3.525441 3.72167,-7.798125 3.35333,-6.262392 4.10899,-7.466675 6.68223,-10.6495859 3.30979,-4.094053 6.06269,-6.008745 7.44003,-5.174393 1.05772,0.640006 0.6712,1.623843 -4.24328,10.8015089 -3.24045,6.05178297 -4.37447,7.93783997 -5.23587,8.709016 -2.27791,2.039116 -1.64969,-0.09018 2.08477,-7.064198 3.17677,-5.9325129 3.49061,-6.6810749 2.79349,-6.6636939 -1.4138,0.03546 -3.22607,2.5254079 -7.08953,9.7403999 -2.7941,5.217827 -3.8066,6.86834 -4.70886,7.675974 -1.46387,1.310469 -1.37501,1.28432 -1.44414,0.422644 z m 18.86245,-10.492317 c -0.0752,-0.933706 12.8455,-25.1630379 15.02164,-28.1689659 1.92696,-2.661954 3.15535,-3.345356 2.65652,-1.477606 -0.21419,0.802094 -2.93709,6.216319 -6.05103,12.031739 l -5.66216,10.573846 1.31565,-0.731913 c 0.7242,-0.403152 1.23648,-0.326806 1.13962,0.168446 -0.0998,0.510524 1.93194,-2.883102 4.69315,-7.839381 3.78751,-6.798197 5.18251,-9.063251 6.27934,-10.195783 1.02069,-1.053844 1.46817,-1.255155 1.62004,-0.728965 0.30595,1.058478 -9.14541,18.71055 -11.32473,21.1511999 -1.21395,1.359751 -1.58384,1.570514 -1.96952,1.121249 -0.34051,-0.396215 -0.78948,-0.180904 -1.58774,0.761329 -1.50634,1.777915 -6.05672,4.252874 -6.13058,3.334458 z m 12.93443,-7.1948169 c -0.0362,-0.445825 1.43345,-3.525162 3.72154,-7.798019 3.35343,-6.262498 4.10894,-7.466588 6.68221,-10.649576 2.34416,-2.899665 3.31319,-3.818091 5.04471,-4.781213 2.83491,-1.576969 3.45084,-0.992209 2.36592,2.245544 -1.17667,3.51147 -6.10057,12.695986 -8.34159,15.559289 -1.38095,1.764465 -1.81398,2.112891 -2.16065,1.739337 -0.34554,-0.372764 0.2905,-1.86247 3.12544,-7.320408 3.08558,-5.940857 3.45655,-6.849561 2.78911,-6.832729 -1.39753,0.03517 -3.2223,2.547453 -7.07373,9.739958 -2.79407,5.217836 -3.80662,6.868377 -4.70887,7.675992 -1.46389,1.310498 -1.37501,1.284301 -1.44416,0.422731 z m 14.66841,-8.101498 c -1.16615,-1.023494 -0.50102,-2.918761 3.94108,-11.230743 4.38089,-8.197683 5.39847,-9.670335 6.70443,-9.703152 0.66833,-0.01609 0.32576,0.799888 -2.74404,6.542652 -4.03091,7.540256 -4.47847,8.904584 -2.45218,7.475105 1.35933,-0.958998 1.71453,-1.492587 5.58687,-8.393309 4.54939,-8.107279 6.74269,-11.013188 7.17745,-9.509559 0.18285,0.634062 -0.52835,2.129309 -4.01525,8.440694 -3.73549,6.761431 -4.54836,8.037118 -6.86353,10.769887 -2.99893,3.539383 -6.57533,6.274051 -7.33434,5.608049 z m 9.34663,-4.911409 c -0.49965,-0.101204 1.51456,-4.019931 2.68446,-5.221998 0.4409,-0.453234 1.94473,-2.299904 3.34158,-4.103466 l 2.53937,-3.279125 0.0576,-2.296715 c 0.10988,-4.36513 4.7454,-10.139824 4.75115,-5.918706 l 0.003,2.315358 3.50668,-4.340109 c 2.45834,-3.042685 3.68402,-4.314316 4.09983,-4.253645 1.05846,0.153898 -0.15192,2.357337 -3.84291,6.995953 -1.97249,2.478853 -3.73225,4.77997 -3.91144,5.114426 -0.17963,0.334629 -0.42432,1.786537 -0.54501,3.22728 -0.22752,2.713124 -1.39875,4.952453 -3.63931,6.958194 -0.86429,0.773709 -1.18628,0.346537 -1.08619,-1.441012 l 0.14219,-2.540573 -3.52682,4.313323 c -3.59366,4.395066 -3.82553,4.621688 -4.57314,4.470295 z M 415.41676,78.432784 c 0.97912,-1.828478 1.49327,-2.435408 2.57122,-3.035073 1.0778,-0.599482 1.1024,-0.292188 0.1234,1.536175 -0.97914,1.82845 -1.49335,2.435447 -2.57128,3.035084 -1.07779,0.599482 -1.10243,0.292187 -0.12334,-1.536186 z m 6.467,-3.597249 c 0.97925,-1.828527 1.49334,-2.435457 2.57125,-3.035055 1.07779,-0.599491 1.10257,-0.29237 0.1234,1.536137 -0.97899,1.828325 -1.49314,2.435264 -2.57095,3.034833 -1.0778,0.599463 -1.10271,0.292496 -0.12327,-1.53631 z m 19.4014,-10.792105 c 0.97921,-1.828537 1.49339,-2.435496 2.57123,-3.035055 1.07778,-0.599482 1.10238,-0.292197 0.12335,1.536243 -0.97907,1.828373 -1.49318,2.435341 -2.5711,3.034891 -1.07791,0.599617 -1.10239,0.292197 -0.12348,-1.536079 z m 6.46717,-3.597404 c 0.97904,-1.828411 1.49348,-2.435582 2.57124,-3.035064 1.07781,-0.599482 1.10261,-0.292361 0.12358,1.536002 -0.9793,1.828623 -1.49345,2.435572 -2.57127,3.035064 -1.07805,0.599675 -1.10257,0.292361 -0.12355,-1.536002 z M 628.83156,-40.279623 c 0.97921,-1.828526 1.49358,-2.435668 2.57149,-3.035218 1.07791,-0.599627 1.10242,-0.292255 0.12355,1.536002 -0.97938,1.828691 -1.49358,2.435659 -2.57139,3.035161 -1.07819,0.599877 -1.10266,0.292466 -0.12365,-1.535945 z m 3.23349,-1.798552 c 0.9792,-1.828517 1.49345,-2.435582 2.5715,-3.035296 1.07792,-0.599607 1.1024,-0.292177 0.12351,1.536089 -0.97921,1.828556 -1.49345,2.435515 -2.57134,3.035141 -1.07792,0.599598 -1.10272,0.292506 -0.12367,-1.535934 z m 6.46705,-3.59726 c 0.97939,-1.828719 1.49344,-2.435581 2.57162,-3.035382 1.07779,-0.59952 1.10258,-0.292409 0.12355,1.536022 -0.97934,1.828604 -1.49349,2.435591 -2.5715,3.035285 -1.07803,0.599666 -1.10284,0.292592 -0.12339,-1.536146 z m 6.46726,-3.5975 c 0.97911,-1.828469 1.49342,-2.435562 2.57132,-3.035112 1.0778,-0.599482 1.10258,-0.29238 0.12355,1.535993 -0.97938,1.82869 -1.49329,2.435408 -2.57152,3.035295 -1.07789,0.599588 -1.10253,0.292322 -0.12363,-1.535935 z m 3.2335,-1.798629 c 0.97923,-1.828537 1.4933,-2.435428 2.57133,-3.035122 1.0778,-0.599492 1.10268,-0.292419 0.12369,1.535906 -0.97921,1.828536 -1.49342,2.435514 -2.57151,3.035295 -1.07792,0.599617 -1.10254,0.292341 -0.12351,-1.536079 z M 418.35391,72.947571 c 0.97927,-1.828566 1.49333,-2.435447 2.57122,-3.035064 1.0778,-0.599492 1.1026,-0.292352 0.12357,1.53605 -0.97908,1.828401 -1.49328,2.43535 -2.57129,3.035093 -1.07789,0.59953 -1.10241,0.292206 -0.1235,-1.536079 z m 6.46725,-3.5975 c 0.97923,-1.828546 1.4933,-2.435428 2.5711,-3.03492 1.07806,-0.599742 1.10256,-0.292419 0.12354,1.536002 -0.97901,1.82843 -1.49327,2.435418 -2.57121,3.035055 -1.07782,0.599472 -1.10233,0.292129 -0.12343,-1.536137 z m 3.23347,-1.798534 c 0.97929,-1.828632 1.49319,-2.43537 2.57097,-3.034852 1.07794,-0.599627 1.10274,-0.292505 0.12357,1.536002 -0.97924,1.828527 -1.49317,2.435264 -2.5711,3.03491 -1.07791,0.599608 -1.10257,0.292351 -0.12354,-1.535983 z m 3.23368,-1.798784 c 0.97891,-1.828208 1.49302,-2.435186 2.57112,-3.034919 1.07793,-0.599617 1.10252,-0.292322 0.12331,1.536195 -0.97894,1.828305 -1.49325,2.435399 -2.57107,3.0349 -1.07779,0.599559 -1.10256,0.292428 -0.12336,-1.536176 z m 3.23352,-1.798629 c 0.9789,-1.828209 1.49303,-2.43511 2.57109,-3.0349 1.07791,-0.599598 1.10253,-0.292352 0.12342,1.536156 -0.97924,1.828507 -1.49334,2.435437 -2.57144,3.035237 -1.07753,0.599251 -1.1024,0.292178 -0.12307,-1.536493 z m 3.23338,-1.798485 c 0.97924,-1.828546 1.49344,-2.435515 2.57132,-3.035112 1.07772,-0.599454 1.1023,-0.292111 0.12329,1.536291 -0.97909,1.828382 -1.4933,2.435408 -2.5711,3.03489 -1.07795,0.599646 -1.10254,0.292351 -0.12351,-1.536069 z m 3.23364,-1.798697 c 0.97901,-1.828392 1.49334,-2.435505 2.57111,-3.034987 1.07767,-0.599396 1.10242,-0.292255 0.12339,1.536175 -0.97901,1.828411 -1.49331,2.435418 -2.57123,3.035074 -1.0778,0.599453 -1.1024,0.292168 -0.12357,-1.536021 z m 3.23353,-1.79863 c 0.97899,-1.828382 1.49317,-2.435351 2.57122,-3.035035 1.0777,-0.599444 1.10239,-0.292207 0.12357,1.535983 -0.97931,1.828652 -1.4935,2.435601 -2.57124,3.035054 -1.07781,0.599482 -1.1026,0.292361 -0.12355,-1.536002 z m 6.46724,-3.5975 c 0.97896,-1.828315 1.49313,-2.435264 2.57124,-3.035054 1.07764,-0.599386 1.10252,-0.292323 0.1232,1.53632 -0.97894,1.828314 -1.49315,2.435283 -2.57123,3.035073 -1.07778,0.599473 -1.10238,0.292188 -0.12321,-1.536339 z M 635.00217,-47.563264 c 0.97938,-1.82871 1.49346,-2.435591 2.57153,-3.035324 1.07779,-0.59953 1.10239,-0.292216 0.12325,1.536262 -0.97895,1.828305 -1.49307,2.435283 -2.57151,3.035305 -1.07774,0.599444 -1.10239,0.292159 -0.12327,-1.536243 z m 3.23385,-1.798957 c 0.97909,-1.828459 1.49327,-2.435389 2.57132,-3.035103 1.07779,-0.599463 1.10258,-0.292351 0.1234,1.536157 -0.97922,1.828555 -1.49329,2.435427 -2.57138,3.03516 -1.07791,0.599607 -1.1024,0.292187 -0.12334,-1.536214 z m 6.46691,-3.597163 c 0.97932,-1.828604 1.4933,-2.435447 2.57136,-3.035151 1.07791,-0.599588 1.10256,-0.292341 0.1235,1.536089 -0.97905,1.828373 -1.49324,2.435331 -2.5715,3.035295 -1.07763,0.599319 -1.10241,0.292197 -0.12336,-1.536233 z m 3.23361,-1.798687 c 0.97921,-1.828527 1.49344,-2.435505 2.57139,-3.035161 1.07791,-0.599598 1.10253,-0.292322 0.12341,1.536166 -0.97911,1.828459 -1.49337,2.435466 -2.57154,3.035305 -1.07778,0.599463 -1.10239,0.292168 -0.12326,-1.53631 z M 421.29116,67.462366 c 0.97925,-1.828555 1.4933,-2.435427 2.5711,-3.034909 1.07782,-0.59955 1.10268,-0.292506 0.12356,1.535982 -0.97902,1.828411 -1.49348,2.435601 -2.57109,3.03491 -1.07794,0.599608 -1.10244,0.292274 -0.12344,-1.53606 z m 3.2335,-1.798542 c 0.97915,-1.828556 1.49318,-2.435351 2.57112,-3.034997 1.07789,-0.599521 1.10259,-0.292361 0.12355,1.536012 -0.97902,1.828411 -1.49344,2.435562 -2.57124,3.035064 -1.07778,0.599453 -1.10257,0.292341 -0.12354,-1.536012 z m 3.23339,-1.798582 c 0.97927,-1.828536 1.49329,-2.435408 2.57152,-3.035295 1.07778,-0.599453 1.10241,-0.292178 0.12336,1.536195 -0.97915,1.828459 -1.49327,2.435408 -2.57125,3.035054 -1.07805,0.599742 -1.10265,0.292476 -0.12363,-1.535954 z m 3.23379,-1.798822 c 0.9789,-1.828209 1.49312,-2.435187 2.57108,-3.034901 1.07803,-0.599655 1.10253,-0.292341 0.12353,1.53607 -0.97924,1.828536 -1.49345,2.435505 -2.57122,3.035035 -1.07781,0.599482 -1.10261,0.292399 -0.12339,-1.536204 z m 3.23337,-1.798485 c 0.97928,-1.828614 1.49345,-2.435534 2.57123,-3.035045 1.0778,-0.599502 1.1024,-0.292197 0.12339,1.536224 -0.97921,1.82844 -1.49358,2.435668 -2.57124,3.035054 -1.07766,0.599338 -1.10245,0.292197 -0.12338,-1.536233 z m 3.23334,-1.798389 c 0.97946,-1.828816 1.49362,-2.435755 2.57124,-3.035074 1.07806,-0.599752 1.10287,-0.292669 0.12382,1.535761 -0.97928,1.828633 -1.49347,2.435582 -2.57127,3.035074 -1.07776,0.599453 -1.10254,0.292351 -0.12349,-1.536031 z m 3.23383,-1.798948 c 0.97901,-1.828411 1.49342,-2.435562 2.57125,-3.035054 1.07789,-0.599598 1.1024,-0.292197 0.12352,1.536002 -0.97916,1.828584 -1.49345,2.435591 -2.5714,3.035237 -1.07762,0.5993 -1.10255,0.292332 -0.12337,-1.536185 z m 3.23352,-1.79861 c 0.97927,-1.828556 1.49327,-2.435428 2.5711,-3.034929 1.07793,-0.599608 1.10253,-0.292332 0.12354,1.536021 -0.97922,1.828517 -1.49349,2.435582 -2.57111,3.034891 -1.07793,0.599704 -1.10259,0.292418 -0.12353,-1.535983 z m 3.23349,-1.79862 c 0.9792,-1.82845 1.49343,-2.435514 2.5711,-3.03492 1.07792,-0.599617 1.10269,-0.292428 0.1235,1.536099 -0.97895,1.828315 -1.49326,2.435331 -2.57123,3.035054 -1.07779,0.599473 -1.10239,0.292188 -0.12337,-1.536233 z m 3.23338,-1.798504 c 0.97926,-1.828556 1.49359,-2.43565 2.57151,-3.035267 1.0778,-0.599482 1.1024,-0.292216 0.12324,1.536301 -0.97897,1.828315 -1.49344,2.435582 -2.57122,3.035054 -1.07795,0.599617 -1.10229,0.29212 -0.12353,-1.536088 z m 3.23381,-1.798842 c 0.97894,-1.828286 1.49328,-2.435408 2.57106,-3.034891 1.07797,-0.599694 1.1026,-0.292437 0.12356,1.536002 -0.97928,1.828643 -1.49329,2.435409 -2.57097,3.034833 -1.07803,0.599666 -1.10285,0.292592 -0.12365,-1.535944 z m 174.61198,-97.128187 c 0.97932,-1.828604 1.49342,-2.435505 2.57161,-3.035343 1.07779,-0.599502 1.1023,-0.29213 0.12337,1.536214 -0.97891,1.828208 -1.49312,2.435186 -2.57129,3.035025 -1.0778,0.599482 -1.10273,0.292515 -0.12347,-1.536098 z m 3.23361,-1.79862 c 0.9791,-1.82844 1.49327,-2.435399 2.57149,-3.035276 1.0778,-0.599559 1.10239,-0.292235 0.12329,1.536224 -0.97906,1.828353 -1.49322,2.435379 -2.57135,3.035122 -1.07779,0.599472 -1.10257,0.29237 -0.12343,-1.53607 z m 3.23349,-1.79862 c 0.9791,-1.82844 1.49319,-2.435341 2.57153,-3.035276 1.07778,-0.599492 1.1024,-0.292207 0.12354,1.535993 -0.97937,1.82868 -1.49346,2.435581 -2.57151,3.035285 -1.0778,0.599482 -1.1024,0.292178 -0.12356,-1.536002 z m 3.23368,-1.798774 c 0.97884,-1.828247 1.49311,-2.435245 2.57132,-3.035112 1.07782,-0.599502 1.10242,-0.292207 0.12343,1.536137 -0.97895,1.828314 -1.4933,2.435408 -2.57138,3.03516 -1.07779,0.599521 -1.10258,0.292419 -0.12337,-1.536185 z m 3.23352,-1.79863 c 0.97891,-1.828208 1.49311,-2.435235 2.57134,-3.035122 1.07779,-0.599482 1.1024,-0.292187 0.12335,1.536243 -0.97904,1.828363 -1.49324,2.435332 -2.57118,3.034958 -1.07794,0.599618 -1.10272,0.292515 -0.12351,-1.536079 z m 3.2336,-1.798668 c 0.97891,-1.828228 1.49301,-2.43511 2.57119,-3.034958 1.07782,-0.599492 1.10273,-0.292553 0.12369,1.535896 -0.97923,1.828536 -1.49343,2.435505 -2.5716,3.035353 -1.07778,0.599463 -1.1026,0.292371 -0.12328,-1.536291 z m 3.23351,-1.798562 c 0.97901,-1.828401 1.49331,-2.435447 2.5712,-3.034977 1.07795,-0.599695 1.10248,-0.292352 0.12359,1.535915 -0.97927,1.828623 -1.49361,2.435726 -2.57166,3.035449 -1.07781,0.599492 -1.1024,0.292207 -0.12313,-1.536387 z m 3.23353,-1.798649 c 0.9791,-1.82845 1.49326,-2.43537 2.57117,-3.034929 1.07779,-0.599482 1.10272,-0.292515 0.12345,1.53605 -0.97911,1.828469 -1.49318,2.43537 -2.57152,3.035295 -1.07779,0.599483 -1.1024,0.292188 -0.12353,-1.536002 z m 3.23337,-1.798456 c 0.97938,-1.8287 1.49328,-2.435409 2.57149,-3.035276 1.07791,-0.599536 1.10251,-0.292268 0.12365,1.535915 -0.97936,1.828691 -1.49347,2.435601 -2.5715,3.035296 -1.07806,0.599751 -1.10258,0.292418 -0.12354,-1.536012 z m 3.2335,-1.79863 c 0.97916,-1.828431 1.4933,-2.435428 2.57162,-3.035356 1.07781,-0.599484 1.10229,-0.292109 0.12325,1.536315 -0.97905,1.828352 -1.49332,2.435426 -2.57137,3.03512 -1.07792,0.599627 -1.10254,0.292361 -0.1235,-1.536079 z m 3.23381,-1.798899 c 0.97891,-1.828219 1.49314,-2.435212 2.5712,-3.034981 1.07792,-0.599613 1.10273,-0.292518 0.12353,1.536073 -0.97907,1.828375 -1.49347,2.435534 -2.57135,3.035132 -1.07779,0.599472 -1.10258,0.29236 -0.12338,-1.536224 z M 427.46143,60.179342 c 0.97925,-1.828517 1.49343,-2.435514 2.57141,-3.035199 1.07778,-0.599473 1.1024,-0.292187 0.12336,1.536214 -0.97919,1.828469 -1.49329,2.43536 -2.57109,3.03491 -1.07782,0.599492 -1.10271,0.292486 -0.12368,-1.535925 z m 3.23368,-1.798765 c 0.97894,-1.828314 1.49325,-2.435341 2.5712,-3.035064 1.07793,-0.59952 1.10244,-0.292177 0.12339,1.536253 -0.97908,1.828382 -1.49332,2.435408 -2.57108,3.034919 -1.07791,0.599589 -1.10273,0.292496 -0.12351,-1.536108 z m 6.46722,-3.597423 c 0.97899,-1.828391 1.49319,-2.43535 2.57121,-3.035044 1.0778,-0.599483 1.10241,-0.292159 0.12326,1.536252 -0.97901,1.828402 -1.49331,2.435476 -2.57113,3.034997 -1.07774,0.599453 -1.1024,0.292178 -0.12334,-1.536205 z m 3.2335,-1.79862 c 0.97906,-1.828372 1.49317,-2.43535 2.571,-3.034861 1.07799,-0.599627 1.10261,-0.292361 0.12335,1.536204 -0.979,1.828411 -1.49327,2.435418 -2.57108,3.03491 -1.0778,0.599521 -1.10261,0.292428 -0.12354,-1.536012 z m 3.23336,-1.798485 c 0.97926,-1.828546 1.49346,-2.435505 2.57126,-3.035044 1.07789,-0.599598 1.10251,-0.292323 0.12348,1.536088 -0.97926,1.828594 -1.49341,2.435505 -2.57121,3.035045 -1.0779,0.599521 -1.10258,0.292342 -0.12353,-1.536089 z m 6.46722,-3.597413 c 0.97901,-1.828402 1.49332,-2.435505 2.57113,-3.034987 1.0778,-0.59954 1.10258,-0.292419 0.12338,1.536185 -0.979,1.828401 -1.49331,2.435418 -2.57127,3.035054 -1.07778,0.599483 -1.10238,0.292188 -0.12334,-1.536175 z m 3.23353,-1.79863 c 0.979,-1.828401 1.4934,-2.435553 2.57115,-3.034996 1.07778,-0.599473 1.10236,-0.292168 0.12337,1.536166 -0.97929,1.828613 -1.49346,2.435591 -2.57099,3.034861 -1.07805,0.599665 -1.1027,0.292409 -0.12353,-1.536031 z m 177.84601,-98.927529 c 0.97911,-1.828479 1.4932,-2.435361 2.57125,-3.035064 1.07778,-0.599463 1.10268,-0.292448 0.12349,1.536098 -0.97922,1.828507 -1.49329,2.435399 -2.57117,3.034968 -1.07792,0.599588 -1.10274,0.292495 -0.12357,-1.536002 z m 3.23352,-1.79862 c 0.97894,-1.828286 1.49319,-2.435361 2.57135,-3.035141 1.07778,-0.599473 1.10255,-0.292332 0.12339,1.536165 -0.97922,1.828517 -1.49331,2.435438 -2.57133,3.035122 -1.07784,0.59956 -1.10245,0.292265 -0.12341,-1.536146 z m 3.23338,-1.798495 c 0.9792,-1.828527 1.49342,-2.435572 2.5715,-3.035276 1.07781,-0.599501 1.10254,-0.292332 0.12352,1.536089 -0.97921,1.828517 -1.49343,2.435485 -2.57154,3.035295 -1.07789,0.599598 -1.10251,0.292313 -0.12348,-1.536108 z m 6.46712,-3.597375 c 0.97919,-1.828507 1.49328,-2.435418 2.57162,-3.035363 1.07779,-0.59952 1.10258,-0.292418 0.12336,1.536186 -0.97932,1.828594 -1.4934,2.435495 -2.57134,3.035121 -1.07779,0.599473 -1.10258,0.292352 -0.12354,-1.536002 z m 3.23361,-1.798687 c 0.97909,-1.82844 1.49346,-2.435563 2.57149,-3.035272 1.07778,-0.599455 1.10241,-0.292177 0.12356,1.535988 -0.97938,1.82871 -1.49362,2.435755 -2.57152,3.035324 -1.07801,0.599646 -1.10281,0.292563 -0.12364,-1.535954 z m 3.23337,-1.798457 c 0.97927,-1.828626 1.49361,-2.435743 2.57151,-3.035306 1.07792,-0.599602 1.10253,-0.292316 0.12354,1.53601 -0.97925,1.828617 -1.49346,2.435595 -2.5715,3.035279 -1.07767,0.599425 -1.10257,0.292429 -0.12355,-1.535983 z m 6.46737,-3.597626 c 0.97906,-1.828387 1.49314,-2.435269 2.57152,-3.035314 1.07753,-0.599266 1.10241,-0.292186 0.12323,1.536326 -0.97907,1.828388 -1.49318,2.435279 -2.57146,3.035273 -1.07767,0.599337 -1.10259,0.292364 -0.12339,-1.536226 z m 3.23353,-1.798585 c 0.97909,-1.828447 1.49328,-2.435409 2.57134,-3.035124 1.07796,-0.599691 1.10256,-0.292405 0.12323,1.536254 -0.97889,1.828226 -1.49298,2.435171 -2.57104,3.034883 -1.07805,0.599693 -1.10286,0.292602 -0.12383,-1.535755 z m 3.2335,-1.798627 c 0.97922,-1.82852 1.49327,-2.43539 2.57132,-3.035105 1.0778,-0.599474 1.10273,-0.292507 0.12357,1.535996 -0.97923,1.828528 -1.49331,2.435421 -2.57135,3.035125 -1.07792,0.599601 -1.10258,0.292359 -0.12354,-1.536016 z M 433.63231,52.895209 c 0.97929,-1.828642 1.49344,-2.435572 2.57151,-3.035295 1.07754,-0.59927 1.10229,-0.29212 0.12325,1.536243 -0.97899,1.828401 -1.49318,2.43536 -2.57112,3.034997 -1.0778,0.599472 -1.10242,0.292177 -0.12339,-1.536195 z m 3.23379,-1.798918 c 0.97897,-1.828305 1.4933,-2.435399 2.57126,-3.035074 1.07779,-0.599472 1.1023,-0.292101 0.12312,1.536407 -0.97897,1.828295 -1.49321,2.43535 -2.57098,3.034823 -1.0778,0.59955 -1.10242,0.292264 -0.1234,-1.536156 z m 3.23354,-1.79862 c 0.97908,-1.828392 1.49344,-2.435524 2.57123,-3.035064 1.07779,-0.599492 1.10239,-0.292188 0.12335,1.536233 -0.97923,1.828565 -1.49341,2.435505 -2.5712,3.035045 -1.07782,0.599482 -1.10239,0.292197 -0.12338,-1.536214 z m 3.2335,-1.79864 c 0.97908,-1.828353 1.49346,-2.435495 2.57111,-3.0349 1.07788,-0.599511 1.1028,-0.292573 0.12349,1.536099 -0.97895,1.828295 -1.4933,2.435408 -2.57122,3.035064 -1.07781,0.599453 -1.10241,0.292168 -0.12338,-1.536263 z m 3.23333,-1.798408 c 0.9793,-1.828623 1.4935,-2.435572 2.57139,-3.035131 1.07779,-0.59955 1.10258,-0.292419 0.12354,1.536012 -0.97928,1.828642 -1.49346,2.435582 -2.5711,3.0349 -1.0779,0.599607 -1.1028,0.292553 -0.12352,-1.536012 z m 3.23385,-1.798918 c 0.97895,-1.828296 1.49318,-2.435341 2.57108,-3.034891 1.07792,-0.599617 1.10271,-0.292515 0.12359,1.535964 -0.97933,1.828661 -1.49331,2.435437 -2.57115,3.034939 -1.07792,0.599607 -1.10272,0.292514 -0.12352,-1.536012 z m 3.23338,-1.798476 c 0.97923,-1.828536 1.49327,-2.435437 2.57122,-3.035064 1.07781,-0.599472 1.10257,-0.29236 0.12355,1.536002 -0.97931,1.828643 -1.49329,2.435409 -2.57125,3.035064 -1.07794,0.599695 -1.10258,0.292409 -0.12352,-1.536002 z M 637.34639,-60.42101 c 0.97922,-1.828527 1.49343,-2.435515 2.57149,-3.035286 1.07779,-0.599453 1.10241,-0.292187 0.12352,1.536089 -0.97921,1.828507 -1.4934,2.435466 -2.57163,3.03542 -1.07767,0.599348 -1.10241,0.292207 -0.12338,-1.536223 z m 3.23361,-1.79862 c 0.97926,-1.828623 1.4933,-2.435476 2.57141,-3.03523 1.0778,-0.599542 1.10267,-0.292462 0.12337,1.536197 -0.97905,1.828343 -1.49328,2.435389 -2.5715,3.035266 -1.07763,0.599309 -1.10241,0.292197 -0.12338,-1.536175 z m 3.2335,-1.798611 c 0.97927,-1.828637 1.49348,-2.435587 2.57151,-3.035288 1.07778,-0.599459 1.10242,-0.292198 0.12337,1.536177 -0.97922,1.828518 -1.49329,2.435419 -2.57131,3.035094 -1.0778,0.599473 -1.10259,0.292371 -0.12357,-1.535983 z m 3.23353,-1.798636 c 0.97926,-1.828622 1.49347,-2.435591 2.57136,-3.035145 1.07793,-0.599609 1.10256,-0.292341 0.12369,1.535846 -0.97937,1.828718 -1.49348,2.435623 -2.57151,3.035308 -1.07807,0.599752 -1.10269,0.292496 -0.12354,-1.536009 z m 3.23351,-1.798618 c 0.97906,-1.828383 1.49346,-2.435596 2.57136,-3.035139 1.07795,-0.59963 1.10255,-0.292342 0.1235,1.53609 -0.97921,1.828535 -1.49342,2.435514 -2.57133,3.035117 -1.07779,0.599474 -1.10257,0.292363 -0.12353,-1.536068 z m 3.23377,-1.798842 c 0.97906,-1.828368 1.49302,-2.435118 2.5712,-3.034973 1.07792,-0.599594 1.10271,-0.292506 0.12367,1.535929 -0.97931,1.828594 -1.49342,2.435492 -2.57152,3.035292 -1.07777,0.599467 -1.10239,0.292189 -0.12335,-1.536248 z m 3.23352,-1.798554 c 0.9791,-1.828454 1.49301,-2.435173 2.57108,-3.03489 1.07789,-0.599601 1.10267,-0.292485 0.12337,1.536158 -0.9788,1.828136 -1.49318,2.435348 -2.57119,3.034976 -1.07792,0.599604 -1.10274,0.292517 -0.12326,-1.536244 z m 3.2335,-1.798628 c 0.97922,-1.828505 1.49329,-2.435395 2.57131,-3.0351 1.07781,-0.599474 1.1026,-0.292358 0.12345,1.536135 -0.97939,1.828704 -1.49331,2.435425 -2.57141,3.035172 -1.07792,0.599597 -1.10253,0.292325 -0.12335,-1.536207 z m 3.23338,-1.798479 c 0.9791,-1.828451 1.49329,-2.435396 2.57132,-3.035091 1.07793,-0.599613 1.10258,-0.292375 0.12354,1.535987 -0.9791,1.828462 -1.49328,2.435416 -2.57151,3.035301 -1.07778,0.59953 -1.10239,0.292223 -0.12335,-1.536197 z M 510.10818,9.7446999 c 0.0336,-0.53147 0.6702,-1.896491 1.41447,-3.033581 1.82836,-2.793826 4.13142,-4.074898 3.24991,-1.807734 -0.70219,1.805788 -2.94869,4.818962 -4.04923,5.4311621 -0.37142,0.206408 -0.64883,-0.05858 -0.61516,-0.5898181 z M 588.2526,-33.723309 c 0.0925,-1.458181 2.53788,-4.973024 4.04173,-5.809505 0.8115,-0.451538 1.03796,-0.09981 0.62252,0.968325 -0.70212,1.805692 -2.94868,4.818914 -4.04925,5.431114 -0.37117,0.206263 -0.64862,-0.05868 -0.615,-0.589934 z M 439.803,45.611607 c 0.97909,-1.828382 1.49343,-2.435515 2.57133,-3.035122 1.07783,-0.599492 1.1026,-0.29237 0.12328,1.53631 -0.97905,1.828354 -1.49328,2.43539 -2.57111,3.03491 -1.0779,0.599598 -1.1025,0.292303 -0.12339,-1.536156 z m 12.93414,-7.194576 c 0.97925,-1.828537 1.49344,-2.435515 2.57124,-3.035055 1.07791,-0.599617 1.10269,-0.292515 0.12354,1.53605 -0.97908,1.828392 -1.49329,2.435351 -2.57127,3.035103 -1.07793,0.599578 -1.10254,0.292313 -0.12351,-1.536098 z m 194.0136,-107.920459 c 0.97906,-1.828369 1.49329,-2.43541 2.57161,-3.035348 1.07753,-0.59926 1.10231,-0.292114 0.12309,1.536477 -0.9789,1.828208 -1.49316,2.435274 -2.57118,3.034955 -1.07804,0.599679 -1.10273,0.292528 -0.12352,-1.536084 z m 3.23337,-1.798473 c 0.97932,-1.828595 1.49353,-2.435569 2.57163,-3.035363 1.07793,-0.599603 1.10244,-0.292274 0.12349,1.536096 -0.97932,1.828595 -1.49341,2.435481 -2.57161,3.035348 -1.07779,0.599463 -1.1023,0.292122 -0.12351,-1.536081 z m 3.23379,-1.798832 c 0.97911,-1.828462 1.49332,-2.435493 2.57135,-3.035129 1.07794,-0.599681 1.10254,-0.292394 0.12342,1.536088 -0.97922,1.828504 -1.49349,2.435652 -2.57139,3.035199 -1.07794,0.599623 -1.10242,0.292205 -0.12338,-1.536158 z m 3.23352,-1.798628 c 0.97911,-1.828452 1.49316,-2.435323 2.57131,-3.035109 1.0778,-0.599475 1.10258,-0.292357 0.12329,1.536228 -0.97911,1.828463 -1.49315,2.435341 -2.57132,3.035129 -1.07772,0.599413 -1.10274,0.292507 -0.12328,-1.536248 z m 3.2335,-1.798618 c 0.97911,-1.828482 1.49328,-2.435405 2.57133,-3.035123 1.07766,-0.599338 1.10258,-0.292358 0.12314,1.53638 -0.97911,1.828484 -1.493,2.435175 -2.57109,3.034909 -1.07789,0.599584 -1.10269,0.292497 -0.12365,-1.535934 z M 439.50662,41.925138 c 0.97927,-1.828632 1.49346,-2.435582 2.57125,-3.035054 1.07789,-0.599617 1.1027,-0.292496 0.12337,1.536146 -0.97902,1.828402 -1.49329,2.435438 -2.57109,3.03492 -1.07791,0.599617 -1.10255,0.292332 -0.12353,-1.536012 z m 19.40147,-10.792153 c 0.97894,-1.828315 1.49327,-2.435419 2.57107,-3.034901 1.07779,-0.599463 1.10258,-0.29237 0.12356,1.536002 -0.97928,1.828624 -1.49328,2.435399 -2.57122,3.035055 -1.0778,0.599473 -1.10259,0.292361 -0.12341,-1.536156 z" id="path3907" inkscape:connector-curvature="0" inkscape:transform-center-y="-33.919043" inkscape:transform-center-x="-29.32005" inkscape:export-filename="/home/sobkas/Obrazy/Mascot_s.png" inkscape:export-xdpi="60" inkscape:export-ydpi="60"/>
    <path style="fill:#333333;fill-opacity:1;stroke:#ff0000;stroke-width:5.36138439;stroke-linecap:round;stroke-linejoin:round;stroke-miterlimit:4;stroke-opacity:1;stroke-dasharray:none" d="" id="path3858" inkscape:connector-curvature="0"/>
    <path style="fill:#ffffff;fill-opacity:1;stroke:none" d="m 478.0271,529.96459 c -31.36743,-27.57111 -55.73547,-47.6573 -90.2346,-76.10199 1.03949,-107.54572 1.39882,-223.86416 2.06812,-315.78361 C 470.98994,91.699927 559.51773,38.544365 641.88664,-8.2794141 640.56329,97.622689 642.48875,207.25887 641.12588,315.9722 c 25.95938,22.75129 60.38671,59.51499 81.34753,77.96002 0.47652,20.95184 2.7896,267.8519 3.0802,276.40537 -5.36035,3.51983 -145.20895,94.82211 -248.48965,161.78149 -0.13812,-132.32995 0.95742,-161.4627 0.96314,-302.15449 z" id="path3209" inkscape:connector-curvature="0" sodipodi:nodetypes="ccccccccc"/>
    <path style="fill:url(#linearGradient3987);fill-opacity:1;stroke:url(#linearGradient3989);stroke-width:16.07610893;stroke-linecap:round;stroke-linejoin:round;stroke-miterlimit:4;stroke-opacity:1;stroke-dasharray:none" d="M 624.12827,20.159204 406.13068,145.41215 407.12993,426.35829 623.12902,309.91806 z" id="rect2985" inkscape:connector-curvature="0" sodipodi:nodetypes="ccccc" inkscape:export-filename="/home/sobkas/Obrazy/Mascot_s.png" inkscape:export-xdpi="60" inkscape:export-ydpi="60"/>
    <g id="g3803" transform="matrix(1.0856594,-1.3967759,-0.26051736,1.0924479,1608.4409,279.23072)">
      <path inkscape:export-ydpi="60" inkscape:export-xdpi="60" inkscape:export-filename="/home/sobkas/Obrazy/Mascot_s.png" sodipodi:nodetypes="cccc" inkscape:connector-curvature="0" id="path3921" d="M 287.2524,398.61365 427.55806,493.38343 277.6801,464.98671 c 27.4769,-16.8414 37.8356,-22.98875 9.5723,-66.37306 z" style="fill:none;stroke:#000000;stroke-width:16;stroke-linecap:butt;stroke-linejoin:miter;stroke-miterlimit:4;stroke-opacity:1;stroke-dasharray:none"/>
      <text inkscape:export-ydpi="60" inkscape:export-xdpi="60" inkscape:export-filename="/home/sobkas/Obrazy/Mascot_s.png" transform="matrix(0.78635391,0.61351798,0.13076838,1.3737183,0,0)" sodipodi:linespacing="125%" id="text3913" y="105.7935" x="351.27417" style="font-size:52.67292404px;font-style:normal;font-variant:normal;font-weight:normal;font-stretch:normal;line-height:125%;letter-spacing:0px;word-spacing:0px;fill:#000000;fill-opacity:1;stroke:#000000;stroke-width:0.3657842px;stroke-linecap:butt;stroke-linejoin:miter;stroke-opacity:1;font-family:MgOpen Modata;-inkscape-font-specification:MgOpen Modata" xml:space="preserve"><tspan style="font-size:93.02226257px;font-weight:bold;stroke-width:0.3657842;-inkscape-font-specification:MgOpen Modata Bold" y="105.7935" x="351.27417" id="tspan3915" sodipodi:role="line">GOL</tspan></text>
    </g>
    <path style="fill:#000000;fill-opacity:1;stroke:none" d="m 384.68014,455.44644 256.36275,-139.5512 82.97315,77.03079 -246.29157,137.28829 z" id="rect3979" inkscape:connector-curvature="0" sodipodi:nodetypes="ccccc"/>
    <g id="g4160" transform="matrix(0.62697811,0,0,0.61067757,1159.9431,7.1853959)">
      <path transform="matrix(0.45241298,0,0,0.45241298,-377.45754,286.00111)" sodipodi:open="true" sodipodi:end="9.8042497" sodipodi:start="3.5276912" d="m -1201.2142,732.94645 c 13.8659,-26.35796 52.7583,-39.03945 86.8686,-28.3249 34.1103,10.71455 50.5216,40.76776 36.6557,67.12573 -13.8658,26.35796 -52.7582,39.03945 -86.8685,28.3249 -33.9506,-10.66438 -50.3965,-40.50441 -36.8208,-66.80904" sodipodi:ry="51.51778" sodipodi:rx="66.670067" sodipodi:cy="752.34686" sodipodi:cx="-1139.452" id="path4116" style="fill:#ff0000;fill-opacity:1;stroke:none" sodipodi:type="arc"/>
      <path sodipodi:open="true" sodipodi:end="9.8042497" sodipodi:start="3.5276912" d="m -1201.2142,732.94645 c 13.8659,-26.35796 52.7583,-39.03945 86.8686,-28.3249 34.1103,10.71455 50.5216,40.76776 36.6557,67.12573 -13.8658,26.35796 -52.7582,39.03945 -86.8685,28.3249 -33.9506,-10.66438 -50.3965,-40.50441 -36.8208,-66.80904" sodipodi:ry="51.51778" sodipodi:rx="66.670067" sodipodi:cy="752.34686" sodipodi:cx="-1139.452" id="path4122" style="fill:#000000;fill-opacity:1;stroke:#000000;stroke-width:6.71712303;stroke-miterlimit:4;stroke-dasharray:none;filter:url(#filter4140)" sodipodi:type="arc" transform="matrix(-0.29969907,-0.07748002,0.08186272,-0.28365398,-1295.7514,751.51978)"/>
      <path transform="matrix(-0.2932337,-0.08425254,0.08009671,-0.30844816,-1285.5125,759.47848)" sodipodi:type="arc" style="fill:url(#radialGradient3202);fill-opacity:1;stroke:none" id="path4118" sodipodi:cx="-1139.452" sodipodi:cy="752.34686" sodipodi:rx="66.670067" sodipodi:ry="51.51778" d="m -1201.2142,732.94645 c 13.8659,-26.35796 52.7583,-39.03945 86.8686,-28.3249 34.1103,10.71455 50.5216,40.76776 36.6557,67.12573 -13.8658,26.35796 -52.7582,39.03945 -86.8685,28.3249 -33.9506,-10.66438 -50.3965,-40.50441 -36.8208,-66.80904" sodipodi:start="3.5276912" sodipodi:end="9.8042497" sodipodi:open="true"/>
    </g>
    <g transform="matrix(0.62697811,0,0,0.61067757,1198.8048,-12.772572)" id="g4167">
      <path sodipodi:type="arc" style="fill:#ff0000;fill-opacity:1;stroke:none" id="path4169" sodipodi:cx="-1139.452" sodipodi:cy="752.34686" sodipodi:rx="66.670067" sodipodi:ry="51.51778" d="m -1201.2142,732.94645 c 13.8659,-26.35796 52.7583,-39.03945 86.8686,-28.3249 34.1103,10.71455 50.5216,40.76776 36.6557,67.12573 -13.8658,26.35796 -52.7582,39.03945 -86.8685,28.3249 -33.9506,-10.66438 -50.3965,-40.50441 -36.8208,-66.80904" sodipodi:start="3.5276912" sodipodi:end="9.8042497" sodipodi:open="true" transform="matrix(0.45241298,0,0,0.45241298,-377.45754,286.00111)"/>
      <path transform="matrix(-0.29969907,-0.07748002,0.08186272,-0.28365398,-1295.7514,751.51978)" sodipodi:type="arc" style="fill:#000000;fill-opacity:1;stroke:#000000;stroke-width:6.71712303;stroke-miterlimit:4;stroke-dasharray:none;filter:url(#filter4140)" id="path4171" sodipodi:cx="-1139.452" sodipodi:cy="752.34686" sodipodi:rx="66.670067" sodipodi:ry="51.51778" d="m -1201.2142,732.94645 c 13.8659,-26.35796 52.7583,-39.03945 86.8686,-28.3249 34.1103,10.71455 50.5216,40.76776 36.6557,67.12573 -13.8658,26.35796 -52.7582,39.03945 -86.8685,28.3249 -33.9506,-10.66438 -50.3965,-40.50441 -36.8208,-66.80904" sodipodi:start="3.5276912" sodipodi:end="9.8042497" sodipodi:open="true"/>
      <path sodipodi:open="true" sodipodi:end="9.8042497" sodipodi:start="3.5276912" d="m -1201.2142,732.94645 c 13.8659,-26.35796 52.7583,-39.03945 86.8686,-28.3249 34.1103,10.71455 50.5216,40.76776 36.6557,67.12573 -13.8658,26.35796 -52.7582,39.03945 -86.8685,28.3249 -33.9506,-10.66438 -50.3965,-40.50441 -36.8208,-66.80904" sodipodi:ry="51.51778" sodipodi:rx="66.670067" sodipodi:cy="752.34686" sodipodi:cx="-1139.452" id="path4173" style="fill:url(#radialGradient3204);fill-opacity:1;stroke:none" sodipodi:type="arc" transform="matrix(-0.2932337,-0.08425254,0.08009671,-0.30844816,-1285.5125,759.47848)"/>
    </g>
    <text xml:space="preserve" style="font-size:88.95114136px;font-style:normal;font-variant:normal;font-weight:normal;font-stretch:normal;text-align:end;line-height:125%;letter-spacing:0px;word-spacing:0px;text-anchor:end;fill:#000000;fill-opacity:1;stroke:#000000;stroke-width:1.23543262px;stroke-linecap:butt;stroke-linejoin:miter;stroke-opacity:1;font-family:MgOpen Modata;-inkscape-font-specification:MgOpen Modata" x="2630.2969" y="611.53131" id="text4204" sodipodi:linespacing="125%" transform="matrix(0.76404771,-0.45391634,-0.14089503,1.3925237,0,0)" inkscape:transform-center-x="192.59649" inkscape:transform-center-y="126.24664"><tspan sodipodi:role="line" id="tspan4206" x="2630.2969" y="611.53131" style="font-weight:bold;text-align:end;text-anchor:end;stroke-width:1.23543262;-inkscape-font-specification:MgOpen Modata Bold">GAME</tspan><tspan sodipodi:role="line" x="2630.2969" y="722.72028" id="tspan4208" style="font-weight:bold;text-align:end;text-anchor:end;stroke-width:1.23543262;-inkscape-font-specification:MgOpen Modata Bold">OVER</tspan></text>
    <text xml:space="preserve" style="font-size:224.25257874px;font-style:normal;font-variant:normal;font-weight:normal;font-stretch:normal;line-height:125%;letter-spacing:0px;word-spacing:0px;fill:#000000;fill-opacity:1;stroke:none;font-family:MgOpen Modata;-inkscape-font-specification:MgOpen Modata" x="2969.1472" y="1041.5955" id="text4200" sodipodi:linespacing="125%" transform="matrix(0.59461645,-0.31960756,0.02568262,1.6679519,0,0)"><tspan sodipodi:role="line" id="tspan4202" x="2969.1472" y="1041.5955" style="font-style:normal;font-variant:normal;font-weight:bold;font-stretch:normal;font-family:Linux Biolinum O;-inkscape-font-specification:Linux Biolinum O Bold">404</tspan></text>
    <text xml:space="preserve" style="font-size:173.12612915px;font-style:normal;font-variant:normal;font-weight:normal;font-stretch:normal;line-height:125%;letter-spacing:0px;word-spacing:0px;fill:#000000;stroke:#000000;stroke-width:1.20226479px;stroke-linecap:butt;stroke-linejoin:miter;stroke-opacity:1;font-family:MgOpen Modata;-inkscape-font-specification:MgOpen Modata" x="754.51447" y="390.70279" id="text4556" sodipodi:linespacing="125%" transform="matrix(0.57177018,-0.37843872,-0.0376509,1.7738745,0,0)"><tspan sodipodi:role="line" id="tspan4558" x="754.51447" y="390.70279" style="font-weight:bold;stroke-width:1.20226479;-inkscape-font-specification:MgOpen Modata Bold">SVG</tspan></text>
    <path sodipodi:nodetypes="ccccccccc" inkscape:connector-curvature="0" id="path4068" d="m 474.97586,530.1261 c 0,0 -55.78212,-47.7057 -89.8752,-75.55393 0.962,-92.26464 0.93153,-202.08423 2.07011,-315.371 C 473.71818,87.990891 638.84219,-7.1242393 638.84219,-7.1242393 l 0.99217,324.8261393 84.01227,73.33429 4.5083,278.49951 -254.72945,163.1898 z" style="opacity:0.70709994;fill:url(#linearGradient4072);fill-opacity:1;stroke:none"/>
    <g id="g4028" transform="matrix(0.98920587,0,0,0.96348793,232.63103,-213.81442)">
      <path transform="matrix(0.82117164,-0.28861775,0.46813692,0.66473235,507.42264,-11.988781)" sodipodi:open="true" sodipodi:end="9.8042497" sodipodi:start="3.5276912" d="m -752.15171,738.16013 c 8.29853,-14.47104 31.57503,-21.43342 51.98953,-15.55092 20.4145,5.8825 30.23644,22.3823 21.93791,36.85334 -8.29852,14.47104 -31.57503,21.43342 -51.98953,15.55092 -20.3189,-5.85495 -30.16151,-22.23771 -22.03667,-36.67947" sodipodi:ry="28.284271" sodipodi:rx="39.901024" sodipodi:cy="748.81134" sodipodi:cx="-715.18799" id="path4229" style="fill:url(#radialGradient4014);fill-opacity:1;stroke:none" sodipodi:type="arc"/>
      <path sodipodi:nodetypes="ccccc" inkscape:connector-curvature="0" id="rect4218" d="m 241.40042,619.67174 26.87815,-5.57356 15.13822,73.00318 c -7.68848,12.03319 -18.90048,12.01794 -26.87815,5.57355 z" style="fill:url(#linearGradient4024);fill-opacity:1;stroke:none"/>
      <path inkscape:export-ydpi="60" inkscape:export-xdpi="60" inkscape:export-filename="/home/sobkas/Obrazy/Mascot_s.png" sodipodi:nodetypes="csssc" inkscape:connector-curvature="0" id="path3783" d="m 234.32549,614.97724 c 1.94674,-10.87004 12.24275,-18.04069 22.99666,-16.01608 10.75394,2.02462 16.78437,7.12865 14.83762,17.99868 -1.94682,10.87006 -12.2428,18.04071 -22.99665,16.01607 -10.7036,-2.01512 -16.72717,-7.03592 -14.86052,-17.86817" style="fill:url(#radialGradient4021);fill-opacity:1;stroke:none"/>
    </g>
    <g transform="matrix(0.98920587,0,0,0.96348793,232.63103,-213.81442)" id="g4033" style="opacity:0.23372785;fill:#000000;fill-opacity:1;filter:url(#filter4045)">
      <path sodipodi:type="arc" style="fill:#000000;fill-opacity:1;stroke:none" id="path4035" sodipodi:cx="-715.18799" sodipodi:cy="748.81134" sodipodi:rx="39.901024" sodipodi:ry="28.284271" d="m -752.15171,738.16013 c 8.29853,-14.47104 31.57503,-21.43342 51.98953,-15.55092 20.4145,5.8825 30.23644,22.3823 21.93791,36.85334 -8.29852,14.47104 -31.57503,21.43342 -51.98953,15.55092 -20.3189,-5.85495 -30.16151,-22.23771 -22.03667,-36.67947" sodipodi:start="3.5276912" sodipodi:end="9.8042497" sodipodi:open="true" transform="matrix(0.82117164,-0.28861775,0.46813692,0.66473235,507.42264,-11.988781)"/>
      <path style="fill:#000000;fill-opacity:1;stroke:none" d="m 241.40042,619.67174 26.87815,-5.57356 15.13822,73.00318 c -7.68848,12.03319 -18.90048,12.01794 -26.87815,5.57355 z" id="path4037" inkscape:connector-curvature="0" sodipodi:nodetypes="ccccc"/>
      <path style="fill:#000000;fill-opacity:1;stroke:none" d="m 234.32549,614.97724 c 1.94674,-10.87004 12.24275,-18.04069 22.99666,-16.01608 10.75394,2.02462 16.78437,7.12865 14.83762,17.99868 -1.94682,10.87006 -12.2428,18.04071 -22.99665,16.01607 -10.7036,-2.01512 -16.72717,-7.03592 -14.86052,-17.86817" id="path4039" inkscape:connector-curvature="0" sodipodi:nodetypes="csssc" inkscape:export-filename="/home/sobkas/Obrazy/Mascot_s.png" inkscape:export-xdpi="60" inkscape:export-ydpi="60"/>
    </g>
    <g id="g4140" transform="matrix(0.98799735,0.04761142,-0.04888229,0.96231083,80.961506,-143.94805)">
      <path inkscape:export-ydpi="60" inkscape:export-xdpi="60" inkscape:export-filename="/home/sobkas/Obrazy/Mascot_s.png" sodipodi:nodetypes="ccc" inkscape:connector-curvature="0" id="path3817" d="m 777.52444,452.72335 c -162.9115,38.41464 -202.54086,-59.57006 -192.56139,-92.98387 41.1398,33.08981 95.26029,48.37405 187.09859,11.92101" style="fill:url(#linearGradient4149);fill-opacity:1;stroke:url(#linearGradient4151);stroke-width:16.46699905;stroke-linecap:butt;stroke-linejoin:miter;stroke-miterlimit:4;stroke-opacity:1;stroke-dasharray:none"/>
      <path inkscape:export-ydpi="60" inkscape:export-xdpi="60" inkscape:export-filename="/home/sobkas/Obrazy/Mascot_s.png" sodipodi:nodetypes="ssccccs" inkscape:connector-curvature="0" id="path3796" d="m 661.43264,896.23768 c -10.612,1.3239 12.955,26.6069 5.473,29.2299 -7.481,2.6229 -40.12499,4.7861 -40.12499,4.7861 0,0 25.63599,16.94236 28.94999,26.4517 0.47,4.0073 -39.594,4.9495 -38.27799,8.35 75.79399,94.72542 288.54199,27.4651 258.00599,-6.8701 -26.418,-21.3171 -149.352,-70.0154 -214.026,-61.9476 z" style="fill:url(#linearGradient4153);fill-opacity:1;stroke:url(#linearGradient4155);stroke-width:16.46699905;stroke-linecap:round;stroke-linejoin:round;stroke-miterlimit:4;stroke-opacity:1"/>
      <path inkscape:export-ydpi="60" inkscape:export-xdpi="60" inkscape:export-filename="/home/sobkas/Obrazy/Mascot_s.png" style="fill:url(#linearGradient4157);fill-opacity:1;stroke:url(#linearGradient4159);stroke-width:16.46699905;stroke-linecap:butt;stroke-linejoin:miter;stroke-miterlimit:4;stroke-opacity:1;stroke-dasharray:none" d="M 786.61264,264.5273 C 545.61178,199.42435 486.98661,365.48326 501.7496,422.1111 562.60922,366.03236 642.67164,340.1295 778.53144,401.90805" id="path3819" inkscape:connector-curvature="0" sodipodi:nodetypes="ccc"/>
      <path style="fill:url(#linearGradient4161);fill-opacity:1;stroke:url(#linearGradient4163);stroke-width:16.46699905;stroke-linecap:butt;stroke-linejoin:miter;stroke-miterlimit:4;stroke-opacity:1;stroke-dasharray:none;filter:url(#filter3897)" d="m 321.94244,626.16194 c 0,0 -56.9572,223.9246 -137.3807,226.2742 -75.27829,2.1992 -258.599075,-157.5838 -258.599075,-157.5838 0,0 158.79078,31.4809 214.152275,14.1421 41.6537,-13.0455 42.4264,-149.50256 42.4264,-149.50256" id="path4050" inkscape:connector-curvature="0" sodipodi:nodetypes="cscsc" inkscape:export-filename="/home/sobkas/Obrazy/Mascot_s.png" inkscape:export-xdpi="60" inkscape:export-ydpi="60" transform="matrix(0.98717288,0.15965493,-0.15965493,0.98717288,738.72805,-140.96175)"/>
      <path sodipodi:nodetypes="cc" inkscape:connector-curvature="0" id="path4058" d="m 1053.857,1056.3567 c 360.5069,192.3339 288.6546,72.2096 216.7296,-75.70682" style="fill:url(#linearGradient4165);fill-opacity:1;stroke:none"/>
      <path inkscape:export-ydpi="60" inkscape:export-xdpi="60" inkscape:export-filename="/home/sobkas/Obrazy/Mascot_s.png" sodipodi:nodetypes="sssss" inkscape:connector-curvature="0" id="path3767" d="m 718.72684,909.90397 c 28.3638,99.71803 141.0649,149.85433 251.7004,149.85653 110.63546,0 293.48796,-39.5284 311.85906,-104.17522 C 1396.8443,552.46304 1048.8257,218.16083 868.62794,163.52671 688.43024,108.89261 553.2692,328.2072 718.72684,909.90397 z" style="fill:url(#linearGradient4167);fill-opacity:1;stroke:url(#linearGradient4169);stroke-width:16.46699905;stroke-linecap:round;stroke-linejoin:round;stroke-miterlimit:4;stroke-opacity:1;stroke-dasharray:none;filter:url(#filter3873)"/>
      <path transform="matrix(0.9205173,0.3907018,-0.3907018,0.9205173,791.44742,-79.78052)" inkscape:export-ydpi="60" inkscape:export-xdpi="60" inkscape:export-filename="/home/sobkas/Obrazy/Mascot_s.png" sodipodi:nodetypes="cscsc" inkscape:connector-curvature="0" id="path3774" d="m 321.94244,626.16194 c 0,0 -56.9572,223.9246 -137.3807,226.2742 -75.27829,2.1992 -258.599075,-157.5838 -258.599075,-157.5838 0,0 158.79078,31.4809 214.152275,14.1421 41.6537,-13.0455 42.4264,-149.50256 42.4264,-149.50256" style="fill:url(#linearGradient4171);fill-opacity:1;stroke:url(#linearGradient4173);stroke-width:16.46699905;stroke-linecap:butt;stroke-linejoin:miter;stroke-miterlimit:4;stroke-opacity:1;stroke-dasharray:none;filter:url(#filter3897)"/>
    </g>
  </g>
</svg>