<?xml version="1.0" encoding="UTF-8" standalone="no"?>
<!-- Created with Inkscape (http://www.inkscape.org/) -->

<svg
   xmlns:dc="http://purl.org/dc/elements/1.1/"
   xmlns:cc="http://creativecommons.org/ns#"
   xmlns:rdf="http://www.w3.org/1999/02/22-rdf-syntax-ns#"
   xmlns:svg="http://www.w3.org/2000/svg"
   xmlns="http://www.w3.org/2000/svg"
   xmlns:sodipodi="http://sodipodi.sourceforge.net/DTD/sodipodi-0.dtd"
   xmlns:inkscape="http://www.inkscape.org/namespaces/inkscape"
   width="1500"
   height="500"
   id="svg2"
   version="1.1"
   inkscape:version="0.48.4 r9939"
   sodipodi:docname="Nowy dokument 1">
  <defs
     id="defs4" />
  <sodipodi:namedview
     id="base"
     pagecolor="#ffffff"
     bordercolor="#666666"
     borderopacity="1.0"
     inkscape:pageopacity="0.0"
     inkscape:pageshadow="2"
     inkscape:zoom="0.7"
     inkscape:cx="821.886"
     inkscape:cy="52.712726"
     inkscape:document-units="px"
     inkscape:current-layer="layer1"
     showgrid="false"
     width="1500px"
     inkscape:window-width="1678"
     inkscape:window-height="986"
     inkscape:window-x="0"
     inkscape:window-y="27"
     inkscape:window-maximized="1" />
  <metadata
     id="metadata7">
    <rdf:RDF>
      <cc:Work
         rdf:about="">
        <dc:format>image/svg+xml</dc:format>
        <dc:type
           rdf:resource="http://purl.org/dc/dcmitype/StillImage" />
        <dc:title></dc:title>
      </cc:Work>
    </rdf:RDF>
  </metadata>
  <g
     inkscape:label="Layer 1"
     inkscape:groupmode="layer"
     id="layer1"
     transform="translate(0,-552.3622)">
    <path
       style="fill:#bee300;fill-opacity:1"
       d="M -1.3317152e-5,552.36218 1500,552.36218 l 0,500.00002 -1500.000013317152,0 z"
       id="rect4041" />
    <g
       id="g3517"
       transform="matrix(0.68909514,0,0,0.68909514,4.1730399,176.07084)">
      <path
         style="fill:#dbdb00;fill-opacity:1"
         d="m 207.8063,1236.9604 c 0,15.3421 -28.49242,27.7792 -63.63961,27.7792 -35.14718,0 -63.63961,-12.4371 -63.63961,-27.7792 0,-15.342 28.49243,-27.7792 63.63961,-27.7792 35.14719,0 63.63961,12.4372 63.63961,27.7792 z"
         id="path4033"
         inkscape:connector-curvature="0" />
      <path
         style="fill:#dbdb00;fill-opacity:1"
         d="m 249.2225,1138.9756 c 0,12.6633 -23.51756,22.9289 -52.52794,22.9289 -29.01037,0 -52.52793,-10.2656 -52.52793,-22.9289 0,-12.6632 23.51756,-22.9288 52.52793,-22.9288 29.01038,0 52.52794,10.2656 52.52794,22.9288 z"
         id="path4035"
         inkscape:connector-curvature="0" />
      <path
         style="fill:#ffff00"
         d="m 122.14926,1058.6041 22.17298,-1.4955 11.76019,174.3603 -22.17298,1.4955 z"
         id="rect4029"
         inkscape:connector-curvature="0" />
      <path
         sodipodi:nodetypes="cccaac"
         inkscape:connector-curvature="0"
         id="rect4018"
         d="m 77.52329,972.23335 63.57143,58.57665 35,20.8628 c 0,0 -15.24451,34.5015 -30,39.3186 -8.60659,2.8097 -19.0193,-2.1328 -25.71429,-8.8266 C 93.78002,1055.5686 91.4871,1010.2332 77.52329,972.23335 z"
         style="fill:#ececec" />
      <path
         sodipodi:nodetypes="cccc"
         inkscape:connector-curvature="0"
         id="rect4021"
         d="M 106.791,557.63286 196.69457,703.09482 58.3037,755.62275 C 38.7963,527.80455 112.38559,559.65316 106.791,557.63286 z"
         style="fill:#ececec" />
      <path
         style="fill:#ffff00"
         inkscape:transform-center-x="0.72786158"
         inkscape:transform-center-y="8.0483695"
         d="m 189.88447,959.40964 22.21756,0.50768 -3.99224,174.71078 -22.21756,-0.5077 z"
         id="rect4031"
         inkscape:connector-curvature="0" />
      <path
         inkscape:connector-curvature="0"
         id="path3967"
         d="m 388.44961,1012.0093 c -56.79293,77.1008 -178.05623,79.7649 -270.84918,5.9503 C 24.8075,944.14512 -4.3763,821.80389 52.41661,744.70323 c 56.79292,-77.10087 178.05623,-79.76493 270.84917,-5.95037 92.79295,73.81443 121.97674,196.15566 65.18383,273.25644 z"
         style="fill:#f2f2f2" />
      <path
         sodipodi:nodetypes="sscss"
         inkscape:connector-curvature="0"
         id="rect3924"
         d="m 239.25837,685.38125 c 16.51045,-58.69709 158.2332,-88.06018 166.32852,-13.60116 17.8945,164.58965 2.22952,292.10739 2.22952,292.10739 -81.2057,111.52302 -148.63205,55.58952 -167.18023,3.03046 -20.65196,-58.52042 -26.11923,-193.57727 -1.37781,-281.53669 z"
         style="fill:#e6e6e6;fill-opacity:1" />
      <g
         transform="translate(-247.7726,-258.35363)"
         id="g3963">
        <path
           transform="matrix(1.1967213,0,0,1.1967213,-97.819197,-214.15938)"
           style="fill:#ff0000"
           d="m 543.46206,1093.7784 c 0,17.2947 -13.79395,31.3148 -30.80966,31.3148 -17.0157,0 -30.80965,-14.0201 -30.80965,-31.3148 0,-17.2946 13.79395,-31.3147 30.80965,-31.3147 17.01571,0 30.80966,14.0201 30.80966,31.3147 z"
           id="path3959"
           inkscape:connector-curvature="0" />
        <path
           transform="matrix(0.36904941,0.07725695,-0.22163968,1.0587525,704.27396,-118.51536)"
           style="fill:#ff0000"
           d="m 543.46206,1093.7784 c 0,17.2947 -13.79395,31.3148 -30.80966,31.3148 -17.0157,0 -30.80965,-14.0201 -30.80965,-31.3148 0,-17.2946 13.79395,-31.3147 30.80965,-31.3147 17.01571,0 30.80966,14.0201 30.80966,31.3147 z"
           id="path3961"
           inkscape:connector-curvature="0" />
      </g>
      <path
         sodipodi:nodetypes="sscsss"
         inkscape:connector-curvature="0"
         id="rect3919"
         d="m 354.01384,679.93099 c 17.12948,-0.45556 49.07961,64.53602 48.05474,68.69037 l -11.33876,45.96194 c -66.98707,-65.73179 -26.16618,-2.00556 -98.80922,-4.54569 -26.03997,-0.91055 17.9124,-29.31051 19.87826,-46.1263 2.65502,-22.71083 17.09476,-63.31225 42.21498,-63.98032 z"
         style="fill:#ff0000" />
      <path
         style="fill:#000000;fill-opacity:1;stroke:#000000;stroke-width:3.19834495;stroke-linecap:butt;stroke-miterlimit:4;stroke-opacity:1;stroke-dasharray:none"
         d="m 430.28322,643.43509 c 32.40702,59.76279 36.99126,128.68694 -44.09121,142.48906 99.08572,-21.95634 56.94599,-115.97646 44.09121,-142.48906 z"
         id="path3808"
         inkscape:connector-curvature="0"
         sodipodi:nodetypes="ccc" />
      <path
         sodipodi:nodetypes="sssccs"
         inkscape:connector-curvature="0"
         id="rect3146"
         d="m 341.39742,741.48374 4.46137,-21.86622 c 5.04724,-24.73771 60.04487,29.5457 59.51618,52.52793 -0.67395,29.29796 -8.6574,47.6323 -18.35798,45.20666 -36.91208,-5.0044 -25.51941,-26.63618 -78.53679,-45.96194 10.07034,-10.24771 28.7387,-9.4266 32.91722,-29.90643 z"
         style="fill:#ffff00" />
      <g
         transform="matrix(0.97089119,-0.23952099,0.23952099,0.97089119,-213.0344,193.31506)"
         id="g3935">
        <path
           style="fill:#ff0000"
           d="m 320,598.07646 c 0.66274,-11.89583 25.2976,-1.20046 35,5.71428 13.32228,9.49459 11.07717,25.17087 10.71429,39.28572 -0.46003,17.89361 -29.60945,28.51509 -42.14286,10 -6.89275,-10.18238 -5.1541,-26.59171 -3.57143,-55 z"
           id="rect3927"
           inkscape:connector-curvature="0"
           sodipodi:nodetypes="sssss" />
        <path
           style="fill:#ffff00"
           d="m 355.28874,623.39894 c 5.42063,9.22268 4.40898,19.75274 -2.25954,23.51952 -6.66853,3.76679 -16.46873,-0.6561 -21.88934,-9.8788 -5.42062,-9.22269 -4.40898,-19.75275 2.25954,-23.51953 6.66853,-3.76679 16.46873,0.65611 21.88934,9.87881 z"
           id="path3930"
           inkscape:connector-curvature="0" />
        <path
           transform="matrix(0.85714286,0,0,1,54.08163,-87.857143)"
           style="fill:#000000"
           d="m 343.57144,718.07648 c 0,4.33938 -3.35786,7.85714 -7.5,7.85714 -4.14213,0 -7.5,-3.51776 -7.5,-7.85714 0,-4.33938 3.35787,-7.85715 7.5,-7.85715 4.14214,0 7.5,3.51777 7.5,7.85715 z"
           id="path3933"
           inkscape:connector-curvature="0" />
      </g>
      <g
         transform="matrix(0.99818942,-0.06775721,0.06014881,1.1244533,-321.9258,50.34777)"
         id="g3951">
        <path
           style="fill:#ff0000"
           d="m 692.45955,628.09815 c 0,14.05887 -1.69598,25.45584 -3.78808,25.45584 -2.09208,0 -3.78806,-11.39697 -3.78806,-25.45584 0,-14.05888 1.69598,-25.45585 3.78806,-25.45585 2.0921,0 3.78808,11.39697 3.78808,25.45585 z"
           id="path3940"
           inkscape:connector-curvature="0" />
        <path
           style="fill:#ffff00"
           d="m 686.35294,613.25 c -0.59236,4.61596 -0.96875,10.02451 -0.96875,15.84375 0,4.30718 0.19377,8.4148 0.53125,12.125 2.59548,-1.65662 4.53125,-7.33195 4.53125,-14.125 0,-6.40878 -1.7216,-11.85687 -4.09375,-13.84375 z"
           id="path3943"
           inkscape:connector-curvature="0" />
        <path
           inkscape:connector-curvature="0"
           id="path3949"
           d="m 685.90712,619.31091 c -0.37842,2.94881 -0.61886,6.40394 -0.61886,10.12144 0,2.75154 0.12378,5.37561 0.33937,7.74579 1.65807,-1.0583 2.89469,-4.68386 2.89469,-9.02345 0,-4.09411 -1.0998,-7.5745 -2.6152,-8.84378 z"
           style="fill:#000000" />
      </g>
      <path
         sodipodi:nodetypes="zzzzz"
         inkscape:connector-curvature="0"
         id="rect3956"
         d="m 320.97215,622.28409 c 6.24983,-15.62491 -0.32854,-90.3137 25,-25 25.32855,65.31371 30.98199,67.94538 12.61204,76.21936 -18.36995,8.27398 -54.63873,-26.65616 -51.56599,-37.56472 3.07274,-10.90856 7.70412,1.97027 13.95395,-13.65464 z"
         style="fill:#ff0000" />
      <path
         sodipodi:nodetypes="ccc"
         inkscape:connector-curvature="0"
         id="rect3794"
         d="m 300.46712,641.50584 c -29.82663,61.23 -29.54835,130.49044 57.22565,140.9694 -106.41952,-17.90615 -68.84813,-113.86882 -57.22565,-140.9694 z"
         style="fill:#000000;fill-opacity:1;stroke:#000000;stroke-width:3.29733801;stroke-linecap:butt;stroke-miterlimit:4;stroke-opacity:1;stroke-dasharray:none" />
    </g>
  </g>
</svg>
