<?xml version="1.0" encoding="UTF-8" standalone="no"?>
<!-- Created with Inkscape (http://www.inkscape.org/) -->

<svg
   xmlns:dc="http://purl.org/dc/elements/1.1/"
   xmlns:cc="http://creativecommons.org/ns#"
   xmlns:rdf="http://www.w3.org/1999/02/22-rdf-syntax-ns#"
   xmlns:svg="http://www.w3.org/2000/svg"
   xmlns="http://www.w3.org/2000/svg"
   xmlns:sodipodi="http://sodipodi.sourceforge.net/DTD/sodipodi-0.dtd"
   xmlns:inkscape="http://www.inkscape.org/namespaces/inkscape"
   width="1280"
   height="1024"
   viewBox="0 0 1280 1024"
   id="svg2"
   version="1.1"
   inkscape:version="0.91 r13725"
   sodipodi:docname="through_the_wrhlm.svg"
   inkscape:export-filename="/home/sobkas/Obrazy/path4753.png"
   inkscape:export-xdpi="90"
   inkscape:export-ydpi="90">
  <sodipodi:namedview
     id="base"
     pagecolor="#000000"
     bordercolor="#666666"
     borderopacity="1.0"
     inkscape:pageopacity="1"
     inkscape:pageshadow="2"
     inkscape:zoom="0.5"
     inkscape:cx="196.25233"
     inkscape:cy="627.97255"
     inkscape:document-units="px"
     inkscape:current-layer="layer1"
     showgrid="false"
     units="px"
     inkscape:window-width="1678"
     inkscape:window-height="986"
     inkscape:window-x="0"
     inkscape:window-y="27"
     inkscape:window-maximized="1"
     showguides="true"
     inkscape:guide-bbox="true">
    <sodipodi:guide
       position="-1.4142136,830.14336"
       orientation="1,0"
       id="guide11702" />
    <sodipodi:guide
       position="234,998"
       orientation="0,1"
       id="guide11719" />
  </sodipodi:namedview>
  <defs
     id="defs4">
    <inkscape:path-effect
       effect="spiro"
       id="path-effect11639"
       is_visible="true" />
    <inkscape:path-effect
       effect="spiro"
       id="path-effect11635"
       is_visible="true" />
    <inkscape:path-effect
       effect="spiro"
       id="path-effect11631"
       is_visible="true" />
    <inkscape:path-effect
       effect="spiro"
       id="path-effect11627"
       is_visible="true" />
    <inkscape:path-effect
       effect="spiro"
       id="path-effect11621"
       is_visible="true" />
  </defs>
  <metadata
     id="metadata7">
    <rdf:RDF>
      <cc:Work
         rdf:about="">
        <dc:format>image/svg+xml</dc:format>
        <dc:type
           rdf:resource="http://purl.org/dc/dcmitype/StillImage" />
        <dc:title />
      </cc:Work>
    </rdf:RDF>
  </metadata>
  <g
     transform="translate(0,-28.362138)"
     id="layer1"
     inkscape:groupmode="layer"
     inkscape:label="Layer 1">
    <path
       sodipodi:nodetypes="cccc"
       inkscape:connector-curvature="0"
       id="rect4720"
       d="M -2.437478,1007.5879 C 158.93977,955.07341 211.03523,801.3526 263.16881,693.97787 202.39515,839.72022 271.02326,948.8843 425.66278,1052.5548 257.53295,997.88257 43.054071,995.95237 -2.437478,1007.5879 Z"
       style="opacity:1;fill:#800000;fill-opacity:1;stroke:none;stroke-width:4.69999981;stroke-linecap:butt;stroke-miterlimit:4;stroke-dasharray:none;stroke-opacity:1" />
    <ellipse
       transform="matrix(0.99287563,-0.1191553,0.71325335,0.70090631,0,0)"
       ry="231.32359"
       rx="61.456085"
       cy="1028.7906"
       cx="-339.91168"
       id="ellipse4164"
       style="opacity:1;fill:none;fill-opacity:1;stroke:#877d7d;stroke-width:22.63247681;stroke-linecap:butt;stroke-miterlimit:4;stroke-dasharray:none;stroke-opacity:1" />
    <ellipse
       style="opacity:1;fill:none;fill-opacity:1;stroke:#877d7d;stroke-width:22.33692169;stroke-linecap:butt;stroke-miterlimit:4;stroke-dasharray:none;stroke-opacity:1"
       id="ellipse4160"
       cx="-139.83185"
       cy="905.8631"
       rx="84.441238"
       ry="332.88074"
       transform="matrix(0.98689637,-0.16135536,0.71924971,0.69475165,0,0)" />
    <ellipse
       style="opacity:1;fill:none;fill-opacity:1;stroke:#877d7d;stroke-width:22.68297195;stroke-linecap:butt;stroke-miterlimit:4;stroke-dasharray:none;stroke-opacity:1"
       id="ellipse4168"
       cx="-439.59259"
       cy="1105.7129"
       rx="43.427315"
       ry="163.37163"
       transform="matrix(0.99852013,-0.05438336,0.6703204,0.7420718,0,0)" />
    <ellipse
       transform="matrix(0.98919035,-0.14663716,0.73576548,0.67723641,0,0)"
       ry="486.3176"
       rx="130.78738"
       cy="766.13202"
       cx="117.86609"
       id="path4244"
       style="opacity:1;fill:none;fill-opacity:1;stroke:#877d7d;stroke-width:28.34681511;stroke-linecap:butt;stroke-miterlimit:4;stroke-dasharray:none;stroke-opacity:1" />
    <ellipse
       transform="matrix(0.98884952,0.14891818,0.55351006,0.83284249,0,0)"
       ry="108.96545"
       rx="31.334917"
       cy="1183.522"
       cx="-443.94296"
       id="ellipse4738"
       style="opacity:1;fill:none;fill-opacity:1;stroke:#877d7d;stroke-width:17.42386818;stroke-linecap:butt;stroke-miterlimit:4;stroke-dasharray:none;stroke-opacity:1" />
    <path
       sodipodi:nodetypes="cccc"
       inkscape:connector-curvature="0"
       id="path4751"
       d="M 99.83676,1010.2458 C 295.54148,772.02371 498.88653,390.17645 668.54989,-75.556008 l -18.82358,-8.341409 C 534.50638,249.37062 293.53415,757.93356 99.83676,1010.2458 Z"
       style="opacity:1;fill:#00ff00;fill-opacity:1;stroke:none;stroke-width:15;stroke-linecap:butt;stroke-miterlimit:4;stroke-dasharray:none;stroke-opacity:1" />
    <path
       style="opacity:1;fill:#00ff00;fill-opacity:1;stroke:none;stroke-width:15;stroke-linecap:butt;stroke-miterlimit:4;stroke-dasharray:none;stroke-opacity:1"
       d="M 200.60702,1008.0099 C 432.94141,792.00696 886.67389,541.86131 1296.1053,342.68478 l 9.8219,18.09517 C 1008.8294,513.69258 446.4789,799.07512 200.60702,1008.0099 Z"
       id="path4753"
       inkscape:connector-curvature="0"
       sodipodi:nodetypes="cccc" />
    <path
       sodipodi:nodetypes="cccc"
       inkscape:connector-curvature="0"
       id="path4755"
       d="M 154.12298,1004.3171 C 335.89998,752.16217 819.72272,304.78875 1166.6213,-7.9420383 L 1180.201,7.533603 C 942.28531,249.73262 348.87892,747.96174 154.12298,1004.3171 Z"
       style="opacity:1;fill:#00ff00;fill-opacity:1;stroke:none;stroke-width:15;stroke-linecap:butt;stroke-miterlimit:4;stroke-dasharray:none;stroke-opacity:1" />
    <ellipse
       ry="232.63409"
       rx="239.38541"
       transform="matrix(-0.18059855,0.98355689,0.9866786,0.16268172,0,0)"
       cy="738.6861"
       cx="408.7616"
       id="path4138"
       style="opacity:1;fill:#beeaff;fill-opacity:0.97363467;stroke:none;stroke-width:4.69999981;stroke-linecap:butt;stroke-miterlimit:4;stroke-dasharray:none;stroke-opacity:1" />
    <ellipse
       transform="matrix(0.63417764,-0.77318738,0.77737792,0.62903383,0,0)"
       ry="105.09067"
       rx="64.884789"
       cy="830.73108"
       cx="161.83432"
       id="path4140"
       style="opacity:1;fill:#800000;fill-opacity:0.97363467;stroke:none;stroke-width:4.69999981;stroke-linecap:butt;stroke-miterlimit:4;stroke-dasharray:none;stroke-opacity:1"
       inkscape:transform-center-x="18.648132"
       inkscape:transform-center-y="20.503695" />
    <path
       sodipodi:nodetypes="csccscc"
       inkscape:connector-curvature="0"
       id="rect4190"
       d="m 108.9296,1002.2276 c 0,0 282.37217,-235.84096 310.50166,-288.83498 27.73028,-52.24189 9.46052,-82.04304 5.92402,-140.90891 l 183.24945,184.31175 c -33.87504,-5.11785 -100.78544,-27.92692 -144.2391,-4.46971 -63.77324,34.42614 -324.34538,251.23335 -324.34538,251.23335 -10.66251,-0.6084 -20.61541,-0.9851 -31.09065,-1.3315 z"
       style="opacity:1;fill:#beeaff;fill-opacity:0.97363467;stroke:none;stroke-width:4.69999981;stroke-linecap:butt;stroke-miterlimit:4;stroke-dasharray:none;stroke-opacity:1" />
    <path
       sodipodi:nodetypes="sccccscccc"
       inkscape:connector-curvature="0"
       id="rect4742"
       d="m 837.18349,833.98542 c -228.45273,44.57234 -461.92411,109.49072 -612.59644,176.78288 2.29764,0.2932 3.18905,0.4122 4.70905,0.5669 268.93736,-97.62766 720.67771,-207.3195 1060.4113,-214.15897 l -3.6892,-20.25493 c -123.9411,5.3907 -328.41847,33.57025 -448.83471,57.06412 z M 34.266043,1070.6176 c -1.885102,0.5544 -3.822904,1.1349 -5.698708,1.6847 1.881617,-0.5462 3.790935,-1.1119 5.682818,-1.6654 z"
       style="opacity:1;fill:#00ff00;fill-opacity:1;stroke:none;stroke-width:15;stroke-linecap:butt;stroke-miterlimit:4;stroke-dasharray:none;stroke-opacity:1" />
    <path
       style="opacity:1;fill:#00ff00;fill-opacity:1;stroke:none;stroke-width:15;stroke-linecap:butt;stroke-miterlimit:4;stroke-dasharray:none;stroke-opacity:1"
       d="M 89.727887,1002.6102 C 233.78618,728.30651 336.25698,443.03681 367.11407,1.9915576 l -20.12813,-4.331863 C 329.63142,346.2866 229.087,716.08419 89.727887,1002.6102 Z"
       id="path4745"
       inkscape:connector-curvature="0"
       sodipodi:nodetypes="cccc" />
    <path
       d="M 119.09697,1252.4281 A 130.78738,486.3176 0 0 1 -12.676924,795.84688 130.78738,486.3176 0 0 1 103.13566,282.9088"
       sodipodi:open="true"
       sodipodi:end="4.5995207"
       sodipodi:start="1.5613849"
       sodipodi:ry="486.3176"
       sodipodi:rx="130.78738"
       sodipodi:cy="766.13202"
       sodipodi:cx="117.86609"
       sodipodi:type="arc"
       style="opacity:1;fill:none;fill-opacity:1;stroke:#877d7d;stroke-width:28.34681511;stroke-linecap:butt;stroke-miterlimit:4;stroke-dasharray:none;stroke-opacity:1"
       id="ellipse4246"
       transform="matrix(0.98919035,-0.14663716,0.73576548,0.67723641,0,0)" />
    <path
       transform="matrix(0.98689637,-0.16135536,0.71924971,0.69475165,0,0)"
       id="path4162"
       style="opacity:1;fill:none;fill-opacity:1;stroke:#877d7d;stroke-width:22.33692169;stroke-linecap:butt;stroke-miterlimit:4;stroke-dasharray:none;stroke-opacity:1"
       sodipodi:type="arc"
       sodipodi:cx="-139.83185"
       sodipodi:cy="905.8631"
       sodipodi:rx="84.441238"
       sodipodi:ry="332.88074"
       sodipodi:start="1.4712606"
       sodipodi:end="4.5995207"
       sodipodi:open="true"
       d="m -131.4408,1237.0962 a 84.441238,332.88074 0 0 1 -92.35653,-295.94692 84.441238,332.88074 0 0 1 74.45497,-366.04884" />
    <path
       d="m -333.8047,1258.9693 a 61.456085,231.32359 0 0 1 -67.21682,-205.6578 61.456085,231.32359 0 0 1 54.18811,-254.37256"
       sodipodi:open="true"
       sodipodi:end="4.5995207"
       sodipodi:start="1.4712606"
       sodipodi:ry="231.32359"
       sodipodi:rx="61.456085"
       sodipodi:cy="1028.7906"
       sodipodi:cx="-339.91168"
       sodipodi:type="arc"
       style="opacity:1;fill:none;fill-opacity:1;stroke:#877d7d;stroke-width:22.63247681;stroke-linecap:butt;stroke-miterlimit:4;stroke-dasharray:none;stroke-opacity:1"
       id="path4166"
       transform="matrix(0.99287563,-0.1191553,0.71325335,0.70090631,0,0)" />
    <path
       transform="matrix(0.99852013,-0.05438336,0.6703204,0.7420718,0,0)"
       id="path4170"
       style="opacity:1;fill:none;fill-opacity:1;stroke:#877d7d;stroke-width:22.68297195;stroke-linecap:butt;stroke-miterlimit:4;stroke-dasharray:none;stroke-opacity:1"
       sodipodi:type="arc"
       sodipodi:cx="-439.59259"
       sodipodi:cy="1105.7129"
       sodipodi:rx="43.427315"
       sodipodi:ry="163.37163"
       sodipodi:start="1.4712606"
       sodipodi:end="4.5995207"
       sodipodi:open="true"
       d="m -435.27716,1268.2759 a 43.427315,163.37163 0 0 1 -47.49807,-145.2452 43.427315,163.37163 0 0 1 38.29147,-179.64993" />
    <path
       d="m -440.82917,1291.9481 a 31.334917,108.96545 0 0 1 -34.27216,-96.8755 31.334917,108.96545 0 0 1 27.62915,-119.8227"
       sodipodi:open="true"
       sodipodi:end="4.5995207"
       sodipodi:start="1.4712606"
       sodipodi:ry="108.96545"
       sodipodi:rx="31.334917"
       sodipodi:cy="1183.522"
       sodipodi:cx="-443.94296"
       sodipodi:type="arc"
       style="opacity:1;fill:none;fill-opacity:1;stroke:#877d7d;stroke-width:17.42386818;stroke-linecap:butt;stroke-miterlimit:4;stroke-dasharray:none;stroke-opacity:1"
       id="path4740"
       transform="matrix(0.98884952,0.14891818,0.55351006,0.83284249,0,0)" />
    <path
       style="opacity:1;fill:none;fill-opacity:1;stroke:none;stroke-width:4.69999981;stroke-linecap:butt;stroke-miterlimit:4;stroke-dasharray:none;stroke-opacity:1"
       d="M -220.94661,782.85765 C -40.274862,740.91055 6.332879,589.67209 62.667969,485.43415 -6.591327,627.34593 8.255957,749.25279 203.76239,852.95834 71.315237,778.31404 -153.88997,770.70421 -220.94661,782.85765 Z"
       id="path4775"
       inkscape:connector-curvature="0" />
    <path
       style="opacity:1;fill:none;fill-opacity:1;stroke:none;stroke-width:4.69999981;stroke-linecap:butt;stroke-miterlimit:4;stroke-dasharray:none;stroke-opacity:1"
       d="M-60.615336 1725.31717C-74.9150976455 1711.2427232 -75.950369474 1572.18469967 -75.352189447 1482.5493842C-76.1042672629 1606.21450417 -76.1275357088 1728.77864409 -74.615336 1873.21767C-75.6344710766 1771.07196358 -65.884906562 1723.4693113 -60.615336 1725.31717C-60.615336 1725.31717 -60.615336 1725.31717 -60.615336 1725.31717M-47.740336 1743.81727C-62.6168330134 1732.95577726 -67.2549410575 1592.079573 -64.9520706412 1502.49136098C-67.8474159803 1626.09725888 -67.9369947246 1748.65956654 -62.115336 1893.21767C-66.038797019 1790.99171221 -53.2224379169 1743.15340923 -47.740336 1743.81727C-47.740336 1743.81727 -47.740336 1743.81727 -47.740336 1743.81727M-69.551516 1712.31627C-52.5397031523 1720.62701815 -46.3743208524 1582.73845504 -40.2371578898 1478.21639633C-47.9532699443 1620.59827186 -48.6654811291 1713.3050063 -32.417682 1867.23197C-43.3677581798 1758.69194268 -63.282534012 1718.71752532 -69.551516 1712.31627C-69.551516 1712.31627 -69.551516 1712.31627 -69.551516 1712.31627"
       id="path5476" />
    <path
       id="path11637"
       style="fill:none;fill-rule:evenodd;stroke:#800000;stroke-width:1px;stroke-linecap:butt;stroke-linejoin:miter;stroke-opacity:1"
       inkscape:path-effect="#path-effect11639"
       inkscape:original-d="m 69.119688,919.24929 c 0.297889,5.35214 -1.723501,10.14834 -2.828427,13.96536 m 4.419417,-22.62742 c -5.565205,-0.10341 -6.279313,3.00635 -9.015612,6.54074 m 10.253049,-8.48528 c 3.94778,5.78713 5.517733,12.52397 5.126524,20.15254 m -4.242641,-25.27907 c 1.494672,9.13927 -2.426859,14.964 -6.717514,20.5061" />
    <ellipse
       style="opacity:1;fill:#000000;fill-opacity:1;stroke:#000000;stroke-width:2.00254464;stroke-linecap:butt;stroke-miterlimit:4;stroke-dasharray:none;stroke-opacity:1"
       id="path11650"
       cx="174.27443"
       cy="841.51208"
       rx="14.910623"
       ry="81.961975"
       transform="matrix(0.5791802,-0.81519954,0.77187482,0.63577454,0,0)" />
    <g
       id="g11704"
       transform="matrix(1.3164651,0,0,1.3345744,-250.23191,-325.87717)">
      <text
         xml:space="preserve"
         style="font-style:normal;font-variant:normal;font-weight:normal;font-stretch:normal;font-size:114.76363373px;line-height:125%;font-family:'Anonymous Pro';-inkscape-font-specification:'Anonymous Pro';letter-spacing:0px;word-spacing:0px;fill:#ffffff;fill-opacity:1;stroke:#ffffff;stroke-width:5.28107071;stroke-linecap:butt;stroke-linejoin:miter;stroke-miterlimit:4;stroke-dasharray:none;stroke-opacity:1"
         x="731.26239"
         y="1009.1939"
         id="text11656"
         sodipodi:linespacing="125%"><tspan
           sodipodi:role="line"
           id="tspan11658"
           x="731.26239"
           y="1009.1939"
           style="stroke-width:5.28107071">Xpander</tspan></text>
      <text
         sodipodi:linespacing="125%"
         id="text11652"
         y="1009.1939"
         x="731.26239"
         style="font-style:normal;font-variant:normal;font-weight:normal;font-stretch:normal;font-size:114.76363373px;line-height:125%;font-family:'Anonymous Pro';-inkscape-font-specification:'Anonymous Pro';letter-spacing:0px;word-spacing:0px;fill:#000000;fill-opacity:1;stroke:none;stroke-width:1px;stroke-linecap:butt;stroke-linejoin:miter;stroke-opacity:1"
         xml:space="preserve"><tspan
           y="1009.1939"
           x="731.26239"
           id="tspan11654"
           sodipodi:role="line">Xpander</tspan></text>
    </g>
    <g
       id="g11710"
       transform="matrix(0.94205208,0,0,1,8.5830429,12.5)">
      <g
         transform="matrix(0.94752466,0,0,1,-528.6194,-1099.3258)"
         id="g11672">
        <text
           xml:space="preserve"
           style="font-style:normal;font-variant:normal;font-weight:normal;font-stretch:normal;font-size:90px;line-height:125%;font-family:'Anonymous Pro';-inkscape-font-specification:'Anonymous Pro';letter-spacing:0px;word-spacing:0px;fill:#ffffff;fill-opacity:1;stroke:#ffffff;stroke-width:7.40909767;stroke-linecap:butt;stroke-linejoin:miter;stroke-miterlimit:4;stroke-dasharray:none;stroke-opacity:1"
           x="568.51385"
           y="1203.6831"
           id="text11660"
           sodipodi:linespacing="125%"><tspan
             style="stroke-width:7.40909767"
             sodipodi:role="line"
             id="tspan11662"
             x="568.51385"
             y="1203.6831">Through  the</tspan><tspan
             style="stroke-width:7.40909767"
             sodipodi:role="line"
             x="568.51385"
             y="1316.1831"
             id="tspan11664" /></text>
        <text
           sodipodi:linespacing="125%"
           id="text11666"
           y="1203.6831"
           x="568.51385"
           style="font-style:normal;font-variant:normal;font-weight:normal;font-stretch:normal;font-size:90px;line-height:125%;font-family:'Anonymous Pro';-inkscape-font-specification:'Anonymous Pro';letter-spacing:0px;word-spacing:0px;fill:#000000;fill-opacity:1;stroke:none;stroke-width:7;stroke-linecap:butt;stroke-linejoin:miter;stroke-miterlimit:4;stroke-dasharray:none;stroke-opacity:1"
           xml:space="preserve"><tspan
             y="1203.6831"
             x="568.51385"
             id="tspan11668"
             sodipodi:role="line">Through  the</tspan><tspan
             id="tspan11670"
             y="1316.1831"
             x="568.51385"
             sodipodi:role="line" /></text>
      </g>
    </g>
    <g
       transform="translate(-47.601072,-1017.9561)"
       id="g11680">
      <g
         id="g11694"
         transform="matrix(0.92359463,0,0,1,153.53464,-67.882251)">
        <text
           sodipodi:linespacing="125%"
           id="text11682"
           y="1203.6831"
           x="568.51385"
           style="font-style:normal;font-variant:normal;font-weight:normal;font-stretch:normal;font-size:90px;line-height:125%;font-family:'Anonymous Pro';-inkscape-font-specification:'Anonymous Pro';letter-spacing:0px;word-spacing:0px;fill:#ffffff;fill-opacity:1;stroke:#ffffff;stroke-width:7.28378868;stroke-linecap:butt;stroke-linejoin:miter;stroke-miterlimit:4;stroke-dasharray:none;stroke-opacity:1"
           xml:space="preserve"><tspan
             y="1203.6831"
             x="568.51385"
             id="tspan11684"
             sodipodi:role="line"
             style="stroke-width:7.28378868">Wormhole</tspan><tspan
             id="tspan11686"
             y="1316.1831"
             x="568.51385"
             sodipodi:role="line"
             style="stroke-width:7.28378868" /></text>
        <text
           xml:space="preserve"
           style="font-style:normal;font-variant:normal;font-weight:normal;font-stretch:normal;font-size:90px;line-height:125%;font-family:'Anonymous Pro';-inkscape-font-specification:'Anonymous Pro';letter-spacing:0px;word-spacing:0px;fill:#000000;fill-opacity:1;stroke:none;stroke-width:7;stroke-linecap:butt;stroke-linejoin:miter;stroke-miterlimit:4;stroke-dasharray:none;stroke-opacity:1"
           x="568.51385"
           y="1203.6831"
           id="text11688"
           sodipodi:linespacing="125%"><tspan
             sodipodi:role="line"
             id="tspan11690"
             x="568.51385"
             y="1203.6831">Wormhole</tspan><tspan
             sodipodi:role="line"
             x="568.51385"
             y="1316.1831"
             id="tspan11692" /></text>
      </g>
    </g>
  </g>
</svg>
